<?xml version="1.0" encoding="UTF-8"?>
<svg xmlns="http://www.w3.org/2000/svg" xmlns:xlink="http://www.w3.org/1999/xlink" version="1.2" >
<font id="UniversS 65 Bold">
<font-face  font-family="Univers" units-per-em="1000" ascent="721.924" descent="-191.895" font-style="normal" font-weight="700" font-stretch="normal" cap-height="750" x-height="500" underline-position="-75" underline-thickness="50" />
<missing-glyph  horiz-adv-x="278" d="" />
<glyph glyph-name="NULL" d="" />
<glyph glyph-name="CR" unicode="&#xd;" horiz-adv-x="250" d="" />
<glyph glyph-name="space" unicode="&#x20;" horiz-adv-x="278" d="" />
<glyph glyph-name="exclam" unicode="&#x21;" horiz-adv-x="388" d="M242 196 L261 722 L127 722 L146 196 L242 196 Z M130 0 L258 0 L258 133 L130 133 L130 0 Z " />
<glyph glyph-name="quotedbl" unicode="&#x22;" horiz-adv-x="474" d="M74 697 L101 450 L181 450 L208 697 L74 697 Z M266 697 L293 450 L373 450 L400 697 L266 697 Z " />
<glyph glyph-name="numbersign" unicode="&#x23;" horiz-adv-x="556" d="M195 181 L299 181 L266 0 L380 0 L413 181 L524 181 L524 279 L431 279 L457 419 L567 419 L567 517 L475 517 L508 698 L394 698 L361 517 L257 517 L290 698 L176 698 L143 517 L32 517 L32 419 L125 419 L99 279 L-11 279 L-11 181 L81 181 L48 0 L162 0 L195 181 Z M213 279 L239 419 L343 419 L317 279 L213 279 Z " />
<glyph glyph-name="dollar" unicode="&#x24;" horiz-adv-x="556" d="M29 215 C30 76 104 0 249 -2 L249 -102 L302 -102 L302 -2 C410 0 527 73 527 202 C527 345 421 379 309 407 L309 585 C353 580 384 567 387 493 L521 493 C520 526 519 582 471 630 C424 677 364 686 311 690 L311 772 L256 772 L256 688 C219 684 151 679 94 617 C51 570 43 521 43 485 C43 350 143 311 250 281 L250 104 C229 104 162 115 165 215 L29 215 Z M255 422 C216 434 179 448 179 505 C179 547 203 580 255 583 L255 422 Z M304 270 C362 254 385 229 385 187 C385 134 345 106 304 102 L304 270 Z " />
<glyph glyph-name="percent" unicode="&#x25;" horiz-adv-x="889" d="M212 350 C303 350 379 416 379 528 C379 625 323 707 212 707 C101 707 45 625 45 528 C45 416 121 350 212 350 L212 350 Z M212 424 C178 424 154 455 154 528 C154 595 172 633 212 633 C252 633 270 595 270 528 C270 455 246 424 212 424 L212 424 Z M677 -15 C768 -15 844 51 844 163 C844 260 788 342 677 342 C566 342 510 260 510 163 C510 51 586 -15 677 -15 L677 -15 Z M677 59 C643 59 619 90 619 163 C619 230 637 268 677 268 C717 268 735 230 735 163 C735 90 711 59 677 59 L677 59 Z M593 717 L213 -23 L288 -23 L668 717 L593 717 Z " />
<glyph glyph-name="ampersand" unicode="&#x26;" horiz-adv-x="778" d="M559 448 C559 372 558 327 530 251 L384 396 C422 417 524 471 524 581 C524 632 495 737 308 737 C111 737 87 618 87 575 C87 494 150 444 174 424 C149 408 112 386 75 341 C31 287 23 235 23 201 C23 63 139 -15 296 -15 C418 -15 484 34 530 68 L589 0 L773 0 L626 152 C686 246 707 328 707 448 L559 448 Z M308 642 C352 642 380 616 380 577 C380 530 328 488 307 473 C297 481 235 535 235 579 C235 617 264 642 308 642 L308 642 Z M439 147 C406 121 353 94 306 94 C240 94 179 137 179 212 C179 266 213 301 257 330 L439 147 Z " />
<glyph glyph-name="quotesingle" unicode="&#x27;" horiz-adv-x="238" d="M52 697 L79 450 L159 450 L186 697 L52 697 Z " />
<glyph glyph-name="parenleft" unicode="&#x28;" horiz-adv-x="333" d="M164 750 C108 607 62 458 62 304 C62 154 106 9 163 -130 L272 -130 C213 75 185 175 185 309 C185 488 240 650 273 750 L164 750 Z " />
<glyph glyph-name="parenright" unicode="&#x29;" horiz-adv-x="333" d="M169 -130 C225 14 271 163 271 317 C271 466 227 612 170 750 L61 750 C120 545 148 446 148 311 C148 132 93 -30 60 -130 L169 -130 Z " />
<glyph glyph-name="asterisk" unicode="&#x2a;" horiz-adv-x="556" d="M71 465 L222 485 L129 363 L219 309 L277 451 L335 310 L428 361 L334 484 L483 461 L485 567 L332 549 L430 667 L337 722 L278 581 L222 719 L129 668 L223 549 L71 571 L71 465 Z " />
<glyph glyph-name="plus" unicode="&#x2b;" horiz-adv-x="584" d="M225 0 L359 0 L359 202 L558 202 L558 331 L359 331 L359 533 L225 533 L225 331 L26 331 L26 202 L225 202 L225 0 Z " />
<glyph glyph-name="comma" unicode="&#x2c;" horiz-adv-x="278" d="M82 133 L8 -114 L111 -114 L230 133 L82 133 Z " />
<glyph glyph-name="hyphen" unicode="&#x2d;" horiz-adv-x="333" d="M44 208 L292 208 L292 321 L44 321 L44 208 Z " />
<glyph glyph-name="period" unicode="&#x2e;" horiz-adv-x="278" d="M75 0 L203 0 L203 133 L75 133 L75 0 Z " />
<glyph glyph-name="slash" unicode="&#x2f;" horiz-adv-x="278" d="M217 718 L-54 0 L63 0 L332 718 L217 718 Z " />
<glyph glyph-name="zero" unicode="0" horiz-adv-x="556" d="M278 707 C53 707 34 439 34 346 C34 157 96 -15 278 -15 C460 -15 522 157 522 346 C522 439 503 707 278 707 L278 707 Z M278 589 C368 589 370 427 370 336 C370 214 352 103 278 103 C204 103 186 214 186 336 C186 427 188 589 278 589 L278 589 Z " />
<glyph glyph-name="one" unicode="1" horiz-adv-x="556" d="M95 454 C171 485 229 521 258 543 L258 0 L409 0 L409 698 L280 698 C222 656 160 621 95 593 L95 454 Z " />
<glyph glyph-name="two" unicode="2" horiz-adv-x="556" d="M25 0 L515 0 L515 116 L181 109 C483 352 511 445 511 517 C511 625 427 707 275 707 C139 707 35 646 35 500 L188 500 C189 520 196 602 276 602 C328 602 359 566 359 513 C359 440 256 351 206 306 L25 141 L25 0 Z " />
<glyph glyph-name="three" unicode="3" horiz-adv-x="556" d="M36 190 C36 43 130 -15 268 -15 C413 -15 521 73 521 191 C521 281 462 333 381 359 C412 368 515 400 515 517 C515 593 458 707 280 707 C206 707 132 686 86 630 C51 587 48 543 45 512 L198 512 C198 570 240 599 283 599 C328 599 369 571 369 516 C369 416 266 414 196 412 L196 295 C269 295 368 295 368 192 C368 138 334 97 278 97 C195 97 189 168 188 190 L36 190 Z " />
<glyph glyph-name="four" unicode="4" horiz-adv-x="556" d="M296 152 L296 0 L444 0 L444 152 L539 152 L539 267 L444 267 L445 698 L296 698 L16 287 L16 152 L296 152 Z M306 525 C305 507 304 457 304 448 L304 264 L128 264 L306 525 Z " />
<glyph glyph-name="five" unicode="5" horiz-adv-x="556" d="M37 172 C42 40 150 -15 271 -15 C450 -15 520 119 520 238 C520 378 426 460 314 460 C237 460 204 429 182 410 L191 584 L482 584 L482 698 L59 698 L43 284 L188 280 C193 296 210 350 277 350 C344 350 370 292 370 225 C370 133 321 94 267 94 C197 94 184 156 185 172 L37 172 Z " />
<glyph glyph-name="six" unicode="6" horiz-adv-x="556" d="M520 525 C517 653 417 707 312 707 C74 707 38 497 38 303 C38 126 86 -15 286 -15 C427 -15 531 82 531 233 C531 385 428 454 331 454 C258 454 215 426 194 398 C196 470 199 595 299 595 C336 595 369 576 372 525 L520 525 Z M288 97 C239 97 193 133 193 219 C193 287 224 342 289 342 C348 342 384 299 384 222 C384 127 331 97 288 97 L288 97 Z " />
<glyph glyph-name="seven" unicode="7" horiz-adv-x="556" d="M37 582 L358 582 L103 0 L270 0 L510 574 L510 698 L37 698 L37 582 Z " />
<glyph glyph-name="eight" unicode="8" horiz-adv-x="556" d="M29 189 C29 60 149 -15 278 -15 C407 -15 527 60 527 189 C527 284 469 340 382 365 C452 376 518 434 518 518 C518 627 421 707 278 707 C135 707 38 627 38 518 C38 434 104 376 174 365 C87 340 29 284 29 189 L29 189 Z M278 420 C223 420 188 461 188 510 C188 563 229 597 278 597 C327 597 368 563 368 510 C368 461 333 420 278 420 L278 420 Z M179 199 C179 262 226 300 278 300 C330 300 377 262 377 199 C377 120 320 92 278 92 C236 92 179 120 179 199 L179 199 Z " />
<glyph glyph-name="nine" unicode="9" horiz-adv-x="556" d="M33 170 C32 48 110 -15 249 -15 C418 -15 518 69 518 366 C518 528 486 707 272 707 C118 707 25 607 25 477 C25 394 69 258 240 258 C271 258 316 261 366 306 C369 205 361 97 257 97 C215 97 187 123 183 170 L33 170 Z M363 487 C363 416 327 370 267 370 C200 370 173 426 173 483 C173 538 199 595 270 595 C331 595 363 550 363 487 L363 487 Z " />
<glyph glyph-name="colon" unicode="&#x3a;" horiz-adv-x="278" d="M75 0 L203 0 L203 133 L75 133 L75 0 Z M75 370 L203 370 L203 503 L75 503 L75 370 Z " />
<glyph glyph-name="semicolon" unicode="&#x3b;" horiz-adv-x="278" d="M75 370 L203 370 L203 503 L75 503 L75 370 Z M82 133 L8 -114 L111 -114 L230 133 L82 133 Z " />
<glyph glyph-name="less" unicode="&#x3c;" horiz-adv-x="584" d="M26 200 L558 -7 L558 134 L186 267 L558 400 L558 540 L26 334 L26 200 Z " />
<glyph glyph-name="equal" unicode="&#x3d;" horiz-adv-x="584" d="M26 318 L558 318 L558 447 L26 447 L26 318 Z M26 86 L558 86 L558 215 L26 215 L26 86 Z " />
<glyph glyph-name="greater" unicode="&#x3e;" horiz-adv-x="584" d="M558 334 L26 540 L26 400 L398 267 L26 134 L26 -7 L558 200 L558 334 Z " />
<glyph glyph-name="question" unicode="&#x3f;" horiz-adv-x="500" d="M256 162 L256 243 C256 276 263 291 316 339 L373 390 C420 432 453 485 453 549 C453 683 333 736 215 736 C135 736 84 726 46 716 L46 612 C101 627 133 636 179 636 C291 636 299 561 299 537 C299 487 263 437 223 392 L179 343 C142 301 142 277 142 255 L142 162 L256 162 Z M139 0 L259 0 L259 120 L139 120 L139 0 Z " />
<glyph glyph-name="at" unicode="&#x40;" horiz-adv-x="800" d="M686 138 C565 45 464 43 419 43 C232 43 100 159 100 351 C100 562 252 679 430 679 C555 679 700 617 700 441 C700 325 634 248 583 248 C566 248 549 259 549 283 C549 301 556 325 562 344 L622 550 L523 550 L510 505 C492 549 450 566 405 566 C291 566 206 446 206 329 C206 232 264 176 340 176 C379 176 435 190 473 261 C477 209 515 182 566 182 C682 182 769 299 769 436 C769 635 610 737 432 737 C217 737 31 590 31 355 C31 136 189 -15 415 -15 C516 -15 607 11 720 93 L686 138 Z M324 314 C324 403 376 494 429 494 C462 494 478 470 478 447 C478 443 468 366 441 308 C431 286 411 248 374 248 C326 248 324 304 324 314 L324 314 Z " />
<glyph glyph-name="A" unicode="A" horiz-adv-x="722" d="M274 722 L13 0 L161 0 L215 156 L501 156 L553 0 L709 0 L458 722 L274 722 Z M255 273 L362 581 L462 273 L255 273 Z " />
<glyph glyph-name="B" unicode="B" horiz-adv-x="665" d="M68 0 L338 0 C366 0 464 0 520 29 C576 57 626 114 626 199 C626 275 583 355 473 375 L473 377 C547 396 597 458 597 534 C597 576 582 646 516 688 C461 722 380 722 338 722 L68 722 L68 0 Z M216 611 L321 611 C372 611 448 611 448 521 C448 428 368 428 324 428 L216 428 L216 611 Z M216 317 L305 317 C379 317 472 316 472 213 C472 116 392 116 321 116 L216 116 L216 317 Z " />
<glyph glyph-name="C" unicode="C" horiz-adv-x="667" d="M640 494 C640 640 532 737 374 737 C171 737 43 583 43 351 C43 171 124 -15 373 -15 C536 -15 643 81 648 237 L486 237 C483 139 421 97 356 97 C252 97 205 198 205 350 C205 504 253 625 368 625 C473 625 482 521 485 494 L640 494 Z " />
<glyph glyph-name="D" unicode="D" horiz-adv-x="720" d="M68 0 L332 0 C536 0 678 124 678 368 C678 611 536 722 296 722 L68 722 L68 0 Z M223 602 L295 602 C452 602 518 522 518 371 C518 337 514 229 453 168 C413 128 362 120 285 120 L223 120 L223 602 Z " />
<glyph glyph-name="E" unicode="E" horiz-adv-x="609" d="M68 0 L563 0 L563 118 L223 118 L223 314 L531 314 L531 432 L223 432 L223 604 L552 604 L552 722 L68 722 L68 0 Z " />
<glyph glyph-name="F" unicode="F" horiz-adv-x="554" d="M68 0 L223 0 L223 308 L513 308 L513 426 L223 426 L223 604 L534 604 L534 722 L68 722 L68 0 Z " />
<glyph glyph-name="G" unicode="G" horiz-adv-x="778" d="M715 497 C714 536 711 592 663 647 C606 711 510 737 417 737 C198 737 38 601 38 348 C38 86 195 -15 441 -15 C586 -15 660 10 705 25 L705 380 L410 380 L410 264 L550 264 L550 111 C533 106 507 97 432 97 C268 97 200 193 200 352 C200 463 235 625 413 625 C497 625 548 583 553 497 L715 497 Z " />
<glyph glyph-name="H" unicode="H" horiz-adv-x="720" d="M68 0 L223 0 L223 317 L497 317 L497 0 L652 0 L652 722 L495 722 L495 434 L223 434 L223 722 L68 722 L68 0 Z " />
<glyph glyph-name="I" unicode="I" horiz-adv-x="291" d="M68 0 L223 0 L223 722 L68 722 L68 0 Z " />
<glyph glyph-name="J" unicode="J" horiz-adv-x="554" d="M9 233 C13 80 77 -8 235 -8 C406 -8 486 104 486 260 L486 722 L331 722 L331 279 C331 168 324 105 246 105 C182 105 163 155 161 233 L9 233 Z " />
<glyph glyph-name="K" unicode="K" horiz-adv-x="665" d="M68 0 L223 0 L223 368 L476 0 L669 0 L381 399 L646 722 L465 722 L223 410 L223 722 L68 722 L68 0 Z " />
<glyph glyph-name="L" unicode="L" horiz-adv-x="554" d="M68 0 L536 0 L536 123 L223 123 L223 722 L68 722 L68 0 Z " />
<glyph glyph-name="M" unicode="M" horiz-adv-x="953" d="M68 0 L213 0 L213 620 L406 0 L534 0 L730 620 L730 0 L885 0 L885 722 L639 722 L474 197 L321 722 L68 722 L68 0 Z " />
<glyph glyph-name="N" unicode="N" horiz-adv-x="776" d="M68 0 L213 0 L213 600 L494 0 L708 0 L708 722 L563 722 L563 154 L292 722 L68 722 L68 0 Z " />
<glyph glyph-name="O" unicode="O" horiz-adv-x="778" d="M389 -15 C621 -15 735 149 735 369 C735 587 615 737 389 737 C163 737 43 587 43 369 C43 149 157 -15 389 -15 L389 -15 Z M205 370 C205 487 245 625 389 625 C533 625 573 487 573 370 C573 244 541 97 389 97 C237 97 205 244 205 370 L205 370 Z " />
<glyph glyph-name="P" unicode="P" horiz-adv-x="609" d="M68 0 L223 0 L223 282 L330 282 C368 282 441 282 494 316 C551 353 586 424 586 508 C586 677 453 722 313 722 L68 722 L68 0 Z M219 606 L297 606 C369 606 424 588 424 508 C424 398 331 398 281 398 L219 398 L219 606 Z " />
<glyph glyph-name="Q" unicode="Q" horiz-adv-x="778" d="M770 111 C708 114 641 110 608 104 C642 136 717 209 717 373 C717 610 578 737 389 737 C163 737 43 587 43 369 C43 222 110 -11 361 -11 C378 -11 426 -8 475 -5 C524 -3 574 0 592 0 C639 0 725 -1 770 -2 L770 111 Z M205 365 C205 495 251 625 387 625 C525 625 562 491 562 375 C562 255 534 97 382 97 C235 97 205 259 205 365 L205 365 Z " />
<glyph glyph-name="R" unicode="R" horiz-adv-x="665" d="M68 0 L223 0 L223 292 L359 292 C385 292 423 292 437 251 C447 223 469 40 476 0 L647 0 C623 38 617 93 603 192 C590 286 582 348 473 358 C508 368 624 400 624 540 C624 581 603 637 563 671 C511 715 461 722 353 722 L68 722 L68 0 Z M219 606 L331 606 C407 606 462 587 462 511 C462 438 410 408 343 408 L219 408 L219 606 Z " />
<glyph glyph-name="S" unicode="S" horiz-adv-x="667" d="M39 233 C40 163 42 -15 319 -15 C520 -15 628 90 628 220 C628 361 505 394 380 425 C276 451 223 463 223 530 C223 589 270 628 342 628 C449 628 457 543 459 518 L608 518 C608 670 493 737 349 737 C148 737 63 632 63 513 C63 388 157 337 329 294 C421 272 466 261 466 197 C466 136 413 96 328 96 C195 96 197 199 197 233 L39 233 Z " />
<glyph glyph-name="T" unicode="T" horiz-adv-x="611" d="M228 0 L383 0 L383 602 L598 602 L598 722 L13 722 L13 602 L228 602 L228 0 Z " />
<glyph glyph-name="U" unicode="U" horiz-adv-x="762" d="M694 722 L539 722 L539 279 C539 200 533 101 381 101 C229 101 223 200 223 279 L223 722 L68 722 L68 265 C68 82 184 -15 381 -15 C578 -15 694 82 694 265 L694 722 Z " />
<glyph glyph-name="V" unicode="V" horiz-adv-x="722" d="M11 722 L277 0 L446 0 L711 722 L558 722 L369 153 L180 722 L11 722 Z " />
<glyph glyph-name="W" unicode="W" horiz-adv-x="1000" d="M11 722 L186 0 L362 0 L503 552 L634 0 L806 0 L989 722 L841 722 L725 181 L598 722 L423 722 L282 181 L171 722 L11 722 Z " />
<glyph glyph-name="X" unicode="X" horiz-adv-x="722" d="M33 722 L270 374 L16 0 L182 0 L355 272 L516 0 L706 0 L454 375 L692 722 L526 722 L370 477 L224 722 L33 722 Z " />
<glyph glyph-name="Y" unicode="Y" horiz-adv-x="667" d="M11 722 L257 265 L257 0 L412 0 L412 263 L656 722 L497 722 L343 391 L192 722 L11 722 Z " />
<glyph glyph-name="Z" unicode="Z" horiz-adv-x="611" d="M28 0 L583 0 L583 119 L197 113 L574 585 L574 722 L51 722 L51 605 L406 607 L28 132 L28 0 Z " />
<glyph glyph-name="bracketleft" unicode="&#x5b;" horiz-adv-x="333" d="M287 750 L58 750 L58 -125 L287 -125 L287 -32 L178 -32 L178 658 L287 658 L287 750 Z " />
<glyph glyph-name="backslash" unicode="&#x5c;" horiz-adv-x="278" d="M-54 718 L215 0 L332 0 L61 718 L-54 718 Z " />
<glyph glyph-name="bracketright" unicode="&#x5d;" horiz-adv-x="333" d="M46 658 L155 658 L155 -32 L46 -32 L46 -125 L275 -125 L275 750 L46 750 L46 658 Z " />
<glyph glyph-name="asciicircum" unicode="&#x5e;" horiz-adv-x="584" d="M51 264 L189 264 L289 536 L392 264 L530 264 L349 697 L232 697 L51 264 Z " />
<glyph glyph-name="underscore" unicode="&#x5f;" horiz-adv-x="500" d="M0 -125 L500 -125 L500 -75 L0 -75 L0 -125 Z " />
<glyph glyph-name="grave" unicode="&#x60;" horiz-adv-x="278" d="M143 730 L3 730 L142 585 L227 585 L143 730 Z " />
<glyph glyph-name="a" unicode="a" horiz-adv-x="554" d="M503 0 C494 39 491 82 491 125 L490 328 C489 466 405 517 275 517 C165 517 66 475 65 357 L210 357 C210 399 232 430 277 430 C345 430 350 375 350 321 C224 321 43 303 43 136 C43 31 116 -15 213 -15 C270 -15 326 5 364 66 C364 51 364 28 369 0 L503 0 Z M187 153 C187 213 255 243 350 235 C350 172 343 81 259 81 C210 81 187 119 187 153 L187 153 Z " />
<glyph glyph-name="b" unicode="b" horiz-adv-x="622" d="M217 722 L69 722 L69 82 C69 52 67 19 65 0 L212 0 C215 31 216 55 217 71 C263 -8 343 -10 369 -10 C469 -10 579 56 579 245 C579 415 482 512 360 512 C334 512 267 510 217 444 L217 722 Z M429 241 C429 215 429 88 327 88 C260 88 211 143 211 258 C211 290 211 414 320 414 C427 414 429 281 429 241 L429 241 Z " />
<glyph glyph-name="c" unicode="c" horiz-adv-x="521" d="M485 325 C484 464 373 517 279 517 C212 517 43 484 43 251 C43 95 116 -18 279 -18 C406 -18 486 58 488 180 L343 180 C341 133 321 82 274 82 C217 82 198 167 198 256 C198 345 219 417 275 417 C322 417 338 368 340 325 L485 325 Z " />
<glyph glyph-name="d" unicode="d" horiz-adv-x="622" d="M553 722 L405 722 L405 444 C355 510 288 512 262 512 C140 512 43 415 43 245 C43 56 153 -10 253 -10 C279 -10 359 -8 405 71 C406 55 407 31 410 0 L557 0 C555 19 553 52 553 82 L553 722 Z M193 241 C193 281 195 414 302 414 C411 414 411 290 411 258 C411 143 362 88 295 88 C193 88 193 215 193 241 L193 241 Z " />
<glyph glyph-name="e" unicode="e" horiz-adv-x="567" d="M523 213 C531 369 470 517 290 517 C123 517 43 390 43 239 C43 81 119 -18 286 -18 C410 -18 498 29 511 149 L376 149 C362 95 325 82 288 82 C214 82 184 124 185 213 L523 213 Z M190 307 C193 363 220 417 285 417 C371 417 373 330 373 307 L190 307 Z " />
<glyph glyph-name="f" unicode="f" horiz-adv-x="333" d="M75 0 L222 0 L222 400 L316 400 L316 505 L222 505 L222 564 C222 590 222 630 298 630 C310 630 314 629 329 627 L329 730 C287 735 259 735 249 735 C105 735 75 663 75 574 L75 505 L0 505 L0 400 L75 400 L75 0 Z " />
<glyph glyph-name="g" unicode="g" horiz-adv-x="609" d="M405 505 L400 438 C385 462 351 512 259 512 C114 512 43 390 43 260 C43 138 111 12 256 12 C292 12 345 19 392 81 C391 4 391 -14 385 -39 C375 -84 337 -105 293 -105 C214 -105 207 -50 205 -35 L63 -35 C72 -188 213 -197 285 -197 C382 -197 540 -179 540 7 L540 423 C540 453 542 486 544 505 L405 505 Z M191 260 C191 368 237 411 293 411 C383 411 394 312 394 257 C394 235 394 113 290 113 C191 113 191 235 191 260 L191 260 Z " />
<glyph glyph-name="h" unicode="h" horiz-adv-x="611" d="M69 0 L217 0 L217 309 C217 388 270 412 312 412 C394 412 394 331 394 302 L394 0 L542 0 L542 307 C542 426 488 512 362 512 C270 512 233 460 217 436 L217 722 L69 722 L69 0 Z " />
<glyph glyph-name="i" unicode="i" horiz-adv-x="286" d="M64 593 L222 593 L222 722 L64 722 L64 593 Z M69 0 L217 0 L217 505 L69 505 L69 0 Z " />
<glyph glyph-name="j" unicode="j" horiz-adv-x="286" d="M-3 -194 C19 -198 39 -198 47 -198 C173 -198 212 -140 212 -45 L212 505 L64 505 L64 -8 C64 -34 64 -97 -3 -94 L-3 -194 Z M59 593 L217 593 L217 722 L59 722 L59 593 Z " />
<glyph glyph-name="k" unicode="k" horiz-adv-x="556" d="M69 0 L217 0 L217 275 L373 0 L548 0 L364 288 L537 505 L370 505 L217 297 L217 722 L69 722 L69 0 Z " />
<glyph glyph-name="l" unicode="l" horiz-adv-x="286" d="M69 0 L217 0 L217 722 L69 722 L69 0 Z " />
<glyph glyph-name="m" unicode="m" horiz-adv-x="936" d="M69 0 L217 0 L217 309 C217 388 270 412 312 412 C394 412 394 331 394 302 L394 0 L542 0 L542 309 C542 388 595 412 637 412 C719 412 719 331 719 302 L719 0 L867 0 L867 298 C867 370 864 403 836 446 C811 484 760 519 692 519 C632 519 568 502 529 427 C515 462 473 519 376 519 C266 519 226 454 212 431 L208 505 L65 505 C67 472 69 444 69 415 L69 0 Z " />
<glyph glyph-name="n" unicode="n" horiz-adv-x="611" d="M69 0 L217 0 L217 309 C217 388 270 412 312 412 C394 412 394 331 394 302 L394 0 L542 0 L542 273 C542 352 541 393 530 424 C517 459 475 519 376 519 C266 519 226 454 212 431 L208 505 L65 505 C67 472 69 444 69 415 L69 0 Z " />
<glyph glyph-name="o" unicode="o" horiz-adv-x="607" d="M300 -18 C482 -18 564 110 564 252 C564 393 485 517 303 517 C105 517 43 370 43 248 C43 71 156 -18 300 -18 L300 -18 Z M305 83 C231 83 193 132 193 245 C193 291 194 416 303 416 C401 416 414 323 414 256 C414 122 370 83 305 83 L305 83 Z " />
<glyph glyph-name="p" unicode="p" horiz-adv-x="622" d="M69 -192 L217 -192 L217 58 C267 -8 334 -10 360 -10 C482 -10 579 87 579 257 C579 446 469 512 369 512 C343 512 263 510 217 431 C216 447 215 471 212 505 L65 505 C67 486 69 453 69 423 L69 -192 Z M429 261 C429 221 427 88 320 88 C211 88 211 212 211 244 C211 359 260 414 327 414 C429 414 429 287 429 261 L429 261 Z " />
<glyph glyph-name="q" unicode="q" horiz-adv-x="622" d="M405 -192 L553 -192 L553 423 C553 453 555 486 557 505 L410 505 C407 471 406 447 405 431 C359 510 279 512 253 512 C153 512 43 446 43 257 C43 87 140 -10 262 -10 C288 -10 355 -8 405 58 L405 -192 Z M193 261 C193 287 193 414 295 414 C362 414 411 359 411 244 C411 212 411 88 302 88 C195 88 193 221 193 261 L193 261 Z " />
<glyph glyph-name="r" unicode="r" horiz-adv-x="389" d="M69 0 L217 0 L217 249 C217 306 227 377 337 377 C349 377 362 376 376 375 L376 508 C256 514 223 453 204 410 L201 505 L65 505 C67 472 69 444 69 415 L69 0 Z " />
<glyph glyph-name="s" unicode="s" horiz-adv-x="498" d="M28 146 C33 25 132 -18 238 -18 C395 -18 470 69 470 156 C470 225 427 272 335 297 L244 322 C200 334 175 341 175 375 C175 406 205 425 245 425 C272 425 289 419 300 408 C311 398 315 384 317 368 L452 368 C448 469 364 517 260 517 C129 517 39 457 39 358 C39 253 126 228 167 216 L259 191 C317 175 329 157 329 134 C329 104 304 74 251 74 C189 74 169 111 167 146 L28 146 Z " />
<glyph glyph-name="t" unicode="t" horiz-adv-x="387" d="M361 104 C343 102 333 101 311 101 C245 101 245 130 244 176 L244 400 L364 400 L364 505 L244 505 L244 655 L97 601 L97 505 L0 505 L0 400 L97 400 L97 127 C97 85 97 -9 246 -9 C270 -9 313 -6 361 7 L361 104 Z " />
<glyph glyph-name="u" unicode="u" horiz-adv-x="611" d="M542 505 L394 505 L394 198 C394 119 353 95 299 95 C217 95 217 154 217 205 L217 505 L69 505 L69 234 C69 155 70 114 85 83 C107 37 157 -10 249 -10 C345 -10 385 41 399 64 L403 0 L546 0 C544 35 542 63 542 92 L542 505 Z " />
<glyph glyph-name="v" unicode="v" horiz-adv-x="554" d="M12 505 L197 0 L361 0 L542 505 L399 505 L284 162 L170 505 L12 505 Z " />
<glyph glyph-name="w" unicode="w" horiz-adv-x="887" d="M8 505 L173 0 L336 0 L442 374 L546 0 L707 0 L879 505 L732 505 L634 124 L528 505 L365 505 L258 124 L165 505 L8 505 Z " />
<glyph glyph-name="x" unicode="x" horiz-adv-x="554" d="M17 505 L179 271 L10 0 L165 0 L268 185 L370 0 L544 0 L376 259 L540 505 L386 505 L287 340 L192 505 L17 505 Z " />
<glyph glyph-name="y" unicode="y" horiz-adv-x="554" d="M12 505 L206 -2 L142 -192 L291 -192 L352 9 L542 505 L399 505 L284 162 L170 505 L12 505 Z " />
<glyph glyph-name="z" unicode="z" horiz-adv-x="498" d="M34 0 L464 0 L464 102 L199 102 L455 378 L455 505 L41 505 L41 406 L290 406 L34 130 L34 0 Z " />
<glyph glyph-name="braceleft" unicode="&#x7b;" horiz-adv-x="333" d="M103 476 C103 426 95 399 68 375 C42 352 4 343 -15 341 L-15 255 C103 237 103 172 103 120 L103 85 C103 -30 121 -62 153 -91 C196 -132 255 -150 348 -154 L348 -72 C237 -66 237 17 237 78 L237 115 C237 163 233 213 196 250 C159 289 111 294 79 298 C212 309 237 393 237 481 L237 517 C237 579 237 659 348 668 L348 750 C108 738 103 621 103 511 L103 476 Z " />
<glyph glyph-name="bar" unicode="&#x7c;" horiz-adv-x="278" d="M73 -214 L205 -214 L205 786 L73 786 L73 -214 Z " />
<glyph glyph-name="braceright" unicode="&#x7d;" horiz-adv-x="333" d="M230 120 C230 171 233 236 348 255 L348 341 C333 343 287 352 262 376 C238 400 230 430 230 476 L230 511 C230 624 222 738 -15 750 L-15 668 C96 659 96 579 96 517 L96 481 C96 406 111 378 135 351 C175 305 219 301 254 298 C222 294 174 289 137 250 C98 210 96 155 96 115 L96 78 C96 16 96 -66 -15 -72 L-15 -154 C226 -142 230 -25 230 85 L230 120 Z " />
<glyph glyph-name="asciitilde" unicode="&#x7e;" horiz-adv-x="584" d="M102 173 C107 207 127 234 161 234 C181 234 219 221 232 217 C310 192 377 170 411 170 C526 170 560 283 566 361 L482 361 C480 348 472 301 424 301 C397 301 379 307 279 338 C219 356 196 363 173 363 C91 363 25 291 18 173 L102 173 Z " />
<glyph glyph-name="exclamdown" unicode="&#xa1;" horiz-adv-x="388" d="M146 334 L127 -192 L261 -192 L242 334 L146 334 Z M258 530 L130 530 L130 397 L258 397 L258 530 Z " />
<glyph glyph-name="cent" unicode="&#xa2;" horiz-adv-x="556" d="M168 -146 L239 -147 L273 -16 C280 -18 290 -18 299 -18 C426 -18 506 58 508 180 L363 180 C361 133 341 82 294 82 C237 82 218 167 218 256 C218 345 239 417 295 417 C342 417 358 368 360 325 L505 325 C504 414 459 467 402 495 L438 638 L369 638 L337 514 C324 516 311 517 299 517 C232 517 63 484 63 251 C63 129 108 33 206 -1 L168 -146 Z " />
<glyph glyph-name="sterling" unicode="&#xa3;" horiz-adv-x="556" d="M30 0 L521 0 L521 112 L257 112 L257 308 L426 308 L426 420 L257 420 L257 520 C257 566 274 607 324 607 C386 607 389 546 390 522 L540 522 C534 590 522 707 335 707 C199 707 104 646 104 505 L104 420 L19 420 L19 308 L103 308 L103 112 L30 112 L30 0 Z " />
<glyph glyph-name="currency" unicode="&#xa4;" horiz-adv-x="556" d="M21 169 L98 91 L165 158 C187 146 223 127 278 127 C333 127 369 146 391 158 L458 91 L535 169 L468 236 C481 258 500 292 500 348 C500 404 481 438 468 460 L535 527 L458 605 L391 538 C369 550 333 569 278 569 C223 569 187 550 165 538 L98 605 L21 527 L88 460 C75 438 56 404 56 348 C56 292 75 258 88 236 L21 169 Z M278 454 C336 454 384 407 384 348 C384 290 336 242 278 242 C219 242 172 290 172 348 C172 407 219 454 278 454 L278 454 Z " />
<glyph glyph-name="yen" unicode="&#xa5;" horiz-adv-x="556" d="M202 0 L354 0 L355 132 L513 132 L513 206 L354 206 L354 271 L513 271 L513 345 L394 345 L558 698 L398 698 L287 380 L179 698 L-2 698 L164 345 L39 345 L39 271 L202 271 L202 205 L39 205 L39 131 L202 131 L202 0 Z " />
<glyph glyph-name="brokenbar" unicode="&#xa6;" horiz-adv-x="278" d="M73 -89 L205 -89 L205 161 L73 161 L73 -89 Z M73 411 L205 411 L205 661 L73 661 L73 411 Z " />
<glyph glyph-name="section" unicode="&#xa7;" horiz-adv-x="556" d="M101 15 C188 -14 257 -15 272 -15 C391 -15 473 49 473 142 C473 205 428 242 389 262 C432 282 472 322 472 391 C472 445 449 494 370 520 L282 549 C270 554 237 568 237 600 C237 633 267 643 295 643 C352 643 409 618 441 604 L444 707 C420 716 368 737 290 737 C175 737 98 684 98 597 C98 517 153 490 174 481 C108 455 83 401 83 355 C83 304 112 246 185 221 L273 190 C299 181 331 170 331 137 C331 98 290 84 247 84 C187 84 132 112 104 127 L101 15 Z M202 371 C202 411 235 434 273 445 C295 441 347 429 347 378 C347 354 331 316 278 297 C250 306 202 323 202 371 L202 371 Z " />
<glyph glyph-name="dieresis" unicode="&#xa8;" horiz-adv-x="278" d="M174 599 L276 599 L276 717 L174 717 L174 599 Z M2 599 L104 599 L104 717 L2 717 L2 599 Z " />
<glyph glyph-name="copyright" unicode="&#xa9;" horiz-adv-x="800" d="M583 439 C582 527 511 584 410 584 C280 584 198 492 198 354 C198 244 252 135 410 135 C457 135 504 146 542 181 C582 219 585 262 587 286 L482 286 C480 227 439 204 402 204 C301 204 301 332 301 358 C301 385 301 516 406 516 C473 516 480 454 481 439 L583 439 Z M24 361 C24 153 192 -15 400 -15 C608 -15 776 153 776 361 C776 569 608 737 400 737 C192 737 24 569 24 361 L24 361 Z M86 361 C86 534 227 675 400 675 C573 675 714 534 714 361 C714 188 573 47 400 47 C227 47 86 188 86 361 L86 361 Z " />
<glyph glyph-name="ordfeminine" unicode="&#xaa;" horiz-adv-x="334" d="M318 395 C313 417 310 449 310 472 L310 594 C310 657 279 707 170 707 C114 707 34 690 34 611 L128 611 C128 647 155 655 172 655 C219 655 219 616 219 589 C190 589 143 589 99 577 C49 562 19 522 19 478 C19 440 42 388 130 388 C190 388 213 416 228 437 C228 427 228 415 231 395 L318 395 Z M113 488 C113 527 160 542 219 538 C219 509 218 446 161 446 C132 446 113 464 113 488 L113 488 Z " />
<glyph glyph-name="guillemotleft" unicode="&#xab;" horiz-adv-x="556" d="M137 56 L269 56 L174 252 L269 442 L137 442 L28 252 L137 56 Z M380 56 L512 56 L417 252 L512 442 L380 442 L271 252 L380 56 Z " />
<glyph glyph-name="logicalnot" unicode="&#xac;" horiz-adv-x="584" d="M26 318 L424 318 L424 85 L558 85 L558 448 L26 448 L26 318 Z " />
<glyph glyph-name="registered" unicode="&#xae;" horiz-adv-x="800" d="M330 737 C229 737 141 655 141 548 C141 443 227 359 330 359 C434 359 519 444 519 548 C519 655 432 737 330 737 L330 737 Z M330 699 C413 699 482 632 482 548 C482 465 414 396 330 396 C247 396 179 464 179 548 C179 633 248 699 330 699 L330 699 Z M259 442 L300 442 L300 527 L337 527 C352 527 356 521 359 509 C359 506 366 452 367 442 L412 442 C406 452 403 481 401 498 C397 525 395 544 366 546 C381 551 406 559 406 598 C406 654 357 654 332 654 L259 654 L259 442 Z M299 620 L333 620 C344 620 364 620 364 591 C364 580 359 561 332 561 L299 561 L299 620 Z " />
<glyph glyph-name="macron" unicode="&#xaf;" horiz-adv-x="278" d="M310 624 L310 692 L-32 692 L-32 624 L310 624 Z " />
<glyph glyph-name="degree" unicode="&#xb0;" horiz-adv-x="400" d="M26 533 C26 437 104 359 200 359 C296 359 374 437 374 533 C374 629 296 707 200 707 C104 707 26 629 26 533 L26 533 Z M128 533 C128 573 160 605 200 605 C240 605 272 573 272 533 C272 493 240 461 200 461 C160 461 128 493 128 533 L128 533 Z " />
<glyph glyph-name="plusminus" unicode="&#xb1;" horiz-adv-x="584" d="M225 131 L359 131 L359 280 L558 280 L558 410 L359 410 L359 566 L225 566 L225 410 L26 410 L26 280 L225 280 L225 131 Z M26 -33 L558 -33 L558 97 L26 97 L26 -33 Z " />
<glyph glyph-name="twosuperior" unicode="&#xb2;" horiz-adv-x="361" d="M131 575 C133 605 150 634 190 634 C221 634 239 616 239 591 C239 555 190 509 139 466 L22 367 L22 279 L340 279 L340 358 C268 357 175 355 137 354 L177 383 C237 427 345 507 345 593 C345 660 287 707 189 707 C99 707 24 675 24 575 L131 575 Z " />
<glyph glyph-name="threesuperior" unicode="&#xb3;" horiz-adv-x="361" d="M14 397 C14 300 74 270 177 270 C270 270 341 322 341 394 C341 437 318 475 250 494 C271 500 337 519 337 589 C337 645 290 707 186 707 C141 707 100 699 70 680 C40 660 21 630 20 586 L127 586 C126 612 149 634 178 634 C208 634 235 617 235 588 C235 535 172 530 123 529 L123 453 C174 453 234 453 234 394 C234 360 203 345 176 345 C137 345 122 369 121 397 L14 397 Z " />
<glyph glyph-name="acute" unicode="&#xb4;" horiz-adv-x="278" d="M260 730 L126 730 L43 585 L123 585 L260 730 Z " />
<glyph glyph-name="mu" unicode="&#xb5;" horiz-adv-x="608" d="M79 -192 L204 -192 L204 41 C218 23 242 -10 305 -10 C374 -10 403 35 419 60 L419 0 L529 0 L529 505 L401 505 L401 256 C401 188 397 95 302 95 C215 95 207 166 207 259 L207 505 L79 505 L79 -192 Z " />
<glyph glyph-name="paragraph" unicode="&#xb6;" horiz-adv-x="556" d="M571 619 L571 722 L242 722 C53 722 -22 593 -22 472 C-22 425 -11 350 48 297 C93 256 141 251 175 248 L175 -177 L300 -177 L300 619 L395 619 L395 -177 L520 -177 L520 619 L571 619 Z " />
<glyph glyph-name="periodcentered" unicode="&#xb7;" horiz-adv-x="278" d="M75 213 L203 213 L203 346 L75 346 L75 213 Z " />
<glyph glyph-name="cedilla" unicode="&#xb8;" horiz-adv-x="278" d="M15 -195 C28 -201 66 -217 112 -217 C158 -217 238 -199 238 -126 C238 -99 220 -54 154 -54 C138 -54 130 -56 119 -58 L167 6 L120 6 L56 -84 L76 -105 C86 -101 98 -96 117 -96 C151 -96 161 -119 161 -133 C161 -155 140 -171 106 -171 C85 -171 59 -163 36 -153 L15 -195 Z " />
<glyph glyph-name="onesuperior" unicode="&#xb9;" horiz-adv-x="361" d="M48 543 C79 554 119 574 154 597 L154 279 L256 279 L256 698 L168 698 C152 687 105 657 48 635 L48 543 Z " />
<glyph glyph-name="ordmasculine" unicode="&#xba;" horiz-adv-x="367" d="M181 386 C297 386 353 461 353 548 C353 638 297 707 183 707 C77 707 14 643 14 546 C14 472 55 386 181 386 L181 386 Z M183 448 C135 448 112 480 112 545 C112 585 118 648 184 648 C236 648 255 610 255 550 C255 478 231 448 183 448 L183 448 Z " />
<glyph glyph-name="guillemotright" unicode="&#xbb;" horiz-adv-x="556" d="M176 56 L285 245 L176 442 L44 442 L139 245 L44 56 L176 56 Z M419 56 L528 245 L419 442 L287 442 L382 245 L287 56 L419 56 Z " />
<glyph glyph-name="onequarter" unicode="&#xbc;" horiz-adv-x="834" d="M641 87 L641 0 L745 0 L745 87 L802 87 L802 160 L745 160 L745 419 L636 419 L458 176 L458 87 L641 87 Z M650 311 L646 160 L538 160 L650 311 Z M142 -28 L230 -28 L647 725 L558 725 L142 -28 Z M24 543 C55 554 95 574 130 597 L130 279 L232 279 L232 698 L144 698 C128 687 81 657 24 635 L24 543 Z " />
<glyph glyph-name="onehalf" unicode="&#xbd;" horiz-adv-x="834" d="M118 -28 L206 -28 L623 725 L534 725 L118 -28 Z M24 543 C55 554 95 574 130 597 L130 279 L232 279 L232 698 L144 698 C128 687 81 657 24 635 L24 543 Z M579 296 C581 326 598 355 638 355 C669 355 687 337 687 312 C687 276 638 230 587 187 L470 88 L470 0 L788 0 L788 79 C716 78 623 76 585 75 L625 104 C685 148 793 228 793 314 C793 381 735 428 637 428 C547 428 472 396 472 296 L579 296 Z " />
<glyph glyph-name="threequarters" unicode="&#xbe;" horiz-adv-x="834" d="M641 87 L641 0 L745 0 L745 87 L802 87 L802 160 L745 160 L745 419 L636 419 L458 176 L458 87 L641 87 Z M650 311 L646 160 L538 160 L650 311 Z M14 397 C14 300 74 270 177 270 C270 270 341 322 341 394 C341 437 318 475 250 494 C271 500 337 519 337 589 C337 645 290 707 186 707 C141 707 100 699 70 680 C40 660 21 630 20 586 L127 586 C126 612 149 634 178 634 C208 634 235 617 235 588 C235 535 172 530 123 529 L123 453 C174 453 234 453 234 394 C234 360 203 345 176 345 C137 345 122 369 121 397 L14 397 Z M178 -28 L266 -28 L683 725 L594 725 L178 -28 Z " />
<glyph glyph-name="questiondown" unicode="&#xbf;" horiz-adv-x="500" d="M244 368 L244 287 C244 254 237 239 184 191 L127 140 C80 98 47 45 47 -19 C47 -153 167 -206 285 -206 C365 -206 416 -196 454 -186 L454 -82 C399 -97 367 -106 321 -106 C209 -106 201 -31 201 -7 C201 43 237 93 277 138 L321 187 C358 229 358 253 358 275 L358 368 L244 368 Z M361 530 L241 530 L241 410 L361 410 L361 530 Z " />
<glyph glyph-name="Agrave" unicode="&#xc0;" horiz-adv-x="722" d="M274 722 L13 0 L161 0 L215 156 L501 156 L553 0 L709 0 L458 722 L274 722 Z M255 273 L362 581 L462 273 L255 273 Z M365 917 L225 917 L364 772 L449 772 L365 917 Z " />
<glyph glyph-name="Aacute" unicode="&#xc1;" horiz-adv-x="722" d="M274 722 L13 0 L161 0 L215 156 L501 156 L553 0 L709 0 L458 722 L274 722 Z M255 273 L362 581 L462 273 L255 273 Z M502 917 L368 917 L285 772 L365 772 L502 917 Z " />
<glyph glyph-name="Acircumflex" unicode="&#xc2;" horiz-adv-x="722" d="M274 722 L13 0 L161 0 L215 156 L501 156 L553 0 L709 0 L458 722 L274 722 Z M255 273 L362 581 L462 273 L255 273 Z M201 772 L291 772 L361 857 L431 772 L521 772 L411 917 L311 917 L201 772 Z " />
<glyph glyph-name="Atilde" unicode="&#xc3;" horiz-adv-x="722" d="M274 722 L13 0 L161 0 L215 156 L501 156 L553 0 L709 0 L458 722 L274 722 Z M255 273 L362 581 L462 273 L255 273 Z M235 780 C248 818 271 825 288 825 C301 825 321 819 333 815 L376 799 C387 795 406 788 428 788 C498 788 532 846 539 910 L489 910 C484 885 471 864 442 864 C425 864 414 868 408 870 L351 892 C349 893 322 903 301 903 C241 903 194 854 183 780 L235 780 Z " />
<glyph glyph-name="Adieresis" unicode="&#xc4;" horiz-adv-x="722" d="M274 722 L13 0 L161 0 L215 156 L501 156 L553 0 L709 0 L458 722 L274 722 Z M255 273 L362 581 L462 273 L255 273 Z M396 776 L498 776 L498 894 L396 894 L396 776 Z M224 776 L326 776 L326 894 L224 894 L224 776 Z " />
<glyph glyph-name="Aring" unicode="&#xc5;" horiz-adv-x="722" d="M274 722 L13 0 L161 0 L215 156 L501 156 L553 0 L709 0 L458 722 L274 722 Z M255 273 L362 581 L462 273 L255 273 Z M259 843 C259 787 305 741 361 741 C417 741 463 787 463 843 C463 899 417 945 361 945 C305 945 259 899 259 843 L259 843 Z M307 843 C307 873 331 897 361 897 C391 897 415 873 415 843 C415 813 391 789 361 789 C331 789 307 813 307 843 L307 843 Z " />
<glyph glyph-name="AE" unicode="&#xc6;" horiz-adv-x="1000" d="M-3 0 L164 0 L243 157 L515 157 L537 0 L953 0 L953 118 L679 118 L651 314 L926 314 L926 432 L634 432 L609 604 L944 604 L944 722 L397 722 L-3 0 Z M304 271 L458 585 L500 271 L304 271 Z " />
<glyph glyph-name="Ccedilla" unicode="&#xc7;" horiz-adv-x="667" d="M640 494 C640 640 532 737 374 737 C171 737 43 583 43 351 C43 183 114 9 326 -12 L275 -84 L295 -105 C305 -101 317 -96 336 -96 C370 -96 380 -119 380 -133 C380 -155 359 -171 325 -171 C304 -171 278 -163 255 -153 L234 -195 C247 -201 285 -217 331 -217 C377 -217 457 -199 457 -126 C457 -99 439 -54 373 -54 C357 -54 349 -56 338 -58 L370 -15 L373 -15 C536 -15 643 81 648 237 L486 237 C483 139 421 97 356 97 C252 97 205 198 205 350 C205 504 253 625 368 625 C473 625 482 521 485 494 L640 494 Z " />
<glyph glyph-name="Egrave" unicode="&#xc8;" horiz-adv-x="609" d="M68 0 L563 0 L563 118 L223 118 L223 314 L531 314 L531 432 L223 432 L223 604 L552 604 L552 722 L68 722 L68 0 Z M309 917 L169 917 L308 772 L393 772 L309 917 Z " />
<glyph glyph-name="Eacute" unicode="&#xc9;" horiz-adv-x="609" d="M68 0 L563 0 L563 118 L223 118 L223 314 L531 314 L531 432 L223 432 L223 604 L552 604 L552 722 L68 722 L68 0 Z M446 917 L312 917 L229 772 L309 772 L446 917 Z " />
<glyph glyph-name="Ecircumflex" unicode="&#xca;" horiz-adv-x="609" d="M68 0 L563 0 L563 118 L223 118 L223 314 L531 314 L531 432 L223 432 L223 604 L552 604 L552 722 L68 722 L68 0 Z M145 772 L235 772 L305 857 L375 772 L465 772 L355 917 L255 917 L145 772 Z " />
<glyph glyph-name="Edieresis" unicode="&#xcb;" horiz-adv-x="609" d="M68 0 L563 0 L563 118 L223 118 L223 314 L531 314 L531 432 L223 432 L223 604 L552 604 L552 722 L68 722 L68 0 Z M340 776 L442 776 L442 894 L340 894 L340 776 Z M168 776 L270 776 L270 894 L168 894 L168 776 Z " />
<glyph glyph-name="Igrave" unicode="&#xcc;" horiz-adv-x="291" d="M68 0 L223 0 L223 722 L68 722 L68 0 Z M140 917 L0 917 L139 772 L224 772 L140 917 Z " />
<glyph glyph-name="Iacute" unicode="&#xcd;" horiz-adv-x="291" d="M68 0 L223 0 L223 722 L68 722 L68 0 Z M287 917 L153 917 L70 772 L150 772 L287 917 Z " />
<glyph glyph-name="Icircumflex" unicode="&#xce;" horiz-adv-x="291" d="M68 0 L223 0 L223 722 L68 722 L68 0 Z M-14 772 L76 772 L146 857 L216 772 L306 772 L196 917 L96 917 L-14 772 Z " />
<glyph glyph-name="Idieresis" unicode="&#xcf;" horiz-adv-x="291" d="M68 0 L223 0 L223 722 L68 722 L68 0 Z M181 776 L283 776 L283 894 L181 894 L181 776 Z M9 776 L111 776 L111 894 L9 894 L9 776 Z " />
<glyph glyph-name="Eth" unicode="&#xd0;" horiz-adv-x="720" d="M1 353 L68 353 L68 0 L332 0 C536 0 678 124 678 368 C678 611 536 722 296 722 L68 722 L68 440 L1 440 L1 353 Z M223 353 L368 353 L368 440 L223 440 L223 602 L295 602 C452 602 518 522 518 371 C518 337 514 229 453 168 C413 128 362 120 285 120 L223 120 L223 353 Z " />
<glyph glyph-name="Ntilde" unicode="&#xd1;" horiz-adv-x="776" d="M68 0 L213 0 L213 600 L494 0 L708 0 L708 722 L563 722 L563 154 L292 722 L68 722 L68 0 Z M262 780 C275 818 298 825 315 825 C328 825 348 819 360 815 L403 799 C414 795 433 788 455 788 C525 788 559 846 566 910 L516 910 C511 885 498 864 469 864 C452 864 441 868 435 870 L378 892 C376 893 349 903 328 903 C268 903 221 854 210 780 L262 780 Z " />
<glyph glyph-name="Ograve" unicode="&#xd2;" horiz-adv-x="778" d="M389 -15 C621 -15 735 149 735 369 C735 587 615 737 389 737 C163 737 43 587 43 369 C43 149 157 -15 389 -15 L389 -15 Z M205 370 C205 487 245 625 389 625 C533 625 573 487 573 370 C573 244 541 97 389 97 C237 97 205 244 205 370 L205 370 Z M393 917 L253 917 L392 772 L477 772 L393 917 Z " />
<glyph glyph-name="Oacute" unicode="&#xd3;" horiz-adv-x="778" d="M389 -15 C621 -15 735 149 735 369 C735 587 615 737 389 737 C163 737 43 587 43 369 C43 149 157 -15 389 -15 L389 -15 Z M205 370 C205 487 245 625 389 625 C533 625 573 487 573 370 C573 244 541 97 389 97 C237 97 205 244 205 370 L205 370 Z M530 917 L396 917 L313 772 L393 772 L530 917 Z " />
<glyph glyph-name="Ocircumflex" unicode="&#xd4;" horiz-adv-x="778" d="M389 -15 C621 -15 735 149 735 369 C735 587 615 737 389 737 C163 737 43 587 43 369 C43 149 157 -15 389 -15 L389 -15 Z M205 370 C205 487 245 625 389 625 C533 625 573 487 573 370 C573 244 541 97 389 97 C237 97 205 244 205 370 L205 370 Z M229 772 L319 772 L389 857 L459 772 L549 772 L439 917 L339 917 L229 772 Z " />
<glyph glyph-name="Otilde" unicode="&#xd5;" horiz-adv-x="778" d="M389 -15 C621 -15 735 149 735 369 C735 587 615 737 389 737 C163 737 43 587 43 369 C43 149 157 -15 389 -15 L389 -15 Z M205 370 C205 487 245 625 389 625 C533 625 573 487 573 370 C573 244 541 97 389 97 C237 97 205 244 205 370 L205 370 Z M263 780 C276 818 299 825 316 825 C329 825 349 819 361 815 L404 799 C415 795 434 788 456 788 C526 788 560 846 567 910 L517 910 C512 885 499 864 470 864 C453 864 442 868 436 870 L379 892 C377 893 350 903 329 903 C269 903 222 854 211 780 L263 780 Z " />
<glyph glyph-name="Odieresis" unicode="&#xd6;" horiz-adv-x="778" d="M389 -15 C621 -15 735 149 735 369 C735 587 615 737 389 737 C163 737 43 587 43 369 C43 149 157 -15 389 -15 L389 -15 Z M205 370 C205 487 245 625 389 625 C533 625 573 487 573 370 C573 244 541 97 389 97 C237 97 205 244 205 370 L205 370 Z M424 776 L526 776 L526 894 L424 894 L424 776 Z M252 776 L354 776 L354 894 L252 894 L252 776 Z " />
<glyph glyph-name="multiply" unicode="&#xd7;" horiz-adv-x="584" d="M33 99 L125 7 L292 175 L459 7 L551 99 L384 266 L551 434 L459 526 L292 358 L125 526 L33 434 L200 266 L33 99 Z " />
<glyph glyph-name="Oslash" unicode="&#xd8;" horiz-adv-x="778" d="M223 230 C209 274 205 323 205 370 C205 487 245 625 389 625 C453 625 496 598 525 557 L223 230 Z M555 491 C568 453 573 410 573 370 C573 244 541 97 389 97 C324 97 280 124 253 165 L555 491 Z M11 2 L60 -44 L160 64 C216 13 292 -15 389 -15 C621 -15 735 149 735 369 C735 465 712 549 666 611 L767 721 L718 766 L620 660 C563 709 486 737 389 737 C163 737 43 587 43 369 C43 269 67 180 115 114 L11 2 Z " />
<glyph glyph-name="Ugrave" unicode="&#xd9;" horiz-adv-x="762" d="M694 722 L539 722 L539 279 C539 200 533 101 381 101 C229 101 223 200 223 279 L223 722 L68 722 L68 265 C68 82 184 -15 381 -15 C578 -15 694 82 694 265 L694 722 Z M385 917 L245 917 L384 772 L469 772 L385 917 Z " />
<glyph glyph-name="Uacute" unicode="&#xda;" horiz-adv-x="762" d="M694 722 L539 722 L539 279 C539 200 533 101 381 101 C229 101 223 200 223 279 L223 722 L68 722 L68 265 C68 82 184 -15 381 -15 C578 -15 694 82 694 265 L694 722 Z M522 917 L388 917 L305 772 L385 772 L522 917 Z " />
<glyph glyph-name="Ucircumflex" unicode="&#xdb;" horiz-adv-x="762" d="M694 722 L539 722 L539 279 C539 200 533 101 381 101 C229 101 223 200 223 279 L223 722 L68 722 L68 265 C68 82 184 -15 381 -15 C578 -15 694 82 694 265 L694 722 Z M221 772 L311 772 L381 857 L451 772 L541 772 L431 917 L331 917 L221 772 Z " />
<glyph glyph-name="Udieresis" unicode="&#xdc;" horiz-adv-x="762" d="M694 722 L539 722 L539 279 C539 200 533 101 381 101 C229 101 223 200 223 279 L223 722 L68 722 L68 265 C68 82 184 -15 381 -15 C578 -15 694 82 694 265 L694 722 Z M416 776 L518 776 L518 894 L416 894 L416 776 Z M244 776 L346 776 L346 894 L244 894 L244 776 Z " />
<glyph glyph-name="Yacute" unicode="&#xdd;" horiz-adv-x="667" d="M11 722 L257 265 L257 0 L412 0 L412 263 L656 722 L497 722 L343 391 L192 722 L11 722 Z M485 917 L351 917 L268 772 L348 772 L485 917 Z " />
<glyph glyph-name="Thorn" unicode="&#xde;" horiz-adv-x="609" d="M68 0 L223 0 L223 170 L330 170 C368 170 441 170 494 204 C551 241 586 312 586 396 C586 565 453 610 313 610 L223 610 L223 722 L68 722 L68 0 Z M223 494 L299 494 C371 494 426 476 426 396 C426 286 333 286 283 286 L223 286 L223 494 Z " />
<glyph glyph-name="germandbls" unicode="&#xdf;" horiz-adv-x="665" d="M69 0 L217 0 L217 525 C217 596 247 650 322 650 C373 650 399 621 399 588 C399 560 381 543 359 524 C296 472 284 437 284 398 C284 343 312 322 366 290 L444 243 C491 215 501 186 501 154 C501 103 470 83 445 83 C411 83 393 112 393 144 L262 144 C268 18 346 -18 439 -18 C544 -18 640 18 640 166 C640 260 590 293 549 318 L471 365 C429 389 424 403 424 417 C424 444 440 454 455 464 C530 513 547 545 547 592 C547 700 425 742 315 742 C177 742 69 692 69 539 L69 0 Z " />
<glyph glyph-name="agrave" unicode="&#xe0;" horiz-adv-x="554" d="M503 0 C494 39 491 82 491 125 L490 328 C489 466 405 517 275 517 C165 517 66 475 65 357 L210 357 C210 399 232 430 277 430 C345 430 350 375 350 321 C224 321 43 303 43 136 C43 31 116 -15 213 -15 C270 -15 326 5 364 66 C364 51 364 28 369 0 L503 0 Z M187 153 C187 213 255 243 350 235 C350 172 343 81 259 81 C210 81 187 119 187 153 L187 153 Z M281 730 L141 730 L280 585 L365 585 L281 730 Z " />
<glyph glyph-name="aacute" unicode="&#xe1;" horiz-adv-x="554" d="M503 0 C494 39 491 82 491 125 L490 328 C489 466 405 517 275 517 C165 517 66 475 65 357 L210 357 C210 399 232 430 277 430 C345 430 350 375 350 321 C224 321 43 303 43 136 C43 31 116 -15 213 -15 C270 -15 326 5 364 66 C364 51 364 28 369 0 L503 0 Z M187 153 C187 213 255 243 350 235 C350 172 343 81 259 81 C210 81 187 119 187 153 L187 153 Z M418 730 L284 730 L201 585 L281 585 L418 730 Z " />
<glyph glyph-name="acircumflex" unicode="&#xe2;" horiz-adv-x="554" d="M503 0 C494 39 491 82 491 125 L490 328 C489 466 405 517 275 517 C165 517 66 475 65 357 L210 357 C210 399 232 430 277 430 C345 430 350 375 350 321 C224 321 43 303 43 136 C43 31 116 -15 213 -15 C270 -15 326 5 364 66 C364 51 364 28 369 0 L503 0 Z M187 153 C187 213 255 243 350 235 C350 172 343 81 259 81 C210 81 187 119 187 153 L187 153 Z M117 585 L207 585 L277 670 L347 585 L437 585 L327 730 L227 730 L117 585 Z " />
<glyph glyph-name="atilde" unicode="&#xe3;" horiz-adv-x="554" d="M503 0 C494 39 491 82 491 125 L490 328 C489 466 405 517 275 517 C165 517 66 475 65 357 L210 357 C210 399 232 430 277 430 C345 430 350 375 350 321 C224 321 43 303 43 136 C43 31 116 -15 213 -15 C270 -15 326 5 364 66 C364 51 364 28 369 0 L503 0 Z M187 153 C187 213 255 243 350 235 C350 172 343 81 259 81 C210 81 187 119 187 153 L187 153 Z M151 593 C164 631 187 638 204 638 C217 638 237 632 249 628 L292 612 C303 608 322 601 344 601 C414 601 448 659 455 723 L405 723 C400 698 387 677 358 677 C341 677 330 681 324 683 L267 705 C265 706 238 716 217 716 C157 716 110 667 99 593 L151 593 Z " />
<glyph glyph-name="adieresis" unicode="&#xe4;" horiz-adv-x="554" d="M503 0 C494 39 491 82 491 125 L490 328 C489 466 405 517 275 517 C165 517 66 475 65 357 L210 357 C210 399 232 430 277 430 C345 430 350 375 350 321 C224 321 43 303 43 136 C43 31 116 -15 213 -15 C270 -15 326 5 364 66 C364 51 364 28 369 0 L503 0 Z M187 153 C187 213 255 243 350 235 C350 172 343 81 259 81 C210 81 187 119 187 153 L187 153 Z M312 599 L414 599 L414 717 L312 717 L312 599 Z M140 599 L242 599 L242 717 L140 717 L140 599 Z " />
<glyph glyph-name="aring" unicode="&#xe5;" horiz-adv-x="554" d="M503 0 C494 39 491 82 491 125 L490 328 C489 466 405 517 275 517 C165 517 66 475 65 357 L210 357 C210 399 232 430 277 430 C345 430 350 375 350 321 C224 321 43 303 43 136 C43 31 116 -15 213 -15 C270 -15 326 5 364 66 C364 51 364 28 369 0 L503 0 Z M187 153 C187 213 255 243 350 235 C350 172 343 81 259 81 C210 81 187 119 187 153 L187 153 Z M175 658 C175 602 221 556 277 556 C333 556 379 602 379 658 C379 714 333 760 277 760 C221 760 175 714 175 658 L175 658 Z M223 658 C223 688 247 712 277 712 C307 712 331 688 331 658 C331 628 307 604 277 604 C247 604 223 628 223 658 L223 658 Z " />
<glyph glyph-name="ae" unicode="&#xe6;" horiz-adv-x="899" d="M704 153 C698 128 686 77 621 77 C534 77 518 158 518 228 L856 228 C856 394 799 517 631 517 C519 517 474 463 453 438 C434 461 389 517 273 517 C167 517 80 478 70 360 L213 360 C216 415 256 431 291 431 C359 431 378 379 375 314 C294 313 196 313 131 281 C50 242 43 166 43 136 C43 50 105 -18 237 -18 C352 -18 403 36 439 75 C454 52 500 -18 632 -18 C745 -18 828 36 843 153 L704 153 Z M517 314 C519 339 528 429 616 429 C702 429 703 340 703 314 L517 314 Z M186 145 C186 230 302 230 330 230 C346 230 360 230 374 228 C371 159 354 77 264 77 C225 77 186 102 186 145 L186 145 Z " />
<glyph glyph-name="ccedilla" unicode="&#xe7;" horiz-adv-x="521" d="M343 180 C341 133 321 82 274 82 C217 82 198 167 198 256 C198 345 219 417 275 417 C322 417 338 368 340 325 L485 325 C484 464 373 517 279 517 C212 517 43 484 43 251 C43 108 105 0 242 -15 L193 -84 L213 -105 C223 -101 235 -96 254 -96 C288 -96 298 -119 298 -133 C298 -155 277 -171 243 -171 C222 -171 196 -163 173 -153 L152 -195 C165 -201 203 -217 249 -217 C295 -217 375 -199 375 -126 C375 -99 357 -54 291 -54 C275 -54 267 -56 256 -58 L287 -17 C409 -15 486 61 488 180 L343 180 Z " />
<glyph glyph-name="egrave" unicode="&#xe8;" horiz-adv-x="567" d="M523 213 C531 369 470 517 290 517 C123 517 43 390 43 239 C43 81 119 -18 286 -18 C410 -18 498 29 511 149 L376 149 C362 95 325 82 288 82 C214 82 184 124 185 213 L523 213 Z M190 307 C193 363 220 417 285 417 C371 417 373 330 373 307 L190 307 Z M288 730 L148 730 L287 585 L372 585 L288 730 Z " />
<glyph glyph-name="eacute" unicode="&#xe9;" horiz-adv-x="567" d="M523 213 C531 369 470 517 290 517 C123 517 43 390 43 239 C43 81 119 -18 286 -18 C410 -18 498 29 511 149 L376 149 C362 95 325 82 288 82 C214 82 184 124 185 213 L523 213 Z M190 307 C193 363 220 417 285 417 C371 417 373 330 373 307 L190 307 Z M425 730 L291 730 L208 585 L288 585 L425 730 Z " />
<glyph glyph-name="ecircumflex" unicode="&#xea;" horiz-adv-x="567" d="M523 213 C531 369 470 517 290 517 C123 517 43 390 43 239 C43 81 119 -18 286 -18 C410 -18 498 29 511 149 L376 149 C362 95 325 82 288 82 C214 82 184 124 185 213 L523 213 Z M190 307 C193 363 220 417 285 417 C371 417 373 330 373 307 L190 307 Z M124 585 L214 585 L284 670 L354 585 L444 585 L334 730 L234 730 L124 585 Z " />
<glyph glyph-name="edieresis" unicode="&#xeb;" horiz-adv-x="567" d="M523 213 C531 369 470 517 290 517 C123 517 43 390 43 239 C43 81 119 -18 286 -18 C410 -18 498 29 511 149 L376 149 C362 95 325 82 288 82 C214 82 184 124 185 213 L523 213 Z M190 307 C193 363 220 417 285 417 C371 417 373 330 373 307 L190 307 Z M319 599 L421 599 L421 717 L319 717 L319 599 Z M147 599 L249 599 L249 717 L147 717 L147 599 Z " />
<glyph glyph-name="igrave" unicode="&#xec;" horiz-adv-x="286" d="M69 0 L217 0 L217 505 L69 505 L69 0 Z M137 730 L-3 730 L136 585 L221 585 L137 730 Z " />
<glyph glyph-name="iacute" unicode="&#xed;" horiz-adv-x="286" d="M69 0 L217 0 L217 505 L69 505 L69 0 Z M284 730 L150 730 L67 585 L147 585 L284 730 Z " />
<glyph glyph-name="icircumflex" unicode="&#xee;" horiz-adv-x="286" d="M69 0 L217 0 L217 505 L69 505 L69 0 Z M-17 585 L73 585 L143 670 L213 585 L303 585 L193 730 L93 730 L-17 585 Z " />
<glyph glyph-name="idieresis" unicode="&#xef;" horiz-adv-x="286" d="M69 0 L217 0 L217 505 L69 505 L69 0 Z M178 599 L280 599 L280 717 L178 717 L178 599 Z M6 599 L108 599 L108 717 L6 717 L6 599 Z " />
<glyph glyph-name="eth" unicode="&#xf0;" horiz-adv-x="607" d="M119 560 L163 526 L255 589 C343 531 378 483 407 435 C384 457 347 481 275 481 C179 481 43 419 43 232 C43 94 137 -18 299 -18 C490 -18 564 108 564 274 C564 500 430 606 358 659 L434 710 L390 744 L311 690 C292 701 264 718 186 753 L107 663 C149 647 179 632 205 619 L119 560 Z M304 83 C215 83 193 160 193 238 C193 268 193 402 304 402 C405 402 414 299 414 248 C414 178 400 83 304 83 L304 83 Z " />
<glyph glyph-name="ntilde" unicode="&#xf1;" horiz-adv-x="611" d="M69 0 L217 0 L217 309 C217 388 270 412 312 412 C394 412 394 331 394 302 L394 0 L542 0 L542 273 C542 352 541 393 530 424 C517 459 475 519 376 519 C266 519 226 454 212 431 L208 505 L65 505 C67 472 69 444 69 415 L69 0 Z M180 593 C193 631 216 638 233 638 C246 638 266 632 278 628 L321 612 C332 608 351 601 373 601 C443 601 477 659 484 723 L434 723 C429 698 416 677 387 677 C370 677 359 681 353 683 L296 705 C294 706 267 716 246 716 C186 716 139 667 128 593 L180 593 Z " />
<glyph glyph-name="ograve" unicode="&#xf2;" horiz-adv-x="607" d="M300 -18 C482 -18 564 110 564 252 C564 393 485 517 303 517 C105 517 43 370 43 248 C43 71 156 -18 300 -18 L300 -18 Z M305 83 C231 83 193 132 193 245 C193 291 194 416 303 416 C401 416 414 323 414 256 C414 122 370 83 305 83 L305 83 Z M298 730 L158 730 L297 585 L382 585 L298 730 Z " />
<glyph glyph-name="oacute" unicode="&#xf3;" horiz-adv-x="607" d="M300 -18 C482 -18 564 110 564 252 C564 393 485 517 303 517 C105 517 43 370 43 248 C43 71 156 -18 300 -18 L300 -18 Z M305 83 C231 83 193 132 193 245 C193 291 194 416 303 416 C401 416 414 323 414 256 C414 122 370 83 305 83 L305 83 Z M445 730 L311 730 L228 585 L308 585 L445 730 Z " />
<glyph glyph-name="ocircumflex" unicode="&#xf4;" horiz-adv-x="607" d="M300 -18 C482 -18 564 110 564 252 C564 393 485 517 303 517 C105 517 43 370 43 248 C43 71 156 -18 300 -18 L300 -18 Z M305 83 C231 83 193 132 193 245 C193 291 194 416 303 416 C401 416 414 323 414 256 C414 122 370 83 305 83 L305 83 Z M144 585 L234 585 L304 670 L374 585 L464 585 L354 730 L254 730 L144 585 Z " />
<glyph glyph-name="otilde" unicode="&#xf5;" horiz-adv-x="607" d="M300 -18 C482 -18 564 110 564 252 C564 393 485 517 303 517 C105 517 43 370 43 248 C43 71 156 -18 300 -18 L300 -18 Z M305 83 C231 83 193 132 193 245 C193 291 194 416 303 416 C401 416 414 323 414 256 C414 122 370 83 305 83 L305 83 Z M178 593 C191 631 214 638 231 638 C244 638 264 632 276 628 L319 612 C330 608 349 601 371 601 C441 601 475 659 482 723 L432 723 C427 698 414 677 385 677 C368 677 357 681 351 683 L294 705 C292 706 265 716 244 716 C184 716 137 667 126 593 L178 593 Z " />
<glyph glyph-name="odieresis" unicode="&#xf6;" horiz-adv-x="607" d="M300 -18 C482 -18 564 110 564 252 C564 393 485 517 303 517 C105 517 43 370 43 248 C43 71 156 -18 300 -18 L300 -18 Z M305 83 C231 83 193 132 193 245 C193 291 194 416 303 416 C401 416 414 323 414 256 C414 122 370 83 305 83 L305 83 Z M339 599 L441 599 L441 717 L339 717 L339 599 Z M167 599 L269 599 L269 717 L167 717 L167 599 Z " />
<glyph glyph-name="divide" unicode="&#xf7;" horiz-adv-x="584" d="M26 202 L558 202 L558 331 L26 331 L26 202 Z M217 4 L367 4 L367 151 L217 151 L217 4 Z M217 382 L367 382 L367 529 L217 529 L217 382 Z " />
<glyph glyph-name="oslash" unicode="&#xf8;" horiz-adv-x="607" d="M407 325 C413 303 414 278 414 256 C414 122 370 83 305 83 C265 83 235 97 217 129 L407 325 Z M198 185 C194 203 193 223 193 245 C193 291 194 416 303 416 C343 416 369 401 385 377 L198 185 Z M19 1 L57 -36 L129 38 C173 1 234 -18 300 -18 C482 -18 564 110 564 252 C564 319 546 382 508 429 L588 512 L548 546 L471 466 C430 498 375 517 303 517 C105 517 43 370 43 248 C43 177 61 120 93 77 L19 1 Z " />
<glyph glyph-name="ugrave" unicode="&#xf9;" horiz-adv-x="611" d="M542 505 L394 505 L394 198 C394 119 353 95 299 95 C217 95 217 154 217 205 L217 505 L69 505 L69 234 C69 155 70 114 85 83 C107 37 157 -10 249 -10 C345 -10 385 41 399 64 L403 0 L546 0 C544 35 542 63 542 92 L542 505 Z M300 730 L160 730 L299 585 L384 585 L300 730 Z " />
<glyph glyph-name="uacute" unicode="&#xfa;" horiz-adv-x="611" d="M542 505 L394 505 L394 198 C394 119 353 95 299 95 C217 95 217 154 217 205 L217 505 L69 505 L69 234 C69 155 70 114 85 83 C107 37 157 -10 249 -10 C345 -10 385 41 399 64 L403 0 L546 0 C544 35 542 63 542 92 L542 505 Z M457 730 L323 730 L240 585 L320 585 L457 730 Z " />
<glyph glyph-name="ucircumflex" unicode="&#xfb;" horiz-adv-x="611" d="M542 505 L394 505 L394 198 C394 119 353 95 299 95 C217 95 217 154 217 205 L217 505 L69 505 L69 234 C69 155 70 114 85 83 C107 37 157 -10 249 -10 C345 -10 385 41 399 64 L403 0 L546 0 C544 35 542 63 542 92 L542 505 Z M146 585 L236 585 L306 670 L376 585 L466 585 L356 730 L256 730 L146 585 Z " />
<glyph glyph-name="udieresis" unicode="&#xfc;" horiz-adv-x="611" d="M542 505 L394 505 L394 198 C394 119 353 95 299 95 C217 95 217 154 217 205 L217 505 L69 505 L69 234 C69 155 70 114 85 83 C107 37 157 -10 249 -10 C345 -10 385 41 399 64 L403 0 L546 0 C544 35 542 63 542 92 L542 505 Z M341 599 L443 599 L443 717 L341 717 L341 599 Z M169 599 L271 599 L271 717 L169 717 L169 599 Z " />
<glyph glyph-name="yacute" unicode="&#xfd;" horiz-adv-x="554" d="M12 505 L206 -2 L142 -192 L291 -192 L352 9 L542 505 L399 505 L284 162 L170 505 L12 505 Z M428 730 L294 730 L211 585 L291 585 L428 730 Z " />
<glyph glyph-name="thorn" unicode="&#xfe;" horiz-adv-x="622" d="M69 -192 L217 -192 L217 58 C267 -8 334 -10 360 -10 C482 -10 579 87 579 257 C579 446 469 512 369 512 C343 512 263 510 217 431 L217 722 L69 722 L69 -192 Z M429 261 C429 221 427 88 320 88 C211 88 211 212 211 244 C211 359 260 414 327 414 C429 414 429 287 429 261 L429 261 Z " />
<glyph glyph-name="ydieresis" unicode="&#xff;" horiz-adv-x="554" d="M12 505 L206 -2 L142 -192 L291 -192 L352 9 L542 505 L399 505 L284 162 L170 505 L12 505 Z M312 599 L414 599 L414 717 L312 717 L312 599 Z M140 599 L242 599 L242 717 L140 717 L140 599 Z " />
<glyph glyph-name="dotlessi" unicode="&#x131;" horiz-adv-x="286" d="M69 0 L217 0 L217 505 L69 505 L69 0 Z " />
<glyph glyph-name="Lslash" unicode="&#x141;" horiz-adv-x="554" d="M2 251 L68 289 L68 0 L536 0 L536 123 L223 123 L223 377 L401 479 L401 583 L223 480 L223 722 L68 722 L68 390 L2 352 L2 251 Z " />
<glyph glyph-name="lslash" unicode="&#x142;" horiz-adv-x="286" d="M69 0 L217 0 L217 383 L270 415 L270 520 L217 487 L217 722 L69 722 L69 397 L16 364 L16 261 L69 293 L69 0 Z " />
<glyph glyph-name="OE" unicode="&#x152;" horiz-adv-x="1021" d="M962 722 L629 722 C598 722 566 723 532 724 C499 724 463 725 425 725 C209 725 43 628 43 353 C43 94 200 -3 427 -3 C474 -3 512 -2 543 -1 C575 -1 601 0 623 0 L974 0 L974 118 L666 118 L666 314 L953 314 L953 432 L666 432 L666 604 L962 604 L962 722 Z M511 111 C487 110 462 108 438 108 C319 108 205 146 205 366 C205 524 277 617 439 617 C460 617 483 616 511 614 L511 111 Z " />
<glyph glyph-name="oe" unicode="&#x153;" horiz-adv-x="944" d="M43 248 C43 71 156 -18 300 -18 C365 -18 426 2 486 74 C520 31 560 -18 675 -18 C790 -18 876 37 893 155 L754 155 C743 100 712 74 667 74 C580 74 564 158 564 218 L901 218 C901 380 864 517 660 517 C547 517 503 450 486 423 C466 450 416 517 303 517 C105 517 43 370 43 248 L43 248 Z M564 310 C572 388 611 425 665 425 C750 425 751 347 751 310 L564 310 Z M305 83 C231 83 193 132 193 245 C193 291 194 416 303 416 C401 416 414 323 414 256 C414 122 370 83 305 83 L305 83 Z " />
<glyph glyph-name="Scaron" unicode="&#x160;" horiz-adv-x="667" d="M39 233 C40 163 42 -15 319 -15 C520 -15 628 90 628 220 C628 361 505 394 380 425 C276 451 223 463 223 530 C223 589 270 628 342 628 C449 628 457 543 459 518 L608 518 C608 670 493 737 349 737 C148 737 63 632 63 513 C63 388 157 337 329 294 C421 272 466 261 466 197 C466 136 413 96 328 96 C195 96 197 199 197 233 L39 233 Z M494 917 L404 917 L334 832 L264 917 L174 917 L284 772 L384 772 L494 917 Z " />
<glyph glyph-name="scaron" unicode="&#x161;" horiz-adv-x="498" d="M28 146 C33 25 132 -18 238 -18 C395 -18 470 69 470 156 C470 225 427 272 335 297 L244 322 C200 334 175 341 175 375 C175 406 205 425 245 425 C272 425 289 419 300 408 C311 398 315 384 317 368 L452 368 C448 469 364 517 260 517 C129 517 39 457 39 358 C39 253 126 228 167 216 L259 191 C317 175 329 157 329 134 C329 104 304 74 251 74 C189 74 169 111 167 146 L28 146 Z M409 730 L319 730 L249 645 L179 730 L89 730 L199 585 L299 585 L409 730 Z " />
<glyph glyph-name="Ydieresis" unicode="&#x178;" horiz-adv-x="667" d="M11 722 L257 265 L257 0 L412 0 L412 263 L656 722 L497 722 L343 391 L192 722 L11 722 Z M369 776 L471 776 L471 894 L369 894 L369 776 Z M197 776 L299 776 L299 894 L197 894 L197 776 Z " />
<glyph glyph-name="Zcaron" unicode="&#x17d;" horiz-adv-x="611" d="M28 0 L583 0 L583 119 L197 113 L574 585 L574 722 L51 722 L51 605 L406 607 L28 132 L28 0 Z M466 917 L376 917 L306 832 L236 917 L146 917 L256 772 L356 772 L466 917 Z " />
<glyph glyph-name="zcaron" unicode="&#x17e;" horiz-adv-x="498" d="M34 0 L464 0 L464 102 L199 102 L455 378 L455 505 L41 505 L41 406 L290 406 L34 130 L34 0 Z M409 730 L319 730 L249 645 L179 730 L89 730 L199 585 L299 585 L409 730 Z " />
<glyph glyph-name="florin" unicode="&#x192;" horiz-adv-x="556" d="M30 -148 C60 -153 83 -153 90 -153 C195 -153 239 -115 258 -18 L333 357 L409 357 L424 458 L352 458 L363 512 C373 564 380 600 453 590 L475 700 C448 704 424 707 393 707 C270 707 246 635 221 515 L210 458 L144 458 L125 357 L190 357 L121 7 C117 -14 110 -37 70 -37 C63 -37 57 -36 51 -35 L30 -148 Z " />
<glyph glyph-name="circumflex" unicode="&#x2c6;" horiz-adv-x="278" d="M-21 585 L69 585 L139 670 L209 585 L299 585 L189 730 L89 730 L-21 585 Z " />
<glyph glyph-name="caron" unicode="&#x2c7;" horiz-adv-x="278" d="M299 730 L209 730 L139 645 L69 730 L-21 730 L89 585 L189 585 L299 730 Z " />
<glyph glyph-name="breve" unicode="&#x2d8;" horiz-adv-x="278" d="M-16 730 C-11 651 41 585 139 585 C237 585 289 651 294 730 L233 730 C226 703 211 650 138 650 C67 650 52 703 45 730 L-16 730 Z " />
<glyph glyph-name="dotaccent" unicode="&#x2d9;" horiz-adv-x="278" d="M88 599 L190 599 L190 717 L88 717 L88 599 Z " />
<glyph glyph-name="ring" unicode="&#x2da;" horiz-adv-x="278" d="M37 658 C37 602 83 556 139 556 C195 556 241 602 241 658 C241 714 195 760 139 760 C83 760 37 714 37 658 L37 658 Z M85 658 C85 688 109 712 139 712 C169 712 193 688 193 658 C193 628 169 604 139 604 C109 604 85 628 85 658 L85 658 Z " />
<glyph glyph-name="ogonek" unicode="&#x2db;" horiz-adv-x="278" d="M232 -147 C221 -153 211 -159 191 -159 C183 -159 130 -159 130 -97 C130 -53 163 -28 205 1 L162 1 C94 -30 43 -83 43 -142 C43 -185 77 -217 139 -217 C186 -217 213 -202 232 -191 L232 -147 Z " />
<glyph glyph-name="tilde" unicode="&#x2dc;" horiz-adv-x="278" d="M13 593 C26 631 49 638 66 638 C79 638 99 632 111 628 L154 612 C165 608 184 601 206 601 C276 601 310 659 317 723 L267 723 C262 698 249 677 220 677 C203 677 192 681 186 683 L129 705 C127 706 100 716 79 716 C19 716 -28 667 -39 593 L13 593 Z " />
<glyph glyph-name="hungarumlaut" unicode="&#x2dd;" horiz-adv-x="556" d="M294 730 L160 730 L76 585 L156 585 L294 730 Z M480 730 L346 730 L262 585 L342 585 L480 730 Z " />
<glyph glyph-name="endash" unicode="&#x2013;" horiz-adv-x="500" d="M0 213 L500 213 L500 310 L0 310 L0 213 Z " />
<glyph glyph-name="emdash" unicode="&#x2014;" horiz-adv-x="1000" d="M130 213 L870 213 L870 310 L130 310 L130 213 Z " />
<glyph glyph-name="quoteleft" unicode="&#x2018;" horiz-adv-x="278" d="M240 722 L135 722 L23 475 L169 475 L240 722 Z " />
<glyph glyph-name="quoteright" unicode="&#x2019;" horiz-adv-x="278" d="M38 475 L143 475 L255 722 L109 722 L38 475 Z " />
<glyph glyph-name="quotesinglbase" unicode="&#x201a;" horiz-adv-x="278" d="M38 -114 L143 -114 L255 133 L109 133 L38 -114 Z " />
<glyph glyph-name="quotedblleft" unicode="&#x201c;" horiz-adv-x="556" d="M280 722 L176 722 L64 475 L209 475 L280 722 Z M476 722 L371 722 L259 475 L405 475 L476 722 Z " />
<glyph glyph-name="quotedblright" unicode="&#x201d;" horiz-adv-x="556" d="M80 475 L184 475 L297 722 L151 722 L80 475 Z M276 475 L380 475 L492 722 L346 722 L276 475 Z " />
<glyph glyph-name="quotedblbase" unicode="&#x201e;" horiz-adv-x="556" d="M80 -114 L184 -114 L297 133 L151 133 L80 -114 Z M276 -114 L380 -114 L492 133 L346 133 L276 -114 Z " />
<glyph glyph-name="dagger" unicode="&#x2020;" horiz-adv-x="556" d="M217 465 L217 0 L339 0 L339 465 L498 465 L498 565 L339 565 L339 722 L217 722 L217 565 L58 565 L58 465 L217 465 Z " />
<glyph glyph-name="daggerdbl" unicode="&#x2021;" horiz-adv-x="556" d="M339 572 L339 722 L217 722 L217 572 L58 572 L58 475 L217 475 L217 250 L58 250 L58 153 L217 153 L217 0 L339 0 L339 153 L498 153 L498 250 L339 250 L339 475 L498 475 L498 572 L339 572 Z " />
<glyph glyph-name="bullet" unicode="&#x2022;" horiz-adv-x="500" d="M70 361 C70 262 151 181 250 181 C349 181 430 262 430 361 C430 460 349 541 250 541 C151 541 70 460 70 361 L70 361 Z " />
<glyph glyph-name="ellipsis" unicode="&#x2026;" horiz-adv-x="1000" d="M103 0 L231 0 L231 133 L103 133 L103 0 Z M436 0 L564 0 L564 133 L436 133 L436 0 Z M769 0 L897 0 L897 133 L769 133 L769 0 Z " />
<glyph glyph-name="perthousand" unicode="&#x2030;" horiz-adv-x="1000" d="M513 -15 C618 -15 652 62 652 156 C652 253 621 329 513 329 C405 329 374 253 374 156 C374 62 408 -15 513 -15 L513 -15 Z M513 61 C477 61 471 97 471 150 C471 208 475 253 513 253 C551 253 555 208 555 150 C555 97 549 61 513 61 L513 61 Z M850 -15 C955 -15 989 62 989 156 C989 253 958 329 850 329 C742 329 711 253 711 156 C711 62 745 -15 850 -15 L850 -15 Z M850 61 C814 61 808 97 808 150 C808 208 812 253 850 253 C888 253 892 208 892 150 C892 97 886 61 850 61 L850 61 Z M149 363 C254 363 288 440 288 534 C288 631 257 707 149 707 C41 707 10 631 10 534 C10 440 44 363 149 363 L149 363 Z M149 439 C113 439 107 475 107 528 C107 586 111 631 149 631 C187 631 191 586 191 528 C191 475 185 439 149 439 L149 439 Z M153 -25 L578 717 L505 717 L78 -25 L153 -25 Z " />
<glyph glyph-name="guilsinglleft" unicode="&#x2039;" horiz-adv-x="278" d="M126 56 L258 56 L163 252 L258 442 L126 442 L17 252 L126 56 Z " />
<glyph glyph-name="guilsinglright" unicode="&#x203a;" horiz-adv-x="278" d="M20 442 L115 245 L20 56 L152 56 L261 245 L152 442 L20 442 Z " />
<glyph glyph-name="fraction" unicode="&#x2044;" horiz-adv-x="167" d="M-166 -28 L-84 -28 L333 725 L251 725 L-166 -28 Z " />
<glyph glyph-name="trademark" unicode="&#x2122;" horiz-adv-x="1000" d="M445 361 L514 361 L514 671 L607 361 L669 361 L763 671 L763 361 L837 361 L837 722 L719 722 L640 458 L567 722 L445 722 L445 361 Z M211 361 L287 361 L287 662 L413 662 L413 722 L84 722 L84 662 L211 662 L211 361 Z " />
<glyph glyph-name="minus" unicode="&#x2212;" horiz-adv-x="584" d="M26 202 L558 202 L558 331 L26 331 L26 202 Z " />
<glyph glyph-name="fi" unicode="&#xfb01;" horiz-adv-x="611" d="M75 0 L222 0 L222 400 L316 400 L316 505 L222 505 L222 564 C222 590 222 630 298 630 C310 630 314 629 329 627 L329 730 C287 735 259 735 249 735 C105 735 75 663 75 574 L75 505 L0 505 L0 400 L75 400 L75 0 Z M389 593 L547 593 L547 722 L389 722 L389 593 Z M394 0 L542 0 L542 505 L394 505 L394 0 Z " />
<glyph glyph-name="fl" unicode="&#xfb02;" horiz-adv-x="611" d="M75 0 L222 0 L222 400 L316 400 L316 505 L222 505 L222 564 C222 590 222 630 298 630 C310 630 314 629 329 627 L329 730 C287 735 259 735 249 735 C105 735 75 663 75 574 L75 505 L0 505 L0 400 L75 400 L75 0 Z M394 0 L542 0 L542 722 L394 722 L394 0 Z " />
</font>
</svg>
