<?xml version="1.0" encoding="UTF-8"?>
<svg xmlns="http://www.w3.org/2000/svg" xmlns:xlink="http://www.w3.org/1999/xlink" version="1.2" >
<font id="UniversS 67 Condensed Bold">
<font-face  font-family="Univers" units-per-em="1000" ascent="721.924" descent="-216.797" font-style="normal" font-weight="700" font-stretch="condensed" cap-height="750" x-height="500" underline-position="-75" underline-thickness="50" />
<missing-glyph  horiz-adv-x="222" d="" />
<glyph glyph-name="NULL" d="" />
<glyph glyph-name="CR" unicode="&#xd;" horiz-adv-x="250" d="" />
<glyph glyph-name="space" unicode="&#x20;" horiz-adv-x="222" d="" />
<glyph glyph-name="exclam" unicode="&#x21;" horiz-adv-x="333" d="M236 722 L96 722 L118 193 L214 193 L236 722 Z M106 120 L106 0 L226 0 L226 120 L106 120 Z " />
<glyph glyph-name="quotedbl" unicode="&#x22;" horiz-adv-x="333" d="M318 463 L318 722 L198 722 L198 463 L318 463 Z M135 463 L135 722 L15 722 L15 463 L135 463 Z " />
<glyph glyph-name="numbersign" unicode="&#x23;" horiz-adv-x="444" d="M186 403 L272 403 L258 295 L172 295 L186 403 Z M48 0 L134 0 L159 193 L245 193 L220 0 L306 0 L331 193 L417 193 L417 295 L344 295 L358 403 L446 403 L446 505 L371 505 L396 698 L310 698 L285 505 L199 505 L224 698 L138 698 L113 505 L27 505 L27 403 L100 403 L86 295 L-2 295 L-2 193 L73 193 L48 0 Z " />
<glyph glyph-name="dollar" unicode="&#x24;" horiz-adv-x="444" d="M243 261 C274 238 295 213 295 169 C295 123 275 101 243 95 L243 261 Z M200 95 C148 104 148 163 148 211 L10 211 C10 78 38 -8 200 -9 L200 -95 L243 -95 L243 -9 C348 -1 433 41 433 183 C433 326 323 374 243 423 L243 603 C284 596 293 545 290 505 L422 505 C422 637 382 704 243 707 L243 784 L200 784 L200 707 C98 697 19 644 19 526 C19 397 120 337 200 289 L200 95 Z M200 451 C174 472 157 505 157 535 C157 575 171 594 200 603 L200 451 Z " />
<glyph glyph-name="percent" unicode="&#x25;" horiz-adv-x="778" d="M602 -9 C714 -9 746 53 746 171 C746 275 723 360 602 360 C481 360 458 275 458 171 C458 53 490 -9 602 -9 L602 -9 Z M602 70 C558 70 553 99 553 182 C553 217 551 281 602 281 C653 281 651 217 651 182 C651 99 646 70 602 70 L602 70 Z M176 338 C288 338 320 400 320 518 C320 622 297 707 176 707 C55 707 32 622 32 518 C32 400 64 338 176 338 L176 338 Z M176 417 C132 417 127 446 127 529 C127 564 125 628 176 628 C227 628 225 564 225 529 C225 446 220 417 176 417 L176 417 Z M569 711 L495 711 L203 -21 L277 -21 L569 711 Z " />
<glyph glyph-name="ampersand" unicode="&#x26;" horiz-adv-x="667" d="M511 0 L659 0 L550 148 C599 226 599 320 599 395 L477 395 C477 325 474 298 461 251 L348 399 C406 451 471 499 471 593 C471 702 357 734 288 734 C165 734 70 674 70 594 C70 519 112 462 150 413 C75 364 8 303 8 207 C8 66 100 -12 266 -12 C343 -12 410 1 467 57 L511 0 Z M379 144 C353 110 312 96 269 96 C200 96 159 138 159 207 C159 255 196 296 232 324 L379 144 Z M261 483 C235 513 208 546 208 587 C208 621 239 644 271 644 C310 644 333 620 333 582 C333 537 296 505 261 483 L261 483 Z " />
<glyph glyph-name="quotesingle" unicode="&#x27;" horiz-adv-x="250" d="M185 463 L185 722 L65 722 L65 463 L185 463 Z " />
<glyph glyph-name="parenleft" unicode="&#x28;" horiz-adv-x="278" d="M139 755 C99 653 33 474 33 325 C33 178 92 19 139 -121 L218 -121 C194 6 153 146 153 324 C153 482 189 633 218 755 L139 755 Z " />
<glyph glyph-name="parenright" unicode="&#x29;" horiz-adv-x="278" d="M139 -121 C179 -19 245 160 245 309 C245 456 186 615 139 755 L60 755 C84 628 125 488 125 310 C125 152 89 1 60 -121 L139 -121 Z " />
<glyph glyph-name="asterisk" unicode="&#x2a;" horiz-adv-x="444" d="M222 490 L279 353 L364 405 L275 518 L412 500 L412 597 L275 580 L356 688 L272 734 L222 610 L172 734 L88 688 L169 580 L32 597 L32 500 L169 518 L80 405 L165 353 L222 490 Z " />
<glyph glyph-name="plus" unicode="&#x2b;" horiz-adv-x="500" d="M195 308 L25 308 L25 197 L195 197 L195 0 L306 0 L306 197 L475 197 L475 308 L306 308 L306 505 L195 505 L195 308 Z " />
<glyph glyph-name="comma" unicode="&#x2c;" horiz-adv-x="222" d="M25 -97 L121 -97 L197 132 L66 132 L25 -97 Z " />
<glyph glyph-name="hyphen" unicode="&#x2d;" horiz-adv-x="333" d="M44 321 L44 219 L289 219 L289 321 L44 321 Z " />
<glyph glyph-name="period" unicode="&#x2e;" horiz-adv-x="222" d="M51 132 L51 0 L171 0 L171 132 L51 132 Z " />
<glyph glyph-name="slash" unicode="&#x2f;" horiz-adv-x="278" d="M72 -96 L309 722 L207 722 L-31 -96 L72 -96 Z " />
<glyph glyph-name="zero" unicode="0" horiz-adv-x="444" d="M222 707 C50 707 20 618 20 351 C20 132 34 -9 222 -9 C410 -9 424 132 424 351 C424 618 394 707 222 707 L222 707 Z M222 605 C282 605 283 564 283 349 C283 138 278 93 222 93 C166 93 161 138 161 349 C161 564 162 605 222 605 L222 605 Z " />
<glyph glyph-name="one" unicode="1" horiz-adv-x="444" d="M49 459 C90 481 131 507 167 537 L167 0 L318 0 L318 698 L184 698 C148 651 99 618 49 590 L49 459 Z " />
<glyph glyph-name="two" unicode="2" horiz-adv-x="444" d="M426 0 L426 108 L160 108 C236 192 419 370 419 527 C419 658 336 707 215 707 C86 707 13 635 23 505 L164 505 C164 550 167 605 225 605 C265 605 278 572 278 537 C278 450 232 416 12 123 L12 0 L426 0 Z " />
<glyph glyph-name="three" unicode="3" horiz-adv-x="444" d="M161 524 C161 564 165 605 216 605 C264 605 270 560 270 522 C270 425 242 415 150 419 L150 308 C248 308 281 302 281 201 C281 152 276 93 212 93 C151 93 153 143 153 189 L12 189 C12 40 66 -9 204 -9 C345 -9 422 50 422 194 C422 275 407 347 316 364 L316 366 C392 377 411 455 411 521 C411 654 350 707 220 707 C150 707 100 697 68 670 C36 642 20 596 20 524 L161 524 Z " />
<glyph glyph-name="four" unicode="4" horiz-adv-x="444" d="M22 159 L238 159 L238 0 L376 0 L376 159 L431 159 L431 267 L376 267 L376 698 L191 698 C190 697 190 695 22 300 L22 159 Z M130 267 L257 600 L259 600 L250 267 L130 267 Z " />
<glyph glyph-name="five" unicode="5" horiz-adv-x="444" d="M175 590 L402 590 L402 698 L37 698 L37 293 L173 293 C173 325 185 371 226 371 C290 371 286 276 286 231 C286 136 279 93 223 93 C201 93 188 101 180 114 C172 127 170 145 170 164 L29 164 C25 39 98 -9 214 -9 C357 -9 427 44 427 231 C427 382 393 461 278 461 C237 461 199 447 177 414 L175 416 L175 590 Z " />
<glyph glyph-name="six" unicode="6" horiz-adv-x="444" d="M218 93 C160 93 160 175 160 216 C160 304 164 355 219 355 C272 355 283 316 283 228 C283 120 266 93 218 93 L218 93 Z M417 547 C418 662 339 707 233 707 C34 707 19 568 19 290 C19 147 32 -9 214 -9 C371 -9 424 84 424 229 C424 336 399 451 269 451 C217 451 196 437 157 403 C157 580 159 611 221 611 C241 611 253 604 261 592 C268 581 271 565 270 547 L417 547 Z " />
<glyph glyph-name="seven" unicode="7" horiz-adv-x="444" d="M406 698 L31 698 L31 590 L270 590 L79 0 L236 0 L406 565 L406 698 Z " />
<glyph glyph-name="eight" unicode="8" horiz-adv-x="444" d="M222 312 C285 312 283 230 283 188 C283 148 276 93 222 93 C168 93 161 148 161 188 C161 230 159 312 222 312 L222 312 Z M222 605 C271 605 277 548 277 514 C277 478 272 420 222 420 C172 420 167 478 167 514 C167 548 173 605 222 605 L222 605 Z M222 -9 C354 -9 424 48 424 179 C424 265 411 336 321 368 L321 370 C400 390 418 448 418 522 C418 649 351 707 222 707 C93 707 26 649 26 522 C26 448 44 390 123 370 L123 368 C33 336 20 265 20 179 C20 48 90 -9 222 -9 L222 -9 Z " />
<glyph glyph-name="nine" unicode="9" horiz-adv-x="444" d="M160 487 C160 530 160 611 221 611 C281 611 283 534 283 490 C283 447 280 366 220 366 C160 366 160 444 160 487 L160 487 Z M29 164 C26 32 96 -9 217 -9 C421 -9 424 174 424 346 C424 542 425 707 218 707 C61 707 19 596 19 459 C19 366 60 270 167 270 C212 270 251 284 283 316 C283 150 291 93 221 93 C200 93 187 102 179 115 C171 128 169 146 169 164 L29 164 Z " />
<glyph glyph-name="colon" unicode="&#x3a;" horiz-adv-x="222" d="M51 505 L51 373 L171 373 L171 505 L51 505 Z M171 132 L51 132 L51 0 L171 0 L171 132 Z " />
<glyph glyph-name="semicolon" unicode="&#x3b;" horiz-adv-x="222" d="M12 -97 L108 -97 L184 132 L53 132 L12 -97 Z M171 375 L171 505 L51 505 L51 375 L171 375 Z " />
<glyph glyph-name="less" unicode="&#x3c;" horiz-adv-x="500" d="M162 249 L458 416 L458 527 L42 300 L42 201 L458 -24 L458 87 L162 249 Z " />
<glyph glyph-name="equal" unicode="&#x3d;" horiz-adv-x="500" d="M475 406 L25 406 L25 295 L475 295 L475 406 Z M475 210 L25 210 L25 99 L475 99 L475 210 Z " />
<glyph glyph-name="greater" unicode="&#x3e;" horiz-adv-x="500" d="M42 87 L42 -24 L458 201 L458 300 L42 527 L42 416 L338 249 L42 87 Z " />
<glyph glyph-name="question" unicode="&#x3f;" horiz-adv-x="444" d="M265 193 L265 265 C265 314 301 348 336 392 C372 435 407 488 407 571 C407 678 327 734 225 734 C34 734 37 600 37 529 L157 529 C157 575 157 632 211 632 C258 632 269 600 269 560 C269 516 242 472 216 428 C189 384 162 340 162 296 L162 193 L265 193 Z M275 0 L275 120 L155 120 L155 0 L275 0 Z " />
<glyph glyph-name="at" unicode="&#x40;" horiz-adv-x="795" d="M420 483 C460 483 485 453 485 406 C485 268 432 231 378 231 C336 231 321 275 321 319 C321 410 361 483 420 483 L420 483 Z M611 540 L518 540 L509 495 L507 495 C490 536 458 553 408 553 C285 553 221 442 221 326 C221 249 256 152 347 152 C386 152 433 171 463 210 L465 208 C472 171 505 152 533 152 C648 152 752 278 752 434 C752 540 670 734 416 734 C209 734 43 569 43 362 C43 155 209 -12 416 -12 C537 -12 654 49 719 146 L628 146 C579 96 499 58 416 58 C248 58 113 195 113 362 C113 529 248 664 416 664 C482 664 687 638 682 407 C681 317 628 231 579 231 C564 231 560 239 560 247 C560 253 571 318 576 345 L611 540 Z " />
<glyph glyph-name="A" unicode="A" horiz-adv-x="611" d="M157 0 L198 160 L404 160 L444 0 L603 0 L407 722 L208 722 L8 0 L157 0 Z M372 271 L228 271 L297 583 L299 583 L372 271 Z " />
<glyph glyph-name="B" unicode="B" horiz-adv-x="611" d="M215 316 L303 316 C379 316 404 277 404 213 C404 112 331 111 299 111 L215 111 L215 316 Z M215 611 L308 611 C359 611 395 572 395 519 C395 449 349 427 316 427 L215 427 L215 611 Z M331 0 C395 0 555 8 555 191 C555 290 526 359 419 374 L419 376 C501 392 542 452 542 535 C542 689 447 722 332 722 L64 722 L64 0 L331 0 Z " />
<glyph glyph-name="C" unicode="C" horiz-adv-x="556" d="M305 -12 C446 -12 523 50 523 243 L374 243 C372 186 375 96 305 96 C220 96 209 176 209 361 C209 546 220 626 305 626 C350 626 367 590 367 494 L515 494 C521 649 459 734 305 734 C56 734 56 552 56 361 C56 172 56 -12 305 -12 L305 -12 Z " />
<glyph glyph-name="D" unicode="D" horiz-adv-x="611" d="M215 611 L297 611 C402 611 402 494 402 361 C402 180 384 111 292 111 L215 111 L215 611 Z M64 0 L314 0 C572 0 555 254 555 365 C555 590 518 722 320 722 L64 722 L64 0 Z " />
<glyph glyph-name="E" unicode="E" horiz-adv-x="500" d="M466 0 L466 111 L215 111 L215 322 L439 322 L439 433 L215 433 L215 611 L458 611 L458 722 L64 722 L64 0 L466 0 Z " />
<glyph glyph-name="F" unicode="F" horiz-adv-x="444" d="M215 0 L215 315 L429 315 L429 426 L215 426 L215 611 L439 611 L439 722 L64 722 L64 0 L215 0 Z " />
<glyph glyph-name="G" unicode="G" horiz-adv-x="611" d="M547 500 L547 530 C547 667 449 734 314 734 C65 734 56 549 56 367 C56 93 85 -12 341 -12 C403 -12 506 4 547 12 L547 378 L314 378 L314 267 L396 267 L396 107 C373 99 346 93 320 93 C231 93 209 133 209 359 C209 499 209 626 306 626 C387 626 398 567 397 500 L547 500 Z " />
<glyph glyph-name="H" unicode="H" horiz-adv-x="611" d="M215 433 L215 722 L64 722 L64 0 L215 0 L215 322 L396 322 L396 0 L547 0 L547 722 L396 722 L396 433 L215 433 Z " />
<glyph glyph-name="I" unicode="I" horiz-adv-x="279" d="M215 0 L215 722 L64 722 L64 0 L215 0 Z " />
<glyph glyph-name="J" unicode="J" horiz-adv-x="500" d="M285 722 L285 158 C285 127 261 96 227 96 C148 96 161 182 161 240 L7 240 C7 76 16 -12 227 -12 C334 -12 436 42 436 168 L436 722 L285 722 Z " />
<glyph glyph-name="K" unicode="K" horiz-adv-x="556" d="M217 413 L215 413 L215 722 L64 722 L64 0 L215 0 L215 370 L217 370 L390 0 L560 0 L358 398 L560 722 L394 722 L217 413 Z " />
<glyph glyph-name="L" unicode="L" horiz-adv-x="444" d="M441 0 L441 120 L215 120 L215 722 L64 722 L64 0 L441 0 Z " />
<glyph glyph-name="M" unicode="M" horiz-adv-x="833" d="M482 0 L621 557 L623 557 L623 0 L769 0 L769 722 L535 722 L418 237 L416 237 L306 722 L64 722 L64 0 L210 0 L210 557 L212 557 L344 0 L482 0 Z " />
<glyph glyph-name="N" unicode="N" horiz-adv-x="667" d="M205 0 L205 528 L207 528 L404 0 L603 0 L603 722 L462 722 L462 222 L460 222 L268 722 L64 722 L64 0 L205 0 Z " />
<glyph glyph-name="O" unicode="O" horiz-adv-x="611" d="M305 96 C220 96 209 176 209 361 C209 546 220 626 305 626 C391 626 402 546 402 361 C402 176 391 96 305 96 L305 96 Z M305 -12 C555 -12 555 172 555 361 C555 552 555 734 305 734 C56 734 56 552 56 361 C56 172 57 -12 305 -12 L305 -12 Z " />
<glyph glyph-name="P" unicode="P" horiz-adv-x="556" d="M215 611 L291 611 C359 611 375 561 375 502 C375 454 344 405 299 405 L215 405 L215 611 Z M64 0 L215 0 L215 294 L327 294 C504 294 528 424 528 506 C528 638 474 722 336 722 L64 722 L64 0 Z " />
<glyph glyph-name="Q" unicode="Q" horiz-adv-x="611" d="M607 111 L544 111 C529 111 490 92 468 86 L466 88 C526 138 555 206 555 361 C555 552 555 734 305 734 C56 734 56 552 56 361 C56 110 84 -7 307 -7 C321 -7 336 -5 351 -3 C366 -2 381 0 394 0 L607 0 L607 111 Z M305 101 C220 101 209 181 209 361 C209 546 220 626 305 626 C391 626 402 546 402 361 C402 181 390 101 305 101 L305 101 Z " />
<glyph glyph-name="R" unicode="R" horiz-adv-x="556" d="M215 611 L282 611 C330 611 359 585 359 516 C359 470 342 410 282 410 L215 410 L215 611 Z M215 299 L254 299 C370 299 362 226 362 140 C362 93 362 41 378 0 L526 0 C512 30 509 166 509 212 C509 342 411 350 378 354 L378 356 C476 372 512 441 512 533 C512 656 446 722 343 722 L64 722 L64 0 L215 0 L215 299 Z " />
<glyph glyph-name="S" unicode="S" horiz-adv-x="556" d="M512 197 C512 424 208 412 208 549 C208 599 237 626 286 626 C347 626 356 571 356 517 L503 517 L504 546 C508 676 427 734 293 734 C109 734 55 644 55 531 C55 316 359 308 359 178 C359 129 334 96 283 96 C199 96 196 154 196 223 L45 223 L44 189 C41 79 89 -12 260 -12 C375 -12 512 10 512 197 L512 197 Z " />
<glyph glyph-name="T" unicode="T" horiz-adv-x="500" d="M6 722 L6 602 L174 602 L174 0 L325 0 L325 602 L494 602 L494 722 L6 722 Z " />
<glyph glyph-name="U" unicode="U" horiz-adv-x="611" d="M396 722 L396 220 C396 140 366 96 304 96 C253 96 215 131 215 220 L215 722 L64 722 L64 210 C64 74 144 -12 306 -12 C486 -12 547 102 547 210 L547 722 L396 722 Z " />
<glyph glyph-name="V" unicode="V" horiz-adv-x="556" d="M183 0 L360 0 L551 722 L402 722 L276 197 L274 197 L162 722 L5 722 L183 0 Z " />
<glyph glyph-name="W" unicode="W" horiz-adv-x="889" d="M159 0 L323 0 L448 528 L450 528 L563 0 L730 0 L890 722 L742 722 L652 215 L650 215 L542 722 L364 722 L250 215 L248 215 L154 722 L-1 722 L159 0 Z " />
<glyph glyph-name="X" unicode="X" horiz-adv-x="556" d="M190 378 L4 0 L160 0 L270 249 L381 0 L552 0 L369 365 L549 722 L392 722 L291 485 L188 722 L16 722 L190 378 Z " />
<glyph glyph-name="Y" unicode="Y" horiz-adv-x="556" d="M196 0 L347 0 L347 250 L549 722 L395 722 L280 417 L172 722 L7 722 L196 250 L196 0 Z " />
<glyph glyph-name="Z" unicode="Z" horiz-adv-x="500" d="M36 611 L325 611 L22 132 L22 0 L478 0 L478 111 L167 111 L471 591 L471 722 L36 722 L36 611 Z " />
<glyph glyph-name="bracketleft" unicode="&#x5b;" horiz-adv-x="278" d="M44 -121 L256 -121 L256 -34 L155 -34 L155 668 L256 668 L256 755 L44 755 L44 -121 Z " />
<glyph glyph-name="backslash" unicode="&#x5c;" horiz-adv-x="278" d="M309 -96 L71 722 L-31 722 L206 -96 L309 -96 Z " />
<glyph glyph-name="bracketright" unicode="&#x5d;" horiz-adv-x="278" d="M234 755 L22 755 L22 668 L123 668 L123 -34 L22 -34 L22 -121 L234 -121 L234 755 Z " />
<glyph glyph-name="asciicircum" unicode="&#x5e;" horiz-adv-x="500" d="M129 274 L250 573 L371 274 L497 274 L315 698 L185 698 L3 274 L129 274 Z " />
<glyph glyph-name="underscore" unicode="&#x5f;" horiz-adv-x="500" d="M500 -124 L500 -68 L0 -68 L0 -124 L500 -124 Z " />
<glyph glyph-name="grave" unicode="&#x60;" horiz-adv-x="278" d="M0 738 L160 595 L225 595 L135 738 L0 738 Z " />
<glyph glyph-name="a" unicode="a" horiz-adv-x="500" d="M184 157 C184 247 236 241 306 244 C306 189 319 77 236 77 C190 77 184 121 184 157 L184 157 Z M444 346 C444 438 421 515 242 515 C188 515 142 506 110 482 C77 459 58 420 58 359 L196 359 C196 399 200 436 249 436 C300 436 306 405 306 362 L306 323 C175 325 46 318 46 151 C46 63 82 -10 180 -10 C241 -10 282 15 312 67 L314 67 L320 0 L451 0 C448 31 444 63 444 94 L444 346 Z " />
<glyph glyph-name="b" unicode="b" horiz-adv-x="502" d="M256 77 C208 77 199 130 199 257 C199 358 198 428 256 428 C317 428 316 358 316 257 C316 130 307 77 256 77 L256 77 Z M58 0 L192 0 L192 56 L194 56 C220 7 259 -10 313 -10 C459 -10 454 152 454 256 C454 358 458 515 316 515 C265 515 230 500 201 457 L199 457 L199 722 L58 722 L58 0 Z " />
<glyph glyph-name="c" unicode="c" horiz-adv-x="500" d="M458 325 C458 457 384 515 254 515 C68 515 48 397 48 259 C48 101 72 -10 254 -10 C386 -10 460 49 460 186 L319 186 C319 120 298 80 254 80 C202 80 189 113 189 267 C189 372 194 425 254 425 C298 425 317 400 317 325 L458 325 Z " />
<glyph glyph-name="d" unicode="d" horiz-adv-x="502" d="M246 77 C195 77 186 130 186 257 C186 358 185 428 246 428 C304 428 303 358 303 257 C303 130 294 77 246 77 L246 77 Z M444 0 L444 722 L303 722 L303 457 L301 457 C272 500 237 515 186 515 C44 515 48 358 48 256 C48 152 43 -10 189 -10 C243 -10 282 7 308 56 L310 56 L310 0 L444 0 Z " />
<glyph glyph-name="e" unicode="e" horiz-adv-x="500" d="M190 309 C190 352 189 428 254 428 C321 428 319 358 319 309 L190 309 Z M460 230 C465 392 444 515 254 515 C68 515 48 397 48 259 C48 101 72 -10 254 -10 C320 -10 370 8 403 39 C437 70 455 115 457 170 L314 170 C314 128 304 80 254 80 C192 80 190 170 190 230 L460 230 Z " />
<glyph glyph-name="f" unicode="f" horiz-adv-x="278" d="M273 725 C256 726 240 727 223 727 C51 727 63 650 64 505 L0 505 L0 418 L63 418 L63 0 L204 0 L204 418 L270 418 L270 505 L204 505 L204 566 C204 617 216 639 273 635 L273 725 Z " />
<glyph glyph-name="g" unicode="g" horiz-adv-x="502" d="M303 254 C303 147 296 94 245 94 C179 94 186 190 186 237 C186 391 195 428 246 428 C298 428 303 365 303 254 L303 254 Z M310 505 L310 446 L308 446 C288 493 245 515 195 515 C50 515 48 374 48 263 C48 149 39 7 194 7 C240 7 280 27 301 66 L303 66 L303 -31 C303 -82 286 -115 251 -115 C229 -115 213 -108 204 -95 C195 -83 192 -65 192 -44 L54 -44 C57 -167 147 -194 252 -194 C446 -194 444 -56 444 -21 L444 505 L310 505 Z " />
<glyph glyph-name="h" unicode="h" horiz-adv-x="504" d="M446 0 L446 405 C446 475 387 515 320 515 C294 515 271 511 251 501 C232 492 215 477 201 454 L199 454 L199 722 L58 722 L58 0 L199 0 L199 348 C199 393 207 428 252 428 C297 428 305 393 305 348 L305 0 L446 0 Z " />
<glyph glyph-name="i" unicode="i" horiz-adv-x="257" d="M199 505 L58 505 L58 0 L199 0 L199 505 Z M58 722 L58 611 L199 611 L199 722 L58 722 Z " />
<glyph glyph-name="j" unicode="j" horiz-adv-x="257" d="M58 505 L58 -60 C58 -96 37 -99 21 -99 L21 -188 C37 -190 52 -191 68 -191 C154 -191 199 -151 199 -46 L199 505 L58 505 Z M58 722 L58 611 L199 611 L199 722 L58 722 Z " />
<glyph glyph-name="k" unicode="k" horiz-adv-x="502" d="M199 0 L199 275 L201 275 L332 0 L491 0 L332 280 L475 505 L328 505 L201 292 L199 292 L199 722 L58 722 L58 0 L199 0 Z " />
<glyph glyph-name="l" unicode="l" horiz-adv-x="257" d="M58 722 L58 0 L199 0 L199 722 L58 722 Z " />
<glyph glyph-name="m" unicode="m" horiz-adv-x="748" d="M199 505 L58 505 L58 0 L199 0 L199 348 C199 393 207 428 252 428 C297 428 305 393 305 348 L305 0 L443 0 L443 348 C443 393 451 428 496 428 C541 428 549 393 549 348 L549 0 L690 0 L690 405 C690 475 631 515 564 515 C506 515 466 495 433 451 C410 491 370 515 320 515 C267 515 229 499 201 454 L199 454 L199 505 Z " />
<glyph glyph-name="n" unicode="n" horiz-adv-x="504" d="M199 505 L58 505 L58 0 L199 0 L199 348 C199 393 207 428 252 428 C297 428 305 393 305 348 L305 0 L446 0 L446 405 C446 475 387 515 320 515 C294 515 271 511 251 501 C232 492 215 477 201 454 L199 454 L199 505 Z " />
<glyph glyph-name="o" unicode="o" horiz-adv-x="508" d="M254 80 C202 80 189 113 189 267 C189 372 194 425 254 425 C314 425 319 372 319 267 C319 113 306 80 254 80 L254 80 Z M254 -10 C436 -10 460 101 460 259 C460 397 440 515 254 515 C68 515 48 397 48 259 C48 101 72 -10 254 -10 L254 -10 Z " />
<glyph glyph-name="p" unicode="p" horiz-adv-x="502" d="M256 77 C208 77 199 130 199 257 C199 358 198 428 256 428 C317 428 316 358 316 257 C316 130 307 77 256 77 L256 77 Z M58 505 L58 -217 L199 -217 L199 48 L201 48 C230 5 265 -10 316 -10 C458 -10 454 147 454 249 C454 353 459 515 313 515 C259 515 220 498 194 449 L192 449 L192 505 L58 505 Z " />
<glyph glyph-name="q" unicode="q" horiz-adv-x="502" d="M246 77 C195 77 186 130 186 257 C186 358 185 428 246 428 C304 428 303 358 303 257 C303 130 294 77 246 77 L246 77 Z M444 505 L310 505 L310 449 L308 449 C282 498 243 515 189 515 C43 515 48 353 48 249 C48 147 44 -10 186 -10 C237 -10 272 5 301 48 L303 48 L303 -217 L444 -217 L444 505 Z " />
<glyph glyph-name="r" unicode="r" horiz-adv-x="335" d="M58 505 L58 0 L199 0 L199 275 C199 325 201 397 325 389 L325 515 C268 515 220 498 194 440 L192 440 L192 505 L58 505 Z " />
<glyph glyph-name="s" unicode="s" horiz-adv-x="444" d="M29 162 C21 21 103 -10 226 -10 C343 -10 415 56 415 144 C415 306 167 302 167 382 C167 416 184 436 215 436 C230 436 242 434 251 425 C261 416 265 395 265 360 L403 360 C411 469 324 515 228 515 C137 515 29 482 29 373 C29 212 277 236 277 129 C277 95 253 77 225 77 C197 77 182 85 174 101 C167 117 166 139 167 162 L29 162 Z " />
<glyph glyph-name="t" unicode="t" horiz-adv-x="278" d="M0 418 L63 418 L63 107 C63 42 110 -5 200 -5 C234 -5 254 -2 273 0 L273 87 C266 85 257 85 248 85 C203 85 204 110 204 148 L204 418 L271 418 L271 505 L204 505 L204 648 L63 585 L63 505 L0 505 L0 418 Z " />
<glyph glyph-name="u" unicode="u" horiz-adv-x="504" d="M305 0 L451 0 C448 33 446 67 446 100 L446 505 L305 505 L305 155 C305 110 297 77 252 77 C207 77 199 110 199 155 L199 505 L58 505 L58 100 C58 30 117 -10 184 -10 C211 -10 233 -6 253 4 C273 13 289 29 303 51 L305 51 L305 0 Z " />
<glyph glyph-name="v" unicode="v" horiz-adv-x="448" d="M144 0 L299 0 L438 505 L300 505 L226 126 L224 126 L153 505 L10 505 L144 0 Z " />
<glyph glyph-name="w" unicode="w" horiz-adv-x="778" d="M137 0 L287 0 L389 345 L391 345 L482 0 L630 0 L767 505 L632 505 L556 125 L554 125 L465 505 L319 505 L222 125 L220 125 L151 505 L11 505 L137 0 Z " />
<glyph glyph-name="x" unicode="x" horiz-adv-x="500" d="M243 177 L331 0 L490 0 L345 263 L480 505 L339 505 L254 352 L180 505 L22 505 L159 265 L10 0 L150 0 L243 177 Z " />
<glyph glyph-name="y" unicode="y" horiz-adv-x="446" d="M93 -191 L241 -191 L436 505 L300 505 L224 150 L222 150 L150 505 L10 505 L147 -4 L93 -191 Z " />
<glyph glyph-name="z" unicode="z" horiz-adv-x="389" d="M363 505 L30 505 L30 415 L221 415 L23 100 L23 0 L366 0 L366 90 L162 90 L363 405 L363 505 Z " />
<glyph glyph-name="braceleft" unicode="&#x7b;" horiz-adv-x="278" d="M44 471 C44 420 25 370 -38 370 L-38 283 C25 283 44 241 44 183 L44 27 C44 -72 67 -121 169 -121 L234 -121 L234 -42 C168 -42 155 17 155 67 L155 191 C155 255 144 316 73 326 L73 328 C141 343 155 384 155 454 L155 566 C155 622 168 676 234 676 L234 755 L160 755 C74 755 44 712 44 625 L44 471 Z " />
<glyph glyph-name="bar" unicode="&#x7c;" horiz-adv-x="250" d="M69 -250 L180 -250 L180 750 L69 750 L69 -250 Z " />
<glyph glyph-name="braceright" unicode="&#x7d;" horiz-adv-x="278" d="M234 625 C234 712 204 755 118 755 L44 755 L44 676 C110 676 123 622 123 566 L123 454 C123 384 137 343 205 328 L205 326 C134 316 123 255 123 191 L123 67 C123 17 110 -42 44 -42 L44 -121 L109 -121 C211 -121 234 -72 234 27 L234 183 C234 241 253 283 316 283 L316 370 C253 370 234 420 234 471 L234 625 Z " />
<glyph glyph-name="asciitilde" unicode="&#x7e;" horiz-adv-x="500" d="M418 356 C400 326 383 282 346 282 C304 282 224 348 159 348 C94 348 54 281 25 224 L83 150 C101 184 119 232 160 232 C192 232 286 166 346 166 C412 166 444 229 475 283 L418 356 Z " />
<glyph glyph-name="exclamdown" unicode="&#xa1;" horiz-adv-x="333" d="M214 322 L118 322 L96 -207 L236 -207 L214 322 Z M226 515 L106 515 L106 395 L226 395 L226 515 Z " />
<glyph glyph-name="cent" unicode="&#xa2;" horiz-adv-x="444" d="M159 238 L157 238 L157 267 C157 372 162 425 222 425 C230 425 238 424 244 422 L159 238 Z M279 382 C283 368 285 349 285 325 L426 325 C426 414 393 469 331 494 L366 569 L322 591 L284 509 C266 513 245 515 222 515 C36 515 16 397 16 259 C16 169 24 92 67 45 L24 -39 L68 -63 L107 15 C134 -1 172 -9 222 -9 C354 -9 428 52 428 189 L287 189 C287 123 266 81 222 81 C190 81 173 94 165 137 L279 382 Z " />
<glyph glyph-name="sterling" unicode="&#xa3;" horiz-adv-x="444" d="M336 332 L336 434 L217 434 L217 527 C217 570 232 605 272 605 C311 605 325 564 324 526 L442 526 C443 644 392 707 259 707 C134 707 76 643 76 521 L76 434 L18 434 L18 332 L76 332 L76 102 L20 102 L20 0 L437 0 L437 102 L217 102 L217 332 L336 332 Z " />
<glyph glyph-name="currency" unicode="&#xa4;" horiz-adv-x="444" d="M9 149 L80 83 L116 122 C148 99 186 88 225 88 C262 88 297 101 330 122 L367 83 L436 145 L393 194 C414 227 423 269 423 310 C423 353 414 389 393 425 L435 471 L367 535 L330 496 C297 518 259 530 221 530 C186 530 147 516 116 496 L80 535 L8 471 L51 425 C30 388 21 353 21 309 C21 263 31 233 51 194 L9 149 Z M223 433 C285 433 323 389 323 310 C323 229 285 185 223 185 C162 185 122 231 122 310 C122 385 162 433 223 433 L223 433 Z " />
<glyph glyph-name="yen" unicode="&#xa5;" horiz-adv-x="444" d="M10 97 L145 97 L145 0 L286 0 L286 97 L434 97 L434 187 L286 187 L286 266 L434 266 L434 356 L320 356 L483 698 L330 698 L224 427 L124 698 L-40 698 L113 356 L10 356 L10 266 L145 266 L145 187 L10 187 L10 97 Z " />
<glyph glyph-name="brokenbar" unicode="&#xa6;" horiz-adv-x="250" d="M69 -175 L180 -175 L180 175 L69 175 L69 -175 Z M180 675 L69 675 L69 325 L180 325 L180 675 Z " />
<glyph glyph-name="section" unicode="&#xa7;" horiz-adv-x="444" d="M229 291 C196 303 147 326 147 367 C147 410 203 429 219 435 C256 423 296 408 296 366 C296 329 258 308 229 291 L229 291 Z M391 703 C342 720 290 734 237 734 C109 734 48 672 48 597 C48 537 70 505 122 475 C72 451 27 405 27 347 C27 188 255 216 255 139 C255 100 224 90 191 90 C137 90 85 113 37 134 L37 17 C70 4 133 -12 193 -12 C291 -12 406 17 406 136 C406 192 377 226 328 249 C376 277 416 319 416 378 C416 533 189 513 189 590 C189 622 220 632 247 632 C295 632 348 610 391 591 L391 703 Z " />
<glyph glyph-name="dieresis" unicode="&#xa8;" horiz-adv-x="278" d="M172 722 L172 611 L283 611 L283 722 L172 722 Z M-5 722 L-5 611 L106 611 L106 722 L-5 722 Z " />
<glyph glyph-name="copyright" unicode="&#xa9;" horiz-adv-x="830" d="M416 734 C209 734 43 569 43 362 C43 155 209 -12 416 -12 C622 -12 787 155 787 362 C787 569 622 734 416 734 L416 734 Z M416 58 C248 58 113 195 113 362 C113 529 248 664 416 664 C581 664 717 529 717 362 C717 195 581 58 416 58 L416 58 Z M416 138 C508 138 558 175 558 291 L460 291 C459 257 461 204 409 204 C362 204 353 231 353 367 C353 465 360 519 407 519 C443 519 456 499 456 441 L554 441 C558 534 518 585 416 585 C255 585 255 476 255 362 C255 248 255 138 416 138 L416 138 Z " />
<glyph glyph-name="ordfeminine" unicode="&#xaa;" horiz-adv-x="300" d="M185 571 C185 538 193 470 139 470 C109 470 106 498 106 519 C106 573 139 570 185 571 L185 571 Z M194 425 L279 425 C277 444 275 463 275 481 L275 633 C275 688 259 734 143 734 C108 734 78 729 57 714 C36 700 24 677 24 640 L114 640 C114 664 116 687 148 687 C181 687 185 668 185 642 L185 618 C100 619 16 616 16 516 C16 463 39 418 103 418 C142 418 169 434 188 465 L190 465 L194 425 Z " />
<glyph glyph-name="guillemotleft" unicode="&#xab;" horiz-adv-x="444" d="M120 75 L235 75 L149 272 L237 464 L121 464 L29 272 L120 75 Z M298 75 L413 75 L327 272 L415 464 L299 464 L207 272 L298 75 Z " />
<glyph glyph-name="logicalnot" unicode="&#xac;" horiz-adv-x="500" d="M364 105 L475 105 L475 406 L25 406 L25 295 L364 295 L364 105 Z " />
<glyph glyph-name="registered" unicode="&#xae;" horiz-adv-x="830" d="M330 734 C229 734 141 652 141 545 C141 439 227 355 330 355 C435 355 520 440 520 545 C520 652 433 734 330 734 L330 734 Z M330 696 C413 696 482 629 482 545 C482 462 414 393 330 393 C247 393 179 461 179 545 C179 630 248 696 330 696 L330 696 Z M259 439 L301 439 L301 524 L337 524 C352 524 356 518 359 506 C359 503 366 449 367 439 L412 439 C406 449 403 478 401 495 C397 522 395 541 366 543 C381 548 406 556 406 595 C406 651 357 651 332 651 L259 651 L259 439 Z M300 617 L333 617 C344 617 364 617 364 588 C364 577 359 558 332 558 L300 558 L300 617 Z " />
<glyph glyph-name="macron" unicode="&#xaf;" horiz-adv-x="278" d="M-6 630 L283 630 L283 703 L-6 703 L-6 630 Z " />
<glyph glyph-name="degree" unicode="&#xb0;" horiz-adv-x="400" d="M350 557 C350 639 282 707 200 707 C117 707 49 639 50 557 C50 474 117 407 200 407 C282 407 350 474 350 557 L350 557 Z M129 557 C128 596 161 628 200 628 C240 628 271 596 271 557 C271 517 240 486 201 486 C161 486 129 517 129 557 L129 557 Z " />
<glyph glyph-name="plusminus" unicode="&#xb1;" horiz-adv-x="500" d="M195 382 L25 382 L25 271 L195 271 L195 138 L306 138 L306 271 L475 271 L475 382 L306 382 L306 515 L195 515 L195 382 Z M25 -12 L475 -12 L475 99 L25 99 L25 -12 Z " />
<glyph glyph-name="twosuperior" unicode="&#xb2;" horiz-adv-x="266" d="M94 348 C144 398 262 505 262 599 C262 678 209 707 130 707 C88 707 55 696 34 676 C12 655 2 625 5 586 L97 586 C97 613 99 642 136 642 C162 642 171 626 171 605 C171 553 141 532 -2 357 L-2 283 L267 283 L267 348 L94 348 Z " />
<glyph glyph-name="threesuperior" unicode="&#xb3;" horiz-adv-x="266" d="M96 597 C96 621 99 646 132 646 C163 646 167 619 167 596 C167 538 149 532 89 534 L89 468 C153 468 174 464 174 403 C174 374 171 337 129 337 C110 337 100 345 95 356 C91 368 91 383 91 396 L-1 396 C-1 307 34 276 124 276 C216 276 266 311 266 399 C266 448 256 491 197 500 L197 502 C246 509 259 556 259 595 C259 675 219 707 135 707 C89 707 57 701 36 685 C15 668 5 640 5 597 L96 597 Z " />
<glyph glyph-name="acute" unicode="&#xb4;" horiz-adv-x="278" d="M143 738 L53 595 L118 595 L278 738 L143 738 Z " />
<glyph glyph-name="mu" unicode="&#xb5;" horiz-adv-x="504" d="M305 0 L451 0 C448 33 446 67 446 100 L446 505 L305 505 L305 155 C305 110 297 77 252 77 C207 77 199 110 199 155 L199 505 L58 505 L58 -191 L199 -191 L199 -10 C244 -9 278 10 303 51 L305 51 L305 0 Z " />
<glyph glyph-name="paragraph" unicode="&#xb6;" horiz-adv-x="550" d="M365 -96 L485 -96 L485 602 L529 602 L529 722 L220 722 C95 722 20 679 20 544 C20 444 73 373 177 373 L177 -96 L297 -96 L297 602 L365 602 L365 -96 Z " />
<glyph glyph-name="periodcentered" unicode="&#xb7;" horiz-adv-x="222" d="M51 315 L51 183 L171 183 L171 249 L171 315 L51 315 Z " />
<glyph glyph-name="cedilla" unicode="&#xb8;" horiz-adv-x="278" d="M16 -200 C48 -214 84 -226 119 -226 C178 -226 240 -198 240 -131 C240 -80 194 -56 148 -56 C140 -56 132 -58 126 -60 L124 -58 L168 0 L119 0 L53 -88 L75 -107 C101 -95 161 -95 161 -135 C161 -168 127 -176 100 -176 C77 -176 56 -168 35 -160 L16 -200 Z " />
<glyph glyph-name="onesuperior" unicode="&#xb9;" horiz-adv-x="266" d="M25 559 C52 572 79 587 102 605 L102 283 L200 283 L200 707 L113 707 C90 674 58 654 25 637 L25 559 Z " />
<glyph glyph-name="ordmasculine" unicode="&#xba;" horiz-adv-x="300" d="M150 472 C116 472 108 493 108 585 C108 648 111 680 150 680 C189 680 192 648 192 585 C192 493 184 472 150 472 L150 472 Z M150 418 C268 418 284 486 284 580 C284 663 271 734 150 734 C29 734 16 663 16 580 C16 486 32 418 150 418 L150 418 Z " />
<glyph glyph-name="guillemotright" unicode="&#xbb;" horiz-adv-x="444" d="M324 464 L209 464 L295 267 L207 75 L323 75 L415 267 L324 464 Z M146 464 L31 464 L117 267 L29 75 L145 75 L237 267 L146 464 Z " />
<glyph glyph-name="onequarter" unicode="&#xbc;" horiz-adv-x="666" d="M436 160 L518 360 L520 360 L514 160 L436 160 Z M596 0 L596 95 L632 95 L632 160 L596 160 L596 419 L476 419 C475 418 475 417 366 180 L366 95 L506 95 L506 0 L596 0 Z M25 559 C52 572 79 587 102 605 L102 283 L200 283 L200 707 L113 707 C90 674 58 654 25 637 L25 559 Z M468 733 L403 733 L140 -28 L202 -28 L468 733 Z " />
<glyph glyph-name="onehalf" unicode="&#xbd;" horiz-adv-x="666" d="M25 559 C52 572 79 587 102 605 L102 283 L200 283 L200 707 L113 707 C90 674 58 654 25 637 L25 559 Z M463 733 L398 733 L135 -28 L197 -28 L463 733 Z M478 65 C528 115 646 222 646 316 C646 395 593 424 514 424 C472 424 439 413 418 393 C396 372 386 342 389 303 L481 303 C481 330 483 359 520 359 C546 359 555 343 555 322 C555 270 525 249 382 74 L382 0 L651 0 L651 65 L478 65 Z " />
<glyph glyph-name="threequarters" unicode="&#xbe;" horiz-adv-x="666" d="M458 160 L540 360 L542 360 L536 160 L458 160 Z M618 0 L618 95 L654 95 L654 160 L618 160 L618 419 L498 419 C497 418 497 417 388 180 L388 95 L528 95 L528 0 L618 0 Z M98 597 C98 621 101 646 134 646 C165 646 169 619 169 596 C169 538 151 532 91 534 L91 468 C155 468 176 464 176 403 C176 374 173 337 131 337 C112 337 102 345 97 356 C93 368 93 383 93 396 L1 396 C1 307 36 276 126 276 C218 276 268 311 268 399 C268 448 258 491 199 500 L199 502 C248 509 261 556 261 595 C261 675 221 707 137 707 C91 707 59 701 38 685 C17 668 7 640 7 597 L98 597 Z M510 733 L445 733 L182 -28 L244 -28 L510 733 Z " />
<glyph glyph-name="questiondown" unicode="&#xbf;" horiz-adv-x="444" d="M179 322 L179 250 C179 201 143 167 108 123 C72 80 37 27 37 -56 C37 -163 117 -219 219 -219 C410 -219 407 -85 407 -14 L287 -14 C287 -60 287 -117 233 -117 C186 -117 175 -85 175 -45 C175 -1 202 43 228 87 C255 131 282 175 282 219 L282 322 L179 322 Z M169 515 L169 395 L289 395 L289 515 L169 515 Z " />
<glyph glyph-name="Agrave" unicode="&#xc0;" horiz-adv-x="611" d="M157 0 L198 160 L404 160 L444 0 L603 0 L407 722 L208 722 L8 0 L157 0 Z M372 271 L228 271 L297 583 L299 583 L372 271 Z M167 938 L327 795 L392 795 L302 938 L167 938 Z " />
<glyph glyph-name="Aacute" unicode="&#xc1;" horiz-adv-x="611" d="M157 0 L198 160 L404 160 L444 0 L603 0 L407 722 L208 722 L8 0 L157 0 Z M372 271 L228 271 L297 583 L299 583 L372 271 Z M310 938 L220 795 L285 795 L445 938 L310 938 Z " />
<glyph glyph-name="Acircumflex" unicode="&#xc2;" horiz-adv-x="611" d="M157 0 L198 160 L404 160 L444 0 L603 0 L407 722 L208 722 L8 0 L157 0 Z M372 271 L228 271 L297 583 L299 583 L372 271 Z M306 884 L377 795 L468 795 L362 938 L250 938 L144 795 L235 795 L306 884 Z " />
<glyph glyph-name="Atilde" unicode="&#xc3;" horiz-adv-x="611" d="M157 0 L198 160 L404 160 L444 0 L603 0 L407 722 L208 722 L8 0 L157 0 Z M372 271 L228 271 L297 583 L299 583 L372 271 Z M420 929 C417 899 402 881 374 881 C358 881 336 892 312 903 C288 914 261 929 232 929 C170 929 135 857 128 803 L187 803 C191 824 201 847 226 847 C247 847 271 839 296 826 C321 813 348 803 376 803 C409 803 433 825 449 847 C466 869 476 899 481 929 L420 929 Z " />
<glyph glyph-name="Adieresis" unicode="&#xc4;" horiz-adv-x="611" d="M157 0 L198 160 L404 160 L444 0 L603 0 L407 722 L208 722 L8 0 L157 0 Z M372 271 L228 271 L297 583 L299 583 L372 271 Z M339 922 L339 811 L450 811 L450 922 L339 922 Z M162 922 L162 811 L273 811 L273 922 L162 922 Z " />
<glyph glyph-name="Aring" unicode="&#xc5;" horiz-adv-x="611" d="M157 0 L198 160 L404 160 L444 0 L603 0 L407 722 L208 722 L8 0 L157 0 Z M372 271 L228 271 L297 583 L299 583 L372 271 Z M410 855 C410 911 363 959 306 959 C249 959 202 911 202 855 C202 798 249 751 306 751 C363 751 410 798 410 855 L410 855 Z M247 855 C247 887 273 914 306 914 C338 914 365 887 365 855 C365 822 338 796 306 796 C273 796 247 822 247 855 L247 855 Z " />
<glyph glyph-name="AE" unicode="&#xc6;" horiz-adv-x="833" d="M156 0 L204 160 L429 160 L456 0 L799 0 L799 111 L586 111 L546 322 L766 322 L766 433 L527 433 L494 611 L780 611 L780 722 L246 722 L8 0 L156 0 Z M240 271 L345 627 L347 627 L409 271 L240 271 Z " />
<glyph glyph-name="Ccedilla" unicode="&#xc7;" horiz-adv-x="556" d="M213 -88 L235 -107 C261 -95 321 -95 321 -135 C321 -168 287 -176 260 -176 C237 -176 216 -168 195 -160 L176 -200 C208 -214 244 -226 279 -226 C338 -226 400 -198 400 -131 C400 -80 354 -56 308 -56 C300 -56 292 -58 286 -60 L284 -58 L320 -11 C452 -7 523 58 523 243 L374 243 C372 186 375 96 305 96 C220 96 209 176 209 361 C209 546 220 626 305 626 C350 626 367 590 367 494 L515 494 C521 649 459 734 305 734 C56 734 56 552 56 361 C56 181 56 6 271 -10 L213 -88 Z " />
<glyph glyph-name="Egrave" unicode="&#xc8;" horiz-adv-x="500" d="M466 0 L466 111 L215 111 L215 322 L439 322 L439 433 L215 433 L215 611 L458 611 L458 722 L64 722 L64 0 L466 0 Z M111 938 L271 795 L336 795 L246 938 L111 938 Z " />
<glyph glyph-name="Eacute" unicode="&#xc9;" horiz-adv-x="500" d="M466 0 L466 111 L215 111 L215 322 L439 322 L439 433 L215 433 L215 611 L458 611 L458 722 L64 722 L64 0 L466 0 Z M254 938 L164 795 L229 795 L389 938 L254 938 Z " />
<glyph glyph-name="Ecircumflex" unicode="&#xca;" horiz-adv-x="500" d="M466 0 L466 111 L215 111 L215 322 L439 322 L439 433 L215 433 L215 611 L458 611 L458 722 L64 722 L64 0 L466 0 Z M250 884 L321 795 L412 795 L306 938 L194 938 L88 795 L179 795 L250 884 Z " />
<glyph glyph-name="Edieresis" unicode="&#xcb;" horiz-adv-x="500" d="M466 0 L466 111 L215 111 L215 322 L439 322 L439 433 L215 433 L215 611 L458 611 L458 722 L64 722 L64 0 L466 0 Z M283 922 L283 811 L394 811 L394 922 L283 922 Z M106 922 L106 811 L217 811 L217 922 L106 922 Z " />
<glyph glyph-name="Igrave" unicode="&#xcc;" horiz-adv-x="279" d="M215 0 L215 722 L64 722 L64 0 L215 0 Z M1 938 L161 795 L226 795 L136 938 L1 938 Z " />
<glyph glyph-name="Iacute" unicode="&#xcd;" horiz-adv-x="279" d="M215 0 L215 722 L64 722 L64 0 L215 0 Z M144 938 L54 795 L119 795 L279 938 L144 938 Z " />
<glyph glyph-name="Icircumflex" unicode="&#xce;" horiz-adv-x="279" d="M215 0 L215 722 L64 722 L64 0 L215 0 Z M140 884 L211 795 L302 795 L196 938 L84 938 L-22 795 L69 795 L140 884 Z " />
<glyph glyph-name="Idieresis" unicode="&#xcf;" horiz-adv-x="279" d="M215 0 L215 722 L64 722 L64 0 L215 0 Z M173 922 L173 811 L284 811 L284 922 L173 922 Z M-4 922 L-4 811 L107 811 L107 922 L-4 922 Z " />
<glyph glyph-name="Eth" unicode="&#xd0;" horiz-adv-x="611" d="M64 0 L314 0 C572 0 555 254 555 365 C555 590 518 722 320 722 L64 722 L64 433 L5 433 L5 354 L64 354 L64 0 Z M215 354 L312 354 L312 433 L215 433 L215 611 L297 611 C402 611 402 494 402 361 C402 180 384 111 292 111 L215 111 L215 354 Z " />
<glyph glyph-name="Ntilde" unicode="&#xd1;" horiz-adv-x="667" d="M205 0 L205 528 L207 528 L404 0 L603 0 L603 722 L462 722 L462 222 L460 222 L268 722 L64 722 L64 0 L205 0 Z M448 929 C445 899 430 881 402 881 C386 881 364 892 340 903 C316 914 289 929 260 929 C198 929 163 857 156 803 L215 803 C219 824 229 847 254 847 C275 847 299 839 324 826 C349 813 376 803 404 803 C437 803 461 825 477 847 C494 869 504 899 509 929 L448 929 Z " />
<glyph glyph-name="Ograve" unicode="&#xd2;" horiz-adv-x="611" d="M305 96 C220 96 209 176 209 361 C209 546 220 626 305 626 C391 626 402 546 402 361 C402 176 391 96 305 96 L305 96 Z M305 -12 C555 -12 555 172 555 361 C555 552 555 734 305 734 C56 734 56 552 56 361 C56 172 57 -12 305 -12 L305 -12 Z M167 938 L327 795 L392 795 L302 938 L167 938 Z " />
<glyph glyph-name="Oacute" unicode="&#xd3;" horiz-adv-x="611" d="M305 96 C220 96 209 176 209 361 C209 546 220 626 305 626 C391 626 402 546 402 361 C402 176 391 96 305 96 L305 96 Z M305 -12 C555 -12 555 172 555 361 C555 552 555 734 305 734 C56 734 56 552 56 361 C56 172 57 -12 305 -12 L305 -12 Z M310 938 L220 795 L285 795 L445 938 L310 938 Z " />
<glyph glyph-name="Ocircumflex" unicode="&#xd4;" horiz-adv-x="611" d="M305 96 C220 96 209 176 209 361 C209 546 220 626 305 626 C391 626 402 546 402 361 C402 176 391 96 305 96 L305 96 Z M305 -12 C555 -12 555 172 555 361 C555 552 555 734 305 734 C56 734 56 552 56 361 C56 172 57 -12 305 -12 L305 -12 Z M306 884 L377 795 L468 795 L362 938 L250 938 L144 795 L235 795 L306 884 Z " />
<glyph glyph-name="Otilde" unicode="&#xd5;" horiz-adv-x="611" d="M305 96 C220 96 209 176 209 361 C209 546 220 626 305 626 C391 626 402 546 402 361 C402 176 391 96 305 96 L305 96 Z M305 -12 C555 -12 555 172 555 361 C555 552 555 734 305 734 C56 734 56 552 56 361 C56 172 57 -12 305 -12 L305 -12 Z M420 929 C417 899 402 881 374 881 C358 881 336 892 312 903 C288 914 261 929 232 929 C170 929 135 857 128 803 L187 803 C191 824 201 847 226 847 C247 847 271 839 296 826 C321 813 348 803 376 803 C409 803 433 825 449 847 C466 869 476 899 481 929 L420 929 Z " />
<glyph glyph-name="Odieresis" unicode="&#xd6;" horiz-adv-x="611" d="M305 96 C220 96 209 176 209 361 C209 546 220 626 305 626 C391 626 402 546 402 361 C402 176 391 96 305 96 L305 96 Z M305 -12 C555 -12 555 172 555 361 C555 552 555 734 305 734 C56 734 56 552 56 361 C56 172 57 -12 305 -12 L305 -12 Z M339 922 L339 811 L450 811 L450 922 L339 922 Z M162 922 L162 811 L273 811 L273 922 L162 922 Z " />
<glyph glyph-name="multiply" unicode="&#xd7;" horiz-adv-x="500" d="M172 253 L25 106 L103 28 L250 175 L397 28 L475 106 L328 253 L475 400 L397 478 L250 331 L103 478 L25 400 L172 253 Z " />
<glyph glyph-name="Oslash" unicode="&#xd8;" horiz-adv-x="611" d="M400 444 C402 422 402 393 402 361 C402 176 391 96 305 96 C257 96 233 121 221 178 L400 444 Z M211 277 C209 301 209 330 209 361 C209 546 220 626 305 626 C353 626 378 601 390 543 L211 277 Z M26 2 L78 -35 L131 43 C167 8 223 -12 305 -12 C555 -12 555 172 555 361 C555 458 555 554 521 624 L585 719 L533 755 L481 678 C445 713 389 734 305 734 C56 734 56 552 56 361 C56 264 56 168 91 98 L26 2 Z " />
<glyph glyph-name="Ugrave" unicode="&#xd9;" horiz-adv-x="611" d="M396 722 L396 220 C396 140 366 96 304 96 C253 96 215 131 215 220 L215 722 L64 722 L64 210 C64 74 144 -12 306 -12 C486 -12 547 102 547 210 L547 722 L396 722 Z M167 938 L327 795 L392 795 L302 938 L167 938 Z " />
<glyph glyph-name="Uacute" unicode="&#xda;" horiz-adv-x="611" d="M396 722 L396 220 C396 140 366 96 304 96 C253 96 215 131 215 220 L215 722 L64 722 L64 210 C64 74 144 -12 306 -12 C486 -12 547 102 547 210 L547 722 L396 722 Z M310 938 L220 795 L285 795 L445 938 L310 938 Z " />
<glyph glyph-name="Ucircumflex" unicode="&#xdb;" horiz-adv-x="611" d="M396 722 L396 220 C396 140 366 96 304 96 C253 96 215 131 215 220 L215 722 L64 722 L64 210 C64 74 144 -12 306 -12 C486 -12 547 102 547 210 L547 722 L396 722 Z M306 884 L377 795 L468 795 L362 938 L250 938 L144 795 L235 795 L306 884 Z " />
<glyph glyph-name="Udieresis" unicode="&#xdc;" horiz-adv-x="611" d="M396 722 L396 220 C396 140 366 96 304 96 C253 96 215 131 215 220 L215 722 L64 722 L64 210 C64 74 144 -12 306 -12 C486 -12 547 102 547 210 L547 722 L396 722 Z M339 922 L339 811 L450 811 L450 922 L339 922 Z M162 922 L162 811 L273 811 L273 922 L162 922 Z " />
<glyph glyph-name="Yacute" unicode="&#xdd;" horiz-adv-x="556" d="M196 0 L347 0 L347 250 L549 722 L395 722 L280 417 L172 722 L7 722 L196 250 L196 0 Z M312 938 L222 795 L287 795 L447 938 L312 938 Z " />
<glyph glyph-name="Thorn" unicode="&#xde;" horiz-adv-x="556" d="M215 482 L291 482 C359 482 375 432 375 373 C375 325 344 276 299 276 L215 276 L215 482 Z M64 0 L215 0 L215 165 L327 165 C504 165 528 295 528 377 C528 509 474 593 336 593 L215 593 L215 722 L64 722 L64 0 Z " />
<glyph glyph-name="germandbls" unicode="&#xdf;" horiz-adv-x="556" d="M58 0 L199 0 L199 554 C199 610 222 645 278 645 C324 645 343 614 343 571 C343 522 320 496 298 473 C275 451 252 431 252 394 C252 350 286 310 320 270 C354 231 388 194 388 155 C388 105 346 98 303 98 C289 98 273 99 259 103 L259 0 C281 -6 303 -10 325 -10 C449 -10 526 54 526 159 C526 226 492 270 458 307 C424 343 390 371 390 406 C390 441 415 457 437 480 C458 502 481 529 481 583 C481 705 381 734 278 734 C152 734 58 690 58 549 L58 0 Z " />
<glyph glyph-name="agrave" unicode="&#xe0;" horiz-adv-x="500" d="M184 157 C184 247 236 241 306 244 C306 189 319 77 236 77 C190 77 184 121 184 157 L184 157 Z M444 346 C444 438 421 515 242 515 C188 515 142 506 110 482 C77 459 58 420 58 359 L196 359 C196 399 200 436 249 436 C300 436 306 405 306 362 L306 323 C175 325 46 318 46 151 C46 63 82 -10 180 -10 C241 -10 282 15 312 67 L314 67 L320 0 L451 0 C448 31 444 63 444 94 L444 346 Z M111 738 L271 595 L336 595 L246 738 L111 738 Z " />
<glyph glyph-name="aacute" unicode="&#xe1;" horiz-adv-x="500" d="M184 157 C184 247 236 241 306 244 C306 189 319 77 236 77 C190 77 184 121 184 157 L184 157 Z M444 346 C444 438 421 515 242 515 C188 515 142 506 110 482 C77 459 58 420 58 359 L196 359 C196 399 200 436 249 436 C300 436 306 405 306 362 L306 323 C175 325 46 318 46 151 C46 63 82 -10 180 -10 C241 -10 282 15 312 67 L314 67 L320 0 L451 0 C448 31 444 63 444 94 L444 346 Z M254 738 L164 595 L229 595 L389 738 L254 738 Z " />
<glyph glyph-name="acircumflex" unicode="&#xe2;" horiz-adv-x="500" d="M184 157 C184 247 236 241 306 244 C306 189 319 77 236 77 C190 77 184 121 184 157 L184 157 Z M444 346 C444 438 421 515 242 515 C188 515 142 506 110 482 C77 459 58 420 58 359 L196 359 C196 399 200 436 249 436 C300 436 306 405 306 362 L306 323 C175 325 46 318 46 151 C46 63 82 -10 180 -10 C241 -10 282 15 312 67 L314 67 L320 0 L451 0 C448 31 444 63 444 94 L444 346 Z M250 684 L321 595 L412 595 L306 738 L194 738 L88 595 L179 595 L250 684 Z " />
<glyph glyph-name="atilde" unicode="&#xe3;" horiz-adv-x="500" d="M184 157 C184 247 236 241 306 244 C306 189 319 77 236 77 C190 77 184 121 184 157 L184 157 Z M444 346 C444 438 421 515 242 515 C188 515 142 506 110 482 C77 459 58 420 58 359 L196 359 C196 399 200 436 249 436 C300 436 306 405 306 362 L306 323 C175 325 46 318 46 151 C46 63 82 -10 180 -10 C241 -10 282 15 312 67 L314 67 L320 0 L451 0 C448 31 444 63 444 94 L444 346 Z M364 729 C361 699 346 681 318 681 C302 681 280 692 256 703 C232 714 205 729 176 729 C114 729 79 657 72 603 L131 603 C135 624 145 647 170 647 C191 647 215 639 240 626 C265 613 292 603 320 603 C353 603 377 625 393 647 C410 669 420 699 425 729 L364 729 Z " />
<glyph glyph-name="adieresis" unicode="&#xe4;" horiz-adv-x="500" d="M184 157 C184 247 236 241 306 244 C306 189 319 77 236 77 C190 77 184 121 184 157 L184 157 Z M444 346 C444 438 421 515 242 515 C188 515 142 506 110 482 C77 459 58 420 58 359 L196 359 C196 399 200 436 249 436 C300 436 306 405 306 362 L306 323 C175 325 46 318 46 151 C46 63 82 -10 180 -10 C241 -10 282 15 312 67 L314 67 L320 0 L451 0 C448 31 444 63 444 94 L444 346 Z M283 722 L283 611 L394 611 L394 722 L283 722 Z M106 722 L106 611 L217 611 L217 722 L106 722 Z " />
<glyph glyph-name="aring" unicode="&#xe5;" horiz-adv-x="500" d="M184 157 C184 247 236 241 306 244 C306 189 319 77 236 77 C190 77 184 121 184 157 L184 157 Z M444 346 C444 438 421 515 242 515 C188 515 142 506 110 482 C77 459 58 420 58 359 L196 359 C196 399 200 436 249 436 C300 436 306 405 306 362 L306 323 C175 325 46 318 46 151 C46 63 82 -10 180 -10 C241 -10 282 15 312 67 L314 67 L320 0 L451 0 C448 31 444 63 444 94 L444 346 Z M354 666 C354 722 307 770 250 770 C193 770 146 722 146 666 C146 609 193 562 250 562 C307 562 354 609 354 666 L354 666 Z M191 666 C191 698 217 725 250 725 C282 725 309 698 309 666 C309 633 282 607 250 607 C217 607 191 633 191 666 L191 666 Z " />
<glyph glyph-name="ae" unicode="&#xe6;" horiz-adv-x="778" d="M248 80 C205 80 184 105 184 145 C184 238 234 240 328 235 C328 173 342 80 248 80 L248 80 Z M466 314 C466 352 465 436 535 436 C599 436 597 358 597 314 L466 314 Z M738 235 C743 392 722 515 535 515 C481 515 434 499 401 444 C376 501 313 515 256 515 C146 515 60 486 59 358 L197 358 C197 402 211 436 260 436 C340 436 328 371 328 314 C143 320 46 296 46 149 C46 43 111 -10 213 -10 C286 -10 344 9 382 78 C406 5 480 -10 535 -10 C664 -10 730 60 735 170 L592 170 C592 128 582 80 535 80 C468 80 466 170 466 235 L738 235 Z " />
<glyph glyph-name="ccedilla" unicode="&#xe7;" horiz-adv-x="500" d="M177 -88 L199 -107 C225 -95 285 -95 285 -135 C285 -168 251 -176 224 -176 C201 -176 180 -168 159 -160 L140 -200 C172 -214 208 -226 243 -226 C302 -226 364 -198 364 -131 C364 -80 318 -56 272 -56 C264 -56 256 -58 250 -60 L248 -58 L286 -8 C398 1 460 61 460 186 L319 186 C319 120 298 80 254 80 C202 80 189 113 189 267 C189 372 194 425 254 425 C298 425 317 400 317 325 L458 325 C458 457 384 515 254 515 C68 515 48 397 48 259 C48 107 70 -2 237 -8 L177 -88 Z " />
<glyph glyph-name="egrave" unicode="&#xe8;" horiz-adv-x="500" d="M190 309 C190 352 189 428 254 428 C321 428 319 358 319 309 L190 309 Z M460 230 C465 392 444 515 254 515 C68 515 48 397 48 259 C48 101 72 -10 254 -10 C320 -10 370 8 403 39 C437 70 455 115 457 170 L314 170 C314 128 304 80 254 80 C192 80 190 170 190 230 L460 230 Z M111 738 L271 595 L336 595 L246 738 L111 738 Z " />
<glyph glyph-name="eacute" unicode="&#xe9;" horiz-adv-x="500" d="M190 309 C190 352 189 428 254 428 C321 428 319 358 319 309 L190 309 Z M460 230 C465 392 444 515 254 515 C68 515 48 397 48 259 C48 101 72 -10 254 -10 C320 -10 370 8 403 39 C437 70 455 115 457 170 L314 170 C314 128 304 80 254 80 C192 80 190 170 190 230 L460 230 Z M254 738 L164 595 L229 595 L389 738 L254 738 Z " />
<glyph glyph-name="ecircumflex" unicode="&#xea;" horiz-adv-x="500" d="M190 309 C190 352 189 428 254 428 C321 428 319 358 319 309 L190 309 Z M460 230 C465 392 444 515 254 515 C68 515 48 397 48 259 C48 101 72 -10 254 -10 C320 -10 370 8 403 39 C437 70 455 115 457 170 L314 170 C314 128 304 80 254 80 C192 80 190 170 190 230 L460 230 Z M250 684 L321 595 L412 595 L306 738 L194 738 L88 595 L179 595 L250 684 Z " />
<glyph glyph-name="edieresis" unicode="&#xeb;" horiz-adv-x="500" d="M190 309 C190 352 189 428 254 428 C321 428 319 358 319 309 L190 309 Z M460 230 C465 392 444 515 254 515 C68 515 48 397 48 259 C48 101 72 -10 254 -10 C320 -10 370 8 403 39 C437 70 455 115 457 170 L314 170 C314 128 304 80 254 80 C192 80 190 170 190 230 L460 230 Z M283 722 L283 611 L394 611 L394 722 L283 722 Z M106 722 L106 611 L217 611 L217 722 L106 722 Z " />
<glyph glyph-name="igrave" unicode="&#xec;" horiz-adv-x="257" d="M199 505 L58 505 L58 0 L199 0 L199 505 Z M-10 738 L150 595 L215 595 L125 738 L-10 738 Z " />
<glyph glyph-name="iacute" unicode="&#xed;" horiz-adv-x="257" d="M199 505 L58 505 L58 0 L199 0 L199 505 Z M133 738 L43 595 L108 595 L268 738 L133 738 Z " />
<glyph glyph-name="icircumflex" unicode="&#xee;" horiz-adv-x="257" d="M199 505 L58 505 L58 0 L199 0 L199 505 Z M129 684 L200 595 L291 595 L185 738 L73 738 L-33 595 L58 595 L129 684 Z " />
<glyph glyph-name="idieresis" unicode="&#xef;" horiz-adv-x="257" d="M199 505 L58 505 L58 0 L199 0 L199 505 Z M162 722 L162 611 L273 611 L273 722 L162 722 Z M-15 722 L-15 611 L96 611 L96 722 L-15 722 Z " />
<glyph glyph-name="eth" unicode="&#xf0;" horiz-adv-x="508" d="M98 667 L98 663 C131 653 139 650 171 628 L94 578 L134 543 L220 598 C256 575 302 525 327 461 L325 459 C290 494 267 505 223 505 C81 505 48 389 48 259 C48 101 72 -10 254 -10 C436 -10 460 101 460 259 C460 496 424 556 327 667 L399 714 L362 751 L280 698 C262 712 208 741 174 751 L98 667 Z M254 415 C314 415 319 363 319 267 C319 113 306 80 254 80 C202 80 189 113 189 267 C189 363 194 415 254 415 L254 415 Z " />
<glyph glyph-name="ntilde" unicode="&#xf1;" horiz-adv-x="504" d="M199 505 L58 505 L58 0 L199 0 L199 348 C199 393 207 428 252 428 C297 428 305 393 305 348 L305 0 L446 0 L446 405 C446 475 387 515 320 515 C294 515 271 511 251 501 C232 492 215 477 201 454 L199 454 L199 505 Z M366 729 C363 699 348 681 320 681 C304 681 282 692 258 703 C234 714 207 729 178 729 C116 729 81 657 74 603 L133 603 C137 624 147 647 172 647 C193 647 217 639 242 626 C267 613 294 603 322 603 C355 603 379 625 395 647 C412 669 422 699 427 729 L366 729 Z " />
<glyph glyph-name="ograve" unicode="&#xf2;" horiz-adv-x="508" d="M254 80 C202 80 189 113 189 267 C189 372 194 425 254 425 C314 425 319 372 319 267 C319 113 306 80 254 80 L254 80 Z M254 -10 C436 -10 460 101 460 259 C460 397 440 515 254 515 C68 515 48 397 48 259 C48 101 72 -10 254 -10 L254 -10 Z M115 738 L275 595 L340 595 L250 738 L115 738 Z " />
<glyph glyph-name="oacute" unicode="&#xf3;" horiz-adv-x="508" d="M254 80 C202 80 189 113 189 267 C189 372 194 425 254 425 C314 425 319 372 319 267 C319 113 306 80 254 80 L254 80 Z M254 -10 C436 -10 460 101 460 259 C460 397 440 515 254 515 C68 515 48 397 48 259 C48 101 72 -10 254 -10 L254 -10 Z M258 738 L168 595 L233 595 L393 738 L258 738 Z " />
<glyph glyph-name="ocircumflex" unicode="&#xf4;" horiz-adv-x="508" d="M254 80 C202 80 189 113 189 267 C189 372 194 425 254 425 C314 425 319 372 319 267 C319 113 306 80 254 80 L254 80 Z M254 -10 C436 -10 460 101 460 259 C460 397 440 515 254 515 C68 515 48 397 48 259 C48 101 72 -10 254 -10 L254 -10 Z M254 684 L325 595 L416 595 L310 738 L198 738 L92 595 L183 595 L254 684 Z " />
<glyph glyph-name="otilde" unicode="&#xf5;" horiz-adv-x="508" d="M254 80 C202 80 189 113 189 267 C189 372 194 425 254 425 C314 425 319 372 319 267 C319 113 306 80 254 80 L254 80 Z M254 -10 C436 -10 460 101 460 259 C460 397 440 515 254 515 C68 515 48 397 48 259 C48 101 72 -10 254 -10 L254 -10 Z M368 729 C365 699 350 681 322 681 C306 681 284 692 260 703 C236 714 209 729 180 729 C118 729 83 657 76 603 L135 603 C139 624 149 647 174 647 C195 647 219 639 244 626 C269 613 296 603 324 603 C357 603 381 625 397 647 C414 669 424 699 429 729 L368 729 Z " />
<glyph glyph-name="odieresis" unicode="&#xf6;" horiz-adv-x="508" d="M254 80 C202 80 189 113 189 267 C189 372 194 425 254 425 C314 425 319 372 319 267 C319 113 306 80 254 80 L254 80 Z M254 -10 C436 -10 460 101 460 259 C460 397 440 515 254 515 C68 515 48 397 48 259 C48 101 72 -10 254 -10 L254 -10 Z M287 722 L287 611 L398 611 L398 722 L287 722 Z M110 722 L110 611 L221 611 L221 722 L110 722 Z " />
<glyph glyph-name="divide" unicode="&#xf7;" horiz-adv-x="500" d="M25 197 L475 197 L475 308 L25 308 L25 197 Z M314 385 L314 505 L186 505 L186 385 L314 385 Z M314 0 L314 120 L186 120 L186 0 L314 0 Z " />
<glyph glyph-name="oslash" unicode="&#xf8;" horiz-adv-x="508" d="M318 298 C319 290 319 279 319 267 C319 113 306 80 254 80 C221 80 203 94 195 144 L318 298 Z M190 208 C189 224 189 244 189 267 C189 372 194 425 254 425 C291 425 307 404 314 362 L190 208 Z M11 -17 L46 -44 L108 35 C140 6 186 -10 254 -10 C436 -10 460 101 460 259 C460 326 455 389 428 436 L497 522 L463 549 L401 471 C368 499 322 515 254 515 C68 515 48 397 48 259 C48 182 54 116 81 70 L11 -17 Z " />
<glyph glyph-name="ugrave" unicode="&#xf9;" horiz-adv-x="504" d="M305 0 L451 0 C448 33 446 67 446 100 L446 505 L305 505 L305 155 C305 110 297 77 252 77 C207 77 199 110 199 155 L199 505 L58 505 L58 100 C58 30 117 -10 184 -10 C211 -10 233 -6 253 4 C273 13 289 29 303 51 L305 51 L305 0 Z M113 738 L273 595 L338 595 L248 738 L113 738 Z " />
<glyph glyph-name="uacute" unicode="&#xfa;" horiz-adv-x="504" d="M305 0 L451 0 C448 33 446 67 446 100 L446 505 L305 505 L305 155 C305 110 297 77 252 77 C207 77 199 110 199 155 L199 505 L58 505 L58 100 C58 30 117 -10 184 -10 C211 -10 233 -6 253 4 C273 13 289 29 303 51 L305 51 L305 0 Z M256 738 L166 595 L231 595 L391 738 L256 738 Z " />
<glyph glyph-name="ucircumflex" unicode="&#xfb;" horiz-adv-x="504" d="M305 0 L451 0 C448 33 446 67 446 100 L446 505 L305 505 L305 155 C305 110 297 77 252 77 C207 77 199 110 199 155 L199 505 L58 505 L58 100 C58 30 117 -10 184 -10 C211 -10 233 -6 253 4 C273 13 289 29 303 51 L305 51 L305 0 Z M252 684 L323 595 L414 595 L308 738 L196 738 L90 595 L181 595 L252 684 Z " />
<glyph glyph-name="udieresis" unicode="&#xfc;" horiz-adv-x="504" d="M305 0 L451 0 C448 33 446 67 446 100 L446 505 L305 505 L305 155 C305 110 297 77 252 77 C207 77 199 110 199 155 L199 505 L58 505 L58 100 C58 30 117 -10 184 -10 C211 -10 233 -6 253 4 C273 13 289 29 303 51 L305 51 L305 0 Z M285 722 L285 611 L396 611 L396 722 L285 722 Z M108 722 L108 611 L219 611 L219 722 L108 722 Z " />
<glyph glyph-name="yacute" unicode="&#xfd;" horiz-adv-x="446" d="M93 -191 L241 -191 L436 505 L300 505 L224 150 L222 150 L150 505 L10 505 L147 -4 L93 -191 Z M257 738 L167 595 L232 595 L392 738 L257 738 Z " />
<glyph glyph-name="thorn" unicode="&#xfe;" horiz-adv-x="502" d="M256 77 C208 77 199 130 199 257 C199 358 198 428 256 428 C317 428 316 358 316 257 C316 130 307 77 256 77 L256 77 Z M58 -217 L199 -217 L199 48 L201 48 C230 5 265 -10 316 -10 C458 -10 454 147 454 249 C454 353 459 515 313 515 C286 515 263 511 244 500 C225 490 211 474 201 449 L199 449 L199 722 L58 722 L58 -217 Z " />
<glyph glyph-name="ydieresis" unicode="&#xff;" horiz-adv-x="446" d="M93 -191 L241 -191 L436 505 L300 505 L224 150 L222 150 L150 505 L10 505 L147 -4 L93 -191 Z M256 722 L256 611 L367 611 L367 722 L256 722 Z M79 722 L79 611 L190 611 L190 722 L79 722 Z " />
<glyph glyph-name="dotlessi" unicode="&#x131;" horiz-adv-x="257" d="M199 505 L58 505 L58 0 L199 0 L199 505 Z " />
<glyph glyph-name="Lslash" unicode="&#x141;" horiz-adv-x="444" d="M64 0 L441 0 L441 120 L215 120 L215 369 L348 445 L348 538 L215 462 L215 722 L64 722 L64 375 L10 344 L10 251 L64 282 L64 0 Z " />
<glyph glyph-name="lslash" unicode="&#x142;" horiz-adv-x="257" d="M-2 252 L58 288 L58 0 L199 0 L199 370 L259 405 L259 497 L199 462 L199 722 L58 722 L58 380 L-2 344 L-2 252 Z " />
<glyph glyph-name="OE" unicode="&#x152;" horiz-adv-x="833" d="M799 0 L799 111 L553 111 L553 322 L772 322 L772 433 L553 433 L553 611 L791 611 L791 722 L311 722 C91 722 56 620 56 385 C56 205 46 0 286 0 L799 0 Z M412 111 L311 111 C205 111 204 206 204 376 C204 574 231 611 330 611 L412 611 L412 111 Z " />
<glyph glyph-name="oe" unicode="&#x153;" horiz-adv-x="787" d="M254 80 C202 80 189 113 189 267 C189 372 194 425 254 425 C331 425 336 372 336 267 C336 113 323 80 254 80 L254 80 Z M477 309 C477 352 476 428 541 428 C608 428 606 358 606 309 L477 309 Z M747 230 C752 392 731 515 541 515 C497 515 439 502 410 442 C377 503 310 515 254 515 C68 515 48 397 48 259 C48 101 72 -10 254 -10 C301 -10 363 16 391 78 C424 3 480 -10 541 -10 C673 -10 739 60 744 170 L601 170 C601 128 591 80 541 80 C479 80 477 170 477 230 L747 230 Z " />
<glyph glyph-name="Scaron" unicode="&#x160;" horiz-adv-x="556" d="M512 197 C512 424 208 412 208 549 C208 599 237 626 286 626 C347 626 356 571 356 517 L503 517 L504 546 C508 676 427 734 293 734 C109 734 55 644 55 531 C55 316 359 308 359 178 C359 129 334 96 283 96 C199 96 196 154 196 223 L45 223 L44 189 C41 79 89 -12 260 -12 C375 -12 512 10 512 197 L512 197 Z M278 849 L207 938 L116 938 L222 795 L334 795 L440 938 L349 938 L278 849 Z " />
<glyph glyph-name="scaron" unicode="&#x161;" horiz-adv-x="444" d="M29 162 C21 21 103 -10 226 -10 C343 -10 415 56 415 144 C415 306 167 302 167 382 C167 416 184 436 215 436 C230 436 242 434 251 425 C261 416 265 395 265 360 L403 360 C411 469 324 515 228 515 C137 515 29 482 29 373 C29 212 277 236 277 129 C277 95 253 77 225 77 C197 77 182 85 174 101 C167 117 166 139 167 162 L29 162 Z M222 649 L151 738 L60 738 L166 595 L278 595 L384 738 L293 738 L222 649 Z " />
<glyph glyph-name="Ydieresis" unicode="&#x178;" horiz-adv-x="556" d="M196 0 L347 0 L347 250 L549 722 L395 722 L280 417 L172 722 L7 722 L196 250 L196 0 Z M311 922 L311 811 L422 811 L422 922 L311 922 Z M134 922 L134 811 L245 811 L245 922 L134 922 Z " />
<glyph glyph-name="Zcaron" unicode="&#x17d;" horiz-adv-x="500" d="M36 611 L325 611 L22 132 L22 0 L478 0 L478 111 L167 111 L471 591 L471 722 L36 722 L36 611 Z M250 849 L179 938 L88 938 L194 795 L306 795 L412 938 L321 938 L250 849 Z " />
<glyph glyph-name="zcaron" unicode="&#x17e;" horiz-adv-x="389" d="M363 505 L30 505 L30 415 L221 415 L23 100 L23 0 L366 0 L366 90 L162 90 L363 405 L363 505 Z M195 649 L124 738 L33 738 L139 595 L251 595 L357 738 L266 738 L195 649 Z " />
<glyph glyph-name="florin" unicode="&#x192;" horiz-adv-x="444" d="M149 366 L95 12 C89 -27 77 -65 32 -65 C27 -65 21 -64 16 -62 L-1 -163 C14 -167 34 -167 60 -167 C146 -167 221 -129 240 -4 L296 366 L376 366 L390 453 L309 453 C323 494 312 605 380 605 C389 605 400 602 408 598 L427 704 C405 706 387 707 368 707 C187 707 185 585 165 453 L98 453 L83 366 L149 366 Z " />
<glyph glyph-name="circumflex" unicode="&#x2c6;" horiz-adv-x="278" d="M139 684 L210 595 L301 595 L195 738 L83 738 L-23 595 L68 595 L139 684 Z " />
<glyph glyph-name="caron" unicode="&#x2c7;" horiz-adv-x="278" d="M139 649 L68 738 L-23 738 L83 595 L195 595 L301 738 L210 738 L139 649 Z " />
<glyph glyph-name="breve" unicode="&#x2d8;" horiz-adv-x="278" d="M-22 740 C-16 647 42 594 134 594 C226 594 291 646 300 740 L243 740 C231 687 194 666 142 666 C89 666 46 683 35 740 L-22 740 Z " />
<glyph glyph-name="dotaccent" unicode="&#x2d9;" horiz-adv-x="278" d="M84 722 L84 611 L195 611 L195 722 L84 722 Z " />
<glyph glyph-name="ring" unicode="&#x2da;" horiz-adv-x="278" d="M243 666 C243 722 196 770 139 770 C82 770 35 722 35 666 C35 609 82 562 139 562 C196 562 243 609 243 666 L243 666 Z M80 666 C80 698 106 725 139 725 C171 725 198 698 198 666 C198 633 171 607 139 607 C106 607 80 633 80 666 L80 666 Z " />
<glyph glyph-name="ogonek" unicode="&#x2db;" horiz-adv-x="278" d="M102 2 C76 -8 20 -47 20 -103 C20 -160 67 -178 126 -178 C176 -178 202 -166 234 -152 L234 -102 C209 -110 178 -118 155 -118 C128 -118 110 -110 110 -82 C110 -47 154 -17 190 2 L102 2 Z " />
<glyph glyph-name="tilde" unicode="&#x2dc;" horiz-adv-x="278" d="M253 729 C250 699 235 681 207 681 C191 681 169 692 145 703 C121 714 94 729 65 729 C3 729 -32 657 -39 603 L20 603 C24 624 34 647 59 647 C80 647 104 639 129 626 C154 613 181 603 209 603 C242 603 266 625 282 647 C299 669 309 699 314 729 L253 729 Z " />
<glyph glyph-name="hungarumlaut" unicode="&#x2dd;" horiz-adv-x="445" d="M143 738 L53 595 L118 595 L278 738 L143 738 Z M310 738 L220 595 L285 595 L445 738 L310 738 Z " />
<glyph glyph-name="endash" unicode="&#x2013;" horiz-adv-x="500" d="M500 309 L0 309 L0 230 L500 230 L500 309 Z " />
<glyph glyph-name="emdash" unicode="&#x2014;" horiz-adv-x="1000" d="M0 230 L1000 230 L1000 309 L0 309 L0 230 Z " />
<glyph glyph-name="quoteleft" unicode="&#x2018;" horiz-adv-x="222" d="M195 722 L99 722 L26 525 L160 525 L195 722 Z " />
<glyph glyph-name="quoteright" unicode="&#x2019;" horiz-adv-x="222" d="M26 525 L122 525 L195 722 L61 722 L26 525 Z " />
<glyph glyph-name="quotesinglbase" unicode="&#x201a;" horiz-adv-x="222" d="M26 -97 L122 -97 L195 100 L61 100 L26 -97 Z " />
<glyph glyph-name="quotedblleft" unicode="&#x201c;" horiz-adv-x="444" d="M395 722 L299 722 L226 525 L360 525 L395 722 Z M217 722 L121 722 L48 525 L182 525 L217 722 Z " />
<glyph glyph-name="quotedblright" unicode="&#x201d;" horiz-adv-x="444" d="M48 525 L144 525 L217 722 L83 722 L48 525 Z M226 525 L322 525 L395 722 L261 722 L226 525 Z " />
<glyph glyph-name="quotedblbase" unicode="&#x201e;" horiz-adv-x="444" d="M48 -97 L144 -97 L217 100 L83 100 L48 -97 Z M226 -97 L322 -97 L395 100 L261 100 L226 -97 Z " />
<glyph glyph-name="dagger" unicode="&#x2020;" horiz-adv-x="444" d="M5 568 L5 471 L162 471 L162 0 L282 0 L282 471 L439 471 L439 568 L282 568 L282 722 L162 722 L162 568 L5 568 Z " />
<glyph glyph-name="daggerdbl" unicode="&#x2021;" horiz-adv-x="444" d="M162 0 L282 0 L282 148 L439 148 L439 245 L282 245 L282 477 L439 477 L439 574 L282 574 L282 722 L162 722 L162 574 L5 574 L5 477 L162 477 L162 245 L5 245 L5 148 L162 148 L162 0 Z " />
<glyph glyph-name="bullet" unicode="&#x2022;" horiz-adv-x="420" d="M390 361 C390 460 311 541 210 541 C109 541 30 460 30 361 C30 262 109 181 210 181 C311 181 390 262 390 361 L390 361 Z " />
<glyph glyph-name="ellipsis" unicode="&#x2026;" horiz-adv-x="1000" d="M107 132 L107 0 L227 0 L227 132 L107 132 Z M440 132 L440 0 L560 0 L560 132 L440 132 Z M773 132 L773 0 L893 0 L893 132 L773 132 Z " />
<glyph glyph-name="perthousand" unicode="&#x2030;" horiz-adv-x="1000" d="M186 433 C145 433 144 471 144 562 C144 593 142 651 186 651 C230 651 228 593 228 562 C228 471 227 433 186 433 L186 433 Z M186 707 C83 707 67 625 67 540 C67 450 76 377 186 377 C296 377 305 450 305 540 C305 625 289 707 186 707 L186 707 Z M814 321 C711 321 695 239 695 154 C695 64 704 -9 814 -9 C924 -9 933 64 933 154 C933 239 917 321 814 321 L814 321 Z M814 47 C773 47 772 85 772 176 C772 207 770 265 814 265 C858 265 856 207 856 176 C856 85 855 47 814 47 L814 47 Z M517 47 C476 47 475 85 475 176 C475 207 473 265 517 265 C561 265 559 207 559 176 C559 85 558 47 517 47 L517 47 Z M517 321 C414 321 398 239 398 154 C398 64 407 -9 517 -9 C627 -9 636 64 636 154 C636 239 620 321 517 321 L517 321 Z M142 -45 L227 -45 L566 750 L480 750 L142 -45 Z " />
<glyph glyph-name="guilsinglleft" unicode="&#x2039;" horiz-adv-x="222" d="M98 75 L213 75 L127 272 L215 464 L99 464 L7 272 L98 75 Z " />
<glyph glyph-name="guilsinglright" unicode="&#x203a;" horiz-adv-x="222" d="M124 464 L9 464 L95 267 L7 75 L123 75 L215 267 L124 464 Z " />
<glyph glyph-name="fraction" unicode="&#x2044;" horiz-adv-x="167" d="M248 733 L183 733 L-80 -28 L-18 -28 L248 733 Z " />
<glyph glyph-name="trademark" unicode="&#x2122;" horiz-adv-x="860" d="M820 722 L667 722 L590 427 L588 427 L515 722 L356 722 L356 289 L452 289 L452 623 L454 623 L539 289 L633 289 L722 623 L724 623 L724 289 L820 289 L820 722 Z M3 722 L3 650 L113 650 L113 289 L209 289 L209 650 L320 650 L320 722 L3 722 Z " />
<glyph glyph-name="minus" unicode="&#x2212;" horiz-adv-x="500" d="M25 197 L475 197 L475 308 L25 308 L25 197 Z " />
<glyph glyph-name="fi" unicode="&#xfb01;" horiz-adv-x="502" d="M444 505 L303 505 L303 0 L444 0 L444 505 Z M303 722 L303 611 L444 611 L444 722 L303 722 Z M273 725 C256 726 240 727 223 727 C51 727 63 650 64 505 L0 505 L0 418 L63 418 L63 0 L204 0 L204 418 L270 418 L270 505 L204 505 L204 566 C204 617 216 639 273 635 L273 725 Z " />
<glyph glyph-name="fl" unicode="&#xfb02;" horiz-adv-x="502" d="M273 725 C256 726 240 727 223 727 C51 727 63 650 64 505 L0 505 L0 418 L63 418 L63 0 L204 0 L204 418 L270 418 L270 505 L204 505 L204 566 C204 617 216 639 273 635 L273 725 Z M303 722 L303 0 L444 0 L444 722 L303 722 Z " />
</font>
</svg>
