<?xml version="1.0" encoding="UTF-8"?>
<svg xmlns="http://www.w3.org/2000/svg" xmlns:xlink="http://www.w3.org/1999/xlink" version="1.2" >
<font id="UniversS 56 Italic">
<font-face  font-family="Univers" units-per-em="1000" ascent="721.924" descent="-191.895" font-style="italic" font-weight="400" font-stretch="normal" slope="-12" cap-height="750" x-height="500" underline-position="-75" underline-thickness="50" />
<missing-glyph  horiz-adv-x="278" d="" />
<glyph glyph-name="NULL" d="" />
<glyph glyph-name="CR" unicode="&#xd;" horiz-adv-x="250" d="" />
<glyph glyph-name="space" unicode="&#x20;" horiz-adv-x="278" d="" />
<glyph glyph-name="exclam" unicode="&#x21;" horiz-adv-x="389" d="M404.254 721 L292.254 721 L193.072 165 L264.072 165 L404.254 721 Z M138 0 L244 0 L265.256 100 L159.256 100 L138 0 Z " />
<glyph glyph-name="quotedbl" unicode="&#x22;" horiz-adv-x="400" d="M223.089 692 L184.8 446 L238.8 446 L305.089 692 L223.089 692 Z M389.089 692 L350.8 446 L404.8 446 L471.089 692 L389.089 692 Z " />
<glyph glyph-name="numbersign" unicode="&#x23;" horiz-adv-x="556" d="M51.8737 197 L151.874 197 L74 0 L154 0 L232.874 197 L353.874 197 L276 0 L356 0 L434.874 197 L546.874 197 L561.54 266 L462.54 266 L521.211 415 L634.211 415 L648.878 484 L548.878 484 L632.089 692 L551.089 692 L468.878 484 L346.878 484 L430.089 692 L349.089 692 L266.878 484 L153.878 484 L139.211 415 L239.211 415 L179.54 266 L67.5402 266 L51.8737 197 Z M260.54 266 L319.211 415 L441.211 415 L381.54 266 L260.54 266 Z " />
<glyph glyph-name="dollar" unicode="&#x24;" horiz-adv-x="556" d="M420.133 791 L402.065 706 C287.215 702 175.887 644 149.317 519 C126.999 414 163.859 371 317.018 320 L263.879 70 C161.304 72 153.695 135 166.536 186 L66.5356 186 C40.4153 49 120.449 -12 245.812 -15 L224.131 -117 L275.131 -117 L296.812 -15 C425.15 -4 541.541 59 569.811 192 C599.781 333 483.284 373 387.235 401 L435.061 626 C498.636 624 546.022 607 532.356 538 L633.356 538 C663.79 700 498.065 706 453.278 707 L471.133 791 L420.133 791 Z M339.636 417 C271.1 438 232.201 462 245.167 523 C250.481 548 268.723 615 384.061 626 L339.636 417 Z M367.255 307 C414.854 291 485.54 266 467.685 182 C456.42 129 407.092 71 316.879 70 L367.255 307 Z " />
<glyph glyph-name="percent" unicode="&#x25;" horiz-adv-x="889" d="M289.182 349 C378.182 349 463.298 406 489.655 530 C508.998 621 487.278 707 365.278 707 C243.278 707 184.998 621 165.655 530 C139.298 406 200.182 349 289.182 349 L289.182 349 Z M301.723 408 C237.723 408 232.264 467 245.018 527 C259.897 597 294.737 648 352.737 648 C410.737 648 423.897 597 409.018 527 C396.264 467 365.723 408 301.723 408 L301.723 408 Z M671.812 -15 C760.812 -15 845.927 42 872.284 166 C891.627 257 869.907 343 747.907 343 C625.907 343 567.627 257 548.284 166 C521.927 42 582.812 -15 671.812 -15 L671.812 -15 Z M684.353 44 C620.353 44 614.893 103 627.647 163 C642.526 233 677.366 284 735.366 284 C793.366 284 806.526 233 791.647 163 C778.893 103 748.353 44 684.353 44 L684.353 44 Z M242.71 -39 L847.379 731 L781.379 731 L176.71 -39 L242.71 -39 Z " />
<glyph glyph-name="ampersand" unicode="&#x26;" horiz-adv-x="778" d="M693.201 462 C667.057 339 640.004 287 590.038 226 L449.598 398 C497.549 426 608.94 489 631.259 594 C639.123 631 630.776 667 609.089 692 C590.341 712 560.442 736 468.442 736 C343.442 736 260.838 672 241.071 579 C223.003 494 265.163 443 289.211 415 C202.521 360 112.767 300 88.9607 188 C64.9418 75 133.387 -17 288.387 -17 C387.387 -17 479.676 22 560.705 88 L636 0 L776 0 L639.072 165 C724.564 252 759.656 323 790.201 462 L693.201 462 Z M399.414 463 C364.341 505 339.631 544 348.133 584 C355.998 621 399.437 656 454.437 656 C515.437 656 530.573 619 524.409 590 C511.23 528 427.815 479 399.414 463 L399.414 463 Z M508.246 147 C476.507 120 411.816 65 320.816 65 C260.816 65 174.343 91 195.386 190 C206.864 244 244.279 293 340.033 353 L508.246 147 Z " />
<glyph glyph-name="quotesingle" unicode="&#x27;" horiz-adv-x="278" d="M245.089 692 L206.8 446 L260.8 446 L327.089 692 L245.089 692 Z " />
<glyph glyph-name="parenleft" unicode="&#x28;" horiz-adv-x="333" d="M230.43 -125 C212.816 65 202.26 180 232.443 322 C245.622 384 265.8 446 306.356 538 C347.549 633 384.002 701 410.418 750 L344.418 750 C318.278 707 278.674 643 231.544 553 C192.39 477 157.81 399 141.018 320 C109.985 174 139.7 8 165.43 -125 L230.43 -125 Z " />
<glyph glyph-name="parenright" unicode="&#x29;" horiz-adv-x="333" d="M235.418 750 C253.032 560 263.588 445 233.617 304 C220.439 242 200.048 179 159.705 88 C118.512 -7 82.0582 -75 55.4304 -125 L121.43 -125 C147.57 -82 187.387 -17 234.517 73 C273.671 149 308.25 227 325.042 306 C356.076 452 326.148 617 300.418 750 L235.418 750 Z " />
<glyph glyph-name="asterisk" unicode="&#x2a;" horiz-adv-x="556" d="M598.67 563 L423.631 544 L558.389 684 L499.254 721 L397.095 565 L363.041 720 L289.389 684 L361.631 544 L197.307 566 L181.791 493 L350.766 507 L215.221 368 L275.356 331 L380.515 487 L413.931 329 L487.434 369 L414.766 507 L582.728 488 L598.67 563 Z " />
<glyph glyph-name="plus" unicode="&#x2b;" horiz-adv-x="584" d="M250 0 L334 0 L379.275 213 L592.275 213 L608.642 290 L395.642 290 L440.916 503 L356.916 503 L311.642 290 L98.6415 290 L82.2746 213 L295.275 213 L250 0 Z " />
<glyph glyph-name="comma" unicode="&#x2c;" horiz-adv-x="278" d="M138.507 120 L22.2178 -126 L90.2178 -126 L254.507 120 L138.507 120 Z " />
<glyph glyph-name="hyphen" unicode="&#x2d;" horiz-adv-x="333" d="M88.8253 225 L339.825 225 L355.98 301 L104.98 301 L88.8253 225 Z " />
<glyph glyph-name="period" unicode="&#x2e;" horiz-adv-x="278" d="M84 0 L194 0 L219.507 120 L109.507 120 L84 0 Z " />
<glyph glyph-name="slash" unicode="&#x2f;" horiz-adv-x="278" d="M-13.4009 -16 L52.5991 -16 L439.553 713 L374.553 713 L-13.4009 -16 Z " />
<glyph glyph-name="zero" unicode="0" horiz-adv-x="556" d="M274.812 -15 C466.812 -15 551.874 197 585.245 354 C613.09 485 635.278 707 428.278 707 C221.278 707 149.09 485 121.245 354 C87.8737 197 82.8116 -15 274.812 -15 L274.812 -15 Z M410.848 625 C516.848 625 521.404 510 486.12 344 C459.55 219 407.241 67 292.241 67 C177.241 67 189.55 219 216.12 344 C251.404 510 304.848 625 410.848 625 L410.848 625 Z " />
<glyph glyph-name="one" unicode="1" horiz-adv-x="556" d="M271 0 L365 0 L512.089 692 L425.089 692 C379.075 659 306.148 617 233.921 583 L212.665 483 C266.554 506 344.269 547 394.921 583 L271 0 Z " />
<glyph glyph-name="two" unicode="2" horiz-adv-x="556" d="M58 0 L498 0 L515.005 80 L186.005 80 L331.449 195 C425.178 269 577.834 385 603.341 505 C634.8 653 538.278 707 432.278 707 C388.278 707 328.365 698 271.65 657 C200.597 605 183.568 539 175.341 505 L280.341 505 C285.868 531 308.273 627 419.273 627 C517.273 627 512.269 547 505.042 513 C486.337 425 365.294 326 296.39 270 L77.5552 92 L58 0 Z " />
<glyph glyph-name="three" unicode="3" horiz-adv-x="556" d="M76.2603 180 C71.0961 151 61.4683 101 91.1157 57 C124.275 6 192.812 -15 265.812 -15 C426.812 -15 528.555 92 549.173 189 C552.149 203 580.419 336 436.883 357 C548.984 381 597.414 463 609.53 520 C629.935 616 574.278 707 423.278 707 C367.278 707 201.664 690 159.105 518 L260.105 518 C287.384 604 357.273 627 409.273 627 C478.273 627 525.684 596 509.105 518 C485.298 406 365.322 392 297.598 398 L280.381 317 C315.593 318 340.806 319 375.318 312 C423.98 301 464.902 263 449.386 190 C436.42 129 382.241 67 285.241 67 C200.241 67 167.231 114 182.26 180 L76.2603 180 Z " />
<glyph glyph-name="four" unicode="4" horiz-adv-x="556" d="M340 0 L437 0 L468.033 146 L568.033 146 L585.25 227 L485.25 227 L584.089 692 L472.089 692 L84.3276 265 L59.0333 146 L371.033 146 L340 0 Z M152.25 227 L468.834 592 L391.25 227 L152.25 227 Z " />
<glyph glyph-name="five" unicode="5" horiz-adv-x="556" d="M91.0719 165 C70.9902 47 146.812 -15 258.812 -15 C409.812 -15 527.705 88 556.613 224 C581.907 343 537.076 452 398.076 452 C317.076 452 262.999 414 238.472 388 L299.085 612 L602.085 612 L619.089 692 L230.089 692 L124.516 280 L215.516 280 C247.269 340 295.496 374 360.496 374 C440.496 374 479.806 319 459.825 225 C442.183 142 384.241 67 289.241 67 C237.241 67 182.193 95 195.072 165 L91.0719 165 Z " />
<glyph glyph-name="six" unicode="6" horiz-adv-x="556" d="M615.23 528 C620.182 556 628.534 600 602.249 641 C583.776 667 541.278 707 450.278 707 C231.278 707 143.264 467 110.955 315 C92.2504 227 83.2073 128 119.753 60 C146.551 12 207.812 -15 274.812 -15 C393.812 -15 526.029 66 560.25 227 C591.496 374 511.438 449 398.438 449 C297.438 449 247.535 393 216.733 361 C264.844 545 329.123 631 429.123 631 C473.123 631 528.447 609 512.23 528 L615.23 528 Z M294.966 61 C217.966 61 175.995 127 195.125 217 C211.917 296 273.284 373 366.284 373 C481.284 373 472.753 267 462.337 218 C438.318 105 356.966 61 294.966 61 L294.966 61 Z " />
<glyph glyph-name="seven" unicode="7" horiz-adv-x="556" d="M164.447 609 L520.447 609 L125 0 L238 0 L621.235 608 L639.089 692 L182.089 692 L164.447 609 Z " />
<glyph glyph-name="eight" unicode="8" horiz-adv-x="556" d="M274.812 -15 C447.812 -15 536.768 93 557.386 190 C585.868 324 482.245 354 443.583 365 C544.409 383 603.501 454 617.955 522 C640.486 628 573.278 707 428.278 707 C283.278 707 182.486 628 159.955 522 C145.501 454 174.409 383 267.583 365 C224.245 354 107.868 324 79.3858 190 C58.7678 93 101.812 -15 274.812 -15 L274.812 -15 Z M364.723 408 C288.723 408 241.076 452 255.53 520 C268.921 583 326.549 633 412.549 633 C498.549 633 534.921 583 521.53 520 C507.076 452 440.723 408 364.723 408 L364.723 408 Z M346.443 322 C428.443 322 474.816 272 458.449 195 C447.396 143 403.816 65 291.816 65 C179.816 65 169.396 143 180.449 195 C196.816 272 264.443 322 346.443 322 L346.443 322 Z " />
<glyph glyph-name="nine" unicode="9" horiz-adv-x="556" d="M87.8593 164 C82.9078 136 74.5552 92 100.84 51 C119.314 25 161.812 -15 252.812 -15 C471.812 -15 552.811 192 583.844 338 C619.979 508 628.278 707 408.278 707 C309.278 707 177.061 626 151.129 504 C115.632 337 200.902 263 310.902 263 C364.902 263 433.941 282 486.82 352 C443.246 147 386.966 61 273.966 61 C229.966 61 174.642 83 190.859 164 L87.8593 164 Z M345.057 339 C269.057 339 223.11 391 242.24 481 C259.882 564 319.123 631 400.123 631 C468.123 631 522.496 581 501.027 480 C483.385 397 423.057 339 345.057 339 L345.057 339 Z " />
<glyph glyph-name="colon" unicode="&#x3a;" horiz-adv-x="278" d="M166.26 387 L276.26 387 L301.766 507 L191.766 507 L166.26 387 Z M84 0 L194 0 L219.507 120 L109.507 120 L84 0 Z " />
<glyph glyph-name="semicolon" unicode="&#x3b;" horiz-adv-x="278" d="M177.26 387 L287.26 387 L312.766 507 L202.766 507 L177.26 387 Z M138.507 120 L22.2178 -126 L90.2178 -126 L254.507 120 L138.507 120 Z " />
<glyph glyph-name="less" unicode="&#x3c;" horiz-adv-x="584" d="M81.637 210 L549.126 10 L567.618 97 L194.352 251 L633.298 406 L651.578 492 L99.0666 292 L81.637 210 Z " />
<glyph glyph-name="equal" unicode="&#x3d;" horiz-adv-x="584" d="M103.743 314 L613.743 314 L630.11 391 L120.11 391 L103.743 314 Z M60.5938 111 L570.594 111 L587.173 189 L77.1733 189 L60.5938 111 Z " />
<glyph glyph-name="greater" unicode="&#x3e;" horiz-adv-x="584" d="M591.637 210 L609.067 292 L141.578 492 L123.298 406 L496.352 251 L57.618 97 L39.1256 10 L591.637 210 Z " />
<glyph glyph-name="question" unicode="&#x3f;" horiz-adv-x="500" d="M206.848 625 C280.8 653 333.8 653 347.8 653 C373.8 653 482.375 651 460.694 549 C448.365 491 404.076 452 309.859 371 C246.168 316 244.893 310 236.39 270 L214.072 165 L298.072 165 L320.39 270 C323.154 283 325.854 291 334.98 301 C335.192 302 397.033 353 403.095 358 C503.95 442 549.815 479 566.607 558 C575.747 601 567.887 644 546.263 674 C515.403 717 455.442 736 372.442 736 C301.442 736 251.679 723 225.978 715 L206.848 625 Z M168 0 L274 0 L295.256 100 L189.256 100 L168 0 Z " />
<glyph glyph-name="at" unicode="&#x40;" horiz-adv-x="865" d="M694.056 546 L662.452 482 C661.216 495 659.829 512 646.23 528 C627.544 553 593.244 561 563.244 561 C444.244 561 337.825 432 314.868 324 C294.888 230 338.772 173 416.772 173 C507.772 173 560.502 247 577.603 271 C574.115 264 570.202 255 567.651 243 C557.661 196 591.772 173 632.772 173 C727.772 173 858.453 275 892.462 435 C935.611 638 793.442 736 622.442 736 C421.442 736 192.747 601 139.182 349 C92.6324 130 221.387 -17 446.387 -17 C572.387 -17 670.314 25 771.918 89 L753.932 122 C667.666 69 576.739 27 458.739 27 C260.739 27 143.096 151 184.545 346 C231.307 566 424.089 692 613.089 692 C763.089 692 882.872 611 846.525 440 C819.318 312 724.4 223 661.4 223 C648.4 223 618.25 227 626.115 264 C630.579 285 645.955 315 658.269 340 L763.056 546 L694.056 546 Z M624.037 433 C615.11 391 542.4 223 447.4 223 C397.4 223 383.54 266 394.806 319 C410.96 395 488.829 512 568.829 512 C596.829 512 637.216 495 624.037 433 L624.037 433 Z " />
<glyph glyph-name="A" unicode="A" horiz-adv-x="722" d="M10 0 L113 0 L229.961 188 L564.961 188 L603 0 L712 0 L573.466 722 L466.466 722 L10 0 Z M494.423 623 L552.178 269 L279.178 269 L494.423 623 Z " />
<glyph glyph-name="B" unicode="B" horiz-adv-x="667" d="M97 0 L360 0 C417 0 473 0 530.014 33 C557.415 49 631.043 99 651.874 197 C681.207 335 585.583 365 546.134 377 C583.897 390 677.486 421 702.781 540 C714.897 597 703.824 639 679.201 669 C643.553 713 596.466 722 508.466 722 L250.466 722 L97 0 Z M333.036 640 L474.036 640 C529.036 640 618.036 640 594.868 531 C570.636 417 456.636 417 422.636 417 L285.636 417 L333.036 640 Z M267.356 331 L439.356 331 C527.356 331 566.091 278 550.787 206 C533.357 124 461.43 82 382.43 82 L214.43 82 L267.356 331 Z " />
<glyph glyph-name="C" unicode="C" horiz-adv-x="667" d="M746.23 528 C768.515 694 633.442 736 531.442 736 C274.442 736 166.554 506 133.82 352 C103.637 210 104.387 -17 358.387 -17 C482.387 -17 626.14 43 671.748 187 L561.748 187 C531.594 111 471.816 65 383.816 65 C217.816 65 210.487 214 239.82 352 C265.539 473 335.012 654 510.012 654 C649.012 654 640.544 553 639.23 528 L746.23 528 Z " />
<glyph glyph-name="D" unicode="D" horiz-adv-x="737" d="M89 0 L292 0 C398 0 487 0 570.541 59 C634.893 103 720.299 199 753.458 355 C774.501 454 770.544 553 722.486 628 C662.466 722 548.466 722 451.466 722 L242.466 722 L89 0 Z M325.036 640 L446.036 640 C534.036 640 589.273 627 624.433 576 C676.491 501 652.347 378 646.608 351 C637.68 309 609.598 191 502.932 122 C447.28 86 374.43 82 305.43 82 L206.43 82 L325.036 640 Z " />
<glyph glyph-name="E" unicode="E" horiz-adv-x="611" d="M89 0 L550 0 L568.28 86 L207.28 86 L258.294 326 L594.294 326 L612.573 412 L276.573 412 L324.186 636 L677.186 636 L695.466 722 L242.466 722 L89 0 Z " />
<glyph glyph-name="F" unicode="F" horiz-adv-x="556" d="M89 0 L189 0 L258.294 326 L569.294 326 L587.573 412 L276.573 412 L324.186 636 L654.186 636 L672.466 722 L242.466 722 L89 0 Z " />
<glyph glyph-name="G" unicode="G" horiz-adv-x="768" d="M791.206 542 C811.176 683 696.442 736 571.442 736 C339.442 736 181.858 578 133.608 351 C83.6566 116 188.387 -17 418.387 -17 C541.387 -17 639.763 13 684.739 27 L760.622 384 L495.622 384 L478.192 302 L643.192 302 L597.705 88 C573.217 81 517.816 65 435.816 65 C246.816 65 204.11 184 242.371 364 C275.955 522 370.012 654 543.012 654 C641.012 654 685.235 608 682.206 542 L791.206 542 Z " />
<glyph glyph-name="H" unicode="H" horiz-adv-x="722" d="M89 0 L189 0 L258.294 326 L602.294 326 L533 0 L633 0 L786.466 722 L686.466 722 L620.573 412 L276.573 412 L342.466 722 L242.466 722 L89 0 Z " />
<glyph glyph-name="I" unicode="I" horiz-adv-x="278" d="M89 0 L189 0 L342.466 722 L242.466 722 L89 0 Z " />
<glyph glyph-name="J" unicode="J" horiz-adv-x="556" d="M76.6612 196 C70.497 167 60.3813 110 84.6036 64 C120.575 -2 202.662 -11 240.662 -11 C359.662 -11 479.966 61 508.236 194 L620.466 722 L520.466 722 L413.975 221 C409.299 199 399.521 153 376.357 124 C348.13 90 306.517 73 265.517 73 C214.517 73 189.831 98 181.869 117 C171.758 140 178.347 171 182.661 196 L76.6612 196 Z " />
<glyph glyph-name="K" unicode="K" horiz-adv-x="667" d="M89 0 L189 0 L270.409 383 L522 0 L662 0 L388.81 399 L780.466 722 L643.466 722 L275.298 406 L342.466 722 L242.466 722 L89 0 Z " />
<glyph glyph-name="L" unicode="L" horiz-adv-x="556" d="M89 0 L524 0 L542.28 86 L207.28 86 L342.466 722 L242.466 722 L89 0 Z " />
<glyph glyph-name="M" unicode="M" horiz-adv-x="934" d="M89 0 L187 0 L324.312 646 L415 0 L510 0 L885.162 650 L747 0 L845 0 L998.466 722 L833.466 722 L497.995 127 L420.466 722 L242.466 722 L89 0 Z " />
<glyph glyph-name="N" unicode="N" horiz-adv-x="764" d="M89 0 L181 0 L311.297 613 L547 0 L675 0 L828.466 722 L736.466 722 L609.57 125 L381.466 722 L242.466 722 L89 0 Z " />
<glyph glyph-name="O" unicode="O" horiz-adv-x="778" d="M134.033 353 C92.584 158 135.387 -17 381.387 -17 C638.387 -17 756.41 176 796.583 365 C848.235 608 749.442 736 549.442 736 C318.442 736 179.095 565 134.033 353 L134.033 353 Z M401.816 65 C227.816 65 208.787 206 241.308 359 C272.766 507 350.012 654 533.012 654 C698.012 654 725.655 530 690.796 366 C658.062 212 577.816 65 401.816 65 L401.816 65 Z " />
<glyph glyph-name="P" unicode="P" horiz-adv-x="611" d="M89 0 L189 0 L257.231 321 L374.231 321 C504.231 321 559.332 345 605.409 383 C652.699 422 680.689 469 692.38 524 C703.858 578 697.273 627 669.138 664 C631.403 717 572.466 722 484.466 722 L242.466 722 L89 0 Z M325.036 640 L465.036 640 C517.036 640 611.036 640 586.805 526 C561.723 408 459.66 403 393.66 403 L274.66 403 L325.036 640 Z " />
<glyph glyph-name="Q" unicode="Q" horiz-adv-x="778" d="M771.367 77 L718.367 77 C652.367 77 611.454 68 586.391 63 C734.009 160 772.405 303 787.284 373 C824.056 546 791.442 736 549.442 736 C318.442 736 179.095 565 134.033 353 C92.584 158 135.387 -17 381.387 -17 C415.387 -17 455.237 -13 499.3 -8 C542.15 -4 589 0 635 0 L755 0 L771.367 77 Z M241.308 359 C272.766 507 350.012 654 525.012 654 C661.012 654 717.206 542 677.67 356 C645.787 206 561.816 65 393.816 65 C227.816 65 208.787 206 241.308 359 L241.308 359 Z " />
<glyph glyph-name="R" unicode="R" horiz-adv-x="667" d="M89 0 L189 0 L258.294 326 L383.294 326 C504.294 326 522.917 296 512.598 191 C507.908 136 499.203 48 505 0 L612 0 C601.005 80 607.183 142 615.25 227 C624.381 317 599.97 348 534.796 366 C558.071 372 592.197 382 629.786 413 C668.588 445 697.153 490 707.993 541 C720.322 599 706.012 654 659.239 688 C613.466 722 537.466 722 500.466 722 L242.466 722 L89 0 Z M325.036 640 L479.036 640 C519.036 640 623.036 640 598.167 523 C580.313 439 515.723 408 449.723 408 L275.723 408 L325.036 640 Z " />
<glyph glyph-name="S" unicode="S" horiz-adv-x="667" d="M102.85 211 C95.41 176 84.0817 118 113.816 65 C155.3 -8 265.387 -17 320.387 -17 C505.387 -17 626.005 80 653.212 208 C659.589 238 669.468 308 611.82 352 C575.772 380 557.622 384 394.974 428 C311.438 449 274.114 471 287.718 535 C303.022 607 372.587 652 472.587 652 C543.587 652 615.336 632 601.206 542 L705.206 542 C709.583 572 717.998 621 687.35 665 C642.741 728 547.442 736 499.442 736 C363.442 736 210.838 672 179.592 525 C169.39 477 173.912 423 224.409 383 C256.095 358 302.545 346 406.806 319 C500.704 295 562.091 278 544.874 197 C537.222 161 498.241 67 350.241 67 C184.241 67 198.222 161 206.85 211 L102.85 211 Z " />
<glyph glyph-name="T" unicode="T" horiz-adv-x="611" d="M356 0 L491.186 636 L732.186 636 L750.466 722 L167.466 722 L149.186 636 L391.186 636 L256 0 L356 0 Z " />
<glyph glyph-name="U" unicode="U" horiz-adv-x="762" d="M826.466 722 L726.466 722 L632.303 279 C621.25 227 588.729 74 396.729 74 C204.729 74 237.25 227 248.303 279 L342.466 722 L242.466 722 L147.878 277 C139.589 238 123.371 157 166.067 85 C218.15 -4 325.812 -15 377.812 -15 C429.812 -15 542.15 -4 632.067 85 C705.371 157 723.589 238 731.878 277 L826.466 722 Z " />
<glyph glyph-name="V" unicode="V" horiz-adv-x="653" d="M796.466 722 L695.466 722 L348.318 105 L274.466 722 L163.466 722 L267 0 L377 0 L796.466 722 Z " />
<glyph glyph-name="W" unicode="W" horiz-adv-x="1000" d="M161.466 722 L213 0 L321 0 L631.148 617 L667 0 L778 0 L1145.47 722 L1047.47 722 L756.145 123 L720.466 722 L596.466 722 L298.207 128 L268.466 722 L161.466 722 Z " />
<glyph glyph-name="X" unicode="X" horiz-adv-x="722" d="M203.466 722 L380.347 378 L20 0 L141 0 L426.893 310 L576 0 L702 0 L511.921 376 L842.466 722 L721.466 722 L467.375 444 L331.466 722 L203.466 722 Z " />
<glyph glyph-name="Y" unicode="Y" horiz-adv-x="667" d="M283 0 L384 0 L443.303 279 L819.466 722 L707.466 722 L416.221 368 L278.466 722 L154.466 722 L343.366 284 L283 0 Z " />
<glyph glyph-name="Z" unicode="Z" horiz-adv-x="611" d="M34 0 L577 0 L595.28 86 L165.28 86 L702.423 623 L723.466 722 L198.466 722 L180.186 636 L588.186 636 L55.2557 100 L34 0 Z " />
<glyph glyph-name="bracketleft" unicode="&#x5b;" horiz-adv-x="333" d="M75.4304 -125 L248.43 -125 L259.696 -72 L165.696 -72 L329.152 697 L423.152 697 L434.418 750 L261.418 750 L75.4304 -125 Z " />
<glyph glyph-name="backslash" unicode="&#x5c;" horiz-adv-x="278" d="M206.553 713 L141.553 713 L218.599 -16 L284.599 -16 L206.553 713 Z " />
<glyph glyph-name="bracketright" unicode="&#x5d;" horiz-adv-x="333" d="M390.418 750 L217.418 750 L206.152 697 L300.152 697 L136.696 -72 L42.6959 -72 L31.4304 -125 L204.43 -125 L390.418 750 Z " />
<glyph glyph-name="asciicircum" unicode="&#x5e;" horiz-adv-x="584" d="M139.603 271 L225.603 271 L415.196 589 L473.603 271 L559.603 271 L477.089 692 L401.089 692 L139.603 271 Z " />
<glyph glyph-name="underscore" unicode="&#x5f;" horiz-adv-x="500" d="M-26.5696 -125 L473.43 -125 L484.058 -75 L-15.9418 -75 L-26.5696 -125 Z " />
<glyph glyph-name="grave" unicode="&#x60;" horiz-adv-x="278" d="M307.292 740 L358.684 596 L293.684 596 L203.292 740 L307.292 740 Z " />
<glyph glyph-name="a" unicode="a" horiz-adv-x="554" d="M478 0 C481.84 51 495.082 118 496.782 126 L551.371 364 C556.26 387 560.361 411 550.738 441 C534.578 492 461.467 515 388.467 515 C335.467 515 261.916 503 214.989 461 C178.762 427 168.322 392 159.796 366 L253.796 366 C259.047 386 277.863 451 372.863 451 C399.863 451 439.163 443 452.849 418 C466.173 396 460.434 369 447.68 309 C419.105 311 404.318 312 380.318 312 C340.318 312 259.68 309 199.303 279 C116.163 236 88.5598 172 80.0575 132 C62.6279 50 110.812 -15 225.812 -15 C267.812 -15 337.512 -7 399.942 75 C394.415 49 391.314 25 393 0 L478 0 Z M178.033 146 C199.714 248 342.714 248 380.714 248 C403.714 248 417.502 247 434.076 245 C417.197 175 410.246 147 382.019 113 C351.579 78 311.541 59 263.541 59 C179.541 59 171.231 114 178.033 146 L178.033 146 Z " />
<glyph glyph-name="b" unicode="b" horiz-adv-x="619" d="M338.466 722 L244.466 722 L110.13 90 C103.753 60 95.3767 30 88 0 L180 0 L199.154 76 C221.039 19 276.512 -7 347.725 -6 C502.725 -6 589.318 105 619.502 247 C650.322 392 610.679 516 455.467 515 C387.467 515 319.09 485 276.825 432 L338.466 722 Z M339.328 58 C195.328 58 231.038 226 237.84 258 C244.854 291 278.226 448 418.226 448 C533.226 448 538.207 335 520.777 253 C510.149 203 469.328 58 339.328 58 L339.328 58 Z " />
<glyph glyph-name="c" unicode="c" horiz-adv-x="532" d="M548.269 340 L548.482 341 C552.434 369 558.148 410 530.288 453 C495.979 508 422.467 515 389.467 515 C289.467 515 148.288 453 103.439 242 C81.3329 138 100.067 85 122.628 50 C163.3 -8 239.812 -15 273.812 -15 C397.812 -15 488.241 67 514.859 164 L419.859 164 C407.444 115 367.691 55 287.691 55 C188.691 55 183.096 151 205.989 254 C214.492 294 246.588 445 375.588 445 C466.588 445 456.158 363 453.269 340 L548.269 340 Z " />
<glyph glyph-name="d" unicode="d" horiz-adv-x="619" d="M681.466 722 L587.466 722 L525.825 432 C506.09 485 450.467 515 382.467 515 C227.679 516 135.322 392 104.502 247 C74.3185 105 113.725 -6 268.725 -6 C339.512 -7 406.039 19 452.154 76 L439 0 L531 0 C536.377 30 540.753 60 547.13 90 L681.466 722 Z M304.328 58 C174.328 58 195.149 203 205.777 253 C223.207 335 276.226 448 391.226 448 C531.226 448 497.854 291 490.84 258 C484.038 226 448.328 58 304.328 58 L304.328 58 Z " />
<glyph glyph-name="e" unicode="e" horiz-adv-x="558" d="M555.738 234 C575.168 316 622.467 515 397.467 515 C368.467 515 307.829 512 252.602 478 C161.912 423 124.482 341 103.439 242 C69.6422 83 123.812 -15 281.812 -15 C382.812 -15 441.739 27 469.053 52 C513.343 91 526.058 132 534.371 157 L440.371 157 C417.067 85 361.266 53 300.266 53 C197.266 53 170.632 130 194.738 234 L555.738 234 Z M212.767 300 C238.361 411 320.226 448 381.226 448 C497.226 448 484.97 348 473.767 300 L212.767 300 Z " />
<glyph glyph-name="f" unicode="f" horiz-adv-x="327" d="M484.529 727 C465.167 730 436.017 734 408.017 734 C343.017 734 298.128 711 270.326 679 C247.8 653 238.486 628 223.819 559 L211.704 502 L112.704 502 L98.2497 434 L197.25 434 L105 0 L199 0 L291.25 434 L408.25 434 L422.704 502 L305.704 502 L322.496 581 C329.935 616 338.012 654 414.012 654 C433.012 654 452.8 653 468.587 652 L484.529 727 Z " />
<glyph glyph-name="g" unicode="g" horiz-adv-x="619" d="M382.467 515 C227.679 516 135.322 392 106.415 256 C76.8692 117 114.913 9 264.913 9 C294.913 9 390.338 11 453.98 94 C426.348 -36 404.155 -131 276.155 -131 C184.155 -131 167.807 -95 175.71 -39 L75.7103 -39 C65.2564 -107 51.276 -201 252.276 -201 C321.276 -201 421.402 -191 480.406 -111 C508.483 -73 522.899 -24 548.618 97 L620.462 435 C625.139 457 631.027 480 637.704 502 L544.704 502 L525.825 432 C506.09 485 450.467 515 382.467 515 L382.467 515 Z M310.067 85 C189.067 85 192.811 192 208.54 266 C234.472 388 286.226 448 391.226 448 C486.226 448 511.67 356 493.603 271 C468.309 152 393.067 85 310.067 85 L310.067 85 Z " />
<glyph glyph-name="h" unicode="h" horiz-adv-x="609" d="M91 0 L185 0 L242.39 270 C248.98 301 258.97 348 280.921 376 C299.023 400 343.163 443 412.163 443 C518.163 443 497.545 346 487.98 301 L424 0 L518 0 L585.593 318 C601.11 391 599.211 415 593.462 435 C577.428 496 505.467 515 455.467 515 C387.467 515 319.09 485 276.825 432 L338.466 722 L244.466 722 L91 0 Z " />
<glyph glyph-name="i" unicode="i" horiz-adv-x="276" d="M213.573 619 L325.573 619 L347.466 722 L235.466 722 L213.573 619 Z M91 0 L185 0 L291.704 502 L197.704 502 L91 0 Z " />
<glyph glyph-name="j" unicode="j" horiz-adv-x="276" d="M213.573 619 L325.573 619 L347.466 722 L235.466 722 L213.573 619 Z M-42.0235 -193 C-16.6612 -196 3.12627 -197 15.1263 -197 C141.126 -197 164.807 -95 175.01 -47 L291.704 502 L197.704 502 L83.3479 -36 C66.3434 -116 45.5801 -129 -27.7822 -126 L-42.0235 -193 Z " />
<glyph glyph-name="k" unicode="k" horiz-adv-x="498" d="M91 0 L185 0 L242.603 271 L386 0 L509 0 L345.429 289 L602.704 502 L479.704 502 L248.129 297 L338.466 722 L244.466 722 L91 0 Z " />
<glyph glyph-name="l" unicode="l" horiz-adv-x="276" d="M91 0 L185 0 L338.466 722 L244.466 722 L91 0 Z " />
<glyph glyph-name="m" unicode="m" horiz-adv-x="942" d="M91 0 L185 0 L242.39 270 C248.98 301 258.97 348 280.921 376 C299.023 400 343.163 443 412.163 443 C518.163 443 497.545 346 487.98 301 L424 0 L518 0 L575.39 270 C581.98 301 591.97 348 613.921 376 C632.023 400 676.163 443 745.163 443 C851.163 443 830.545 346 820.98 301 L757 0 L851 0 L918.593 318 C934.11 391 932.211 415 926.462 435 C910.428 496 838.467 515 788.467 515 C674.467 515 619.438 449 596.486 421 C586.351 458 563.467 515 455.467 515 C387.467 515 319.09 485 276.825 432 L287.704 502 L194.704 502 C192.027 480 188.139 457 183.462 435 L91 0 Z " />
<glyph glyph-name="n" unicode="n" horiz-adv-x="609" d="M91 0 L185 0 L242.39 270 C248.98 301 258.97 348 280.921 376 C299.023 400 343.163 443 412.163 443 C518.163 443 497.545 346 487.98 301 L424 0 L518 0 L585.593 318 C601.11 391 599.211 415 593.462 435 C577.428 496 505.467 515 455.467 515 C387.467 515 319.09 485 276.825 432 L287.704 502 L194.704 502 C192.027 480 188.139 457 183.462 435 L91 0 Z " />
<glyph glyph-name="o" unicode="o" horiz-adv-x="605" d="M411.467 515 C206.467 515 127.883 357 105.777 253 C74.7436 107 131.812 -15 298.812 -15 C466.812 -15 575.744 107 606.777 253 C628.883 357 617.467 515 411.467 515 L411.467 515 Z M313.691 55 C244.691 55 174.531 106 206.415 256 C232.559 379 304.588 445 396.588 445 C489.588 445 533.559 379 507.415 256 C475.531 106 383.691 55 313.691 55 L313.691 55 Z " />
<glyph glyph-name="p" unicode="p" horiz-adv-x="619" d="M50.1891 -192 L144.189 -192 L201.154 76 C210.116 57 233.725 -6 347.725 -6 C502.725 -6 589.318 105 619.502 247 C650.322 392 610.679 516 455.467 515 C387.467 515 319.09 485 276.825 432 L287.704 502 L194.704 502 C192.027 480 188.139 457 183.462 435 L50.1891 -192 Z M339.328 58 C195.328 58 231.038 226 237.84 258 C244.854 291 278.226 448 418.226 448 C533.226 448 538.207 335 520.777 253 C510.149 203 469.328 58 339.328 58 L339.328 58 Z " />
<glyph glyph-name="q" unicode="q" horiz-adv-x="619" d="M393.189 -192 L487.189 -192 L620.462 435 C625.139 457 631.027 480 637.704 502 L544.704 502 L525.825 432 C506.09 485 450.467 515 382.467 515 C227.679 516 135.322 392 104.502 247 C74.3185 105 113.725 -6 268.725 -6 C382.725 -6 433.116 57 450.154 76 L393.189 -192 Z M304.328 58 C174.328 58 195.149 203 205.777 253 C223.207 335 276.226 448 391.226 448 C531.226 448 497.854 291 490.84 258 C484.038 226 448.328 58 304.328 58 L304.328 58 Z " />
<glyph glyph-name="r" unicode="r" horiz-adv-x="389" d="M92 0 L186 0 L242.753 267 C261.033 353 302.061 419 413.061 419 C420.061 419 428.061 419 435.849 418 C443.636 417 451.424 416 456.999 414 L476.554 506 C460.766 507 439.979 508 411.129 504 C367.853 498 302.965 475 270.086 405 L288.704 502 L195.704 502 C189.689 469 184.25 434 177.023 400 L92 0 Z " />
<glyph glyph-name="s" unicode="s" horiz-adv-x="518" d="M83.671 149 C57.739 27 143.812 -15 245.812 -15 C350.812 -15 471.101 24 497.246 147 C504.048 179 501.487 214 479.014 240 C454.965 268 426.666 276 294.68 309 C270.168 316 227.506 327 237.284 373 C248.549 426 300.588 445 354.588 445 C388.588 445 453.313 439 434.158 363 L530.158 363 C534.622 384 539.723 408 532.675 436 C516.853 498 431.467 515 368.467 515 C252.467 515 159.501 454 139.946 362 C117.627 257 201.163 236 301.062 212 C372.449 195 405.536 186 395.12 137 C382.367 77 325.116 57 274.116 57 C183.116 57 174.594 111 182.671 149 L83.671 149 Z " />
<glyph glyph-name="t" unicode="t" horiz-adv-x="327" d="M334.824 639 L234.447 609 L211.704 502 L112.704 502 L98.2497 434 L197.25 434 L126.256 100 C108.826 18 144.512 -7 230.512 -7 C265.512 -7 293.15 -4 310.787 -1 L326.304 72 C317.879 70 299.241 67 280.241 67 C213.241 67 222.169 109 227.483 134 L291.25 434 L408.25 434 L422.704 502 L305.704 502 L334.824 639 Z " />
<glyph glyph-name="u" unicode="u" horiz-adv-x="609" d="M624.704 502 L530.704 502 L472.888 230 C466.299 199 456.309 152 434.357 124 C416.256 100 372.116 57 303.116 57 C197.116 57 217.734 154 227.299 199 L291.704 502 L197.704 502 L129.685 182 C114.169 109 116.067 85 121.816 65 C137.85 4 209.812 -15 259.812 -15 C327.812 -15 396.188 15 438.454 68 L428 0 L521 0 C523.251 20 527.14 43 531.816 65 L624.704 502 Z " />
<glyph glyph-name="v" unicode="v" horiz-adv-x="546" d="M221 0 L316 0 L642.704 502 L538.704 502 L298.106 104 L221.704 502 L116.704 502 L221 0 Z " />
<glyph glyph-name="w" unicode="w" horiz-adv-x="831" d="M116.704 502 L176 0 L287 0 L505.786 413 L536 0 L644 0 L927.704 502 L830.704 502 L620.531 106 L590.704 502 L467.704 502 L255.681 102 L219.704 502 L116.704 502 Z " />
<glyph glyph-name="x" unicode="x" horiz-adv-x="540" d="M388.627 257 L636.704 502 L525.704 502 L345.53 313 L251.704 502 L128.704 502 L265.902 263 L10 0 L120 0 L305.724 201 L406 0 L530 0 L388.627 257 Z " />
<glyph glyph-name="y" unicode="y" horiz-adv-x="546" d="M642.704 502 L538.704 502 L298.106 104 L222.704 502 L116.704 502 L220.425 2 L103.614 -190 L200.614 -190 L312.362 -3 L642.704 502 Z " />
<glyph glyph-name="z" unicode="z" horiz-adv-x="442" d="M33 0 L409 0 L424.517 73 L147.517 73 L498.699 422 L515.704 502 L154.704 502 L139.612 431 L393.612 431 L53.618 97 L33 0 Z " />
<glyph glyph-name="braceleft" unicode="&#x7b;" horiz-adv-x="334" d="M60.0039 287 C188.816 272 173.937 202 160.333 138 L153.106 104 C128.449 -12 116.981 -113 308.43 -125 L319.271 -74 C199.396 -64 216.464 21 230.705 88 L237.294 119 C254.086 198 273.917 296 145.53 313 C282.144 330 303.825 432 319.554 506 L325.08 532 C339.959 602 358.452 689 483.577 699 L494.418 750 C288.08 739 262.998 621 240.254 514 L234.515 487 C224.1 438 215.81 399 169.646 370 C131.332 345 85.0568 339 70.8443 338 L60.0039 287 Z " />
<glyph glyph-name="bar" unicode="&#x7c;" horiz-adv-x="260" d="M42.5128 -214 L126.513 -214 L339.07 786 L255.07 786 L42.5128 -214 Z " />
<glyph glyph-name="braceright" unicode="&#x7d;" horiz-adv-x="334" d="M406.844 338 C278.033 353 292.912 423 306.515 487 L313.742 521 C338.399 637 349.867 738 158.418 750 L147.577 699 C267.452 689 250.384 604 236.143 537 L229.554 506 C212.762 427 192.931 329 321.53 313 C184.704 295 163.024 193 147.294 119 L141.768 93 C126.889 23 108.396 -64 -16.7292 -74 L-27.5696 -125 C178.769 -114 203.85 4 226.594 111 L232.333 138 C242.748 187 251.038 226 297.202 255 C335.516 280 381.791 286 396.004 287 L406.844 338 Z " />
<glyph glyph-name="asciitilde" unicode="&#x7e;" horiz-adv-x="584" d="M118.985 174 C139.676 229 180.927 249 207.927 249 C227.927 249 236.289 246 309.55 219 C352.149 203 421.835 178 461.835 178 C501.835 178 584.874 197 626.719 328 L572.719 328 C549.603 271 514.202 255 484.202 255 C460.202 255 448.052 259 365.429 289 C273.231 321 262.081 325 228.081 325 C195.081 325 161.743 314 126.729 281 C92.7141 248 78.9123 216 63.9849 174 L118.985 174 Z " />
<glyph glyph-name="exclamdown" unicode="&#xa1;" horiz-adv-x="389" d="M91.45 -219 L203.45 -219 L302.632 337 L231.632 337 L91.45 -219 Z M357.704 502 L251.704 502 L230.448 402 L336.448 402 L357.704 502 Z " />
<glyph glyph-name="cent" unicode="&#xa2;" horiz-adv-x="556" d="M238.154 76 C199.381 110 201.26 180 217.989 254 C226.492 294 258.588 445 387.588 445 C400.588 445 410.163 443 419.525 440 L238.154 76 Z M560.269 340 L560.482 341 C564.434 369 570.148 410 542.288 453 C530.327 472 513.303 486 494.216 495 L560.911 630 L512.911 630 L453.192 509 C432.254 514 414.467 515 401.467 515 C301.467 515 160.288 453 115.439 242 C93.3329 138 112.067 85 134.628 50 C152.314 25 175.913 9 201.213 1 L127.967 -146 L176.967 -146 L243.662 -11 C260.024 -14 274.812 -15 285.812 -15 C409.812 -15 500.241 67 526.859 164 L431.859 164 C419.444 115 379.691 55 299.691 55 C291.691 55 284.903 56 277.116 57 L454.211 415 C471.897 390 467.245 354 465.269 340 L560.269 340 Z " />
<glyph glyph-name="sterling" unicode="&#xa3;" horiz-adv-x="556" d="M39 0 L523 0 L537.029 66 L220.029 66 L278.694 342 L417.694 342 L431.723 408 L292.723 408 L310.791 493 C323.119 551 356.249 641 468.249 641 C536.249 641 568.322 599 557.844 545 L655.844 545 C660.307 566 669.022 607 644.249 641 C605.727 695 535.278 707 480.278 707 C312.278 707 234.897 597 209.815 479 L194.723 408 L118.723 408 L104.694 342 L178.694 342 L120.029 66 L53.0288 66 L39 0 Z " />
<glyph glyph-name="currency" unicode="&#xa4;" horiz-adv-x="556" d="M73.3714 157 L111.956 108 L191.772 173 C222.246 147 262.27 133 307.27 133 C351.27 133 396.458 148 438.772 173 L489.956 108 L549.371 157 L498.4 223 C512.801 239 550.941 282 564.545 346 C574.11 391 570.25 434 550.902 470 L629.718 535 L591.133 584 L513.317 519 C492.505 534 457.819 559 397.819 559 C332.819 559 289.718 535 264.53 520 L213.346 585 L153.931 536 L205.114 471 C171.25 434 148.11 391 138.545 346 C124.729 281 144.014 240 152.188 222 L73.3714 157 Z M381.09 485 C457.09 485 507.124 424 490.545 346 C474.178 269 398.999 207 321.999 207 C244.999 207 196.39 270 212.545 346 C229.124 424 305.09 485 381.09 485 L381.09 485 Z " />
<glyph glyph-name="yen" unicode="&#xa5;" horiz-adv-x="556" d="M79.0091 160 L262.009 160 L228 0 L328 0 L362.009 160 L545.009 160 L558.188 222 L375.188 222 L386.878 277 L569.878 277 L583.057 339 L432.057 339 L703.089 692 L590.089 692 L359.583 365 L271.089 692 L147.089 692 L270.057 339 L117.057 339 L103.878 277 L286.878 277 L275.188 222 L92.1877 222 L79.0091 160 Z " />
<glyph glyph-name="brokenbar" unicode="&#xa6;" horiz-adv-x="260" d="M69.0824 -89 L153.082 -89 L206.222 161 L122.222 161 L69.0824 -89 Z M175.361 411 L259.361 411 L312.5 661 L228.5 661 L175.361 411 Z " />
<glyph glyph-name="section" unicode="&#xa7;" horiz-adv-x="556" d="M112.063 5 C150.874 -10 188.387 -17 232.387 -17 C366.387 -17 453.628 50 472.12 137 C492.101 231 421.202 255 388.54 266 C456.579 285 503.294 326 517.96 395 C536.24 481 473.129 504 441.467 515 L383.143 537 C352.481 548 325.607 558 334.959 602 C347.925 663 410.413 670 440.413 670 C481.413 670 512.437 656 545.462 642 L561.828 719 C516.804 733 474.442 736 446.442 736 C338.442 736 256.027 687 236.684 596 C223.08 532 258.216 495 306.027 480 C273.689 469 188.1 438 169.182 349 C151.115 264 215.651 243 246.313 232 L309.85 211 C345.086 198 381.473 181 371.908 136 C364.256 100 320.541 59 256.541 59 C188.541 59 146.43 82 130.343 91 L112.063 5 Z M327.429 289 C300.129 297 248.53 313 260.221 368 C272.124 424 326.375 444 360.139 457 C400.163 443 442.187 429 431.347 378 C419.231 321 354.342 298 327.429 289 L327.429 289 Z " />
<glyph glyph-name="dieresis" unicode="&#xa8;" horiz-adv-x="278" d="M130.573 619 L222.573 619 L244.466 722 L152.466 722 L130.573 619 Z M318.573 619 L410.573 619 L432.466 722 L340.466 722 L318.573 619 Z " />
<glyph glyph-name="copyright" unicode="&#xa9;" horiz-adv-x="800" d="M642.414 463 C656.244 561 583.558 586 527.558 586 C384.558 586 324.8 446 306.308 359 C288.878 277 286.971 141 424.971 141 C494.971 141 572.835 178 598.477 261 L538.477 261 C533.502 247 511.386 190 440.386 190 C348.386 190 348.729 281 365.308 359 C380.187 429 418.356 538 514.356 538 C591.356 538 585.602 478 583.414 463 L642.414 463 Z M100.521 360 C56.3087 152 188.387 -17 396.387 -17 C603.387 -17 808.309 152 852.521 360 C896.52 567 763.442 736 556.442 736 C348.442 736 144.52 567 100.521 360 L100.521 360 Z M145.521 360 C184.418 543 363.877 691 546.877 691 C728.877 691 846.418 543 807.521 360 C768.41 176 587.952 28 405.952 28 C222.952 28 106.41 176 145.521 360 L145.521 360 Z " />
<glyph glyph-name="ordfeminine" unicode="&#xaa;" horiz-adv-x="334" d="M396.612 431 C400.114 471 406.916 503 407.766 507 L440.162 650 C443.713 662 445.476 675 441.302 693 C432.316 726 385.505 741 333.505 741 C288.505 741 260.379 731 244.679 723 C201.428 703 190.776 667 186.587 652 L247.587 652 C251.138 664 260.577 699 324.577 699 C390.577 699 384.35 665 373.935 616 C366.148 617 334.36 618 326.36 618 C250.36 618 155.684 596 137.617 511 C124.863 451 171.486 421 231.486 421 C300.486 421 331.564 459 345.177 476 C340.501 454 341.1 438 341.612 431 L396.612 431 Z M199.892 517 C214.984 588 339.071 579 365.433 576 C358.056 546 352.38 524 340.554 506 C336.279 500 309.414 463 256.414 463 C201.414 463 195.853 498 199.892 517 L199.892 517 Z " />
<glyph glyph-name="guillemotleft" unicode="&#xab;" horiz-adv-x="556" d="M286.266 53 L229.927 249 L368.163 443 L289.163 443 L137.927 249 L206.266 53 L286.266 53 Z M482.266 53 L425.927 249 L564.163 443 L485.163 443 L333.927 249 L402.266 53 L482.266 53 Z " />
<glyph glyph-name="logicalnot" unicode="&#xac;" horiz-adv-x="584" d="M103.743 314 L533.743 314 L490.594 111 L570.594 111 L630.11 391 L120.11 391 L103.743 314 Z " />
<glyph glyph-name="registered" unicode="&#xae;" horiz-adv-x="800" d="M310.013 447 L338.013 447 L357.568 539 L392.568 539 C425.568 539 431.868 531 428.279 500 C425.477 468 425.776 460 427.013 447 L456.013 447 C453.264 467 455.303 486 457.617 511 C459.931 536 454.844 545 434.906 550 C475.244 561 482.046 593 483.322 599 C494.162 650 440.162 650 425.162 650 L353.162 650 L310.013 447 Z M376.061 626 L420.061 626 C435.061 626 460.061 626 453.259 594 C446.67 563 420.67 563 406.67 563 L362.67 563 L376.061 626 Z M440.442 736 C339.442 736 233.8 653 211.269 547 C188.738 441 257.883 357 359.883 357 C462.883 357 566.738 441 589.269 547 C611.587 652 544.442 736 440.442 736 L440.442 736 Z M433.853 705 C522.853 705 576.336 632 558.269 547 C539.564 459 453.472 388 366.472 388 C280.472 388 223.351 458 242.269 547 C260.761 634 347.853 705 433.853 705 L433.853 705 Z " />
<glyph glyph-name="macron" unicode="&#xaf;" horiz-adv-x="278" d="M135.462 642 L415.462 642 L426.727 695 L146.727 695 L135.462 642 Z " />
<glyph glyph-name="degree" unicode="&#xb0;" horiz-adv-x="400" d="M350.278 707 C264.278 707 179.611 638 161.119 551 C142.839 465 197.96 395 283.96 395 C370.96 395 455.052 466 473.119 551 C491.611 638 436.278 707 350.278 707 L350.278 707 Z M335.611 638 C383.611 638 414.322 599 404.119 551 C394.129 504 347.626 464 298.626 464 C250.626 464 219.916 503 230.119 551 C240.534 600 288.611 638 335.611 638 L335.611 638 Z " />
<glyph glyph-name="plusminus" unicode="&#xb1;" horiz-adv-x="584" d="M272.106 104 L356.106 104 L391.39 270 L604.39 270 L620.757 347 L407.757 347 L443.467 515 L359.467 515 L323.757 347 L110.757 347 L94.3904 270 L307.39 270 L272.106 104 Z M34.2368 -13 L544.237 -13 L560.604 64 L50.6036 64 L34.2368 -13 Z " />
<glyph glyph-name="twosuperior" unicode="&#xb2;" horiz-adv-x="333" d="M84.3662 284 L370.366 284 L381.844 338 L177.844 338 L292.912 423 C372.452 482 428.356 538 438.684 596 C453.689 676 400.278 707 322.278 707 C276.278 707 182.302 693 154.558 586 L222.558 586 C226.322 599 238.8 653 309.8 653 C352.8 653 377.698 629 367.621 591 C359.969 555 337.167 523 235.588 445 L95.8443 338 L84.3662 284 Z " />
<glyph glyph-name="threesuperior" unicode="&#xb3;" horiz-adv-x="333" d="M95.7475 394 C81.255 307 134.028 273 217.028 273 C317.028 273 388.144 330 402.173 396 C411.525 440 398.878 484 327.641 497 C399.617 511 431.032 560 438.259 594 C450.587 652 414.278 707 315.278 707 C258.278 707 167.602 685 144.196 589 L212.196 589 C222.698 629 261.8 653 305.8 653 C338.8 653 378.249 641 368.046 593 C352.105 518 255.742 521 237.167 523 L225.689 469 C257.114 471 348.965 475 332.385 397 C325.371 364 291.506 327 234.506 327 C184.506 327 156.608 351 165.747 394 L95.7475 394 Z " />
<glyph glyph-name="acute" unicode="&#xb4;" horiz-adv-x="278" d="M285.292 740 L172.684 596 L237.684 596 L389.292 740 L285.292 740 Z " />
<glyph glyph-name="mu" unicode="&#xb5;" horiz-adv-x="609" d="M624.704 502 L530.704 502 L472.888 230 C466.299 199 456.309 152 434.357 124 C416.256 100 372.116 57 303.116 57 C197.116 57 217.734 154 227.299 199 L291.704 502 L197.704 502 L50.1891 -192 L144.189 -192 L193.502 40 C209.425 2 243.812 -15 288.812 -15 C336.812 -15 396.188 15 438.454 68 L428 0 L521 0 C523.251 20 527.14 43 531.816 65 L624.704 502 Z " />
<glyph glyph-name="paragraph" unicode="&#xb6;" horiz-adv-x="537" d="M665.863 658 L679.466 722 L407.466 722 C202.466 722 118.921 583 98.3027 486 C77.8972 390 100.666 276 254.115 264 L162.29 -168 L242.29 -168 L417.863 658 L533.863 658 L358.29 -168 L438.29 -168 L613.863 658 L665.863 658 Z " />
<glyph glyph-name="periodcentered" unicode="&#xb7;" horiz-adv-x="278" d="M133.101 231 L243.101 231 L268.608 351 L158.608 351 L133.101 231 Z " />
<glyph glyph-name="cedilla" unicode="&#xb8;" horiz-adv-x="278" d="M-19.2361 -194 C1.63837 -204 22.5128 -214 70.5128 -214 C191.513 -214 209.942 -132 211.643 -124 C218.02 -94 206.734 -53 148.734 -53 C131.734 -53 119.097 -56 107.672 -58 L166.063 5 L124.063 5 L42.3578 -83 L53.7443 -100 C67.8071 -95 77.4448 -92 91.4448 -92 C107.445 -92 141.595 -96 134.155 -131 C128.629 -157 106.653 -171 72.6528 -171 C35.6528 -171 18.3532 -163 8.62855 -157 L-19.2361 -194 Z " />
<glyph glyph-name="onesuperior" unicode="&#xb9;" horiz-adv-x="333" d="M291.366 284 L379.577 699 L315.577 699 C266.563 666 230.162 650 192.761 634 L178.52 567 C198.22 575 240.834 592 296.486 628 L223.366 284 L291.366 284 Z " />
<glyph glyph-name="ordmasculine" unicode="&#xba;" horiz-adv-x="367" d="M272.274 420 C376.274 420 450.94 489 470.496 581 C483.462 642 478.505 741 340.505 741 C202.505 741 155.462 642 142.496 581 C122.94 489 168.274 420 272.274 420 L272.274 420 Z M331.577 699 C413.577 699 416.761 634 405.921 583 C387.003 494 328.201 462 281.201 462 C234.201 462 189.003 494 207.921 583 C218.761 634 249.577 699 331.577 699 L331.577 699 Z " />
<glyph glyph-name="guillemotright" unicode="&#xbb;" horiz-adv-x="556" d="M179.163 443 L235.714 248 L97.2655 53 L176.266 53 L327.714 248 L259.163 443 L179.163 443 Z M375.163 443 L431.714 248 L293.266 53 L371.266 53 L523.714 248 L454.163 443 L375.163 443 Z " />
<glyph glyph-name="onequarter" unicode="&#xbc;" horiz-adv-x="834" d="M718 0 L736.492 87 L802.492 87 L814.183 142 L748.183 142 L807.486 421 L737.486 421 L487.222 161 L471.492 87 L670.492 87 L652 0 L718 0 Z M540.183 142 L725.907 343 L683.183 142 L540.183 142 Z M122.048 -28 L187.048 -28 L772.978 715 L708.978 715 L122.048 -28 Z M257.366 284 L345.577 699 L281.577 699 C232.563 666 196.162 650 158.761 634 L144.52 567 C164.22 575 206.834 592 262.486 628 L189.366 284 L257.366 284 Z " />
<glyph glyph-name="onehalf" unicode="&#xbd;" horiz-adv-x="834" d="M122.048 -28 L187.048 -28 L772.978 715 L708.978 715 L122.048 -28 Z M507 0 L793 0 L804.478 54 L600.478 54 L715.545 139 C795.086 198 850.989 254 861.318 312 C876.322 392 822.912 423 744.912 423 C698.912 423 604.936 409 577.192 302 L645.192 302 C648.955 315 661.434 369 732.434 369 C775.434 369 800.332 345 790.255 307 C782.603 271 759.801 239 658.222 161 L518.478 54 L507 0 Z M257.366 284 L345.577 699 L281.577 699 C232.563 666 196.162 650 158.761 634 L144.52 567 C164.22 575 206.834 592 262.486 628 L189.366 284 L257.366 284 Z " />
<glyph glyph-name="threequarters" unicode="&#xbe;" horiz-adv-x="834" d="M729 0 L747.492 87 L813.492 87 L825.183 142 L759.183 142 L818.486 421 L748.486 421 L498.222 161 L482.492 87 L681.492 87 L663 0 L729 0 Z M551.183 142 L736.907 343 L694.183 142 L551.183 142 Z M164.048 -28 L229.048 -28 L814.978 715 L749.978 715 L164.048 -28 Z M95.7475 394 C81.255 307 134.028 273 217.028 273 C317.028 273 388.144 330 402.173 396 C411.525 440 398.878 484 327.641 497 C399.617 511 431.032 560 438.259 594 C450.587 652 414.278 707 315.278 707 C258.278 707 167.602 685 144.196 589 L212.196 589 C222.698 629 261.8 653 305.8 653 C338.8 653 378.249 641 368.046 593 C352.105 518 255.742 521 237.167 523 L225.689 469 C257.114 471 348.965 475 332.385 397 C325.371 364 291.506 327 234.506 327 C184.506 327 156.608 351 165.747 394 L95.7475 394 Z " />
<glyph glyph-name="questiondown" unicode="&#xbf;" horiz-adv-x="500" d="M399.855 -123 C325.904 -151 272.904 -151 258.904 -151 C232.904 -151 124.329 -149 146.01 -47 C158.338 11 202.628 50 296.845 131 C360.536 186 361.811 192 370.313 232 L392.632 337 L308.632 337 L286.313 232 C283.55 219 280.85 211 271.724 201 C271.511 200 209.671 149 203.608 144 C102.753 60 56.8888 23 40.0968 -56 C30.9569 -99 38.8169 -142 60.4402 -172 C91.3002 -215 151.262 -234 234.262 -234 C305.262 -234 355.025 -221 380.725 -213 L399.855 -123 Z M438.704 502 L332.704 502 L311.448 402 L417.448 402 L438.704 502 Z " />
<glyph glyph-name="Agrave" unicode="&#xc0;" horiz-adv-x="722" d="M10 0 L113 0 L269.921 188 L604.921 188 L603 0 L712 0 L726.932 722 L619.932 722 L10 0 Z M626.846 623 L609.356 269 L336.356 269 L626.846 623 Z M737.356 930 L758.14 786 L693.14 786 L633.356 930 L737.356 930 Z " />
<glyph glyph-name="Aacute" unicode="&#xc1;" horiz-adv-x="722" d="M10 0 L113 0 L269.921 188 L604.921 188 L603 0 L712 0 L726.932 722 L619.932 722 L10 0 Z M626.846 623 L609.356 269 L336.356 269 L626.846 623 Z M775.356 930 L632.14 786 L697.14 786 L879.356 930 L775.356 930 Z " />
<glyph glyph-name="Acircumflex" unicode="&#xc2;" horiz-adv-x="722" d="M10 0 L113 0 L269.921 188 L604.921 188 L603 0 L712 0 L726.932 722 L619.932 722 L10 0 Z M626.846 623 L609.356 269 L336.356 269 L626.846 623 Z M622.14 786 L733.951 882 L759.14 786 L845.14 786 L802.356 930 L712.356 930 L545.14 786 L622.14 786 Z " />
<glyph glyph-name="Atilde" unicode="&#xc3;" horiz-adv-x="722" d="M10 0 L113 0 L269.921 188 L604.921 188 L603 0 L712 0 L726.932 722 L619.932 722 L10 0 Z M626.846 623 L609.356 269 L336.356 269 L626.846 623 Z M603.666 799 C613.019 821 632.395 836 656.395 836 C668.395 836 677.12 833 690.42 829 C739.043 814 745.193 812 760.193 812 C796.193 812 856.395 836 887.129 913 L846.129 913 C836.777 891 817.4 876 793.4 876 C781.4 876 772.675 879 759.376 883 C710.752 898 704.603 900 689.603 900 C653.603 900 593.4 876 562.666 799 L603.666 799 Z " />
<glyph glyph-name="Adieresis" unicode="&#xc4;" horiz-adv-x="722" d="M10 0 L113 0 L269.921 188 L604.921 188 L603 0 L712 0 L726.932 722 L619.932 722 L10 0 Z M626.846 623 L609.356 269 L336.356 269 L626.846 623 Z M560.666 799 L652.666 799 L696.453 902 L604.453 902 L560.666 799 Z M748.666 799 L840.666 799 L884.453 902 L792.453 902 L748.666 799 Z " />
<glyph glyph-name="Aring" unicode="&#xc5;" horiz-adv-x="722" d="M10 0 L113 0 L269.921 188 L604.921 188 L603 0 L712 0 L726.932 722 L619.932 722 L10 0 Z M626.846 623 L609.356 269 L336.356 269 L626.846 623 Z M623.922 849 C600.966 795 626.261 751 680.261 751 C734.261 751 796.966 795 819.922 849 C842.878 903 817.583 947 763.583 947 C709.583 947 646.878 903 623.922 849 L623.922 849 Z M663.922 849 C677.525 881 714.578 907 746.578 907 C778.578 907 793.525 881 779.922 849 C766.318 817 729.265 791 697.265 791 C665.265 791 650.318 817 663.922 849 L663.922 849 Z " />
<glyph glyph-name="AE" unicode="&#xc6;" horiz-adv-x="1000" d="M574.724 201 L566 0 L939 0 L957.28 86 L670.28 86 L679.294 326 L983.294 326 L1001.57 412 L682.573 412 L692.186 636 L1063.19 636 L1081.47 722 L561.466 722 L-13 0 L97 0 L254.724 201 L574.724 201 Z M317.941 282 L597.737 648 L576.941 282 L317.941 282 Z " />
<glyph glyph-name="Ccedilla" unicode="&#xc7;" horiz-adv-x="667" d="M561.748 187 C531.594 111 471.816 65 383.816 65 C217.816 65 210.487 214 239.82 352 C265.539 473 335.012 654 510.012 654 C649.012 654 640.544 553 639.23 528 L746.23 528 C768.515 694 633.442 736 531.442 736 C274.442 736 166.554 506 133.82 352 C104.7 215 104.575 -2 335.599 -16 L273.358 -83 L284.744 -100 C298.807 -95 308.445 -92 322.445 -92 C338.445 -92 372.595 -96 365.155 -131 C359.629 -157 337.653 -171 303.653 -171 C266.653 -171 249.353 -163 239.629 -157 L211.764 -194 C232.638 -204 253.513 -214 301.513 -214 C422.513 -214 440.942 -132 442.643 -124 C449.02 -94 437.734 -53 379.734 -53 C362.734 -53 350.097 -56 338.672 -58 L377.599 -16 C496.662 -11 628.628 50 671.748 187 L561.748 187 Z " />
<glyph glyph-name="Egrave" unicode="&#xc8;" horiz-adv-x="611" d="M89 0 L550 0 L586.56 86 L225.56 86 L327.587 326 L663.587 326 L700.147 412 L364.147 412 L459.373 636 L812.373 636 L848.932 722 L395.932 722 L89 0 Z M700.356 930 L721.14 786 L656.14 786 L596.356 930 L700.356 930 Z " />
<glyph glyph-name="Eacute" unicode="&#xc9;" horiz-adv-x="611" d="M89 0 L550 0 L586.56 86 L225.56 86 L327.587 326 L663.587 326 L700.147 412 L364.147 412 L459.373 636 L812.373 636 L848.932 722 L395.932 722 L89 0 Z M735.356 930 L592.14 786 L657.14 786 L839.356 930 L735.356 930 Z " />
<glyph glyph-name="Ecircumflex" unicode="&#xca;" horiz-adv-x="611" d="M89 0 L550 0 L586.56 86 L225.56 86 L327.587 326 L663.587 326 L700.147 412 L364.147 412 L459.373 636 L812.373 636 L848.932 722 L395.932 722 L89 0 Z M579.14 786 L690.951 882 L716.14 786 L802.14 786 L759.356 930 L669.356 930 L502.14 786 L579.14 786 Z " />
<glyph glyph-name="Edieresis" unicode="&#xcb;" horiz-adv-x="611" d="M89 0 L550 0 L586.56 86 L225.56 86 L327.587 326 L663.587 326 L700.147 412 L364.147 412 L459.373 636 L812.373 636 L848.932 722 L395.932 722 L89 0 Z M517.666 799 L609.666 799 L653.453 902 L561.453 902 L517.666 799 Z M705.666 799 L797.666 799 L841.453 902 L749.453 902 L705.666 799 Z " />
<glyph glyph-name="Igrave" unicode="&#xcc;" horiz-adv-x="278" d="M89 0 L189 0 L495.932 722 L395.932 722 L89 0 Z M515.356 930 L536.14 786 L471.14 786 L411.356 930 L515.356 930 Z " />
<glyph glyph-name="Iacute" unicode="&#xcd;" horiz-adv-x="278" d="M89 0 L189 0 L495.932 722 L395.932 722 L89 0 Z M553.356 930 L410.14 786 L475.14 786 L657.356 930 L553.356 930 Z " />
<glyph glyph-name="Icircumflex" unicode="&#xce;" horiz-adv-x="278" d="M89 0 L189 0 L495.932 722 L395.932 722 L89 0 Z M400.14 786 L511.951 882 L537.14 786 L623.14 786 L580.356 930 L490.356 930 L323.14 786 L400.14 786 Z " />
<glyph glyph-name="Idieresis" unicode="&#xcf;" horiz-adv-x="278" d="M89 0 L189 0 L495.932 722 L395.932 722 L89 0 Z M338.666 799 L430.666 799 L474.453 902 L382.453 902 L338.666 799 Z M526.666 799 L618.666 799 L662.453 902 L570.453 902 L526.666 799 Z " />
<glyph glyph-name="Eth" unicode="&#xd0;" horiz-adv-x="737" d="M89 0 L292 0 C398 0 487 0 570.541 59 C634.893 103 720.299 199 753.458 355 C774.501 454 770.544 553 722.486 628 C662.466 722 548.466 722 451.466 722 L242.466 722 L180.4 430 L110.4 430 L97.4335 369 L167.434 369 L89 0 Z M267.434 369 L459.434 369 L472.4 430 L280.4 430 L325.036 640 L446.036 640 C534.036 640 589.273 627 624.433 576 C676.491 501 652.347 378 646.608 351 C637.68 309 609.598 191 502.932 122 C447.28 86 374.43 82 305.43 82 L206.43 82 L267.434 369 Z " />
<glyph glyph-name="Ntilde" unicode="&#xd1;" horiz-adv-x="764" d="M89 0 L181 0 L441.595 613 L547 0 L675 0 L981.932 722 L889.932 722 L636.139 125 L534.932 722 L395.932 722 L89 0 Z M636.666 799 C646.019 821 665.395 836 689.395 836 C701.395 836 710.12 833 723.42 829 C772.043 814 778.193 812 793.193 812 C829.193 812 889.395 836 920.129 913 L879.129 913 C869.777 891 850.4 876 826.4 876 C814.4 876 805.675 879 792.376 883 C743.752 898 737.603 900 722.603 900 C686.603 900 626.4 876 595.666 799 L636.666 799 Z " />
<glyph glyph-name="Ograve" unicode="&#xd2;" horiz-adv-x="778" d="M209.065 353 C126.168 158 131.773 -17 377.773 -17 C634.773 -17 793.82 176 874.167 365 C977.469 608 905.884 736 705.884 736 C474.884 736 299.189 565 209.065 353 L209.065 353 Z M415.632 65 C241.632 65 252.573 206 317.616 359 C380.533 507 489.025 654 672.025 654 C837.025 654 838.31 530 768.592 366 C703.124 212 591.632 65 415.632 65 L415.632 65 Z M765.356 930 L786.14 786 L721.14 786 L661.356 930 L765.356 930 Z " />
<glyph glyph-name="Oacute" unicode="&#xd3;" horiz-adv-x="778" d="M209.065 353 C126.168 158 131.773 -17 377.773 -17 C634.773 -17 793.82 176 874.167 365 C977.469 608 905.884 736 705.884 736 C474.884 736 299.189 565 209.065 353 L209.065 353 Z M415.632 65 C241.632 65 252.573 206 317.616 359 C380.533 507 489.025 654 672.025 654 C837.025 654 838.31 530 768.592 366 C703.124 212 591.632 65 415.632 65 L415.632 65 Z M803.356 930 L660.14 786 L725.14 786 L907.356 930 L803.356 930 Z " />
<glyph glyph-name="Ocircumflex" unicode="&#xd4;" horiz-adv-x="778" d="M209.065 353 C126.168 158 131.773 -17 377.773 -17 C634.773 -17 793.82 176 874.167 365 C977.469 608 905.884 736 705.884 736 C474.884 736 299.189 565 209.065 353 L209.065 353 Z M415.632 65 C241.632 65 252.573 206 317.616 359 C380.533 507 489.025 654 672.025 654 C837.025 654 838.31 530 768.592 366 C703.124 212 591.632 65 415.632 65 L415.632 65 Z M650.14 786 L761.951 882 L787.14 786 L873.14 786 L830.356 930 L740.356 930 L573.14 786 L650.14 786 Z " />
<glyph glyph-name="Otilde" unicode="&#xd5;" horiz-adv-x="778" d="M209.065 353 C126.168 158 131.773 -17 377.773 -17 C634.773 -17 793.82 176 874.167 365 C977.469 608 905.884 736 705.884 736 C474.884 736 299.189 565 209.065 353 L209.065 353 Z M415.632 65 C241.632 65 252.573 206 317.616 359 C380.533 507 489.025 654 672.025 654 C837.025 654 838.31 530 768.592 366 C703.124 212 591.632 65 415.632 65 L415.632 65 Z M631.666 799 C641.019 821 660.395 836 684.395 836 C696.395 836 705.12 833 718.42 829 C767.043 814 773.193 812 788.193 812 C824.193 812 884.395 836 915.129 913 L874.129 913 C864.777 891 845.4 876 821.4 876 C809.4 876 800.675 879 787.376 883 C738.752 898 732.603 900 717.603 900 C681.603 900 621.4 876 590.666 799 L631.666 799 Z " />
<glyph glyph-name="Odieresis" unicode="&#xd6;" horiz-adv-x="778" d="M209.065 353 C126.168 158 131.773 -17 377.773 -17 C634.773 -17 793.82 176 874.167 365 C977.469 608 905.884 736 705.884 736 C474.884 736 299.189 565 209.065 353 L209.065 353 Z M415.632 65 C241.632 65 252.573 206 317.616 359 C380.533 507 489.025 654 672.025 654 C837.025 654 838.31 530 768.592 366 C703.124 212 591.632 65 415.632 65 L415.632 65 Z M588.666 799 L680.666 799 L724.453 902 L632.453 902 L588.666 799 Z M776.666 799 L868.666 799 L912.453 902 L820.453 902 L776.666 799 Z " />
<glyph glyph-name="multiply" unicode="&#xd7;" horiz-adv-x="584" d="M62.8162 65 L107.7 8 L333.236 194 L479.7 8 L548.816 65 L402.352 251 L627.887 437 L583.003 494 L357.68 309 L211.003 494 L141.887 437 L288.352 251 L62.8162 65 Z " />
<glyph glyph-name="Oslash" unicode="&#xd8;" horiz-adv-x="778" d="M683.858 578 C709.805 526 708.863 451 690.796 366 C658.062 212 577.816 65 401.816 65 C345.816 65 306.792 79 279.106 104 L683.858 578 Z M249.608 144 C221.086 198 223.878 277 241.308 359 C272.766 507 350.012 654 533.012 654 C587.012 654 627.249 641 654.148 617 L249.608 144 Z M55.1452 -84 L118.145 -84 L212.526 26 C251.787 -1 307.387 -17 381.387 -17 C638.387 -17 756.41 176 796.583 365 C825.066 499 808.109 598 753.075 659 L875.683 803 L813.683 803 L717.877 691 C674.254 721 618.442 736 549.442 736 C318.442 736 179.095 565 134.033 353 C109.376 237 114.207 128 176.328 58 L55.1452 -84 Z " />
<glyph glyph-name="Ugrave" unicode="&#xd9;" horiz-adv-x="762" d="M979.932 722 L879.932 722 L691.607 279 C669.501 227 604.458 74 412.458 74 C220.458 74 285.501 227 307.607 279 L495.932 722 L395.932 722 L206.757 277 C190.177 238 156.743 157 184.135 85 C217.3 -4 322.623 -15 374.623 -15 C426.623 -15 541.3 -4 650.135 85 C738.743 157 774.177 238 790.757 277 L979.932 722 Z M757.356 930 L778.14 786 L713.14 786 L653.356 930 L757.356 930 Z " />
<glyph glyph-name="Uacute" unicode="&#xda;" horiz-adv-x="762" d="M979.932 722 L879.932 722 L691.607 279 C669.501 227 604.458 74 412.458 74 C220.458 74 285.501 227 307.607 279 L495.932 722 L395.932 722 L206.757 277 C190.177 238 156.743 157 184.135 85 C217.3 -4 322.623 -15 374.623 -15 C426.623 -15 541.3 -4 650.135 85 C738.743 157 774.177 238 790.757 277 L979.932 722 Z M795.356 930 L652.14 786 L717.14 786 L899.356 930 L795.356 930 Z " />
<glyph glyph-name="Ucircumflex" unicode="&#xdb;" horiz-adv-x="762" d="M979.932 722 L879.932 722 L691.607 279 C669.501 227 604.458 74 412.458 74 C220.458 74 285.501 227 307.607 279 L495.932 722 L395.932 722 L206.757 277 C190.177 238 156.743 157 184.135 85 C217.3 -4 322.623 -15 374.623 -15 C426.623 -15 541.3 -4 650.135 85 C738.743 157 774.177 238 790.757 277 L979.932 722 Z M642.14 786 L753.951 882 L779.14 786 L865.14 786 L822.356 930 L732.356 930 L565.14 786 L642.14 786 Z " />
<glyph glyph-name="Udieresis" unicode="&#xdc;" horiz-adv-x="762" d="M979.932 722 L879.932 722 L691.607 279 C669.501 227 604.458 74 412.458 74 C220.458 74 285.501 227 307.607 279 L495.932 722 L395.932 722 L206.757 277 C190.177 238 156.743 157 184.135 85 C217.3 -4 322.623 -15 374.623 -15 C426.623 -15 541.3 -4 650.135 85 C738.743 157 774.177 238 790.757 277 L979.932 722 Z M580.666 799 L672.666 799 L716.453 902 L624.453 902 L580.666 799 Z M768.666 799 L860.666 799 L904.453 902 L812.453 902 L768.666 799 Z " />
<glyph glyph-name="Yacute" unicode="&#xdd;" horiz-adv-x="667" d="M283 0 L384 0 L502.607 279 L972.932 722 L860.932 722 L494.442 368 L431.932 722 L307.932 722 L403.732 284 L283 0 Z M718.356 930 L575.14 786 L640.14 786 L822.356 930 L718.356 930 Z " />
<glyph glyph-name="Thorn" unicode="&#xde;" horiz-adv-x="611" d="M242.466 722 L89 0 L189 0 L231.511 200 L348.511 200 C478.511 200 533.613 224 579.69 262 C626.98 301 654.97 348 666.66 403 C678.139 457 671.554 506 643.418 543 C605.684 596 546.747 601 458.747 601 L316.747 601 L342.466 722 L242.466 722 Z M299.317 519 L439.317 519 C491.317 519 585.317 519 561.086 405 C536.004 287 433.941 282 367.941 282 L248.941 282 L299.317 519 Z " />
<glyph glyph-name="germandbls" unicode="&#xdf;" horiz-adv-x="665" d="M91 0 L185 0 L296.592 525 C318.911 630 364.626 671 458.626 671 C545.626 671 573.698 629 563.071 579 C555.418 543 535.655 530 504.404 510 C452.177 476 408.226 448 396.11 391 C386.757 347 405.168 316 449.579 285 L501.714 248 C530.25 227 559.937 202 549.096 151 C542.507 120 512.391 63 438.391 63 C390.391 63 362.343 91 375.033 146 L283.033 146 C278.782 126 273.893 103 279.517 73 C292.7 8 358.512 -7 414.512 -7 C518.512 -7 623.903 56 647.284 166 C659.825 225 644.477 261 586.617 304 L511.733 361 C498.859 371 491.047 386 494.873 404 C500.825 432 517.163 443 581.09 485 C621.617 511 646.143 537 656.558 586 C681.428 703 571.229 735 476.229 735 C262.229 735 220.66 610 203.23 528 L91 0 Z " />
<glyph glyph-name="agrave" unicode="&#xe0;" horiz-adv-x="554" d="M478 0 C492.681 51 520.163 118 523.564 126 L628.741 364 C638.519 387 647.722 411 644.475 441 C639.156 492 570.934 515 497.934 515 C444.934 515 368.832 503 312.978 461 C269.524 427 251.645 392 237.592 366 L331.592 366 C341.094 386 373.726 451 468.726 451 C495.726 451 533.326 443 541.698 418 C550.345 396 538.867 369 513.36 309 C485.21 311 470.636 312 446.636 312 C406.636 312 325.36 309 258.607 279 C166.327 236 125.12 172 108.115 132 C73.2557 50 107.623 -15 222.623 -15 C264.623 -15 336.024 -7 415.884 75 C404.831 49 396.628 25 393 0 L478 0 Z M209.067 146 C252.428 248 395.428 248 433.428 248 C456.428 248 470.003 247 486.153 245 C454.395 175 441.492 147 406.038 113 C368.159 78 324.082 59 276.082 59 C192.082 59 195.463 114 209.067 146 L209.067 146 Z M572.584 740 L593.368 596 L528.368 596 L468.584 740 L572.584 740 Z " />
<glyph glyph-name="aacute" unicode="&#xe1;" horiz-adv-x="554" d="M478 0 C492.681 51 520.163 118 523.564 126 L628.741 364 C638.519 387 647.722 411 644.475 441 C639.156 492 570.934 515 497.934 515 C444.934 515 368.832 503 312.978 461 C269.524 427 251.645 392 237.592 366 L331.592 366 C341.094 386 373.726 451 468.726 451 C495.726 451 533.326 443 541.698 418 C550.345 396 538.867 369 513.36 309 C485.21 311 470.636 312 446.636 312 C406.636 312 325.36 309 258.607 279 C166.327 236 125.12 172 108.115 132 C73.2557 50 107.623 -15 222.623 -15 C264.623 -15 336.024 -7 415.884 75 C404.831 49 396.628 25 393 0 L478 0 Z M209.067 146 C252.428 248 395.428 248 433.428 248 C456.428 248 470.003 247 486.153 245 C454.395 175 441.492 147 406.038 113 C368.159 78 324.082 59 276.082 59 C192.082 59 195.463 114 209.067 146 L209.067 146 Z M610.584 740 L467.368 596 L532.368 596 L714.584 740 L610.584 740 Z " />
<glyph glyph-name="acircumflex" unicode="&#xe2;" horiz-adv-x="554" d="M478 0 C492.681 51 520.163 118 523.564 126 L628.741 364 C638.519 387 647.722 411 644.475 441 C639.156 492 570.934 515 497.934 515 C444.934 515 368.832 503 312.978 461 C269.524 427 251.645 392 237.592 366 L331.592 366 C341.094 386 373.726 451 468.726 451 C495.726 451 533.326 443 541.698 418 C550.345 396 538.867 369 513.36 309 C485.21 311 470.636 312 446.636 312 C406.636 312 325.36 309 258.607 279 C166.327 236 125.12 172 108.115 132 C73.2557 50 107.623 -15 222.623 -15 C264.623 -15 336.024 -7 415.884 75 C404.831 49 396.628 25 393 0 L478 0 Z M209.067 146 C252.428 248 395.428 248 433.428 248 C456.428 248 470.003 247 486.153 245 C454.395 175 441.492 147 406.038 113 C368.159 78 324.082 59 276.082 59 C192.082 59 195.463 114 209.067 146 L209.067 146 Z M457.368 596 L569.179 692 L594.368 596 L680.368 596 L637.584 740 L547.584 740 L380.368 596 L457.368 596 Z " />
<glyph glyph-name="atilde" unicode="&#xe3;" horiz-adv-x="554" d="M478 0 C492.681 51 520.163 118 523.564 126 L628.741 364 C638.519 387 647.722 411 644.475 441 C639.156 492 570.934 515 497.934 515 C444.934 515 368.832 503 312.978 461 C269.524 427 251.645 392 237.592 366 L331.592 366 C341.094 386 373.726 451 468.726 451 C495.726 451 533.326 443 541.698 418 C550.345 396 538.867 369 513.36 309 C485.21 311 470.636 312 446.636 312 C406.636 312 325.36 309 258.607 279 C166.327 236 125.12 172 108.115 132 C73.2557 50 107.623 -15 222.623 -15 C264.623 -15 336.024 -7 415.884 75 C404.831 49 396.628 25 393 0 L478 0 Z M209.067 146 C252.428 248 395.428 248 433.428 248 C456.428 248 470.003 247 486.153 245 C454.395 175 441.492 147 406.038 113 C368.159 78 324.082 59 276.082 59 C192.082 59 195.463 114 209.067 146 L209.067 146 Z M438.894 609 C448.247 631 467.624 646 491.624 646 C503.624 646 512.348 643 525.648 639 C574.271 624 580.421 622 595.421 622 C631.421 622 691.624 646 722.357 723 L681.357 723 C672.005 701 652.628 686 628.628 686 C616.628 686 607.904 689 594.604 693 C545.981 708 539.831 710 524.831 710 C488.831 710 428.628 686 397.894 609 L438.894 609 Z " />
<glyph glyph-name="adieresis" unicode="&#xe4;" horiz-adv-x="554" d="M478 0 C492.681 51 520.163 118 523.564 126 L628.741 364 C638.519 387 647.722 411 644.475 441 C639.156 492 570.934 515 497.934 515 C444.934 515 368.832 503 312.978 461 C269.524 427 251.645 392 237.592 366 L331.592 366 C341.094 386 373.726 451 468.726 451 C495.726 451 533.326 443 541.698 418 C550.345 396 538.867 369 513.36 309 C485.21 311 470.636 312 446.636 312 C406.636 312 325.36 309 258.607 279 C166.327 236 125.12 172 108.115 132 C73.2557 50 107.623 -15 222.623 -15 C264.623 -15 336.024 -7 415.884 75 C404.831 49 396.628 25 393 0 L478 0 Z M209.067 146 C252.428 248 395.428 248 433.428 248 C456.428 248 470.003 247 486.153 245 C454.395 175 441.492 147 406.038 113 C368.159 78 324.082 59 276.082 59 C192.082 59 195.463 114 209.067 146 L209.067 146 Z M400.146 619 L492.146 619 L535.932 722 L443.932 722 L400.146 619 Z M588.146 619 L680.146 619 L723.932 722 L631.932 722 L588.146 619 Z " />
<glyph glyph-name="aring" unicode="&#xe5;" horiz-adv-x="554" d="M478 0 C492.681 51 520.163 118 523.564 126 L628.741 364 C638.519 387 647.722 411 644.475 441 C639.156 492 570.934 515 497.934 515 C444.934 515 368.832 503 312.978 461 C269.524 427 251.645 392 237.592 366 L331.592 366 C341.094 386 373.726 451 468.726 451 C495.726 451 533.326 443 541.698 418 C550.345 396 538.867 369 513.36 309 C485.21 311 470.636 312 446.636 312 C406.636 312 325.36 309 258.607 279 C166.327 236 125.12 172 108.115 132 C73.2557 50 107.623 -15 222.623 -15 C264.623 -15 336.024 -7 415.884 75 C404.831 49 396.628 25 393 0 L478 0 Z M209.067 146 C252.428 248 395.428 248 433.428 248 C456.428 248 470.003 247 486.153 245 C454.395 175 441.492 147 406.038 113 C368.159 78 324.082 59 276.082 59 C192.082 59 195.463 114 209.067 146 L209.067 146 Z M463.401 669 C440.445 615 465.74 571 519.74 571 C573.74 571 636.445 615 659.401 669 C682.357 723 657.062 767 603.062 767 C549.062 767 486.357 723 463.401 669 L463.401 669 Z M503.401 669 C517.005 701 554.058 727 586.058 727 C618.058 727 633.005 701 619.401 669 C605.798 637 568.745 611 536.745 611 C504.745 611 489.798 637 503.401 669 L503.401 669 Z " />
<glyph glyph-name="ae" unicode="&#xe6;" horiz-adv-x="887" d="M768.946 155 C759.231 114 719.266 53 636.266 53 C530.266 53 522.671 149 538.376 237 L885.376 237 C916.197 382 908.467 515 737.467 515 C672.467 515 596.003 494 542.148 410 C537.501 454 513.254 514 385.254 514 C312.254 514 268.216 495 240.815 479 C180.588 445 165.322 392 158.434 369 L251.434 369 C269.037 433 330.013 447 376.013 447 C492.013 447 478.946 362 467.255 307 C448.255 307 423.468 308 401.468 308 C368.468 308 315.255 307 267.767 300 C158.154 283 97.2746 213 82.6082 144 C67.0915 71 97.8116 -15 247.812 -15 C393.812 -15 448.517 73 468.106 104 C489.812 -15 610.812 -15 631.812 -15 C689.812 -15 813.275 6 864.946 155 L768.946 155 Z M554.617 304 C578.197 382 630.588 445 717.588 445 C802.588 445 818.559 379 802.617 304 L554.617 304 Z M177.183 142 C196.526 233 308.589 238 337.014 240 C381.439 242 435.226 241 456.226 241 C435.608 144 384.266 53 272.266 53 C221.266 53 163.154 76 177.183 142 L177.183 142 Z " />
<glyph glyph-name="ccedilla" unicode="&#xe7;" horiz-adv-x="532" d="M419.859 164 C407.444 115 367.691 55 287.691 55 C188.691 55 183.096 151 205.989 254 C214.492 294 246.588 445 375.588 445 C466.588 445 456.158 363 453.269 340 L548.269 340 L548.482 341 C552.434 369 558.148 410 530.288 453 C495.979 508 422.467 515 389.467 515 C289.467 515 148.288 453 103.439 242 C76.2315 114 103.425 2 240.237 -13 L174.358 -83 L185.744 -100 C199.807 -95 209.445 -92 223.445 -92 C239.445 -92 273.595 -96 266.155 -131 C260.629 -157 238.653 -171 204.653 -171 C167.653 -171 150.353 -163 140.629 -157 L112.764 -194 C133.638 -204 154.513 -214 202.513 -214 C323.513 -214 341.942 -132 343.643 -124 C350.02 -94 338.734 -53 280.734 -53 C263.734 -53 251.097 -56 239.672 -58 L279.812 -15 C400.449 -12 488.666 69 514.859 164 L419.859 164 Z " />
<glyph glyph-name="egrave" unicode="&#xe8;" horiz-adv-x="558" d="M605.477 234 C642.336 316 731.934 515 506.934 515 C477.934 515 416.658 512 354.204 478 C251.823 423 196.964 341 154.878 242 C87.2845 83 120.623 -15 278.623 -15 C379.623 -15 447.478 27 480.106 52 C532.685 91 554.115 132 567.743 157 L473.743 157 C435.135 85 372.531 53 311.531 53 C208.531 53 198.265 130 244.477 234 L605.477 234 Z M276.534 300 C325.722 411 415.451 448 476.451 448 C592.451 448 558.94 348 537.534 300 L276.534 300 Z M574.584 740 L595.368 596 L530.368 596 L470.584 740 L574.584 740 Z " />
<glyph glyph-name="eacute" unicode="&#xe9;" horiz-adv-x="558" d="M605.477 234 C642.336 316 731.934 515 506.934 515 C477.934 515 416.658 512 354.204 478 C251.823 423 196.964 341 154.878 242 C87.2845 83 120.623 -15 278.623 -15 C379.623 -15 447.478 27 480.106 52 C532.685 91 554.115 132 567.743 157 L473.743 157 C435.135 85 372.531 53 311.531 53 C208.531 53 198.265 130 244.477 234 L605.477 234 Z M276.534 300 C325.722 411 415.451 448 476.451 448 C592.451 448 558.94 348 537.534 300 L276.534 300 Z M612.584 740 L469.368 596 L534.368 596 L716.584 740 L612.584 740 Z " />
<glyph glyph-name="ecircumflex" unicode="&#xea;" horiz-adv-x="558" d="M605.477 234 C642.336 316 731.934 515 506.934 515 C477.934 515 416.658 512 354.204 478 C251.823 423 196.964 341 154.878 242 C87.2845 83 120.623 -15 278.623 -15 C379.623 -15 447.478 27 480.106 52 C532.685 91 554.115 132 567.743 157 L473.743 157 C435.135 85 372.531 53 311.531 53 C208.531 53 198.265 130 244.477 234 L605.477 234 Z M276.534 300 C325.722 411 415.451 448 476.451 448 C592.451 448 558.94 348 537.534 300 L276.534 300 Z M459.368 596 L571.179 692 L596.368 596 L682.368 596 L639.584 740 L549.584 740 L382.368 596 L459.368 596 Z " />
<glyph glyph-name="edieresis" unicode="&#xeb;" horiz-adv-x="558" d="M605.477 234 C642.336 316 731.934 515 506.934 515 C477.934 515 416.658 512 354.204 478 C251.823 423 196.964 341 154.878 242 C87.2845 83 120.623 -15 278.623 -15 C379.623 -15 447.478 27 480.106 52 C532.685 91 554.115 132 567.743 157 L473.743 157 C435.135 85 372.531 53 311.531 53 C208.531 53 198.265 130 244.477 234 L605.477 234 Z M276.534 300 C325.722 411 415.451 448 476.451 448 C592.451 448 558.94 348 537.534 300 L276.534 300 Z M402.146 619 L494.146 619 L537.932 722 L445.932 722 L402.146 619 Z M590.146 619 L682.146 619 L725.932 722 L633.932 722 L590.146 619 Z " />
<glyph glyph-name="igrave" unicode="&#xec;" horiz-adv-x="276" d="M91 0 L185 0 L398.407 502 L304.407 502 L91 0 Z M433.584 740 L454.368 596 L389.368 596 L329.584 740 L433.584 740 Z " />
<glyph glyph-name="iacute" unicode="&#xed;" horiz-adv-x="276" d="M91 0 L185 0 L398.407 502 L304.407 502 L91 0 Z M471.584 740 L328.368 596 L393.368 596 L575.584 740 L471.584 740 Z " />
<glyph glyph-name="icircumflex" unicode="&#xee;" horiz-adv-x="276" d="M91 0 L185 0 L398.407 502 L304.407 502 L91 0 Z M318.368 596 L430.179 692 L455.368 596 L541.368 596 L498.584 740 L408.584 740 L241.368 596 L318.368 596 Z " />
<glyph glyph-name="idieresis" unicode="&#xef;" horiz-adv-x="276" d="M91 0 L185 0 L398.407 502 L304.407 502 L91 0 Z M261.146 619 L353.146 619 L396.932 722 L304.932 722 L261.146 619 Z M449.146 619 L541.146 619 L584.932 722 L492.932 722 L449.146 619 Z " />
<glyph glyph-name="eth" unicode="&#xf0;" horiz-adv-x="605" d="M246.109 598 L274.67 563 L382.785 620 C456.819 559 503.491 501 526.462 435 C510.776 460 482.554 506 390.554 506 C284.554 506 141.675 436 105.777 253 C74.7436 107 131.812 -15 298.812 -15 C466.812 -15 574.256 100 610.603 271 C658.216 495 537.81 606 470.776 667 L571.828 719 L543.481 755 L432.152 697 C388.167 730 375.292 740 344.118 758 L269.577 699 C287.452 689 303.326 679 343.162 650 L246.109 598 Z M313.691 55 C244.691 55 174.531 106 206.415 256 C232.559 379 304.588 445 396.588 445 C489.588 445 533.559 379 507.415 256 C475.531 106 383.691 55 313.691 55 L313.691 55 Z " />
<glyph glyph-name="ntilde" unicode="&#xf1;" horiz-adv-x="609" d="M91 0 L185 0 L299.781 270 C312.959 301 332.94 348 360.843 376 C384.046 400 437.326 443 506.326 443 C612.326 443 571.089 346 551.959 301 L424 0 L518 0 L653.186 318 C684.22 391 687.422 415 685.925 435 C682.857 496 614.934 515 564.934 515 C496.934 515 422.18 485 368.649 432 L394.407 502 L301.407 502 C294.055 480 285.277 457 275.925 435 L91 0 Z M466.894 609 C476.247 631 495.624 646 519.624 646 C531.624 646 540.348 643 553.648 639 C602.271 624 608.421 622 623.421 622 C659.421 622 719.624 646 750.357 723 L709.357 723 C700.005 701 680.628 686 656.628 686 C644.628 686 635.904 689 622.604 693 C573.981 708 567.831 710 552.831 710 C516.831 710 456.628 686 425.894 609 L466.894 609 Z " />
<glyph glyph-name="ograve" unicode="&#xf2;" horiz-adv-x="605" d="M520.934 515 C315.934 515 203.766 357 159.554 253 C97.4872 107 128.623 -15 295.623 -15 C463.623 -15 598.487 107 660.554 253 C704.766 357 726.934 515 520.934 515 L520.934 515 Z M325.381 55 C256.381 55 197.062 106 260.829 256 C313.118 379 399.176 445 491.176 445 C584.176 445 614.118 379 561.829 256 C498.062 106 395.381 55 325.381 55 L325.381 55 Z M598.584 740 L619.368 596 L554.368 596 L494.584 740 L598.584 740 Z " />
<glyph glyph-name="oacute" unicode="&#xf3;" horiz-adv-x="605" d="M520.934 515 C315.934 515 203.766 357 159.554 253 C97.4872 107 128.623 -15 295.623 -15 C463.623 -15 598.487 107 660.554 253 C704.766 357 726.934 515 520.934 515 L520.934 515 Z M325.381 55 C256.381 55 197.062 106 260.829 256 C313.118 379 399.176 445 491.176 445 C584.176 445 614.118 379 561.829 256 C498.062 106 395.381 55 325.381 55 L325.381 55 Z M636.584 740 L493.368 596 L558.368 596 L740.584 740 L636.584 740 Z " />
<glyph glyph-name="ocircumflex" unicode="&#xf4;" horiz-adv-x="605" d="M520.934 515 C315.934 515 203.766 357 159.554 253 C97.4872 107 128.623 -15 295.623 -15 C463.623 -15 598.487 107 660.554 253 C704.766 357 726.934 515 520.934 515 L520.934 515 Z M325.381 55 C256.381 55 197.062 106 260.829 256 C313.118 379 399.176 445 491.176 445 C584.176 445 614.118 379 561.829 256 C498.062 106 395.381 55 325.381 55 L325.381 55 Z M483.368 596 L595.179 692 L620.368 596 L706.368 596 L663.584 740 L573.584 740 L406.368 596 L483.368 596 Z " />
<glyph glyph-name="otilde" unicode="&#xf5;" horiz-adv-x="605" d="M520.934 515 C315.934 515 203.766 357 159.554 253 C97.4872 107 128.623 -15 295.623 -15 C463.623 -15 598.487 107 660.554 253 C704.766 357 726.934 515 520.934 515 L520.934 515 Z M325.381 55 C256.381 55 197.062 106 260.829 256 C313.118 379 399.176 445 491.176 445 C584.176 445 614.118 379 561.829 256 C498.062 106 395.381 55 325.381 55 L325.381 55 Z M464.894 609 C474.247 631 493.624 646 517.624 646 C529.624 646 538.348 643 551.648 639 C600.271 624 606.421 622 621.421 622 C657.421 622 717.624 646 748.357 723 L707.357 723 C698.005 701 678.628 686 654.628 686 C642.628 686 633.904 689 620.604 693 C571.981 708 565.831 710 550.831 710 C514.831 710 454.628 686 423.894 609 L464.894 609 Z " />
<glyph glyph-name="odieresis" unicode="&#xf6;" horiz-adv-x="605" d="M520.934 515 C315.934 515 203.766 357 159.554 253 C97.4872 107 128.623 -15 295.623 -15 C463.623 -15 598.487 107 660.554 253 C704.766 357 726.934 515 520.934 515 L520.934 515 Z M325.381 55 C256.381 55 197.062 106 260.829 256 C313.118 379 399.176 445 491.176 445 C584.176 445 614.118 379 561.829 256 C498.062 106 395.381 55 325.381 55 L325.381 55 Z M426.146 619 L518.146 619 L561.932 722 L469.932 722 L426.146 619 Z M614.146 619 L706.146 619 L749.932 722 L657.932 722 L614.146 619 Z " />
<glyph glyph-name="divide" unicode="&#xf7;" horiz-adv-x="584" d="M82.0621 212 L592.062 212 L608.642 290 L98.6415 290 L82.0621 212 Z M244.338 11 L344.338 11 L369.42 129 L269.42 129 L244.338 11 Z M321.284 373 L421.284 373 L446.365 491 L346.365 491 L321.284 373 Z " />
<glyph glyph-name="oslash" unicode="&#xf8;" horiz-adv-x="605" d="M499.685 389 C516.095 358 519.53 313 507.415 256 C475.531 106 383.691 55 313.691 55 C290.691 55 266.966 61 246.942 75 L499.685 389 Z M215.594 111 C198.183 142 192.173 189 206.415 256 C232.559 379 304.588 445 396.588 445 C425.588 445 449.313 439 468.337 425 L215.594 111 Z M42.8941 -104 L101.894 -104 L192.7 8 C220.512 -7 255.812 -15 298.812 -15 C466.812 -15 575.744 107 606.777 253 C621.231 321 621.361 411 562.264 467 L666.897 597 L606.897 597 L522.791 493 C494.766 507 458.467 515 411.467 515 C206.467 515 127.883 357 105.777 253 C86.6468 163 101.43 82 154.227 34 L42.8941 -104 Z " />
<glyph glyph-name="ugrave" unicode="&#xf9;" horiz-adv-x="609" d="M731.407 502 L637.407 502 L521.776 230 C508.598 199 488.617 152 460.714 124 C437.511 100 384.231 57 315.231 57 C209.231 57 250.468 154 269.598 199 L398.407 502 L304.407 502 L168.371 182 C137.337 109 134.135 85 135.632 65 C138.7 4 206.623 -15 256.623 -15 C324.623 -15 399.377 15 452.908 68 L428 0 L521 0 C527.502 20 536.28 43 545.632 65 L731.407 502 Z M600.584 740 L621.368 596 L556.368 596 L496.584 740 L600.584 740 Z " />
<glyph glyph-name="uacute" unicode="&#xfa;" horiz-adv-x="609" d="M731.407 502 L637.407 502 L521.776 230 C508.598 199 488.617 152 460.714 124 C437.511 100 384.231 57 315.231 57 C209.231 57 250.468 154 269.598 199 L398.407 502 L304.407 502 L168.371 182 C137.337 109 134.135 85 135.632 65 C138.7 4 206.623 -15 256.623 -15 C324.623 -15 399.377 15 452.908 68 L428 0 L521 0 C527.502 20 536.28 43 545.632 65 L731.407 502 Z M638.584 740 L495.368 596 L560.368 596 L742.584 740 L638.584 740 Z " />
<glyph glyph-name="ucircumflex" unicode="&#xfb;" horiz-adv-x="609" d="M731.407 502 L637.407 502 L521.776 230 C508.598 199 488.617 152 460.714 124 C437.511 100 384.231 57 315.231 57 C209.231 57 250.468 154 269.598 199 L398.407 502 L304.407 502 L168.371 182 C137.337 109 134.135 85 135.632 65 C138.7 4 206.623 -15 256.623 -15 C324.623 -15 399.377 15 452.908 68 L428 0 L521 0 C527.502 20 536.28 43 545.632 65 L731.407 502 Z M485.368 596 L597.179 692 L622.368 596 L708.368 596 L665.584 740 L575.584 740 L408.368 596 L485.368 596 Z " />
<glyph glyph-name="udieresis" unicode="&#xfc;" horiz-adv-x="609" d="M731.407 502 L637.407 502 L521.776 230 C508.598 199 488.617 152 460.714 124 C437.511 100 384.231 57 315.231 57 C209.231 57 250.468 154 269.598 199 L398.407 502 L304.407 502 L168.371 182 C137.337 109 134.135 85 135.632 65 C138.7 4 206.623 -15 256.623 -15 C324.623 -15 399.377 15 452.908 68 L428 0 L521 0 C527.502 20 536.28 43 545.632 65 L731.407 502 Z M428.146 619 L520.146 619 L563.932 722 L471.932 722 L428.146 619 Z M616.146 619 L708.146 619 L751.932 722 L659.932 722 L616.146 619 Z " />
<glyph glyph-name="yacute" unicode="&#xfd;" horiz-adv-x="546" d="M749.407 502 L645.407 502 L320.212 104 L329.407 502 L223.407 502 L220.85 2 L63.2283 -190 L160.228 -190 L311.725 -3 L749.407 502 Z M576.584 740 L433.368 596 L498.368 596 L680.584 740 L576.584 740 Z " />
<glyph glyph-name="thorn" unicode="&#xfe;" horiz-adv-x="619" d="M50.1891 -192 L144.189 -192 L201.154 76 C210.116 57 233.725 -6 347.725 -6 C502.725 -6 589.318 105 619.502 247 C650.322 392 610.679 516 455.467 515 C387.467 515 319.09 485 276.825 432 L338.466 722 L244.466 722 L50.1891 -192 Z M339.328 58 C195.328 58 231.038 226 237.84 258 C244.854 291 278.226 448 418.226 448 C533.226 448 538.207 335 520.777 253 C510.149 203 469.328 58 339.328 58 L339.328 58 Z " />
<glyph glyph-name="ydieresis" unicode="&#xff;" horiz-adv-x="546" d="M749.407 502 L645.407 502 L320.212 104 L329.407 502 L223.407 502 L220.85 2 L63.2283 -190 L160.228 -190 L311.725 -3 L749.407 502 Z M396.146 619 L488.146 619 L531.932 722 L439.932 722 L396.146 619 Z M584.146 619 L676.146 619 L719.932 722 L627.932 722 L584.146 619 Z " />
<glyph glyph-name="dotlessi" unicode="&#x131;" horiz-adv-x="276" d="M91 0 L185 0 L291.704 502 L197.704 502 L91 0 Z " />
<glyph glyph-name="Lslash" unicode="&#x141;" horiz-adv-x="556" d="M89 0 L524 0 L542.28 86 L207.28 86 L266.796 366 L484.303 486 L499.819 559 L282.313 439 L342.466 722 L242.466 722 L169.134 377 L85.5689 332 L69.8397 258 L153.617 304 L89 0 Z " />
<glyph glyph-name="lslash" unicode="&#x142;" horiz-adv-x="276" d="M91 0 L185 0 L260.883 357 L335.598 398 L350.902 470 L276.187 429 L338.466 722 L244.466 722 L169.859 371 L95.1438 330 L79.8397 258 L154.555 299 L91 0 Z " />
<glyph glyph-name="OE" unicode="&#x152;" horiz-adv-x="1024" d="M981.28 86 L637.28 86 L688.294 326 L1013.29 326 L1031.57 412 L706.573 412 L754.186 636 L1095.19 636 L1113.47 722 L689.466 722 C664.466 722 644.679 723 624.891 724 C604.891 724 585.104 725 562.104 725 C344.104 725 183.984 588 136.371 364 C83.8692 117 211.362 -3 382.362 -3 C405.362 -3 427.575 -2 449.787 -1 C471.787 -1 495 0 517 0 L963 0 L981.28 86 Z M537.067 85 C499.642 83 469.43 82 442.43 82 C259.43 82 204.11 184 242.583 365 C277.018 527 376.312 646 546.312 646 C581.312 646 604.887 644 655.249 641 L537.067 85 Z " />
<glyph glyph-name="oe" unicode="&#x153;" horiz-adv-x="938" d="M105.777 253 C74.7436 107 131.812 -15 298.812 -15 C352.812 -15 406.638 3 452.077 38 C484.391 63 500.705 88 512.106 104 C516.067 85 522.328 58 548.589 31 C579.213 1 624.599 -16 683.024 -14 C741.024 -14 864.488 7 915.946 155 L819.946 155 C810.444 115 770.478 54 687.478 54 C644.478 54 603.942 75 588.719 121 C575.371 157 584.212 208 589.376 237 L936.376 237 C949.129 297 961.521 360 947.936 409 C924.216 495 840.467 515 788.467 515 C758.254 514 638.192 509 573.472 388 C564.124 424 540.617 511 411.467 515 C206.467 515 127.883 357 105.777 253 L105.777 253 Z M606.617 304 C613.719 328 623.946 362 651.11 391 C680.912 423 722.588 445 769.588 445 C841.588 445 855.535 393 857.984 381 C864.458 355 858.868 324 854.617 304 L606.617 304 Z M313.691 55 C244.691 55 174.531 106 206.415 256 C232.559 379 304.588 445 396.588 445 C489.588 445 533.559 379 507.415 256 C475.531 106 383.691 55 313.691 55 L313.691 55 Z " />
<glyph glyph-name="Scaron" unicode="&#x160;" horiz-adv-x="667" d="M147.699 211 C132.82 176 109.163 118 127.632 65 C153.599 -8 261.773 -17 316.773 -17 C501.773 -17 643.009 80 697.424 208 C710.177 238 734.935 308 686.64 352 C656.543 380 639.244 384 485.949 428 C406.876 449 374.229 471 401.436 535 C432.044 607 511.174 652 611.174 652 C682.174 652 749.672 632 716.412 542 L820.412 542 C831.165 572 849.996 621 828.701 665 C797.483 728 703.884 736 655.884 736 C519.884 736 353.677 672 291.185 525 C270.779 477 263.823 423 305.819 383 C332.191 358 376.089 346 474.611 319 C563.409 295 621.182 278 586.747 197 C571.443 161 512.483 67 364.483 67 C198.483 67 232.443 161 251.699 211 L147.699 211 Z M802.356 930 L690.545 834 L665.356 930 L579.356 930 L622.14 786 L712.14 786 L879.356 930 L802.356 930 Z " />
<glyph glyph-name="scaron" unicode="&#x161;" horiz-adv-x="518" d="M115.342 149 C63.4781 27 140.623 -15 242.623 -15 C347.623 -15 476.203 24 528.492 147 C542.095 179 546.974 214 530.027 240 C511.931 268 485.331 276 360.36 309 C337.336 316 297.012 327 316.568 373 C339.099 426 395.176 445 449.176 445 C483.176 445 546.625 439 511.316 363 L607.316 363 C616.244 384 626.447 408 625.35 436 C622.707 498 540.934 515 477.934 515 C361.934 515 256.002 454 216.891 362 C172.254 257 251.327 236 346.124 212 C413.897 195 445.071 186 424.241 137 C398.734 77 337.231 57 286.231 57 C195.231 57 198.188 111 214.342 149 L115.342 149 Z M646.584 740 L534.773 644 L509.584 740 L423.584 740 L466.368 596 L556.368 596 L723.584 740 L646.584 740 Z " />
<glyph glyph-name="Ydieresis" unicode="&#x178;" horiz-adv-x="667" d="M283 0 L384 0 L502.607 279 L972.932 722 L860.932 722 L494.442 368 L431.932 722 L307.932 722 L403.732 284 L283 0 Z M533.666 799 L625.666 799 L669.453 902 L577.453 902 L533.666 799 Z M721.666 799 L813.666 799 L857.453 902 L765.453 902 L721.666 799 Z " />
<glyph glyph-name="Zcaron" unicode="&#x17d;" horiz-adv-x="611" d="M34 0 L577 0 L613.56 86 L183.56 86 L834.846 623 L876.932 722 L351.932 722 L315.373 636 L723.373 636 L76.5114 100 L34 0 Z M774.356 930 L662.545 834 L637.356 930 L551.356 930 L594.14 786 L684.14 786 L851.356 930 L774.356 930 Z " />
<glyph glyph-name="zcaron" unicode="&#x17e;" horiz-adv-x="442" d="M33 0 L409 0 L440.033 73 L163.033 73 L588.398 422 L622.407 502 L261.407 502 L231.224 431 L485.224 431 L74.2361 97 L33 0 Z M608.584 740 L496.773 644 L471.584 740 L385.584 740 L428.368 596 L518.368 596 L685.584 740 L608.584 740 Z " />
<glyph glyph-name="florin" unicode="&#x192;" horiz-adv-x="556" d="M242.525 440 L216.284 373 L306.284 373 L184.304 72 C138.348 -36 130.097 -56 115.058 -75 C105.508 -87 82.8941 -104 51.8941 -104 C44.8941 -104 41.1066 -103 36.3192 -102 L9.01508 -174 C170.102 -183 204.532 -101 264.203 48 L394.284 373 L497.284 373 L525.525 440 L420.525 440 L466.481 548 C483.409 590 512.761 634 571.761 634 C584.761 634 597.336 632 606.123 631 L632.002 701 C610.853 705 597.278 707 579.278 707 C547.278 707 497.577 699 457.201 669 C420.249 641 400.109 598 379.906 550 L333.525 440 L242.525 440 Z " />
<glyph glyph-name="circumflex" unicode="&#x2c6;" horiz-adv-x="278" d="M192.684 596 L284.089 692 L329.684 596 L415.684 596 L342.292 740 L252.292 740 L115.684 596 L192.684 596 Z " />
<glyph glyph-name="caron" unicode="&#x2c7;" horiz-adv-x="278" d="M369.292 740 L277.887 644 L232.292 740 L146.292 740 L219.684 596 L309.684 596 L446.292 740 L369.292 740 Z " />
<glyph glyph-name="breve" unicode="&#x2d8;" horiz-adv-x="278" d="M161.63 751 C153.553 713 129.259 594 263.259 594 C356.259 594 416.949 649 435.63 751 L388.63 751 C383.592 732 361.65 657 276.65 657 C216.65 657 198.515 694 208.63 751 L161.63 751 Z " />
<glyph glyph-name="dotaccent" unicode="&#x2d9;" horiz-adv-x="278" d="M224.573 619 L316.573 619 L338.466 722 L246.466 722 L224.573 619 Z " />
<glyph glyph-name="ring" unicode="&#x2da;" horiz-adv-x="278" d="M183.201 669 C171.723 615 206.37 571 260.37 571 C314.37 571 367.723 615 379.201 669 C390.679 723 356.031 767 302.031 767 C248.031 767 194.679 723 183.201 669 L183.201 669 Z M223.201 669 C230.002 701 261.529 727 293.529 727 C325.529 727 346.002 701 339.201 669 C332.399 637 300.872 611 268.872 611 C236.872 611 216.399 637 223.201 669 L223.201 669 Z " />
<glyph glyph-name="ogonek" unicode="&#x2db;" horiz-adv-x="278" d="M204.942 -132 C192.455 -139 180.392 -144 157.392 -144 C149.392 -144 93.3918 -144 104.02 -94 C112.947 -52 160.474 -26 206.213 1 L166.213 1 C94.0484 -28 30.5461 -68 18.6429 -124 C12.0537 -155 25.9137 -198 96.9137 -198 C141.914 -198 169.677 -185 196.228 -173 L204.942 -132 Z " />
<glyph glyph-name="tilde" unicode="&#x2dc;" horiz-adv-x="278" d="M171.447 609 C176.123 631 192.312 646 216.312 646 C228.312 646 237.674 643 251.824 639 C303.636 624 310.21 622 325.21 622 C361.21 622 416.312 646 430.679 723 L389.679 723 C385.002 701 368.814 686 344.814 686 C332.814 686 323.452 689 309.302 693 C257.49 708 250.915 710 235.915 710 C199.915 710 144.814 686 130.447 609 L171.447 609 Z " />
<glyph glyph-name="hungarumlaut" unicode="&#x2dd;" horiz-adv-x="400" d="M370.292 740 L266.292 740 L153.684 596 L218.684 596 L370.292 740 Z M530.292 740 L426.292 740 L313.684 596 L378.684 596 L530.292 740 Z " />
<glyph glyph-name="endash" unicode="&#x2013;" horiz-adv-x="500" d="M49.1007 231 L549.101 231 L564.405 303 L64.4048 303 L49.1007 231 Z " />
<glyph glyph-name="emdash" unicode="&#x2014;" horiz-adv-x="1000" d="M179.101 231 L919.101 231 L934.405 303 L194.405 303 L179.101 231 Z " />
<glyph glyph-name="quoteleft" unicode="&#x2018;" horiz-adv-x="278" d="M264.177 476 L383.466 722 L316.466 722 L149.177 476 L264.177 476 Z " />
<glyph glyph-name="quoteright" unicode="&#x2019;" horiz-adv-x="278" d="M268.466 722 L149.177 476 L216.177 476 L383.466 722 L268.466 722 Z " />
<glyph glyph-name="quotesinglbase" unicode="&#x201a;" horiz-adv-x="278" d="M115 0 L-4.28902 -246 L62.711 -246 L230 0 L115 0 Z " />
<glyph glyph-name="quotedblleft" unicode="&#x201c;" horiz-adv-x="556" d="M309.177 476 L428.466 722 L361.466 722 L194.177 476 L309.177 476 Z M497.177 476 L616.466 722 L549.466 722 L382.177 476 L497.177 476 Z " />
<glyph glyph-name="quotedblright" unicode="&#x201d;" horiz-adv-x="556" d="M313.466 722 L194.177 476 L261.177 476 L428.466 722 L313.466 722 Z M501.466 722 L382.177 476 L449.177 476 L616.466 722 L501.466 722 Z " />
<glyph glyph-name="quotedblbase" unicode="&#x201e;" horiz-adv-x="556" d="M160 0 L40.711 -246 L107.711 -246 L275 0 L160 0 Z M348 0 L228.711 -246 L295.711 -246 L463 0 L348 0 Z " />
<glyph glyph-name="dagger" unicode="&#x2020;" horiz-adv-x="556" d="M238 0 L318 0 L419.815 479 L589.815 479 L605.544 553 L435.544 553 L471.466 722 L391.466 722 L355.544 553 L185.544 553 L169.815 479 L339.815 479 L238 0 Z " />
<glyph glyph-name="daggerdbl" unicode="&#x2021;" horiz-adv-x="556" d="M356.182 556 L186.182 556 L170.24 481 L340.24 481 L289.651 243 L119.651 243 L103.922 169 L273.922 169 L238 0 L318 0 L353.922 169 L523.922 169 L539.651 243 L369.651 243 L420.24 481 L590.24 481 L606.182 556 L436.182 556 L471.466 722 L391.466 722 L356.182 556 Z " />
<glyph glyph-name="bullet" unicode="&#x2022;" horiz-adv-x="500" d="M146.521 360 C125.477 261 189.26 180 288.26 180 C387.26 180 485.477 261 506.521 360 C527.564 459 463.781 540 364.781 540 C265.781 540 167.564 459 146.521 360 L146.521 360 Z " />
<glyph glyph-name="ellipsis" unicode="&#x2026;" horiz-adv-x="1000" d="M112 0 L222 0 L247.507 120 L137.507 120 L112 0 Z M445 0 L555 0 L580.507 120 L470.507 120 L445 0 Z M778 0 L888 0 L913.507 120 L803.507 120 L778 0 Z " />
<glyph glyph-name="perthousand" unicode="&#x2030;" horiz-adv-x="1000" d="M235.583 365 C346.583 365 399.651 450 418.781 540 C439.824 639 410.278 707 308.278 707 C206.278 707 147.824 639 126.781 540 C107.651 450 124.583 365 235.583 365 L235.583 365 Z M247.486 421 C184.486 421 190.365 491 200.568 539 C212.259 594 237.375 651 296.375 651 C355.375 651 356.259 594 344.568 539 C334.365 491 310.486 421 247.486 421 L247.486 421 Z M491.812 -15 C602.812 -15 655.879 70 675.009 160 C696.052 259 666.506 327 564.506 327 C462.506 327 404.052 259 383.009 160 C363.879 70 380.812 -15 491.812 -15 L491.812 -15 Z M503.715 41 C440.715 41 446.594 111 456.797 159 C468.487 214 493.603 271 552.603 271 C611.603 271 612.487 214 600.797 159 C590.594 111 566.715 41 503.715 41 L503.715 41 Z M838.812 -15 C949.812 -15 1002.88 70 1022.01 160 C1043.05 259 1013.51 327 911.506 327 C809.506 327 751.052 259 730.009 160 C710.879 70 727.812 -15 838.812 -15 L838.812 -15 Z M850.715 41 C787.715 41 793.594 111 803.797 159 C815.487 214 840.603 271 899.603 271 C958.603 271 959.487 214 947.797 159 C937.594 111 913.715 41 850.715 41 L850.715 41 Z M677.379 731 L43.1354 -37 L105.135 -37 L740.379 731 L677.379 731 Z " />
<glyph glyph-name="guilsinglleft" unicode="&#x2039;" horiz-adv-x="278" d="M245.266 53 L187.927 249 L326.163 443 L248.163 443 L96.9267 249 L165.266 53 L245.266 53 Z " />
<glyph glyph-name="guilsinglright" unicode="&#x203a;" horiz-adv-x="278" d="M138.163 443 L194.714 248 L56.2655 53 L135.266 53 L286.714 248 L218.163 443 L138.163 443 Z " />
<glyph glyph-name="fraction" unicode="&#x2044;" horiz-adv-x="167" d="M-168.952 -28 L-103.952 -28 L481.978 715 L417.978 715 L-168.952 -28 Z " />
<glyph glyph-name="trademark" unicode="&#x2122;" horiz-adv-x="1000" d="M521.733 361 L567.733 361 L636.602 685 L675.733 361 L720.733 361 L901.602 685 L832.733 361 L878.733 361 L955.466 722 L877.466 722 L715.337 425 L681.466 722 L598.466 722 L521.733 361 Z M352.733 361 L420.326 679 L524.326 679 L533.466 722 L282.466 722 L273.326 679 L374.326 679 L306.733 361 L352.733 361 Z " />
<glyph glyph-name="minus" unicode="&#x2212;" horiz-adv-x="584" d="M82.0621 212 L592.062 212 L608.642 290 L98.6415 290 L82.0621 212 Z " />
<glyph glyph-name="fi" unicode="&#xfb01;" horiz-adv-x="608" d="M484.529 727 C465.167 730 436.017 734 408.017 734 C343.017 734 298.128 711 270.326 679 C247.8 653 238.486 628 223.819 559 L211.704 502 L112.704 502 L98.2497 434 L197.25 434 L105 0 L199 0 L291.25 434 L408.25 434 L422.704 502 L305.704 502 L322.496 581 C329.935 616 338.012 654 414.012 654 C433.012 654 452.8 653 468.587 652 L484.529 727 Z M545.573 619 L657.573 619 L679.466 722 L567.466 722 L545.573 619 Z M423 0 L517 0 L623.704 502 L529.704 502 L423 0 Z " />
<glyph glyph-name="fl" unicode="&#xfb02;" horiz-adv-x="608" d="M484.529 727 C465.167 730 436.017 734 408.017 734 C343.017 734 298.128 711 270.326 679 C247.8 653 238.486 628 223.819 559 L211.704 502 L112.704 502 L98.2497 434 L197.25 434 L105 0 L199 0 L291.25 434 L408.25 434 L422.704 502 L305.704 502 L322.496 581 C329.935 616 338.012 654 414.012 654 C433.012 654 452.8 653 468.587 652 L484.529 727 Z M423 0 L517 0 L670.466 722 L576.466 722 L423 0 Z " />
</font>
</svg>
