<?xml version="1.0" encoding="utf-8"?>
<!-- Generator: Adobe Illustrator 19.1.0, SVG Export Plug-In . SVG Version: 6.00 Build 0)  -->
<svg version="1.1" id="Layer_1" xmlns="http://www.w3.org/2000/svg" xmlns:xlink="http://www.w3.org/1999/xlink" x="0px" y="0px"
	 viewBox="0 0 792 612" enable-background="new 0 0 792 612" xml:space="preserve">
<g>
	<g>
		<path fill="#FFFFFF" d="M791.6,305.8c0,31.6-25.6,57.2-57.2,57.2c-31.6,0-57.2-25.6-57.2-57.2c0-31.6,25.6-57.2,57.2-57.2
			C766,248.6,791.6,274.2,791.6,305.8z"/>
		<path fill="#FFFFFF" d="M697.7,181.2c0,31.6-25.6,57.2-57.2,57.2c-31.6,0-57.2-25.6-57.2-57.2c0-31.6,25.6-57.2,57.2-57.2
			C672.1,124,697.7,149.6,697.7,181.2z"/>
		<path fill="#FFFFFF" d="M603.8,56.7c0,31.6-25.6,57.2-57.2,57.2c-31.6,0-57.2-25.6-57.2-57.2c0-31.6,25.6-57.2,57.2-57.2
			C578.2-0.5,603.8,25.1,603.8,56.7z"/>
		<path fill="#FFFFFF" d="M640.5,373.1c31.6,0,57.2,25.6,57.2,57.2c0,31.6-25.6,57.2-57.2,57.2c-31.6,0-57.2-25.6-57.2-57.2
			C583.3,398.7,608.9,373.1,640.5,373.1z"/>
		<path fill="#FFFFFF" d="M546.6,497.6c31.6,0,57.2,25.6,57.2,57.2c0,31.6-25.6,57.2-57.2,57.2c-31.6,0-57.2-25.6-57.2-57.2
			C489.4,523.2,515,497.6,546.6,497.6z"/>
		<path fill="#FFFFFF" d="M590.2,265.3c22.3,22.3,22.3,58.6,0,80.9c-22.3,22.3-58.5,22.3-80.9,0c-22.3-22.3-22.3-58.5,0-80.9
			C531.7,242.9,567.9,242.9,590.2,265.3z"/>
		<path fill="#FFFFFF" d="M426,265.3c22.3,22.3,22.3,58.6,0,80.9c-22.3,22.3-58.5,22.3-80.9,0c-22.3-22.3-22.3-58.5,0-80.9
			C367.5,242.9,403.7,242.9,426,265.3z"/>
		<path fill="#FFFFFF" d="M261.8,265.3c22.3,22.3,22.3,58.6,0,80.9c-22.3,22.3-58.5,22.3-80.9,0c-22.3-22.3-22.3-58.5,0-80.9
			C203.3,242.9,239.5,242.9,261.8,265.3z"/>
		<path fill="#FFFFFF" d="M97.6,265.3c22.3,22.3,22.3,58.6,0,80.9c-22.3,22.3-58.5,22.3-80.9,0c-22.3-22.3-22.3-58.5,0-80.9
			C39.1,242.9,75.3,242.9,97.6,265.3z"/>
	</g>
</g>
</svg>
