<?xml version="1.0" encoding="utf-8"?>
<!-- Generator: Adobe Illustrator 19.1.0, SVG Export Plug-In . SVG Version: 6.00 Build 0)  -->
<svg version="1.1" id="Layer_1" xmlns="http://www.w3.org/2000/svg" xmlns:xlink="http://www.w3.org/1999/xlink" x="0px" y="0px"
	 viewBox="0 0 692.7 598.3" enable-background="new 0 0 692.7 598.3" xml:space="preserve">
<g>
	<g>
		<path fill="#FFFFFF" d="M340.1,514.8v43.6c0,12.4,0.4,20.4,1.1,24.2c1.7,6.5,4.6,11.4,8.7,14.6c0.6,0.5,1.5,0.7,2.2,1.1h340.6
			V432.1c-0.6,1.1-1.3,2.1-1.9,3.2c-20.2,33.7-35.1,59.5-44.8,77.4h-19.6C575,423.9,511.9,320.8,437.3,203.2l4.5,249.7
			c0,19.8,2.1,31.2,6.2,34c4.1,2.9,21.5,6.3,52.1,10.4c3.5,0.5,8.7,1.4,15.9,2.7v15.7c-39.8-2-72-3.1-96.7-3.1
			C398.6,512.6,372.1,513.3,340.1,514.8 M185.4,544.8c-3,5.2-4.5,10.8-4.5,16.6c0,5.9,1.7,11.6,5.1,17.1c3.4,5.5,8.2,9.9,14.4,13
			c6.2,3.2,12.8,4.7,19.7,4.7c9.8,0,20.9-2.3,33.3-7c12.4-4.7,28.2-13.8,47.6-27.4l0-54.8c-35,5.1-56.7,8.7-65,10.6
			c-16.5,3.8-28.3,7.9-35.4,12.5C193.5,534.8,188.5,539.6,185.4,544.8 M692.7,366.2V0H391.2l7,118.9h-23.4
			c-5.2-33.7-14.1-56-26.8-67.1c-12.7-11.1-37.8-16.6-75.4-16.6H112.1v233.6h141.2c41,0,67-4.5,78-13.4c11-9,19.2-25.9,24.6-50.8h17
			v173.9l-18.8-0.9c-4.5-29.1-11.7-48.3-21.5-57.7c-9.8-9.4-34.4-14.1-73.9-14.1h-5.4H112.1v215.7c0,25.4,6.1,43.7,18.2,54.9
			c3.7,3.4,8.2,6.2,13.4,8.6c-2.7-6.1-4.2-12.5-4.2-19.4c0-9.2,2.4-18,7.1-26.3c4.8-8.3,12-15.6,21.8-22c9.7-6.3,25-11.9,45.9-16.8
			c20.9-4.8,49.8-9.2,86.8-13.1l0-24.7c0-16.8-4.7-28.7-14.1-35.9c-9.4-7.2-22.6-10.8-39.7-10.8c-8.5,0-15.9,1-22.2,3.1
			c-6.4,2-11.5,4.8-15.3,8.4c-3.9,3.5-6.7,7.6-8.5,12.1c-0.8,1.7-2.6,8.1-5.4,19.2c-3.5,13.6-10.5,20.4-21.1,20.4
			c-6,0-10.9-2-14.6-6c-3.7-4-5.6-9.4-5.6-16.2c0-10,3.7-19.7,11.1-29.3c7.4-9.6,18.7-17.5,33.9-23.8c15.2-6.3,33.1-9.4,53.8-9.4
			c19.3,0,35.9,3,49.6,8.9c13.7,6,23.9,14.5,30.3,25.7c4.5,7.7,6.8,21.7,6.8,42.1v25.5c28.1-4.4,44-8.2,47.6-11.5
			c5.5-5,8.4-17.2,8.6-36.7l1.7-60.3c1.2-55,1.7-108.3,1.7-160l-0.3-32.7c0-13-1-21.2-3.1-24.5c-2.1-3.3-5.4-5.7-10-7.1
			c-8.7-2.7-28.3-5.8-58.6-9.4c-4.4-0.5-10.8-1.6-19.3-3.2v-15.7c38.4,2,67.5,3.1,87.5,3.1c22.7,0,47.2-1,73.4-3.1
			c9.4,18.7,17,33,22.7,42.8c7.6,13.2,37.5,63.2,89.9,150.1c22.3,36.9,44.8,73,67.5,108.1L692.7,366.2z"/>
	</g>
	<g>
		<g>
			<path fill="#FFFFFF" d="M28,44.4c0.5,0,0.7,0.1,0.7,0.5c0,1.2,0,9-0.2,10.8c-0.3,2.3-1.6,3.4-2.6,3.7c-0.9,0.3-1.7,0.4-2.3,0.4
				c-0.5,0-1,0.1-1,0.6c0,0.7,0.7,0.7,1.4,0.7c0.5,0,3.9,0.1,5.3,0.3c2.2,0.2,4.1,0.6,4.5,0.6c0.4,0,0.7-0.1,0.7-0.4
				c0-0.4-0.3-0.6-0.7-0.9c-0.9-0.7-1.2-1.7-1.3-3.1c-0.1-1-0.1-2-0.1-3.3l-0.1-9.3c0-0.4,0.2-0.5,0.7-0.5H51c0.8,0,1,0.2,1,0.7
				l-0.2,11.2c-0.1,2.8-1.2,4.3-2.2,4.8c-1,0.4-2.2,0.4-2.8,0.4c-0.8,0.1-1.2,0.2-1.2,0.7c0,0.5,0.4,0.7,1,0.7
				c0.9,0.2,5.2,0.3,5.9,0.4c1.9,0.2,2.8,0.6,3.3,0.6c0.4,0,0.7-0.2,0.7-0.5c0-0.4-0.3-0.7-0.4-1.2c-0.2-0.7-0.2-1.6-0.3-3
				c-0.1-1.7-0.1-16.4-0.1-19.2c0-1,0.1-2.7,0.1-4.6c0-1.9,0.1-4,0.1-5.9c0-1.1-0.1-1.7-0.7-1.7c-0.4,0-0.6,0.5-0.6,1.2
				c0,1-0.1,2.3-0.2,2.8c-0.5,2.4-1.7,3-4.1,3.1c-2.3,0.1-4.4,0.1-15.4,0.1H22.1c-7,0-12.4,0-15.5-0.4c-2.1-0.3-3.7-0.6-4-2.1
				c-0.1-0.6-0.3-1.5-0.3-2.6c0-0.8-0.2-1.1-0.6-1.1c-0.6,0-0.7,0.5-0.7,1.5c0,2.8,0.2,7.4,0.2,9.2c0,1.9-0.2,6.5-0.2,11.1
				c0,1.1,0.2,1.6,0.7,1.6c0.4,0,0.6-0.3,0.6-1.2c0-1,0.1-2.6,0.3-3.6c0.3-2.2,1.9-2.6,4-2.8c3.1-0.4,8.5-0.4,15.5-0.4H28z M20,95.3
				c0,0.4-0.1,0.6-0.5,0.7l-15.4,5.8c-0.9,0.3-1.5-0.2-1.7-0.7c-0.1-0.7-0.2-1-0.7-1c-0.5,0-0.5,0.9-0.6,2.2
				C1,108.2,1,113.5,1,116.1c0,2.7,0.1,3.3,0.7,3.3c0.5,0,0.6-0.4,0.6-0.9c0-0.9,0.1-2,0.3-3c0.4-1.5,1.4-3.6,7.9-6.4
				c11-4.6,40.7-16.3,44.7-18c1.7-0.7,2.3-1.2,2.3-1.8c0-0.7-0.8-1.2-2.9-2L9,69c-3.6-1.5-6.1-2.8-6.5-6.2c-0.1-0.6-0.1-1.6-0.1-2.3
				c0-0.6-0.2-0.9-0.6-0.9C1.2,59.7,1,60.1,1,61c0,3.8,0.2,7.8,0.2,8.6C1.2,71.9,1,75,1,77.3c0,0.8,0.1,1.2,0.7,1.2
				c0.4,0,0.6-0.2,0.6-1.1v-1.1c0-2.2,0.9-2.9,2.2-2.9c0.9,0,2.6,0.4,4.4,1.1l10.4,3.9c0.4,0.1,0.6,0.3,0.6,0.7V95.3z M23.6,80.6
				c0-0.3,0.2-0.4,0.5-0.3L42,87c0.3,0.1,0.7,0.2,0.7,0.4c0,0.2-0.4,0.3-0.7,0.4l-18,6.5c-0.2,0.1-0.4,0-0.4-0.4V80.6z M22.1,126.6
				c-6.7,0-12.4,0-15.5-0.4c-2.1-0.3-3.7-0.7-4-2.1c-0.1-0.7-0.3-1.5-0.3-2.6c0-0.9-0.2-1.2-0.6-1.2c-0.5,0-0.7,0.5-0.7,1.5
				c0,2.9,0.2,7.5,0.2,8.9c0,1.1-0.2,6.5-0.2,10.7c0,0.9,0.2,1.5,0.7,1.5c0.4,0,0.6-0.3,0.6-0.9c0-0.9,0.1-2.5,0.3-3.6
				c0.3-2.2,1.9-2.6,4-2.8c3.1-0.4,8.8-0.4,15.6-0.4h1c0.4,0,0.6,0.2,0.6,0.6l-0.1,6.3c0,0.5-0.1,0.9-0.5,1.3c-1.1,0.9-6,4.3-10,7.2
				c-5.6,4.1-9,6.8-10.7,10c-1,1.9-1.4,3.7-1.4,7.8v6.9c0,0.9,0.1,1.4,0.7,1.4c0.4,0,0.6-0.3,0.6-0.9c0-0.6,0.1-1.2,0.2-2
				c0.2-1.1,0.7-4.1,4.9-8.1c4.5-4.3,11-9.3,19.1-15.8c6,7.3,10.9,9.6,16.3,9.6c4.9,0,8.6-2.9,10-4.9c2.7-3.9,3.1-8.8,3.1-13.4
				c0-2.2-0.2-7.8-0.2-10.2c0-1.5,0.2-6.1,0.2-10c0-1.1-0.1-1.6-0.7-1.6c-0.5,0-0.7,0.4-0.7,1.2c0,1-0.1,2.3-0.2,2.8
				c-0.5,2.4-1.7,3-4.1,3.1c-2.3,0.2-4.4,0.2-15.4,0.2H22.1z M51.3,135.1c0.6,0,0.9,0.1,1,0.7c0.2,0.7,0.3,2,0.3,3.9
				c0,4.3-3,11.1-13.3,11.1c-6,0-9.3-2.1-10.9-4.3c-0.9-1.3-1.2-2.3-1.2-5.2c0-1.8,0.2-4,0.7-5.5c0.2-0.5,0.5-0.7,1.3-0.7H51.3z"/>
			<path fill="#FFFFFF" d="M0,253.3c0,3.9,0.7,7.9,3,11.6c3.4,5.2,8.4,6.8,12.6,6.8c6.9,0,11.9-3.1,18.5-11.9l1.5-2
				c4.6-6,7.1-7.7,10.5-7.7c4.4,0,7.5,3.3,7.5,8.6c0,4.7-2.2,6.8-3.6,7.9c-1.9,1.5-4.2,1.9-4.8,1.9c-0.9,0-1.3,0.2-1.3,0.7
				c0,0.6,0.6,0.8,2.2,0.8c5.7,0,7.8,0.3,8.7,0.3c0.5,0,0.7-0.4,0.9-1c0.5-1.9,1.2-5,1.2-9.7c0-10.1-5.7-16.8-13.7-16.8
				c-5.9,0-11,2.8-17.2,10.8l-2.6,3.3c-4.7,6-8.1,7.1-11.6,7.1c-3.9,0-8.3-3.2-8.3-9.7c0-4.5,2-8.8,7.3-10.4
				c1.2-0.4,2.8-0.7,3.7-0.7c0.6,0,1.2-0.1,1.2-0.7c0-0.6-0.8-0.8-1.9-0.9c-1.2-0.1-5.5-0.4-9.5-0.4c-1.6,0-2,0.2-2.5,1.4
				C0.5,245.8,0,249.1,0,253.3"/>
			<path fill="#FFFFFF" d="M41.4,186.8v0.2c-1.4,1.3-10.5,9.4-18.3,17.3c-7.5,7.6-17,16.9-21.4,21.5c-0.8,0.8-1.6,1.7-1.6,2.4
				c0,0.7,0.7,1,2.3,1l45.9,0.8c4.1,0.1,5.6,0.7,6.2,2.7c0.2,0.9,0.2,1.5,0.2,2.2c0,0.8,0.2,1.3,0.7,1.3c0.6,0,0.7-0.7,0.7-1.7
				c0-3.6-0.2-6.3-0.2-7.1c0-1.5,0.2-5,0.2-8.8c0-1.1-0.1-1.9-0.7-1.9c-0.4,0-0.7,0.3-0.7,1.2c0,1,0,2.8-0.4,3.9
				c-0.7,1.7-2.1,2.4-6.5,2.5l-32.6,0.7v-0.4c1.2-1.2,11.6-11,16.6-16C42.2,198,54,186.9,55,186.1c1.3-1.2,2.2-1.9,2.2-2.7
				c0-0.7-1-0.9-2.5-0.9l-43-0.6c-6.3-0.1-8.4-0.4-9-2.3c-0.3-1-0.4-2.3-0.4-3.3c0-0.7-0.2-1.2-0.6-1.2c-0.7,0-0.7,0.7-0.7,1.6
				c0,3.8,0.2,7.2,0.2,7.8c0,1.4-0.2,4.3-0.2,9c0,1,0.1,1.7,0.7,1.7c0.4,0,0.6-0.4,0.6-1.2c0-1.2,0.1-2.6,0.5-3.8
				c0.5-1.5,2.4-2.4,8.1-2.6L41.4,186.8z"/>
			<path fill="#FFFFFF" d="M32.9,541.1c0-0.2,0.1-0.4,0.5-0.4h1.5c11,0,13.1,0,15.4,0.2c2.5,0.1,3.8,0.7,4.1,2.7
				c0.1,0.9,0.2,1.5,0.2,2.1c0,0.9,0.2,1.3,0.7,1.3c0.5,0,0.7-0.5,0.7-1.5c0-2.8-0.2-7.4-0.2-9.2c0-2,0.2-6.5,0.2-10.5
				c0-1-0.1-1.5-0.7-1.5c-0.5,0-0.7,0.4-0.7,1.2c0,1-0.1,2.3-0.2,2.8c-0.5,2.4-1.7,3-4.1,3.1c-2.3,0.1-4.4,0.1-15.4,0.1H22.1
				c-6.7,0-12.4,0-15.5-0.4c-2.1-0.3-3.7-0.7-4-2.1c-0.1-0.7-0.3-1.5-0.3-2.6c0-0.9-0.2-1.2-0.6-1.2c-0.5,0-0.7,0.5-0.7,1.5
				c0,2.9,0.2,7.5,0.2,9.2c0,2-0.2,6.6-0.2,11.3c0,0.9,0.2,1.5,0.7,1.5c0.4,0,0.6-0.4,0.6-1.2c0-1.1,0.1-2.7,0.3-3.7
				c0.3-2.2,1.9-2.6,3.9-2.9c3.1-0.4,8.9-0.4,15.6-0.4h6.4c0.4,0,0.4,0.2,0.4,0.4v27.8c0,0.2-0.2,0.4-0.4,0.4h-6.4
				c-6.7,0-12.4,0-15.5-0.4c-2.1-0.3-3.7-0.6-4-2.1c-0.1-0.7-0.3-1.5-0.3-2.6c0-0.9-0.2-1.2-0.6-1.2c-0.5,0-0.7,0.5-0.7,1.5
				c0,2.8,0.2,7.4,0.2,9.1c0,2-0.2,6.6-0.2,11.3c0,0.9,0.2,1.5,0.7,1.5c0.4,0,0.6-0.4,0.6-1.2c0-1.1,0.1-2.7,0.3-3.7
				c0.3-2.2,1.9-2.6,3.9-2.8c3.1-0.4,8.9-0.4,15.6-0.4h12.8c11,0,13.1,0,15.4,0.1c2.5,0.2,3.8,0.7,4.1,2.7c0.1,0.9,0.2,1.5,0.2,2.1
				c0,0.9,0.2,1.3,0.7,1.3c0.5,0,0.7-0.5,0.7-1.6c0-2.8-0.2-7.4-0.2-9.1c0-2,0.2-6.6,0.2-10.5c0-1-0.1-1.5-0.7-1.5
				c-0.5,0-0.7,0.4-0.7,1.2c0,1-0.1,2.3-0.2,2.8c-0.5,2.4-1.7,3-4.1,3.1c-2.3,0.1-4.4,0.1-15.4,0.1h-1.5c-0.4,0-0.5-0.2-0.5-0.4
				V541.1z"/>
			<path fill="#FFFFFF" d="M22.1,491.1c-6.7,0-12.4,0-15.5-0.4c-2.1-0.2-3.7-0.7-4-2.1c-0.1-0.6-0.3-1.5-0.3-2.6
				c0-0.9-0.2-1.2-0.6-1.2c-0.5,0-0.7,0.5-0.7,1.5c0,2.9,0.2,7.5,0.2,9.2c0,2-0.2,6.6-0.2,11.4c0,0.8,0.2,1.4,0.7,1.4
				c0.4,0,0.6-0.4,0.6-1.2c0-1.1,0.1-2.7,0.3-3.7c0.3-2.2,1.9-2.6,3.9-2.8c3.1-0.4,8.9-0.4,15.6-0.4h29.8l-0.2,9.2
				c-0.2,6.5-2.2,8.4-4.1,8.6l-0.8,0.1c-1.1,0.1-1.5,0.2-1.5,0.8c0,0.4,0.4,0.6,1.2,0.7c1.9,0,6.9,0.2,8.4,0.2
				c1.1,0,1.5-0.1,1.5-0.6c0-0.3-0.1-0.9-0.4-1.9c-0.1-1.1-0.4-2.7-0.4-5v-28.8c0-2.4,0.1-5.1,0.4-7.3c0.1-1.8,0.9-2.6,0.9-3.1
				c0-0.4-0.4-0.7-1.4-0.9c-0.6-0.1-7.2-1.5-8.4-1.5c-0.8,0-1.2,0.1-1.2,0.6c0,0.4,0.3,0.7,0.9,0.8c0.6,0.1,1.4,0.5,2.5,1.2
				c1.6,1.1,2,2.8,2.1,7l0.3,10.8H22.1z"/>
			<path fill="#FFFFFF" d="M28.4,448.4c-0.9-1.3-1.2-2.3-1.2-5.2c0-1.8,0.2-4,0.7-5.5c0.2-0.5,0.5-0.7,1.3-0.7h22.1
				c0.6,0,0.9,0.1,1,0.7c0.2,0.7,0.3,2,0.3,3.8c0,4.3-3,11.1-13.3,11.1C33.3,452.6,30,450.5,28.4,448.4 M2.3,477.6
				c0-0.6,0.1-1.2,0.2-2c0.2-1.1,0.7-4.1,4.9-8.1c4.5-4.3,11-9.3,19.1-15.8c6,7.3,10.9,9.6,16.3,9.6c4.9,0,8.6-2.9,10-4.9
				c2.7-3.9,3.1-8.8,3.1-13.4c0-2.2-0.2-7.8-0.2-10.2c0-1.5,0.2-6.1,0.2-10c0-1.1-0.1-1.6-0.7-1.6c-0.5,0-0.7,0.4-0.7,1.2
				c0,1-0.1,2.3-0.2,2.8c-0.5,2.4-1.7,3-4.1,3.1c-2.3,0.1-4.4,0.1-15.4,0.1H22.1c-6.7,0-12.4,0-15.5-0.4c-2.1-0.3-3.7-0.7-4-2.1
				c-0.1-0.7-0.3-1.5-0.3-2.6c0-0.9-0.2-1.2-0.6-1.2c-0.5,0-0.7,0.5-0.7,1.5c0,2.9,0.2,7.5,0.2,8.9c0,1.1-0.2,6.5-0.2,10.7
				c0,0.9,0.2,1.5,0.7,1.5c0.4,0,0.6-0.3,0.6-0.9c0-0.9,0.1-2.5,0.3-3.6c0.3-2.2,1.9-2.6,4-2.8c3.1-0.4,8.8-0.4,15.6-0.4h1
				c0.4,0,0.6,0.2,0.6,0.6l-0.1,6.3c0,0.5-0.1,0.9-0.5,1.3c-1.1,1-6,4.3-10,7.2c-5.6,4.1-9,6.8-10.7,10c-1,1.9-1.4,3.7-1.4,7.8v6.9
				c0,0.8,0.1,1.4,0.7,1.4C2.1,478.5,2.3,478.2,2.3,477.6"/>
			<path fill="#FFFFFF" d="M3.6,389.2c0-14,12-22.3,27.1-22.3c18.1,0,22.7,9.5,22.7,17.9c0,11.9-10.1,21.3-26.4,21.3
				C6.1,406,3.6,394.3,3.6,389.2 M57,386.8c0-21.8-16.1-30-28.5-30c-12.9,0-28.5,8.4-28.5,29.3c0,18.5,13.2,30.1,29.8,30.1
				C46.5,416.2,57,404.9,57,386.8"/>
			<path fill="#FFFFFF" d="M2.7,297.4c-1.9,0.7-2.7,1-2.7,1.7c0,0.9,0.9,1.2,3.9,2.6c6.7,3.1,32.4,12.8,36.1,14.2v0.1L3.6,331.2
				c-2.7,1.1-3.6,1.5-3.6,2.2c0,0.9,0.9,1.3,3.4,2.1c10.9,3.5,34,11.2,43.2,14.5c4.1,1.5,7,2.3,7.7,4.1c0.3,0.8,0.4,1.8,0.4,2.5
				c0,0.6,0.2,1,0.7,1c0.4,0,0.6-0.5,0.6-1.3c0-2.4-0.2-5.5-0.2-6.1c0-0.6,0.2-3.7,0.2-7.5c0-1.1-0.1-1.7-0.7-1.7
				c-0.4,0-0.7,0.5-0.7,1.2c0,2.8-1,3.5-2.2,3.5c-1,0-2.5-0.3-4.2-0.7c-8.5-2.6-27.7-8.3-32.6-9.7v-0.2l36.6-15.1
				c2.3-0.9,3.4-1.3,3.4-2.1c0-0.6-0.6-1.1-2.6-1.8l-37.9-14.1v-0.2c4.1-1.3,26.1-8.1,30.9-9.3c3.3-0.9,5.7-1.6,6.7-1.6
				c0.8,0,1.3,0.1,1.6,0.8c0.3,0.5,0.3,1.2,0.3,1.8c0,0.7,0.1,1.3,0.7,1.3c0.4,0,0.7-0.5,0.7-1.5c0-4.2-0.2-7.4-0.2-8.1
				c0-0.6,0.2-4.6,0.2-8.4c0-1-0.1-1.6-0.7-1.6c-0.6,0-0.7,0.4-0.7,1.2c0,0.7-0.1,2.1-0.6,2.9c-0.7,1-2.5,1.8-5.2,2.7L2.7,297.4z"/>
		</g>
	</g>
</g>
</svg>
