<?xml version="1.0" encoding="utf-8"?>
<!-- Generator: Adobe Illustrator 19.1.0, SVG Export Plug-In . SVG Version: 6.00 Build 0)  -->
<svg version="1.1" id="Layer_1" xmlns="http://www.w3.org/2000/svg" xmlns:xlink="http://www.w3.org/1999/xlink" x="0px" y="0px"
	 viewBox="-89 0 612 612" enable-background="new -89 0 612 612" xml:space="preserve">
<g>
	<g>
		<defs>
			<path id="SVGID_1_" d="M156.6,366.5C142,351.9,130,335,120.9,316.2c-21.7-44.6-24.7-95.1-8.5-142s49.8-84.7,94.5-106.4
				c71.3-34.7,156.7-20.3,212.7,35.7c14.5,14.5,26.6,31.5,35.7,50.2c21.7,44.6,24.7,95.1,8.4,142c-16.2,47-49.8,84.7-94.4,106.4
				c-25.9,12.6-53.7,18.7-81.2,18.7C239.8,420.9,192.2,402.1,156.6,366.5 M185.4,23.7C68.7,80.4,20.1,220.9,76.8,337.6
				c6.6,13.6,14.4,26,23.1,37.7L-89,564.1l47.9,47.9l188.8-188.8c68.1,50.7,161.4,62.7,243.1,23C507.4,389.5,556,249,499.4,132.3
				c-11.8-24.2-27.2-45.5-45.1-63.5C410,24.6,349.8,0,287.9,0C253.4,0,218.5,7.6,185.4,23.7"/>
		</defs>
		<clipPath id="SVGID_2_">
			<use xlink:href="#SVGID_1_"  overflow="visible"/>
		</clipPath>
		<rect x="111.3" y="49" clip-path="url(#SVGID_2_)" fill="#BBBDBF" width="353.6" height="8.6"/>
	</g>
	<g>
		<defs>
			<path id="SVGID_3_" d="M156.6,366.5C142,351.9,130,335,120.9,316.2c-21.7-44.6-24.7-95.1-8.5-142s49.8-84.7,94.5-106.4
				c71.3-34.7,156.7-20.3,212.7,35.7c14.5,14.5,26.6,31.5,35.7,50.2c21.7,44.6,24.7,95.1,8.4,142c-16.2,47-49.8,84.7-94.4,106.4
				c-25.9,12.6-53.7,18.7-81.2,18.7C239.8,420.9,192.2,402.1,156.6,366.5 M185.4,23.7C68.7,80.4,20.1,220.9,76.8,337.6
				c6.6,13.6,14.4,26,23.1,37.7L-89,564.1l47.9,47.9l188.8-188.8c68.1,50.7,161.4,62.7,243.1,23C507.4,389.5,556,249,499.4,132.3
				c-11.8-24.2-27.2-45.5-45.1-63.5C410,24.6,349.8,0,287.9,0C253.4,0,218.5,7.6,185.4,23.7"/>
		</defs>
		<clipPath id="SVGID_4_">
			<use xlink:href="#SVGID_3_"  overflow="visible"/>
		</clipPath>
		<rect x="111.3" y="57.7" clip-path="url(#SVGID_4_)" fill="#BBBDBF" width="353.6" height="24.3"/>
	</g>
	<g>
		<defs>
			<path id="SVGID_5_" d="M156.6,366.5C142,351.9,130,335,120.9,316.2c-21.7-44.6-24.7-95.1-8.5-142s49.8-84.7,94.5-106.4
				c71.3-34.7,156.7-20.3,212.7,35.7c14.5,14.5,26.6,31.5,35.7,50.2c21.7,44.6,24.7,95.1,8.4,142c-16.2,47-49.8,84.7-94.4,106.4
				c-25.9,12.6-53.7,18.7-81.2,18.7C239.8,420.9,192.2,402.1,156.6,366.5 M185.4,23.7C68.7,80.4,20.1,220.9,76.8,337.6
				c6.6,13.6,14.4,26,23.1,37.7L-89,564.1l47.9,47.9l188.8-188.8c68.1,50.7,161.4,62.7,243.1,23C507.4,389.5,556,249,499.4,132.3
				c-11.8-24.2-27.2-45.5-45.1-63.5C410,24.6,349.8,0,287.9,0C253.4,0,218.5,7.6,185.4,23.7"/>
		</defs>
		<clipPath id="SVGID_6_">
			<use xlink:href="#SVGID_5_"  overflow="visible"/>
		</clipPath>
		<rect x="111.3" y="82" clip-path="url(#SVGID_6_)" fill="#BABCBE" width="353.6" height="24.3"/>
	</g>
	<g>
		<defs>
			<path id="SVGID_7_" d="M156.6,366.5C142,351.9,130,335,120.9,316.2c-21.7-44.6-24.7-95.1-8.5-142s49.8-84.7,94.5-106.4
				c71.3-34.7,156.7-20.3,212.7,35.7c14.5,14.5,26.6,31.5,35.7,50.2c21.7,44.6,24.7,95.1,8.4,142c-16.2,47-49.8,84.7-94.4,106.4
				c-25.9,12.6-53.7,18.7-81.2,18.7C239.8,420.9,192.2,402.1,156.6,366.5 M185.4,23.7C68.7,80.4,20.1,220.9,76.8,337.6
				c6.6,13.6,14.4,26,23.1,37.7L-89,564.1l47.9,47.9l188.8-188.8c68.1,50.7,161.4,62.7,243.1,23C507.4,389.5,556,249,499.4,132.3
				c-11.8-24.2-27.2-45.5-45.1-63.5C410,24.6,349.8,0,287.9,0C253.4,0,218.5,7.6,185.4,23.7"/>
		</defs>
		<clipPath id="SVGID_8_">
			<use xlink:href="#SVGID_7_"  overflow="visible"/>
		</clipPath>
		<rect x="111.3" y="106.3" clip-path="url(#SVGID_8_)" fill="#BABBBD" width="353.6" height="24.3"/>
	</g>
	<g>
		<defs>
			<path id="SVGID_9_" d="M156.6,366.5C142,351.9,130,335,120.9,316.2c-21.7-44.6-24.7-95.1-8.5-142s49.8-84.7,94.5-106.4
				c71.3-34.7,156.7-20.3,212.7,35.7c14.5,14.5,26.6,31.5,35.7,50.2c21.7,44.6,24.7,95.1,8.4,142c-16.2,47-49.8,84.7-94.4,106.4
				c-25.9,12.6-53.7,18.7-81.2,18.7C239.8,420.9,192.2,402.1,156.6,366.5 M185.4,23.7C68.7,80.4,20.1,220.9,76.8,337.6
				c6.6,13.6,14.4,26,23.1,37.7L-89,564.1l47.9,47.9l188.8-188.8c68.1,50.7,161.4,62.7,243.1,23C507.4,389.5,556,249,499.4,132.3
				c-11.8-24.2-27.2-45.5-45.1-63.5C410,24.6,349.8,0,287.9,0C253.4,0,218.5,7.6,185.4,23.7"/>
		</defs>
		<clipPath id="SVGID_10_">
			<use xlink:href="#SVGID_9_"  overflow="visible"/>
		</clipPath>
		<rect x="111.3" y="130.6" clip-path="url(#SVGID_10_)" fill="#B9BABC" width="353.6" height="24.3"/>
	</g>
	<g>
		<defs>
			<path id="SVGID_11_" d="M156.6,366.5C142,351.9,130,335,120.9,316.2c-21.7-44.6-24.7-95.1-8.5-142s49.8-84.7,94.5-106.4
				c71.3-34.7,156.7-20.3,212.7,35.7c14.5,14.5,26.6,31.5,35.7,50.2c21.7,44.6,24.7,95.1,8.4,142c-16.2,47-49.8,84.7-94.4,106.4
				c-25.9,12.6-53.7,18.7-81.2,18.7C239.8,420.9,192.2,402.1,156.6,366.5 M185.4,23.7C68.7,80.4,20.1,220.9,76.8,337.6
				c6.6,13.6,14.4,26,23.1,37.7L-89,564.1l47.9,47.9l188.8-188.8c68.1,50.7,161.4,62.7,243.1,23C507.4,389.5,556,249,499.4,132.3
				c-11.8-24.2-27.2-45.5-45.1-63.5C410,24.6,349.8,0,287.9,0C253.4,0,218.5,7.6,185.4,23.7"/>
		</defs>
		<clipPath id="SVGID_12_">
			<use xlink:href="#SVGID_11_"  overflow="visible"/>
		</clipPath>
		<rect x="111.3" y="155" clip-path="url(#SVGID_12_)" fill="#B8B9BB" width="353.6" height="24.3"/>
	</g>
	<g>
		<defs>
			<path id="SVGID_13_" d="M156.6,366.5C142,351.9,130,335,120.9,316.2c-21.7-44.6-24.7-95.1-8.5-142s49.8-84.7,94.5-106.4
				c71.3-34.7,156.7-20.3,212.7,35.7c14.5,14.5,26.6,31.5,35.7,50.2c21.7,44.6,24.7,95.1,8.4,142c-16.2,47-49.8,84.7-94.4,106.4
				c-25.9,12.6-53.7,18.7-81.2,18.7C239.8,420.9,192.2,402.1,156.6,366.5 M185.4,23.7C68.7,80.4,20.1,220.9,76.8,337.6
				c6.6,13.6,14.4,26,23.1,37.7L-89,564.1l47.9,47.9l188.8-188.8c68.1,50.7,161.4,62.7,243.1,23C507.4,389.5,556,249,499.4,132.3
				c-11.8-24.2-27.2-45.5-45.1-63.5C410,24.6,349.8,0,287.9,0C253.4,0,218.5,7.6,185.4,23.7"/>
		</defs>
		<clipPath id="SVGID_14_">
			<use xlink:href="#SVGID_13_"  overflow="visible"/>
		</clipPath>
		<rect x="111.3" y="179.3" clip-path="url(#SVGID_14_)" fill="#B7B9BA" width="353.6" height="24.3"/>
	</g>
	<g>
		<defs>
			<path id="SVGID_15_" d="M156.6,366.5C142,351.9,130,335,120.9,316.2c-21.7-44.6-24.7-95.1-8.5-142s49.8-84.7,94.5-106.4
				c71.3-34.7,156.7-20.3,212.7,35.7c14.5,14.5,26.6,31.5,35.7,50.2c21.7,44.6,24.7,95.1,8.4,142c-16.2,47-49.8,84.7-94.4,106.4
				c-25.9,12.6-53.7,18.7-81.2,18.7C239.8,420.9,192.2,402.1,156.6,366.5 M185.4,23.7C68.7,80.4,20.1,220.9,76.8,337.6
				c6.6,13.6,14.4,26,23.1,37.7L-89,564.1l47.9,47.9l188.8-188.8c68.1,50.7,161.4,62.7,243.1,23C507.4,389.5,556,249,499.4,132.3
				c-11.8-24.2-27.2-45.5-45.1-63.5C410,24.6,349.8,0,287.9,0C253.4,0,218.5,7.6,185.4,23.7"/>
		</defs>
		<clipPath id="SVGID_16_">
			<use xlink:href="#SVGID_15_"  overflow="visible"/>
		</clipPath>
		<rect x="111.3" y="203.6" clip-path="url(#SVGID_16_)" fill="#B6B8BA" width="353.6" height="24.3"/>
	</g>
	<g>
		<defs>
			<path id="SVGID_17_" d="M156.6,366.5C142,351.9,130,335,120.9,316.2c-21.7-44.6-24.7-95.1-8.5-142s49.8-84.7,94.5-106.4
				c71.3-34.7,156.7-20.3,212.7,35.7c14.5,14.5,26.6,31.5,35.7,50.2c21.7,44.6,24.7,95.1,8.4,142c-16.2,47-49.8,84.7-94.4,106.4
				c-25.9,12.6-53.7,18.7-81.2,18.7C239.8,420.9,192.2,402.1,156.6,366.5 M185.4,23.7C68.7,80.4,20.1,220.9,76.8,337.6
				c6.6,13.6,14.4,26,23.1,37.7L-89,564.1l47.9,47.9l188.8-188.8c68.1,50.7,161.4,62.7,243.1,23C507.4,389.5,556,249,499.4,132.3
				c-11.8-24.2-27.2-45.5-45.1-63.5C410,24.6,349.8,0,287.9,0C253.4,0,218.5,7.6,185.4,23.7"/>
		</defs>
		<clipPath id="SVGID_18_">
			<use xlink:href="#SVGID_17_"  overflow="visible"/>
		</clipPath>
		<rect x="111.3" y="228" clip-path="url(#SVGID_18_)" fill="#B4B6B8" width="353.6" height="24.3"/>
	</g>
	<g>
		<defs>
			<path id="SVGID_19_" d="M156.6,366.5C142,351.9,130,335,120.9,316.2c-21.7-44.6-24.7-95.1-8.5-142s49.8-84.7,94.5-106.4
				c71.3-34.7,156.7-20.3,212.7,35.7c14.5,14.5,26.6,31.5,35.7,50.2c21.7,44.6,24.7,95.1,8.4,142c-16.2,47-49.8,84.7-94.4,106.4
				c-25.9,12.6-53.7,18.7-81.2,18.7C239.8,420.9,192.2,402.1,156.6,366.5 M185.4,23.7C68.7,80.4,20.1,220.9,76.8,337.6
				c6.6,13.6,14.4,26,23.1,37.7L-89,564.1l47.9,47.9l188.8-188.8c68.1,50.7,161.4,62.7,243.1,23C507.4,389.5,556,249,499.4,132.3
				c-11.8-24.2-27.2-45.5-45.1-63.5C410,24.6,349.8,0,287.9,0C253.4,0,218.5,7.6,185.4,23.7"/>
		</defs>
		<clipPath id="SVGID_20_">
			<use xlink:href="#SVGID_19_"  overflow="visible"/>
		</clipPath>
		<rect x="111.3" y="252.3" clip-path="url(#SVGID_20_)" fill="#B3B5B7" width="353.6" height="24.3"/>
	</g>
	<g>
		<defs>
			<path id="SVGID_21_" d="M156.6,366.5C142,351.9,130,335,120.9,316.2c-21.7-44.6-24.7-95.1-8.5-142s49.8-84.7,94.5-106.4
				c71.3-34.7,156.7-20.3,212.7,35.7c14.5,14.5,26.6,31.5,35.7,50.2c21.7,44.6,24.7,95.1,8.4,142c-16.2,47-49.8,84.7-94.4,106.4
				c-25.9,12.6-53.7,18.7-81.2,18.7C239.8,420.9,192.2,402.1,156.6,366.5 M185.4,23.7C68.7,80.4,20.1,220.9,76.8,337.6
				c6.6,13.6,14.4,26,23.1,37.7L-89,564.1l47.9,47.9l188.8-188.8c68.1,50.7,161.4,62.7,243.1,23C507.4,389.5,556,249,499.4,132.3
				c-11.8-24.2-27.2-45.5-45.1-63.5C410,24.6,349.8,0,287.9,0C253.4,0,218.5,7.6,185.4,23.7"/>
		</defs>
		<clipPath id="SVGID_22_">
			<use xlink:href="#SVGID_21_"  overflow="visible"/>
		</clipPath>
		<rect x="111.3" y="276.6" clip-path="url(#SVGID_22_)" fill="#B3B5B6" width="353.6" height="24.3"/>
	</g>
	<g>
		<defs>
			<path id="SVGID_23_" d="M156.6,366.5C142,351.9,130,335,120.9,316.2c-21.7-44.6-24.7-95.1-8.5-142s49.8-84.7,94.5-106.4
				c71.3-34.7,156.7-20.3,212.7,35.7c14.5,14.5,26.6,31.5,35.7,50.2c21.7,44.6,24.7,95.1,8.4,142c-16.2,47-49.8,84.7-94.4,106.4
				c-25.9,12.6-53.7,18.7-81.2,18.7C239.8,420.9,192.2,402.1,156.6,366.5 M185.4,23.7C68.7,80.4,20.1,220.9,76.8,337.6
				c6.6,13.6,14.4,26,23.1,37.7L-89,564.1l47.9,47.9l188.8-188.8c68.1,50.7,161.4,62.7,243.1,23C507.4,389.5,556,249,499.4,132.3
				c-11.8-24.2-27.2-45.5-45.1-63.5C410,24.6,349.8,0,287.9,0C253.4,0,218.5,7.6,185.4,23.7"/>
		</defs>
		<clipPath id="SVGID_24_">
			<use xlink:href="#SVGID_23_"  overflow="visible"/>
		</clipPath>
		<rect x="111.3" y="300.9" clip-path="url(#SVGID_24_)" fill="#B2B4B5" width="353.6" height="24.3"/>
	</g>
	<g>
		<defs>
			<path id="SVGID_25_" d="M156.6,366.5C142,351.9,130,335,120.9,316.2c-21.7-44.6-24.7-95.1-8.5-142s49.8-84.7,94.5-106.4
				c71.3-34.7,156.7-20.3,212.7,35.7c14.5,14.5,26.6,31.5,35.7,50.2c21.7,44.6,24.7,95.1,8.4,142c-16.2,47-49.8,84.7-94.4,106.4
				c-25.9,12.6-53.7,18.7-81.2,18.7C239.8,420.9,192.2,402.1,156.6,366.5 M185.4,23.7C68.7,80.4,20.1,220.9,76.8,337.6
				c6.6,13.6,14.4,26,23.1,37.7L-89,564.1l47.9,47.9l188.8-188.8c68.1,50.7,161.4,62.7,243.1,23C507.4,389.5,556,249,499.4,132.3
				c-11.8-24.2-27.2-45.5-45.1-63.5C410,24.6,349.8,0,287.9,0C253.4,0,218.5,7.6,185.4,23.7"/>
		</defs>
		<clipPath id="SVGID_26_">
			<use xlink:href="#SVGID_25_"  overflow="visible"/>
		</clipPath>
		<rect x="111.3" y="325.3" clip-path="url(#SVGID_26_)" fill="#B1B3B5" width="353.6" height="24.3"/>
	</g>
	<g>
		<defs>
			<path id="SVGID_27_" d="M156.6,366.5C142,351.9,130,335,120.9,316.2c-21.7-44.6-24.7-95.1-8.5-142s49.8-84.7,94.5-106.4
				c71.3-34.7,156.7-20.3,212.7,35.7c14.5,14.5,26.6,31.5,35.7,50.2c21.7,44.6,24.7,95.1,8.4,142c-16.2,47-49.8,84.7-94.4,106.4
				c-25.9,12.6-53.7,18.7-81.2,18.7C239.8,420.9,192.2,402.1,156.6,366.5 M185.4,23.7C68.7,80.4,20.1,220.9,76.8,337.6
				c6.6,13.6,14.4,26,23.1,37.7L-89,564.1l47.9,47.9l188.8-188.8c68.1,50.7,161.4,62.7,243.1,23C507.4,389.5,556,249,499.4,132.3
				c-11.8-24.2-27.2-45.5-45.1-63.5C410,24.6,349.8,0,287.9,0C253.4,0,218.5,7.6,185.4,23.7"/>
		</defs>
		<clipPath id="SVGID_28_">
			<use xlink:href="#SVGID_27_"  overflow="visible"/>
		</clipPath>
		<rect x="111.3" y="349.6" clip-path="url(#SVGID_28_)" fill="#B0B1B4" width="353.6" height="24.3"/>
	</g>
	<g>
		<defs>
			<path id="SVGID_29_" d="M156.6,366.5C142,351.9,130,335,120.9,316.2c-21.7-44.6-24.7-95.1-8.5-142s49.8-84.7,94.5-106.4
				c71.3-34.7,156.7-20.3,212.7,35.7c14.5,14.5,26.6,31.5,35.7,50.2c21.7,44.6,24.7,95.1,8.4,142c-16.2,47-49.8,84.7-94.4,106.4
				c-25.9,12.6-53.7,18.7-81.2,18.7C239.8,420.9,192.2,402.1,156.6,366.5 M185.4,23.7C68.7,80.4,20.1,220.9,76.8,337.6
				c6.6,13.6,14.4,26,23.1,37.7L-89,564.1l47.9,47.9l188.8-188.8c68.1,50.7,161.4,62.7,243.1,23C507.4,389.5,556,249,499.4,132.3
				c-11.8-24.2-27.2-45.5-45.1-63.5C410,24.6,349.8,0,287.9,0C253.4,0,218.5,7.6,185.4,23.7"/>
		</defs>
		<clipPath id="SVGID_30_">
			<use xlink:href="#SVGID_29_"  overflow="visible"/>
		</clipPath>
		<rect x="111.3" y="373.9" clip-path="url(#SVGID_30_)" fill="#B0B0B2" width="353.6" height="24.3"/>
	</g>
	<g>
		<defs>
			<path id="SVGID_31_" d="M156.6,366.5C142,351.9,130,335,120.9,316.2c-21.7-44.6-24.7-95.1-8.5-142s49.8-84.7,94.5-106.4
				c71.3-34.7,156.7-20.3,212.7,35.7c14.5,14.5,26.6,31.5,35.7,50.2c21.7,44.6,24.7,95.1,8.4,142c-16.2,47-49.8,84.7-94.4,106.4
				c-25.9,12.6-53.7,18.7-81.2,18.7C239.8,420.9,192.2,402.1,156.6,366.5 M185.4,23.7C68.7,80.4,20.1,220.9,76.8,337.6
				c6.6,13.6,14.4,26,23.1,37.7L-89,564.1l47.9,47.9l188.8-188.8c68.1,50.7,161.4,62.7,243.1,23C507.4,389.5,556,249,499.4,132.3
				c-11.8-24.2-27.2-45.5-45.1-63.5C410,24.6,349.8,0,287.9,0C253.4,0,218.5,7.6,185.4,23.7"/>
		</defs>
		<clipPath id="SVGID_32_">
			<use xlink:href="#SVGID_31_"  overflow="visible"/>
		</clipPath>
		<rect x="111.3" y="398.3" clip-path="url(#SVGID_32_)" fill="#AFB0B2" width="353.6" height="22.6"/>
	</g>
	<g>
		<defs>
			<path id="SVGID_33_" d="M156.6,366.5C142,351.9,130,335,120.9,316.2c-21.7-44.6-24.7-95.1-8.5-142s49.8-84.7,94.5-106.4
				c71.3-34.7,156.7-20.3,212.7,35.7c14.5,14.5,26.6,31.5,35.7,50.2c21.7,44.6,24.7,95.1,8.4,142c-16.2,47-49.8,84.7-94.4,106.4
				c-25.9,12.6-53.7,18.7-81.2,18.7C239.8,420.9,192.2,402.1,156.6,366.5 M185.4,23.7C68.7,80.4,20.1,220.9,76.8,337.6
				c6.6,13.6,14.4,26,23.1,37.7L-89,564.1l47.9,47.9l188.8-188.8c68.1,50.7,161.4,62.7,243.1,23C507.4,389.5,556,249,499.4,132.3
				c-11.8-24.2-27.2-45.5-45.1-63.5C410,24.6,349.8,0,287.9,0C253.4,0,218.5,7.6,185.4,23.7"/>
		</defs>
		<clipPath id="SVGID_34_">
			<use xlink:href="#SVGID_33_"  overflow="visible"/>
		</clipPath>
		<rect x="-89" y="-21.3" clip-path="url(#SVGID_34_)" fill="#BBBDBF" width="645" height="78.9"/>
	</g>
	<g>
		<defs>
			<path id="SVGID_35_" d="M156.6,366.5C142,351.9,130,335,120.9,316.2c-21.7-44.6-24.7-95.1-8.5-142s49.8-84.7,94.5-106.4
				c71.3-34.7,156.7-20.3,212.7,35.7c14.5,14.5,26.6,31.5,35.7,50.2c21.7,44.6,24.7,95.1,8.4,142c-16.2,47-49.8,84.7-94.4,106.4
				c-25.9,12.6-53.7,18.7-81.2,18.7C239.8,420.9,192.2,402.1,156.6,366.5 M185.4,23.7C68.7,80.4,20.1,220.9,76.8,337.6
				c6.6,13.6,14.4,26,23.1,37.7L-89,564.1l47.9,47.9l188.8-188.8c68.1,50.7,161.4,62.7,243.1,23C507.4,389.5,556,249,499.4,132.3
				c-11.8-24.2-27.2-45.5-45.1-63.5C410,24.6,349.8,0,287.9,0C253.4,0,218.5,7.6,185.4,23.7"/>
		</defs>
		<clipPath id="SVGID_36_">
			<use xlink:href="#SVGID_35_"  overflow="visible"/>
		</clipPath>
		<rect x="-89" y="57.7" clip-path="url(#SVGID_36_)" fill="#BBBDBF" width="645" height="24.3"/>
	</g>
	<g>
		<defs>
			<path id="SVGID_37_" d="M156.6,366.5C142,351.9,130,335,120.9,316.2c-21.7-44.6-24.7-95.1-8.5-142s49.8-84.7,94.5-106.4
				c71.3-34.7,156.7-20.3,212.7,35.7c14.5,14.5,26.6,31.5,35.7,50.2c21.7,44.6,24.7,95.1,8.4,142c-16.2,47-49.8,84.7-94.4,106.4
				c-25.9,12.6-53.7,18.7-81.2,18.7C239.8,420.9,192.2,402.1,156.6,366.5 M185.4,23.7C68.7,80.4,20.1,220.9,76.8,337.6
				c6.6,13.6,14.4,26,23.1,37.7L-89,564.1l47.9,47.9l188.8-188.8c68.1,50.7,161.4,62.7,243.1,23C507.4,389.5,556,249,499.4,132.3
				c-11.8-24.2-27.2-45.5-45.1-63.5C410,24.6,349.8,0,287.9,0C253.4,0,218.5,7.6,185.4,23.7"/>
		</defs>
		<clipPath id="SVGID_38_">
			<use xlink:href="#SVGID_37_"  overflow="visible"/>
		</clipPath>
		<rect x="-89" y="82" clip-path="url(#SVGID_38_)" fill="#BABCBE" width="645" height="24.3"/>
	</g>
	<g>
		<defs>
			<path id="SVGID_39_" d="M156.6,366.5C142,351.9,130,335,120.9,316.2c-21.7-44.6-24.7-95.1-8.5-142s49.8-84.7,94.5-106.4
				c71.3-34.7,156.7-20.3,212.7,35.7c14.5,14.5,26.6,31.5,35.7,50.2c21.7,44.6,24.7,95.1,8.4,142c-16.2,47-49.8,84.7-94.4,106.4
				c-25.9,12.6-53.7,18.7-81.2,18.7C239.8,420.9,192.2,402.1,156.6,366.5 M185.4,23.7C68.7,80.4,20.1,220.9,76.8,337.6
				c6.6,13.6,14.4,26,23.1,37.7L-89,564.1l47.9,47.9l188.8-188.8c68.1,50.7,161.4,62.7,243.1,23C507.4,389.5,556,249,499.4,132.3
				c-11.8-24.2-27.2-45.5-45.1-63.5C410,24.6,349.8,0,287.9,0C253.4,0,218.5,7.6,185.4,23.7"/>
		</defs>
		<clipPath id="SVGID_40_">
			<use xlink:href="#SVGID_39_"  overflow="visible"/>
		</clipPath>
		<rect x="-89" y="106.3" clip-path="url(#SVGID_40_)" fill="#BABBBD" width="645" height="24.3"/>
	</g>
	<g>
		<defs>
			<path id="SVGID_41_" d="M156.6,366.5C142,351.9,130,335,120.9,316.2c-21.7-44.6-24.7-95.1-8.5-142s49.8-84.7,94.5-106.4
				c71.3-34.7,156.7-20.3,212.7,35.7c14.5,14.5,26.6,31.5,35.7,50.2c21.7,44.6,24.7,95.1,8.4,142c-16.2,47-49.8,84.7-94.4,106.4
				c-25.9,12.6-53.7,18.7-81.2,18.7C239.8,420.9,192.2,402.1,156.6,366.5 M185.4,23.7C68.7,80.4,20.1,220.9,76.8,337.6
				c6.6,13.6,14.4,26,23.1,37.7L-89,564.1l47.9,47.9l188.8-188.8c68.1,50.7,161.4,62.7,243.1,23C507.4,389.5,556,249,499.4,132.3
				c-11.8-24.2-27.2-45.5-45.1-63.5C410,24.6,349.8,0,287.9,0C253.4,0,218.5,7.6,185.4,23.7"/>
		</defs>
		<clipPath id="SVGID_42_">
			<use xlink:href="#SVGID_41_"  overflow="visible"/>
		</clipPath>
		<rect x="-89" y="130.6" clip-path="url(#SVGID_42_)" fill="#B9BABC" width="645" height="24.3"/>
	</g>
	<g>
		<defs>
			<path id="SVGID_43_" d="M156.6,366.5C142,351.9,130,335,120.9,316.2c-21.7-44.6-24.7-95.1-8.5-142s49.8-84.7,94.5-106.4
				c71.3-34.7,156.7-20.3,212.7,35.7c14.5,14.5,26.6,31.5,35.7,50.2c21.7,44.6,24.7,95.1,8.4,142c-16.2,47-49.8,84.7-94.4,106.4
				c-25.9,12.6-53.7,18.7-81.2,18.7C239.8,420.9,192.2,402.1,156.6,366.5 M185.4,23.7C68.7,80.4,20.1,220.9,76.8,337.6
				c6.6,13.6,14.4,26,23.1,37.7L-89,564.1l47.9,47.9l188.8-188.8c68.1,50.7,161.4,62.7,243.1,23C507.4,389.5,556,249,499.4,132.3
				c-11.8-24.2-27.2-45.5-45.1-63.5C410,24.6,349.8,0,287.9,0C253.4,0,218.5,7.6,185.4,23.7"/>
		</defs>
		<clipPath id="SVGID_44_">
			<use xlink:href="#SVGID_43_"  overflow="visible"/>
		</clipPath>
		<rect x="-89" y="155" clip-path="url(#SVGID_44_)" fill="#B8B9BB" width="645" height="24.3"/>
	</g>
	<g>
		<defs>
			<path id="SVGID_45_" d="M156.6,366.5C142,351.9,130,335,120.9,316.2c-21.7-44.6-24.7-95.1-8.5-142s49.8-84.7,94.5-106.4
				c71.3-34.7,156.7-20.3,212.7,35.7c14.5,14.5,26.6,31.5,35.7,50.2c21.7,44.6,24.7,95.1,8.4,142c-16.2,47-49.8,84.7-94.4,106.4
				c-25.9,12.6-53.7,18.7-81.2,18.7C239.8,420.9,192.2,402.1,156.6,366.5 M185.4,23.7C68.7,80.4,20.1,220.9,76.8,337.6
				c6.6,13.6,14.4,26,23.1,37.7L-89,564.1l47.9,47.9l188.8-188.8c68.1,50.7,161.4,62.7,243.1,23C507.4,389.5,556,249,499.4,132.3
				c-11.8-24.2-27.2-45.5-45.1-63.5C410,24.6,349.8,0,287.9,0C253.4,0,218.5,7.6,185.4,23.7"/>
		</defs>
		<clipPath id="SVGID_46_">
			<use xlink:href="#SVGID_45_"  overflow="visible"/>
		</clipPath>
		<rect x="-89" y="179.3" clip-path="url(#SVGID_46_)" fill="#B7B9BA" width="645" height="24.3"/>
	</g>
	<g>
		<defs>
			<path id="SVGID_47_" d="M156.6,366.5C142,351.9,130,335,120.9,316.2c-21.7-44.6-24.7-95.1-8.5-142s49.8-84.7,94.5-106.4
				c71.3-34.7,156.7-20.3,212.7,35.7c14.5,14.5,26.6,31.5,35.7,50.2c21.7,44.6,24.7,95.1,8.4,142c-16.2,47-49.8,84.7-94.4,106.4
				c-25.9,12.6-53.7,18.7-81.2,18.7C239.8,420.9,192.2,402.1,156.6,366.5 M185.4,23.7C68.7,80.4,20.1,220.9,76.8,337.6
				c6.6,13.6,14.4,26,23.1,37.7L-89,564.1l47.9,47.9l188.8-188.8c68.1,50.7,161.4,62.7,243.1,23C507.4,389.5,556,249,499.4,132.3
				c-11.8-24.2-27.2-45.5-45.1-63.5C410,24.6,349.8,0,287.9,0C253.4,0,218.5,7.6,185.4,23.7"/>
		</defs>
		<clipPath id="SVGID_48_">
			<use xlink:href="#SVGID_47_"  overflow="visible"/>
		</clipPath>
		<rect x="-89" y="203.6" clip-path="url(#SVGID_48_)" fill="#B6B8BA" width="645" height="24.3"/>
	</g>
	<g>
		<defs>
			<path id="SVGID_49_" d="M156.6,366.5C142,351.9,130,335,120.9,316.2c-21.7-44.6-24.7-95.1-8.5-142s49.8-84.7,94.5-106.4
				c71.3-34.7,156.7-20.3,212.7,35.7c14.5,14.5,26.6,31.5,35.7,50.2c21.7,44.6,24.7,95.1,8.4,142c-16.2,47-49.8,84.7-94.4,106.4
				c-25.9,12.6-53.7,18.7-81.2,18.7C239.8,420.9,192.2,402.1,156.6,366.5 M185.4,23.7C68.7,80.4,20.1,220.9,76.8,337.6
				c6.6,13.6,14.4,26,23.1,37.7L-89,564.1l47.9,47.9l188.8-188.8c68.1,50.7,161.4,62.7,243.1,23C507.4,389.5,556,249,499.4,132.3
				c-11.8-24.2-27.2-45.5-45.1-63.5C410,24.6,349.8,0,287.9,0C253.4,0,218.5,7.6,185.4,23.7"/>
		</defs>
		<clipPath id="SVGID_50_">
			<use xlink:href="#SVGID_49_"  overflow="visible"/>
		</clipPath>
		<rect x="-89" y="228" clip-path="url(#SVGID_50_)" fill="#B4B6B8" width="645" height="24.3"/>
	</g>
	<g>
		<defs>
			<path id="SVGID_51_" d="M156.6,366.5C142,351.9,130,335,120.9,316.2c-21.7-44.6-24.7-95.1-8.5-142s49.8-84.7,94.5-106.4
				c71.3-34.7,156.7-20.3,212.7,35.7c14.5,14.5,26.6,31.5,35.7,50.2c21.7,44.6,24.7,95.1,8.4,142c-16.2,47-49.8,84.7-94.4,106.4
				c-25.9,12.6-53.7,18.7-81.2,18.7C239.8,420.9,192.2,402.1,156.6,366.5 M185.4,23.7C68.7,80.4,20.1,220.9,76.8,337.6
				c6.6,13.6,14.4,26,23.1,37.7L-89,564.1l47.9,47.9l188.8-188.8c68.1,50.7,161.4,62.7,243.1,23C507.4,389.5,556,249,499.4,132.3
				c-11.8-24.2-27.2-45.5-45.1-63.5C410,24.6,349.8,0,287.9,0C253.4,0,218.5,7.6,185.4,23.7"/>
		</defs>
		<clipPath id="SVGID_52_">
			<use xlink:href="#SVGID_51_"  overflow="visible"/>
		</clipPath>
		<rect x="-89" y="252.3" clip-path="url(#SVGID_52_)" fill="#B3B5B7" width="645" height="24.3"/>
	</g>
	<g>
		<defs>
			<path id="SVGID_53_" d="M156.6,366.5C142,351.9,130,335,120.9,316.2c-21.7-44.6-24.7-95.1-8.5-142s49.8-84.7,94.5-106.4
				c71.3-34.7,156.7-20.3,212.7,35.7c14.5,14.5,26.6,31.5,35.7,50.2c21.7,44.6,24.7,95.1,8.4,142c-16.2,47-49.8,84.7-94.4,106.4
				c-25.9,12.6-53.7,18.7-81.2,18.7C239.8,420.9,192.2,402.1,156.6,366.5 M185.4,23.7C68.7,80.4,20.1,220.9,76.8,337.6
				c6.6,13.6,14.4,26,23.1,37.7L-89,564.1l47.9,47.9l188.8-188.8c68.1,50.7,161.4,62.7,243.1,23C507.4,389.5,556,249,499.4,132.3
				c-11.8-24.2-27.2-45.5-45.1-63.5C410,24.6,349.8,0,287.9,0C253.4,0,218.5,7.6,185.4,23.7"/>
		</defs>
		<clipPath id="SVGID_54_">
			<use xlink:href="#SVGID_53_"  overflow="visible"/>
		</clipPath>
		<rect x="-89" y="276.6" clip-path="url(#SVGID_54_)" fill="#B3B5B6" width="645" height="24.3"/>
	</g>
	<g>
		<defs>
			<path id="SVGID_55_" d="M156.6,366.5C142,351.9,130,335,120.9,316.2c-21.7-44.6-24.7-95.1-8.5-142s49.8-84.7,94.5-106.4
				c71.3-34.7,156.7-20.3,212.7,35.7c14.5,14.5,26.6,31.5,35.7,50.2c21.7,44.6,24.7,95.1,8.4,142c-16.2,47-49.8,84.7-94.4,106.4
				c-25.9,12.6-53.7,18.7-81.2,18.7C239.8,420.9,192.2,402.1,156.6,366.5 M185.4,23.7C68.7,80.4,20.1,220.9,76.8,337.6
				c6.6,13.6,14.4,26,23.1,37.7L-89,564.1l47.9,47.9l188.8-188.8c68.1,50.7,161.4,62.7,243.1,23C507.4,389.5,556,249,499.4,132.3
				c-11.8-24.2-27.2-45.5-45.1-63.5C410,24.6,349.8,0,287.9,0C253.4,0,218.5,7.6,185.4,23.7"/>
		</defs>
		<clipPath id="SVGID_56_">
			<use xlink:href="#SVGID_55_"  overflow="visible"/>
		</clipPath>
		<rect x="-89" y="300.9" clip-path="url(#SVGID_56_)" fill="#B2B4B5" width="645" height="24.3"/>
	</g>
	<g>
		<defs>
			<path id="SVGID_57_" d="M156.6,366.5C142,351.9,130,335,120.9,316.2c-21.7-44.6-24.7-95.1-8.5-142s49.8-84.7,94.5-106.4
				c71.3-34.7,156.7-20.3,212.7,35.7c14.5,14.5,26.6,31.5,35.7,50.2c21.7,44.6,24.7,95.1,8.4,142c-16.2,47-49.8,84.7-94.4,106.4
				c-25.9,12.6-53.7,18.7-81.2,18.7C239.8,420.9,192.2,402.1,156.6,366.5 M185.4,23.7C68.7,80.4,20.1,220.9,76.8,337.6
				c6.6,13.6,14.4,26,23.1,37.7L-89,564.1l47.9,47.9l188.8-188.8c68.1,50.7,161.4,62.7,243.1,23C507.4,389.5,556,249,499.4,132.3
				c-11.8-24.2-27.2-45.5-45.1-63.5C410,24.6,349.8,0,287.9,0C253.4,0,218.5,7.6,185.4,23.7"/>
		</defs>
		<clipPath id="SVGID_58_">
			<use xlink:href="#SVGID_57_"  overflow="visible"/>
		</clipPath>
		<rect x="-89" y="325.3" clip-path="url(#SVGID_58_)" fill="#B1B3B5" width="645" height="24.3"/>
	</g>
	<g>
		<defs>
			<path id="SVGID_59_" d="M156.6,366.5C142,351.9,130,335,120.9,316.2c-21.7-44.6-24.7-95.1-8.5-142s49.8-84.7,94.5-106.4
				c71.3-34.7,156.7-20.3,212.7,35.7c14.5,14.5,26.6,31.5,35.7,50.2c21.7,44.6,24.7,95.1,8.4,142c-16.2,47-49.8,84.7-94.4,106.4
				c-25.9,12.6-53.7,18.7-81.2,18.7C239.8,420.9,192.2,402.1,156.6,366.5 M185.4,23.7C68.7,80.4,20.1,220.9,76.8,337.6
				c6.6,13.6,14.4,26,23.1,37.7L-89,564.1l47.9,47.9l188.8-188.8c68.1,50.7,161.4,62.7,243.1,23C507.4,389.5,556,249,499.4,132.3
				c-11.8-24.2-27.2-45.5-45.1-63.5C410,24.6,349.8,0,287.9,0C253.4,0,218.5,7.6,185.4,23.7"/>
		</defs>
		<clipPath id="SVGID_60_">
			<use xlink:href="#SVGID_59_"  overflow="visible"/>
		</clipPath>
		<rect x="-89" y="349.6" clip-path="url(#SVGID_60_)" fill="#B0B1B4" width="645" height="24.3"/>
	</g>
	<g>
		<defs>
			<path id="SVGID_61_" d="M156.6,366.5C142,351.9,130,335,120.9,316.2c-21.7-44.6-24.7-95.1-8.5-142s49.8-84.7,94.5-106.4
				c71.3-34.7,156.7-20.3,212.7,35.7c14.5,14.5,26.6,31.5,35.7,50.2c21.7,44.6,24.7,95.1,8.4,142c-16.2,47-49.8,84.7-94.4,106.4
				c-25.9,12.6-53.7,18.7-81.2,18.7C239.8,420.9,192.2,402.1,156.6,366.5 M185.4,23.7C68.7,80.4,20.1,220.9,76.8,337.6
				c6.6,13.6,14.4,26,23.1,37.7L-89,564.1l47.9,47.9l188.8-188.8c68.1,50.7,161.4,62.7,243.1,23C507.4,389.5,556,249,499.4,132.3
				c-11.8-24.2-27.2-45.5-45.1-63.5C410,24.6,349.8,0,287.9,0C253.4,0,218.5,7.6,185.4,23.7"/>
		</defs>
		<clipPath id="SVGID_62_">
			<use xlink:href="#SVGID_61_"  overflow="visible"/>
		</clipPath>
		<rect x="-89" y="373.9" clip-path="url(#SVGID_62_)" fill="#B0B0B2" width="645" height="24.3"/>
	</g>
	<g>
		<defs>
			<path id="SVGID_63_" d="M156.6,366.5C142,351.9,130,335,120.9,316.2c-21.7-44.6-24.7-95.1-8.5-142s49.8-84.7,94.5-106.4
				c71.3-34.7,156.7-20.3,212.7,35.7c14.5,14.5,26.6,31.5,35.7,50.2c21.7,44.6,24.7,95.1,8.4,142c-16.2,47-49.8,84.7-94.4,106.4
				c-25.9,12.6-53.7,18.7-81.2,18.7C239.8,420.9,192.2,402.1,156.6,366.5 M185.4,23.7C68.7,80.4,20.1,220.9,76.8,337.6
				c6.6,13.6,14.4,26,23.1,37.7L-89,564.1l47.9,47.9l188.8-188.8c68.1,50.7,161.4,62.7,243.1,23C507.4,389.5,556,249,499.4,132.3
				c-11.8-24.2-27.2-45.5-45.1-63.5C410,24.6,349.8,0,287.9,0C253.4,0,218.5,7.6,185.4,23.7"/>
		</defs>
		<clipPath id="SVGID_64_">
			<use xlink:href="#SVGID_63_"  overflow="visible"/>
		</clipPath>
		<rect x="-89" y="398.3" clip-path="url(#SVGID_64_)" fill="#AFB0B2" width="645" height="24.3"/>
	</g>
	<g>
		<defs>
			<path id="SVGID_65_" d="M156.6,366.5C142,351.9,130,335,120.9,316.2c-21.7-44.6-24.7-95.1-8.5-142s49.8-84.7,94.5-106.4
				c71.3-34.7,156.7-20.3,212.7,35.7c14.5,14.5,26.6,31.5,35.7,50.2c21.7,44.6,24.7,95.1,8.4,142c-16.2,47-49.8,84.7-94.4,106.4
				c-25.9,12.6-53.7,18.7-81.2,18.7C239.8,420.9,192.2,402.1,156.6,366.5 M185.4,23.7C68.7,80.4,20.1,220.9,76.8,337.6
				c6.6,13.6,14.4,26,23.1,37.7L-89,564.1l47.9,47.9l188.8-188.8c68.1,50.7,161.4,62.7,243.1,23C507.4,389.5,556,249,499.4,132.3
				c-11.8-24.2-27.2-45.5-45.1-63.5C410,24.6,349.8,0,287.9,0C253.4,0,218.5,7.6,185.4,23.7"/>
		</defs>
		<clipPath id="SVGID_66_">
			<use xlink:href="#SVGID_65_"  overflow="visible"/>
		</clipPath>
		<rect x="-89" y="422.6" clip-path="url(#SVGID_66_)" fill="#ADAEB0" width="645" height="24.3"/>
	</g>
	<g>
		<defs>
			<path id="SVGID_67_" d="M156.6,366.5C142,351.9,130,335,120.9,316.2c-21.7-44.6-24.7-95.1-8.5-142s49.8-84.7,94.5-106.4
				c71.3-34.7,156.7-20.3,212.7,35.7c14.5,14.5,26.6,31.5,35.7,50.2c21.7,44.6,24.7,95.1,8.4,142c-16.2,47-49.8,84.7-94.4,106.4
				c-25.9,12.6-53.7,18.7-81.2,18.7C239.8,420.9,192.2,402.1,156.6,366.5 M185.4,23.7C68.7,80.4,20.1,220.9,76.8,337.6
				c6.6,13.6,14.4,26,23.1,37.7L-89,564.1l47.9,47.9l188.8-188.8c68.1,50.7,161.4,62.7,243.1,23C507.4,389.5,556,249,499.4,132.3
				c-11.8-24.2-27.2-45.5-45.1-63.5C410,24.6,349.8,0,287.9,0C253.4,0,218.5,7.6,185.4,23.7"/>
		</defs>
		<clipPath id="SVGID_68_">
			<use xlink:href="#SVGID_67_"  overflow="visible"/>
		</clipPath>
		<rect x="-89" y="446.9" clip-path="url(#SVGID_68_)" fill="#ABACAF" width="645" height="24.3"/>
	</g>
	<g>
		<defs>
			<path id="SVGID_69_" d="M156.6,366.5C142,351.9,130,335,120.9,316.2c-21.7-44.6-24.7-95.1-8.5-142s49.8-84.7,94.5-106.4
				c71.3-34.7,156.7-20.3,212.7,35.7c14.5,14.5,26.6,31.5,35.7,50.2c21.7,44.6,24.7,95.1,8.4,142c-16.2,47-49.8,84.7-94.4,106.4
				c-25.9,12.6-53.7,18.7-81.2,18.7C239.8,420.9,192.2,402.1,156.6,366.5 M185.4,23.7C68.7,80.4,20.1,220.9,76.8,337.6
				c6.6,13.6,14.4,26,23.1,37.7L-89,564.1l47.9,47.9l188.8-188.8c68.1,50.7,161.4,62.7,243.1,23C507.4,389.5,556,249,499.4,132.3
				c-11.8-24.2-27.2-45.5-45.1-63.5C410,24.6,349.8,0,287.9,0C253.4,0,218.5,7.6,185.4,23.7"/>
		</defs>
		<clipPath id="SVGID_70_">
			<use xlink:href="#SVGID_69_"  overflow="visible"/>
		</clipPath>
		<rect x="-89" y="471.2" clip-path="url(#SVGID_70_)" fill="#AAACAF" width="645" height="24.3"/>
	</g>
	<g>
		<defs>
			<path id="SVGID_71_" d="M156.6,366.5C142,351.9,130,335,120.9,316.2c-21.7-44.6-24.7-95.1-8.5-142s49.8-84.7,94.5-106.4
				c71.3-34.7,156.7-20.3,212.7,35.7c14.5,14.5,26.6,31.5,35.7,50.2c21.7,44.6,24.7,95.1,8.4,142c-16.2,47-49.8,84.7-94.4,106.4
				c-25.9,12.6-53.7,18.7-81.2,18.7C239.8,420.9,192.2,402.1,156.6,366.5 M185.4,23.7C68.7,80.4,20.1,220.9,76.8,337.6
				c6.6,13.6,14.4,26,23.1,37.7L-89,564.1l47.9,47.9l188.8-188.8c68.1,50.7,161.4,62.7,243.1,23C507.4,389.5,556,249,499.4,132.3
				c-11.8-24.2-27.2-45.5-45.1-63.5C410,24.6,349.8,0,287.9,0C253.4,0,218.5,7.6,185.4,23.7"/>
		</defs>
		<clipPath id="SVGID_72_">
			<use xlink:href="#SVGID_71_"  overflow="visible"/>
		</clipPath>
		<rect x="-89" y="495.6" clip-path="url(#SVGID_72_)" fill="#A9ABAE" width="645" height="24.3"/>
	</g>
	<g>
		<defs>
			<path id="SVGID_73_" d="M156.6,366.5C142,351.9,130,335,120.9,316.2c-21.7-44.6-24.7-95.1-8.5-142s49.8-84.7,94.5-106.4
				c71.3-34.7,156.7-20.3,212.7,35.7c14.5,14.5,26.6,31.5,35.7,50.2c21.7,44.6,24.7,95.1,8.4,142c-16.2,47-49.8,84.7-94.4,106.4
				c-25.9,12.6-53.7,18.7-81.2,18.7C239.8,420.9,192.2,402.1,156.6,366.5 M185.4,23.7C68.7,80.4,20.1,220.9,76.8,337.6
				c6.6,13.6,14.4,26,23.1,37.7L-89,564.1l47.9,47.9l188.8-188.8c68.1,50.7,161.4,62.7,243.1,23C507.4,389.5,556,249,499.4,132.3
				c-11.8-24.2-27.2-45.5-45.1-63.5C410,24.6,349.8,0,287.9,0C253.4,0,218.5,7.6,185.4,23.7"/>
		</defs>
		<clipPath id="SVGID_74_">
			<use xlink:href="#SVGID_73_"  overflow="visible"/>
		</clipPath>
		<rect x="-89" y="519.9" clip-path="url(#SVGID_74_)" fill="#A8AAAD" width="645" height="24.3"/>
	</g>
	<g>
		<defs>
			<path id="SVGID_75_" d="M156.6,366.5C142,351.9,130,335,120.9,316.2c-21.7-44.6-24.7-95.1-8.5-142s49.8-84.7,94.5-106.4
				c71.3-34.7,156.7-20.3,212.7,35.7c14.5,14.5,26.6,31.5,35.7,50.2c21.7,44.6,24.7,95.1,8.4,142c-16.2,47-49.8,84.7-94.4,106.4
				c-25.9,12.6-53.7,18.7-81.2,18.7C239.8,420.9,192.2,402.1,156.6,366.5 M185.4,23.7C68.7,80.4,20.1,220.9,76.8,337.6
				c6.6,13.6,14.4,26,23.1,37.7L-89,564.1l47.9,47.9l188.8-188.8c68.1,50.7,161.4,62.7,243.1,23C507.4,389.5,556,249,499.4,132.3
				c-11.8-24.2-27.2-45.5-45.1-63.5C410,24.6,349.8,0,287.9,0C253.4,0,218.5,7.6,185.4,23.7"/>
		</defs>
		<clipPath id="SVGID_76_">
			<use xlink:href="#SVGID_75_"  overflow="visible"/>
		</clipPath>
		<rect x="-89" y="544.2" clip-path="url(#SVGID_76_)" fill="#A7A9AC" width="645" height="24.3"/>
	</g>
	<g>
		<defs>
			<path id="SVGID_77_" d="M156.6,366.5C142,351.9,130,335,120.9,316.2c-21.7-44.6-24.7-95.1-8.5-142s49.8-84.7,94.5-106.4
				c71.3-34.7,156.7-20.3,212.7,35.7c14.5,14.5,26.6,31.5,35.7,50.2c21.7,44.6,24.7,95.1,8.4,142c-16.2,47-49.8,84.7-94.4,106.4
				c-25.9,12.6-53.7,18.7-81.2,18.7C239.8,420.9,192.2,402.1,156.6,366.5 M185.4,23.7C68.7,80.4,20.1,220.9,76.8,337.6
				c6.6,13.6,14.4,26,23.1,37.7L-89,564.1l47.9,47.9l188.8-188.8c68.1,50.7,161.4,62.7,243.1,23C507.4,389.5,556,249,499.4,132.3
				c-11.8-24.2-27.2-45.5-45.1-63.5C410,24.6,349.8,0,287.9,0C253.4,0,218.5,7.6,185.4,23.7"/>
		</defs>
		<clipPath id="SVGID_78_">
			<use xlink:href="#SVGID_77_"  overflow="visible"/>
		</clipPath>
		<rect x="-89" y="568.6" clip-path="url(#SVGID_78_)" fill="#A5A7AA" width="645" height="24.3"/>
	</g>
	<g>
		<defs>
			<path id="SVGID_79_" d="M156.6,366.5C142,351.9,130,335,120.9,316.2c-21.7-44.6-24.7-95.1-8.5-142s49.8-84.7,94.5-106.4
				c71.3-34.7,156.7-20.3,212.7,35.7c14.5,14.5,26.6,31.5,35.7,50.2c21.7,44.6,24.7,95.1,8.4,142c-16.2,47-49.8,84.7-94.4,106.4
				c-25.9,12.6-53.7,18.7-81.2,18.7C239.8,420.9,192.2,402.1,156.6,366.5 M185.4,23.7C68.7,80.4,20.1,220.9,76.8,337.6
				c6.6,13.6,14.4,26,23.1,37.7L-89,564.1l47.9,47.9l188.8-188.8c68.1,50.7,161.4,62.7,243.1,23C507.4,389.5,556,249,499.4,132.3
				c-11.8-24.2-27.2-45.5-45.1-63.5C410,24.6,349.8,0,287.9,0C253.4,0,218.5,7.6,185.4,23.7"/>
		</defs>
		<clipPath id="SVGID_80_">
			<use xlink:href="#SVGID_79_"  overflow="visible"/>
		</clipPath>
		<rect x="-89" y="592.9" clip-path="url(#SVGID_80_)" fill="#A4A6A9" width="645" height="19.1"/>
	</g>
</g>
</svg>
