<?xml version="1.0" encoding="UTF-8"?>
<svg xmlns="http://www.w3.org/2000/svg" xmlns:xlink="http://www.w3.org/1999/xlink" version="1.2" >
<font id="UniversS 47 Condensed Light">
<font-face  font-family="Univers" units-per-em="1000" ascent="721.924" descent="-190.918" font-style="normal" font-weight="300" font-stretch="condensed" cap-height="750" x-height="500" underline-position="-75" underline-thickness="50" />
<missing-glyph  horiz-adv-x="222" d="" />
<glyph glyph-name="NULL" d="" />
<glyph glyph-name="CR" unicode="&#xd;" horiz-adv-x="250" d="" />
<glyph glyph-name="space" unicode="&#x20;" horiz-adv-x="222" d="" />
<glyph glyph-name="exclam" unicode="&#x21;" horiz-adv-x="333" d="M129 0 L203 0 L203 76 L129 76 L129 0 Z M192 170 L201 722 L131 722 L140 170 L192 170 Z " />
<glyph glyph-name="quotedbl" unicode="&#x22;" horiz-adv-x="309" d="M73 515 L125 515 L125 722 L73 722 L73 515 Z M184 515 L236 515 L236 722 L184 722 L184 515 Z " />
<glyph glyph-name="numbersign" unicode="&#x23;" horiz-adv-x="444" d="M50 0 L102 0 L148 233 L225 233 L179 0 L234 0 L278 233 L378 233 L388 281 L285 281 L310 404 L412 404 L422 452 L317 452 L364 697 L312 697 L265 452 L188 452 L236 697 L184 697 L136 452 L31 452 L20 404 L129 404 L104 281 L-3 281 L-14 233 L96 233 L50 0 Z M155 281 L182 404 L258 404 L232 281 L155 281 Z " />
<glyph glyph-name="dollar" unicode="&#x24;" horiz-adv-x="444" d="M203 404 C151 436 110 474 110 547 C110 618 147 647 203 654 L203 404 Z M243 310 C298 276 342 235 342 156 C342 79 310 48 243 43 L243 310 Z M243 -11 C348 -4 406 52 406 173 C406 297 321 339 243 382 L243 654 C322 648 339 599 339 517 L403 517 C407 641 359 704 243 708 L243 771 L203 771 L203 708 C112 698 46 647 46 540 C46 421 126 377 203 333 L203 43 C120 51 102 99 102 192 L38 192 C38 58 88 -4 203 -11 L203 -89 L243 -89 L243 -11 Z " />
<glyph glyph-name="percent" unicode="&#x25;" horiz-adv-x="778" d="M205 344 C320 344 335 448 335 538 C335 626 305 708 205 708 C92 708 75 610 75 520 C75 429 97 344 205 344 L205 344 Z M205 392 C131 392 127 473 127 526 C127 580 135 660 205 660 C275 660 283 580 283 526 C283 473 279 392 205 392 L205 392 Z M573 -11 C688 -11 703 93 703 183 C703 271 673 353 573 353 C460 353 443 255 443 165 C443 74 465 -11 573 -11 L573 -11 Z M573 37 C499 37 495 118 495 171 C495 225 503 305 573 305 C643 305 651 225 651 171 C651 118 647 37 573 37 L573 37 Z M256 -39 L560 722 L514 722 L210 -39 L256 -39 Z " />
<glyph glyph-name="ampersand" unicode="&#x26;" horiz-adv-x="611" d="M420 122 C393 70 333 40 276 40 C178 40 122 88 122 190 C122 276 161 306 228 354 L420 122 Z M241 431 C197 483 162 518 162 590 C162 650 201 682 259 682 C323 682 347 645 347 587 C347 513 296 471 241 431 L241 431 Z M515 0 L597 0 L493 127 C530 222 535 350 535 405 L475 405 C475 350 466 236 449 182 L279 388 C346 444 411 487 411 583 C411 700 354 736 264 736 C153 736 98 688 98 577 C98 494 141 457 190 397 C106 334 58 301 58 189 C58 34 154 -14 249 -14 C337 -14 402 1 461 72 L515 0 Z " />
<glyph glyph-name="quotesingle" unicode="&#x27;" horiz-adv-x="198" d="M73 515 L125 515 L125 722 L73 722 L73 515 Z " />
<glyph glyph-name="parenleft" unicode="&#x28;" horiz-adv-x="222" d="M147 743 C97 598 61 448 61 294 C61 148 99 6 143 -132 L192 -132 C151 11 125 160 125 309 C125 456 156 601 192 743 L147 743 Z " />
<glyph glyph-name="parenright" unicode="&#x29;" horiz-adv-x="222" d="M30 743 C66 601 97 456 97 309 C97 160 71 11 30 -132 L79 -132 C123 6 161 148 161 294 C161 448 125 598 75 743 L30 743 Z " />
<glyph glyph-name="asterisk" unicode="&#x2a;" horiz-adv-x="444" d="M222 610 L162 736 L117 708 L194 596 L58 607 L58 554 L194 568 L115 454 L163 425 L222 552 L281 425 L329 454 L250 568 L386 554 L386 607 L250 596 L327 708 L282 736 L222 610 Z " />
<glyph glyph-name="plus" unicode="&#x2b;" horiz-adv-x="444" d="M196 227 L196 0 L248 0 L248 227 L424 227 L424 279 L248 279 L248 505 L196 505 L196 279 L20 279 L20 227 L196 227 Z " />
<glyph glyph-name="comma" unicode="&#x2c;" horiz-adv-x="222" d="M54 -105 L107 -105 L167 76 L94 76 L54 -105 Z " />
<glyph glyph-name="hyphen" unicode="&#x2d;" horiz-adv-x="278" d="M240 238 L240 295 L38 295 L38 238 L240 238 Z " />
<glyph glyph-name="period" unicode="&#x2e;" horiz-adv-x="222" d="M74 0 L148 0 L148 76 L74 76 L74 0 Z " />
<glyph glyph-name="slash" unicode="&#x2f;" horiz-adv-x="333" d="M51 -110 L335 722 L281 722 L-2 -110 L51 -110 Z " />
<glyph glyph-name="zero" unicode="0" horiz-adv-x="444" d="M108 485 C108 642 177 654 222 654 C267 654 336 642 336 485 L336 212 C336 55 267 43 222 43 C177 43 108 55 108 212 L108 485 Z M222 708 C44 708 44 555 44 424 L44 273 C44 142 44 -11 222 -11 C400 -11 400 142 400 273 L400 424 C400 555 400 708 222 708 L222 708 Z " />
<glyph glyph-name="one" unicode="1" horiz-adv-x="444" d="M89 519 C133 548 173 581 211 617 L211 0 L271 0 L271 697 L215 697 C180 654 135 620 89 588 L89 519 Z " />
<glyph glyph-name="two" unicode="2" horiz-adv-x="444" d="M394 54 L109 54 C342 404 393 461 393 563 C393 682 296 708 215 708 C134 708 41 666 41 527 L101 527 C101 599 139 654 215 654 C270 654 329 642 329 549 C329 456 194 296 39 56 L39 0 L394 0 L394 54 Z " />
<glyph glyph-name="three" unicode="3" horiz-adv-x="444" d="M171 334 C298 344 330 296 330 176 C330 102 304 43 211 43 C132 43 96 95 98 171 L34 171 C30 46 99 -11 220 -11 C334 -11 394 62 394 190 C394 272 375 350 278 360 L278 362 C366 383 387 457 387 538 C387 662 322 708 205 708 C96 708 37 630 44 527 L108 527 C105 599 133 654 213 654 C292 654 323 606 323 530 C323 426 274 379 171 388 L171 334 Z " />
<glyph glyph-name="four" unicode="4" horiz-adv-x="444" d="M82 228 L276 637 L278 637 L278 228 L82 228 Z M338 697 L243 697 L28 232 L28 174 L278 174 L278 0 L338 0 L338 174 L420 174 L420 228 L338 228 L338 697 Z " />
<glyph glyph-name="five" unicode="5" horiz-adv-x="444" d="M243 446 C188 446 160 431 120 394 L120 643 L381 643 L381 697 L60 697 L60 319 L118 319 C128 367 182 392 227 392 C338 392 345 305 345 218 C345 135 334 43 229 43 C146 43 115 88 117 167 L53 167 C50 45 111 -11 230 -11 C380 -11 409 102 409 218 C409 302 414 446 243 446 L243 446 Z " />
<glyph glyph-name="six" unicode="6" horiz-adv-x="444" d="M335 224 C335 141 330 43 222 43 C90 43 104 212 104 218 C104 337 154 385 227 385 C309 385 335 332 335 224 L335 224 Z M392 542 C390 651 338 708 230 708 C76 708 44 624 44 455 L44 227 C44 88 60 -11 230 -11 C384 -11 400 106 400 242 C400 263 411 439 243 439 C182 439 132 414 106 363 L104 362 L104 423 C104 529 106 654 226 654 C296 654 324 611 328 542 L392 542 Z " />
<glyph glyph-name="seven" unicode="7" horiz-adv-x="444" d="M32 643 L324 643 L100 0 L170 0 L385 633 L385 697 L32 697 L32 643 Z " />
<glyph glyph-name="eight" unicode="8" horiz-adv-x="444" d="M222 388 C138 388 111 445 111 525 C111 607 133 660 222 660 C311 660 333 607 333 525 C333 445 306 388 222 388 L222 388 Z M294 367 C381 385 397 455 397 534 C397 598 392 708 222 708 C52 708 47 598 47 534 C47 455 63 385 148 367 L150 365 C55 344 40 274 40 189 C40 98 64 -11 222 -11 C380 -11 404 98 404 189 C404 274 389 344 294 365 L294 367 Z M222 37 C132 37 104 100 104 181 C104 256 112 340 222 340 C332 340 340 256 340 181 C340 100 312 37 222 37 L222 37 Z " />
<glyph glyph-name="nine" unicode="9" horiz-adv-x="444" d="M216 329 C120 329 108 417 108 494 C108 574 122 654 220 654 C335 654 336 573 336 486 C336 440 332 329 216 329 L216 329 Z M210 275 C260 275 308 293 338 336 L340 336 C335 120 342 43 215 43 C142 43 114 86 115 155 L51 155 C54 37 106 -11 223 -11 C396 -11 400 98 400 352 L400 438 C400 606 394 708 218 708 C79 708 44 616 44 494 C44 346 87 275 210 275 L210 275 Z " />
<glyph glyph-name="colon" unicode="&#x3a;" horiz-adv-x="222" d="M74 0 L148 0 L148 76 L74 76 L74 0 Z M74 429 L148 429 L148 505 L74 505 L74 429 Z " />
<glyph glyph-name="semicolon" unicode="&#x3b;" horiz-adv-x="222" d="M40 -105 L93 -105 L153 76 L80 76 L40 -105 Z M74 429 L148 429 L148 505 L74 505 L74 429 Z " />
<glyph glyph-name="less" unicode="&#x3c;" horiz-adv-x="444" d="M20 231 L424 -4 L424 52 L73 253 L424 453 L424 509 L20 275 L20 231 Z " />
<glyph glyph-name="equal" unicode="&#x3d;" horiz-adv-x="444" d="M424 368 L20 368 L20 316 L424 316 L424 368 Z M424 190 L20 190 L20 138 L424 138 L424 190 Z " />
<glyph glyph-name="greater" unicode="&#x3e;" horiz-adv-x="444" d="M424 275 L20 509 L20 453 L371 253 L20 52 L20 -4 L424 231 L424 275 Z " />
<glyph glyph-name="question" unicode="&#x3f;" horiz-adv-x="389" d="M209 170 L209 264 C209 378 318 380 318 569 C318 682 291 736 175 736 C70 736 34 665 38 569 L102 569 C100 624 108 682 176 682 C251 682 254 635 254 570 C254 386 149 422 149 257 L149 170 L209 170 Z M143 0 L217 0 L217 76 L143 76 L143 0 Z " />
<glyph glyph-name="at" unicode="&#x40;" horiz-adv-x="800" d="M578 546 L560 482 C543 537 501 561 444 561 C325 561 246 432 246 324 C246 230 302 173 380 173 C471 173 508 247 520 271 C518 264 516 255 516 243 C516 196 555 173 596 173 C691 173 800 275 800 435 C800 638 637 736 466 736 C265 736 65 601 65 352 C65 133 225 -14 450 -14 C576 -14 665 28 753 92 L728 125 C653 72 571 30 453 30 C255 30 111 154 111 349 C111 566 277 692 466 692 C616 692 753 611 753 440 C753 312 677 223 614 223 C589 223 558 227 558 264 C558 285 567 315 574 340 L635 546 L578 546 Z M315 319 C315 395 368 524 454 524 C488 524 532 507 532 433 C532 391 495 211 394 211 C338 211 315 254 315 319 L315 319 Z " />
<glyph glyph-name="A" unicode="A" horiz-adv-x="556" d="M241 722 L14 0 L78 0 L134 190 L417 190 L475 0 L542 0 L317 722 L241 722 Z M153 244 L275 652 L277 652 L400 244 L153 244 Z " />
<glyph glyph-name="B" unicode="B" horiz-adv-x="501" d="M136 401 L136 668 L263 668 C314 668 380 666 380 546 C380 464 351 401 259 401 L136 401 Z M276 0 C397 0 459 71 459 201 C459 292 434 355 339 375 L339 377 C430 402 444 462 444 549 C444 676 386 722 273 722 L72 722 L72 0 L276 0 Z M136 347 L266 347 C376 347 395 260 395 196 C395 90 344 54 238 54 L136 54 L136 347 Z " />
<glyph glyph-name="C" unicode="C" horiz-adv-x="500" d="M393 207 C392 114 361 40 278 40 C126 40 124 169 124 361 C124 553 126 682 278 682 C370 682 392 607 392 527 L456 527 C456 592 453 736 278 736 C62 736 60 556 60 361 C60 166 62 -14 278 -14 C449 -14 461 155 461 207 L393 207 Z " />
<glyph glyph-name="D" unicode="D" horiz-adv-x="558" d="M136 668 L216 668 C394 668 422 608 422 401 C422 106 403 54 210 54 L136 54 L136 668 Z M72 0 L233 0 C451 0 486 118 486 358 C486 604 461 722 259 722 L72 722 L72 0 Z " />
<glyph glyph-name="E" unicode="E" horiz-adv-x="445" d="M72 722 L72 0 L406 0 L406 54 L136 54 L136 344 L387 344 L387 398 L136 398 L136 668 L399 668 L399 722 L72 722 Z " />
<glyph glyph-name="F" unicode="F" horiz-adv-x="390" d="M72 0 L136 0 L136 344 L360 344 L360 398 L136 398 L136 668 L377 668 L377 722 L72 722 L72 0 Z " />
<glyph glyph-name="G" unicode="G" horiz-adv-x="557" d="M414 61 C379 48 333 40 278 40 C122 40 124 179 124 361 C124 543 122 682 278 682 C380 682 421 632 421 537 L485 537 C488 677 417 736 278 736 C43 736 60 501 60 361 C60 221 43 -14 278 -14 C346 -14 413 -4 478 16 L478 377 L267 377 L267 323 L414 323 L414 61 Z " />
<glyph glyph-name="H" unicode="H" horiz-adv-x="558" d="M136 0 L136 344 L422 344 L422 0 L486 0 L486 722 L422 722 L422 398 L136 398 L136 722 L72 722 L72 0 L136 0 Z " />
<glyph glyph-name="I" unicode="I" horiz-adv-x="208" d="M72 722 L72 0 L136 0 L136 722 L72 722 Z " />
<glyph glyph-name="J" unicode="J" horiz-adv-x="445" d="M25 204 C25 100 39 -14 197 -14 C219 -14 373 -14 373 156 L373 722 L309 722 L309 165 C309 70 257 40 198 40 C97 40 89 124 89 204 L25 204 Z " />
<glyph glyph-name="K" unicode="K" horiz-adv-x="501" d="M136 0 L136 370 L138 370 L399 0 L479 0 L201 385 L471 722 L394 722 L138 391 L136 391 L136 722 L72 722 L72 0 L136 0 Z " />
<glyph glyph-name="L" unicode="L" horiz-adv-x="390" d="M375 0 L375 54 L136 54 L136 722 L72 722 L72 0 L375 0 Z " />
<glyph glyph-name="M" unicode="M" horiz-adv-x="780" d="M136 0 L136 660 L138 660 L356 0 L430 0 L642 660 L644 660 L644 0 L708 0 L708 722 L606 722 L396 70 L394 70 L181 722 L72 722 L72 0 L136 0 Z " />
<glyph glyph-name="N" unicode="N" horiz-adv-x="601" d="M136 0 L136 639 L138 641 L432 0 L529 0 L529 722 L465 722 L465 90 L463 88 L170 722 L72 722 L72 0 L136 0 Z " />
<glyph glyph-name="O" unicode="O" horiz-adv-x="556" d="M124 361 C124 553 126 682 278 682 C430 682 432 553 432 361 C432 169 430 40 278 40 C126 40 124 169 124 361 L124 361 Z M60 361 C60 166 62 -14 278 -14 C494 -14 496 166 496 361 C496 556 494 736 278 736 C62 736 60 556 60 361 L60 361 Z " />
<glyph glyph-name="P" unicode="P" horiz-adv-x="445" d="M72 0 L136 0 L136 336 L258 336 C382 336 429 402 429 547 C429 714 330 722 270 722 L72 722 L72 0 Z M136 668 L254 668 C312 668 365 658 365 535 C365 422 322 390 255 390 L136 390 L136 668 Z " />
<glyph glyph-name="Q" unicode="Q" horiz-adv-x="556" d="M278 50 C138 50 124 153 124 361 C124 553 126 682 278 682 C430 682 432 553 432 361 C432 178 414 50 278 50 L278 50 Z M60 361 C60 132 61 -4 309 -4 C330 -4 346 -3 361 -2 C375 -1 389 0 404 0 L542 0 L542 54 L416 54 L414 56 C481 100 496 172 496 361 C496 556 494 736 278 736 C62 736 60 556 60 361 L60 361 Z " />
<glyph glyph-name="R" unicode="R" horiz-adv-x="501" d="M257 350 C396 350 375 211 376 180 C377 141 380 21 386 0 L447 0 C445 28 440 56 440 84 C440 342 434 354 333 375 L333 377 C430 399 445 459 445 549 C445 676 410 722 271 722 L72 722 L72 0 L136 0 L136 350 L257 350 Z M136 668 L267 668 C342 668 381 649 381 550 C381 429 336 404 240 404 L136 404 L136 668 Z " />
<glyph glyph-name="S" unicode="S" horiz-adv-x="502" d="M444 539 C444 643 412 736 262 736 C144 736 65 684 66 559 C67 487 73 444 213 358 C317 294 382 266 382 168 C382 85 341 40 257 40 C128 40 122 123 122 203 L56 203 C50 62 113 -14 254 -14 C380 -14 446 49 446 178 C446 318 355 337 266 401 C184 460 130 463 130 570 C130 655 179 682 257 682 C355 682 377 628 379 539 L444 539 Z " />
<glyph glyph-name="T" unicode="T" horiz-adv-x="446" d="M191 0 L255 0 L255 668 L431 668 L431 722 L15 722 L15 668 L191 668 L191 0 Z " />
<glyph glyph-name="U" unicode="U" horiz-adv-x="558" d="M486 722 L422 722 L422 268 C422 174 422 40 279 40 C136 40 136 174 136 268 L136 722 L72 722 L72 221 C72 35 170 -14 279 -14 C388 -14 486 35 486 221 L486 722 Z " />
<glyph glyph-name="V" unicode="V" horiz-adv-x="500" d="M250 76 L248 76 L78 722 L10 722 L210 0 L290 0 L490 722 L428 722 L250 76 Z " />
<glyph glyph-name="W" unicode="W" horiz-adv-x="833" d="M226 84 L224 84 L78 722 L10 722 L184 0 L264 0 L413 642 L415 642 L560 0 L644 0 L823 722 L760 722 L606 89 L604 89 L459 722 L373 722 L226 84 Z " />
<glyph glyph-name="X" unicode="X" horiz-adv-x="500" d="M24 722 L203 373 L10 0 L78 0 L244 330 L415 0 L490 0 L287 373 L473 722 L405 722 L247 421 L94 722 L24 722 Z " />
<glyph glyph-name="Y" unicode="Y" horiz-adv-x="500" d="M217 0 L281 0 L281 300 L487 722 L423 722 L250 363 L85 722 L13 722 L217 300 L217 0 Z " />
<glyph glyph-name="Z" unicode="Z" horiz-adv-x="444" d="M44 722 L44 668 L354 668 L24 71 L24 0 L420 0 L420 54 L90 54 L417 651 L417 722 L44 722 Z " />
<glyph glyph-name="bracketleft" unicode="&#x5b;" horiz-adv-x="222" d="M75 -132 L214 -132 L214 -84 L135 -84 L135 695 L214 695 L214 743 L75 743 L75 -132 Z " />
<glyph glyph-name="backslash" unicode="&#x5c;" horiz-adv-x="333" d="M335 -110 L52 722 L-2 722 L282 -110 L335 -110 Z " />
<glyph glyph-name="bracketright" unicode="&#x5d;" horiz-adv-x="222" d="M147 743 L8 743 L8 695 L87 695 L87 -84 L8 -84 L8 -132 L147 -132 L147 743 Z " />
<glyph glyph-name="asciicircum" unicode="&#x5e;" horiz-adv-x="444" d="M201 708 L66 298 L113 298 L220 632 L222 632 L331 298 L378 298 L243 708 L201 708 Z " />
<glyph glyph-name="underscore" unicode="&#x5f;" horiz-adv-x="500" d="M500 -124 L500 -68 L0 -68 L0 -124 L500 -124 Z " />
<glyph glyph-name="grave" unicode="&#x60;" horiz-adv-x="278" d="M203 617 L90 754 L10 754 L153 617 L203 617 Z " />
<glyph glyph-name="a" unicode="a" horiz-adv-x="452" d="M329 166 C329 100 273 38 204 38 C142 38 113 85 113 142 C113 265 243 255 329 258 L329 166 Z M333 0 L395 0 C389 59 389 91 389 127 L389 381 C389 510 283 515 232 515 C144 515 69 477 64 380 L128 380 C128 440 172 467 227 467 C307 467 329 422 329 348 L329 306 C227 298 49 316 49 139 C49 51 98 -10 188 -10 C250 -10 299 14 331 62 L333 62 L333 0 Z " />
<glyph glyph-name="b" unicode="b" horiz-adv-x="453" d="M121 260 C121 336 133 467 230 467 C341 467 344 369 344 251 C344 133 341 38 230 38 C121 38 121 180 121 260 L121 260 Z M119 0 L119 61 L121 61 C146 14 189 -10 248 -10 C395 -10 404 142 404 253 C404 343 417 515 253 515 C196 515 156 494 125 446 L123 448 L123 722 L63 722 L63 50 C63 33 60 17 57 0 L119 0 Z " />
<glyph glyph-name="c" unicode="c" horiz-adv-x="391" d="M357 360 C362 466 303 515 216 515 C147 515 90 489 64 417 C51 379 49 300 49 250 C49 125 49 -10 220 -10 C267 -10 363 13 358 149 L298 149 C295 88 285 38 206 38 C113 38 113 159 113 250 C113 317 119 386 127 409 C140 446 171 467 208 467 C277 467 300 423 297 360 L357 360 Z " />
<glyph glyph-name="d" unicode="d" horiz-adv-x="453" d="M332 260 C332 180 332 38 223 38 C112 38 109 133 109 251 C109 369 112 467 223 467 C320 467 332 336 332 260 L332 260 Z M396 0 C393 17 390 33 390 50 L390 722 L330 722 L330 448 L328 446 C297 494 257 515 200 515 C36 515 49 343 49 253 C49 142 58 -10 205 -10 C264 -10 307 14 332 61 L334 61 L334 0 L396 0 Z " />
<glyph glyph-name="e" unicode="e" horiz-adv-x="446" d="M397 240 C397 390 397 515 223 515 C110 515 49 448 49 302 L49 178 C49 25 136 -10 223 -10 C324 -10 390 32 397 154 L334 154 C335 86 298 38 223 38 C128 38 109 131 109 201 L109 240 L397 240 Z M109 288 C109 400 127 467 223 467 C319 467 337 400 337 288 L109 288 Z " />
<glyph glyph-name="f" unicode="f" horiz-adv-x="278" d="M100 0 L160 0 L160 457 L262 457 L262 505 L160 505 L160 591 C160 620 160 672 218 672 L263 672 L263 722 C248 724 238 726 229 726 C107 726 100 638 100 590 L100 505 L19 505 L19 457 L100 457 L100 0 Z " />
<glyph glyph-name="g" unicode="g" horiz-adv-x="453" d="M330 321 C330 173 326 150 311 111 C302 87 270 54 218 54 C109 54 109 159 109 264 C109 339 111 467 215 467 C273 467 330 427 330 321 L330 321 Z M334 442 L332 444 C310 489 259 515 206 515 C104 515 69 436 64 415 C50 361 49 360 49 243 C49 131 59 6 204 6 C254 6 302 24 328 67 L330 67 C330 -84 337 -147 220 -147 C164 -147 121 -113 125 -55 L65 -55 C61 -106 86 -195 212 -195 C356 -195 390 -129 390 -18 L390 407 C390 433 391 458 393 506 L334 506 L334 442 Z " />
<glyph glyph-name="h" unicode="h" horiz-adv-x="448" d="M63 0 L123 0 L123 317 C123 430 178 467 232 467 C302 467 325 412 325 353 L325 0 L385 0 L385 356 C385 422 372 515 247 515 C193 515 154 488 125 449 L123 449 L123 722 L63 722 L63 0 Z " />
<glyph glyph-name="i" unicode="i" horiz-adv-x="186" d="M123 0 L123 505 L63 505 L63 0 L123 0 Z M130 646 L130 722 L56 722 L56 646 L130 646 Z " />
<glyph glyph-name="j" unicode="j" horiz-adv-x="186" d="M63 505 L63 -60 C63 -126 55 -146 -19 -141 L-19 -191 C-14 -193 3 -195 25 -195 C111 -195 123 -130 123 -93 L123 505 L63 505 Z M130 646 L130 722 L56 722 L56 646 L130 646 Z " />
<glyph glyph-name="k" unicode="k" horiz-adv-x="391" d="M63 0 L123 0 L123 275 L125 275 L305 0 L381 0 L190 280 L369 505 L299 505 L125 282 L123 282 L123 722 L63 722 L63 0 Z " />
<glyph glyph-name="l" unicode="l" horiz-adv-x="186" d="M63 0 L123 0 L123 722 L63 722 L63 0 Z " />
<glyph glyph-name="m" unicode="m" horiz-adv-x="672" d="M123 325 C123 391 152 467 228 467 C287 467 305 411 306 361 L306 0 L366 0 L366 325 C366 391 395 467 471 467 C530 467 548 411 549 361 L549 0 L609 0 L609 376 C606 457 562 515 478 515 C422 515 379 486 354 436 C337 486 291 515 239 515 C183 515 143 484 119 443 L117 443 L117 506 L63 506 L63 0 L123 0 L123 325 Z " />
<glyph glyph-name="n" unicode="n" horiz-adv-x="448" d="M63 0 L123 0 L123 317 C123 430 178 467 232 467 C302 467 325 412 325 353 L325 0 L385 0 L385 356 C385 422 372 515 247 515 C186 515 147 485 118 443 L116 443 L116 505 L63 505 L63 0 Z " />
<glyph glyph-name="o" unicode="o" horiz-adv-x="446" d="M223 -10 C341 -10 397 67 397 198 L397 307 C397 438 341 515 223 515 C105 515 49 438 49 307 L49 198 C49 67 105 -10 223 -10 L223 -10 Z M223 467 C322 467 337 384 337 253 C337 121 322 38 223 38 C124 38 109 121 109 253 C109 384 124 467 223 467 L223 467 Z " />
<glyph glyph-name="p" unicode="p" horiz-adv-x="453" d="M123 298 C123 423 191 467 230 467 C329 467 344 384 344 253 C344 121 329 38 230 38 C175 38 123 93 123 208 L123 298 Z M121 505 L63 505 L63 -191 L123 -191 L123 57 L125 56 C156 8 193 -10 230 -10 C359 -10 404 67 404 198 L404 311 C404 377 403 515 245 515 C205 515 155 494 123 445 L121 444 L121 505 Z " />
<glyph glyph-name="q" unicode="q" horiz-adv-x="453" d="M330 208 C330 93 278 38 223 38 C124 38 109 121 109 253 C109 384 124 467 223 467 C262 467 330 423 330 298 L330 208 Z M390 505 L332 505 L332 444 L330 445 C298 494 248 515 208 515 C50 515 49 377 49 311 L49 198 C49 67 94 -10 223 -10 C260 -10 297 8 328 56 L330 57 L330 -191 L390 -191 L390 505 Z " />
<glyph glyph-name="r" unicode="r" horiz-adv-x="280" d="M123 505 L63 505 L63 0 L123 0 L123 325 C123 410 179 461 264 454 L264 515 C203 515 150 485 125 437 L123 437 L123 505 Z " />
<glyph glyph-name="s" unicode="s" horiz-adv-x="398" d="M349 133 C349 302 122 268 122 394 C122 439 156 467 199 467 C267 467 284 433 287 369 L346 369 C346 446 314 515 214 515 C126 515 62 482 62 389 C62 222 289 256 289 124 C289 68 261 35 203 35 C126 35 110 81 110 150 L49 150 C48 43 91 -10 200 -10 C294 -10 349 38 349 133 L349 133 Z " />
<glyph glyph-name="t" unicode="t" horiz-adv-x="278" d="M100 457 L100 96 C100 34 124 -2 205 -2 C224 -2 244 -1 262 1 L262 53 C249 51 235 50 215 50 C167 50 160 66 160 133 L160 457 L262 457 L262 505 L160 505 L160 635 L100 609 L100 505 L19 505 L19 457 L100 457 Z " />
<glyph glyph-name="u" unicode="u" horiz-adv-x="448" d="M385 505 L325 505 L325 188 C325 75 270 38 216 38 C146 38 123 93 123 152 L123 505 L63 505 L63 149 C63 83 76 -10 201 -10 C262 -10 301 20 330 62 L332 62 L332 0 L385 0 L385 505 Z " />
<glyph glyph-name="v" unicode="v" horiz-adv-x="389" d="M75 505 L10 505 L160 0 L229 0 L379 505 L321 505 L198 76 L196 76 L75 505 Z " />
<glyph glyph-name="w" unicode="w" horiz-adv-x="667" d="M149 0 L224 0 L330 432 L332 432 L443 0 L518 0 L657 505 L597 505 L484 63 L482 63 L370 505 L296 505 L189 63 L187 63 L74 505 L10 505 L149 0 Z " />
<glyph glyph-name="x" unicode="x" horiz-adv-x="389" d="M11 0 L78 0 L194 219 L305 0 L378 0 L232 272 L364 505 L298 505 L198 315 L106 505 L34 505 L159 269 L11 0 Z " />
<glyph glyph-name="y" unicode="y" horiz-adv-x="389" d="M111 -191 L170 -191 L379 505 L319 505 L200 91 L198 91 L75 505 L10 505 L170 -1 L111 -191 Z " />
<glyph glyph-name="z" unicode="z" horiz-adv-x="334" d="M29 0 L305 0 L305 48 L95 48 L300 455 L300 505 L41 505 L41 457 L239 457 L29 49 L29 0 Z " />
<glyph glyph-name="braceleft" unicode="&#x7b;" horiz-adv-x="222" d="M75 435 C75 396 57 336 -7 336 L-7 288 C57 288 75 228 75 189 L75 -18 C75 -119 143 -132 222 -132 L222 -84 C153 -84 139 -52 139 -2 L139 186 C139 256 126 298 52 311 L52 313 C131 337 139 384 139 452 L139 613 C139 663 153 695 222 695 L222 743 C143 743 75 730 75 629 L75 435 Z " />
<glyph glyph-name="bar" unicode="&#x7c;" horiz-adv-x="222" d="M85 -250 L137 -250 L137 750 L85 750 L85 -250 Z " />
<glyph glyph-name="braceright" unicode="&#x7d;" horiz-adv-x="222" d="M147 629 C147 730 79 743 0 743 L0 695 C69 695 83 663 83 613 L83 452 C83 384 91 337 170 313 L170 311 C96 298 83 256 83 186 L83 -2 C83 -52 69 -84 0 -84 L0 -132 C79 -132 147 -119 147 -18 L147 189 C147 228 165 288 229 288 L229 336 C165 336 147 396 147 435 L147 629 Z " />
<glyph glyph-name="asciitilde" unicode="&#x7e;" horiz-adv-x="444" d="M54 185 C72 214 93 252 135 252 C159 252 182 240 203 232 C230 222 281 200 311 200 C364 200 400 242 424 281 L391 321 C375 289 347 254 311 254 C291 254 261 267 229 280 C198 293 164 306 135 306 C79 306 46 261 20 220 L54 185 Z " />
<glyph glyph-name="exclamdown" unicode="&#xa1;" horiz-adv-x="333" d="M129 439 L203 439 L203 515 L129 515 L129 439 Z M141 345 L132 -191 L202 -191 L193 345 L141 345 Z " />
<glyph glyph-name="cent" unicode="&#xa2;" horiz-adv-x="444" d="M154 67 C110 98 114 184 114 234 C114 318 106 480 213 480 C226 480 236 477 249 473 L154 67 Z M172 -7 C192 -9 212 -11 232 -11 C332 -11 394 60 394 193 L334 193 C334 100 300 43 233 43 C218 43 204 45 189 49 L284 461 C322 437 330 396 330 353 L390 353 C394 424 368 489 298 520 L327 648 L290 648 L263 530 C244 534 235 534 221 534 C50 534 50 352 50 254 C50 94 66 52 137 3 L97 -156 L137 -156 L172 -7 Z " />
<glyph glyph-name="sterling" unicode="&#xa3;" horiz-adv-x="444" d="M398 0 L398 54 L153 54 L153 345 L303 345 L303 399 L153 399 L153 532 C153 602 180 654 252 654 C333 654 350 599 345 529 L409 529 C413 651 374 708 249 708 C172 708 93 668 93 527 L93 399 L12 399 L12 345 L93 345 L93 54 L19 54 L19 0 L398 0 Z " />
<glyph glyph-name="currency" unicode="&#xa4;" horiz-adv-x="444" d="M88 107 C127 79 169 62 222 62 C275 62 317 79 356 107 L396 68 L443 116 L404 154 C433 196 447 236 447 287 C447 340 435 380 404 423 L443 462 L396 509 L356 471 C316 501 268 515 222 515 C176 515 128 501 88 471 L48 509 L1 462 L40 423 C9 380 -3 340 -3 287 C-3 236 11 196 40 154 L1 116 L48 68 L88 107 Z M222 116 C123 115 60 209 61 287 C62 391 118 459 222 461 C326 459 382 391 383 287 C384 209 321 115 222 116 L222 116 Z " />
<glyph glyph-name="yen" unicode="&#xa5;" horiz-adv-x="444" d="M191 211 L44 211 L44 157 L191 157 L191 0 L251 0 L251 157 L400 157 L400 211 L251 211 L251 276 L400 276 L400 330 L271 330 L447 697 L378 697 L222 363 L73 697 L-3 697 L172 330 L44 330 L44 276 L191 276 L191 211 Z " />
<glyph glyph-name="brokenbar" unicode="&#xa6;" horiz-adv-x="222" d="M85 -175 L137 -175 L137 175 L85 175 L85 -175 Z M85 675 L85 325 L137 325 L137 675 L85 675 Z " />
<glyph glyph-name="section" unicode="&#xa7;" horiz-adv-x="444" d="M77 5 C98 0 145 -14 215 -14 C315 -14 379 38 379 119 C379 190 331 228 272 255 C313 283 376 322 376 378 C376 510 142 510 142 620 C142 669 191 688 232 688 C271 688 310 672 347 656 L347 712 C311 728 274 736 237 736 C160 736 78 707 78 616 C78 549 127 510 179 479 C133 453 65 432 65 359 C65 243 315 223 315 120 C315 59 259 34 205 34 C165 34 114 48 77 62 L77 5 Z M228 278 C192 297 129 322 129 369 C129 408 198 440 223 455 C256 439 312 418 312 374 C312 332 257 302 228 278 L228 278 Z " />
<glyph glyph-name="dieresis" unicode="&#xa8;" horiz-adv-x="278" d="M28 630 L92 630 L92 731 L28 731 L28 630 Z M186 630 L250 630 L250 731 L186 731 L186 630 Z " />
<glyph glyph-name="copyright" unicode="&#xa9;" horiz-adv-x="800" d="M545 463 C538 561 460 586 403 586 C260 586 230 446 230 359 C230 277 257 141 395 141 C465 141 535 178 543 261 L483 261 C481 247 471 189 400 189 C309 189 290 281 290 359 C290 429 305 538 400 538 C477 538 484 478 485 463 L545 463 Z M26 360 C26 153 193 -14 400 -14 C607 -14 775 153 775 360 C775 568 607 736 400 736 C193 736 26 568 26 360 L26 360 Z M400 31 C219 31 71 179 71 361 C71 543 219 691 400 691 C582 691 730 543 730 361 C730 179 582 31 400 31 L400 31 Z " />
<glyph glyph-name="ordfeminine" unicode="&#xaa;" horiz-adv-x="266" d="M200 527 C200 488 165 450 120 450 C80 450 61 476 61 513 C61 587 145 581 200 582 L200 527 Z M244 428 C240 463 240 482 240 504 L240 656 C240 734 171 736 138 736 C81 736 32 714 29 656 L71 656 C71 692 99 706 135 706 C187 706 200 681 200 636 L200 612 C135 608 19 617 19 511 C19 455 51 420 110 420 C150 420 182 436 203 467 L205 467 L205 428 L244 428 Z " />
<glyph glyph-name="guillemotleft" unicode="&#xab;" horiz-adv-x="389" d="M284 90 L337 90 L261 284 L339 478 L287 478 L197 284 L284 90 Z M137 90 L190 90 L114 284 L192 478 L140 478 L50 284 L137 90 Z " />
<glyph glyph-name="logicalnot" unicode="&#xac;" horiz-adv-x="444" d="M20 368 L20 316 L372 316 L372 93 L424 93 L424 368 L20 368 Z " />
<glyph glyph-name="registered" unicode="&#xae;" horiz-adv-x="800" d="M215 447 L243 447 L243 539 L278 539 C311 539 319 531 322 500 C326 468 328 460 332 447 L361 447 C354 467 352 486 349 511 C346 536 339 545 318 550 C356 561 356 593 356 599 C356 650 302 650 287 650 L215 650 L215 447 Z M243 626 L287 626 C302 626 327 626 327 594 C327 563 301 563 287 563 L243 563 L243 626 Z M284 736 C183 736 95 653 95 547 C95 441 182 357 284 357 C387 357 473 441 473 547 C473 652 388 736 284 736 L284 736 Z M284 705 C373 705 442 632 442 547 C442 459 371 388 284 388 C198 388 126 458 126 547 C126 634 198 705 284 705 L284 705 Z " />
<glyph glyph-name="macron" unicode="&#xaf;" horiz-adv-x="278" d="M9 707 L9 659 L269 659 L269 707 L9 707 Z " />
<glyph glyph-name="degree" unicode="&#xb0;" horiz-adv-x="400" d="M350 558 C350 640 282 708 200 708 C117 708 49 640 50 558 C50 475 117 408 200 408 C282 408 350 475 350 558 L350 558 Z M310 558 C310 497 260 448 200 448 C139 448 90 497 90 558 C89 618 139 668 199 668 C260 668 310 618 310 558 L310 558 Z " />
<glyph glyph-name="plusminus" unicode="&#xb1;" horiz-adv-x="444" d="M196 279 L196 105 L248 105 L248 279 L424 279 L424 331 L248 331 L248 505 L196 505 L196 331 L20 331 L20 279 L196 279 Z M424 52 L20 52 L20 0 L424 0 L424 52 Z " />
<glyph glyph-name="twosuperior" unicode="&#xb2;" horiz-adv-x="266" d="M241 323 L64 323 C215 526 240 560 240 621 C240 692 177 708 125 708 C72 708 12 683 12 599 L59 599 C59 643 79 668 125 668 C160 668 190 660 190 613 C190 557 107 461 10 324 L10 283 L241 283 L241 323 Z " />
<glyph glyph-name="threesuperior" unicode="&#xb3;" horiz-adv-x="266" d="M100 484 C174 490 195 461 195 389 C195 352 178 317 126 317 C82 317 60 340 61 386 L11 386 C8 311 53 277 132 277 C206 277 245 320 245 397 C245 446 232 493 169 502 L169 504 C227 513 240 557 240 606 C240 680 198 708 122 708 C51 708 13 661 17 599 L67 599 C65 643 83 668 127 668 C169 668 190 639 190 601 C190 539 167 519 100 524 L100 484 Z " />
<glyph glyph-name="acute" unicode="&#xb4;" horiz-adv-x="278" d="M75 617 L125 617 L268 754 L188 754 L75 617 Z " />
<glyph glyph-name="mu" unicode="&#xb5;" horiz-adv-x="448" d="M385 505 L325 505 L325 188 C325 75 270 38 216 38 C146 38 123 93 123 152 L123 505 L63 505 L63 -191 L123 -191 L123 18 C142 1 167 -10 201 -10 C262 -10 301 20 330 62 L332 62 L332 0 L385 0 L385 505 Z " />
<glyph glyph-name="paragraph" unicode="&#xb6;" horiz-adv-x="564" d="M233 -96 L285 -96 L285 668 L370 668 L370 -96 L422 -96 L422 722 L247 722 C137 720 71 668 71 537 C71 440 137 356 233 357 L233 -96 Z " />
<glyph glyph-name="periodcentered" unicode="&#xb7;" horiz-adv-x="222" d="M74 215 L148 215 L148 291 L74 291 L74 215 L74 215 Z " />
<glyph glyph-name="cedilla" unicode="&#xb8;" horiz-adv-x="278" d="M30 -188 C58 -199 88 -207 119 -207 C178 -207 233 -190 233 -125 C233 -78 194 -52 155 -52 C144 -52 131 -55 125 -57 L123 -55 L164 0 L126 0 L66 -82 L86 -97 C95 -91 109 -87 124 -87 C148 -87 173 -99 173 -126 C173 -160 137 -172 109 -172 C87 -172 66 -165 45 -158 L30 -188 Z " />
<glyph glyph-name="onesuperior" unicode="&#xb9;" horiz-adv-x="266" d="M49 592 C78 610 104 629 128 651 L128 283 L173 283 L173 701 L131 701 C108 675 79 655 49 636 L49 592 Z " />
<glyph glyph-name="ordmasculine" unicode="&#xba;" horiz-adv-x="266" d="M132 420 C258 420 246 522 246 578 C246 633 258 736 132 736 C7 736 19 633 19 578 C19 522 7 420 132 420 L132 420 Z M132 450 C60 450 59 507 59 578 C59 648 60 706 132 706 C205 706 206 648 206 578 C206 507 205 450 132 450 L132 450 Z " />
<glyph glyph-name="guillemotright" unicode="&#xbb;" horiz-adv-x="389" d="M105 90 L192 284 L102 478 L50 478 L128 284 L52 90 L105 90 Z M252 90 L339 284 L249 478 L197 478 L275 284 L199 90 L252 90 Z " />
<glyph glyph-name="onequarter" unicode="&#xbc;" horiz-adv-x="666" d="M558 418 L490 418 L351 153 L351 104 L513 104 L513 0 L558 0 L558 104 L611 104 L611 144 L558 144 L558 418 Z M392 144 L511 382 L513 382 L513 144 L392 144 Z M116 -29 L552 722 L497 722 L60 -29 L116 -29 Z M49 592 C78 610 104 629 128 651 L128 283 L173 283 L173 701 L131 701 C108 675 79 655 49 636 L49 592 Z " />
<glyph glyph-name="onehalf" unicode="&#xbd;" horiz-adv-x="666" d="M623 0 L623 40 L446 40 C597 243 622 277 622 338 C622 409 559 425 507 425 C454 425 394 400 394 316 L441 316 C441 360 461 385 507 385 C542 385 572 377 572 330 C572 274 489 178 392 41 L392 0 L623 0 Z M107 -29 L543 722 L488 722 L51 -29 L107 -29 Z M49 592 C78 610 104 629 128 651 L128 283 L173 283 L173 701 L131 701 C108 675 79 655 49 636 L49 592 Z " />
<glyph glyph-name="threequarters" unicode="&#xbe;" horiz-adv-x="666" d="M558 418 L490 418 L351 153 L351 104 L513 104 L513 0 L558 0 L558 104 L611 104 L611 144 L558 144 L558 418 Z M392 144 L511 382 L513 382 L513 144 L392 144 Z M143 -29 L579 722 L524 722 L87 -29 L143 -29 Z M100 484 C174 490 195 461 195 389 C195 352 178 317 126 317 C82 317 60 340 61 386 L11 386 C8 311 53 277 132 277 C206 277 245 320 245 397 C245 446 232 493 169 502 L169 504 C227 513 240 557 240 606 C240 680 198 708 122 708 C51 708 13 661 17 599 L67 599 C65 643 83 668 127 668 C169 668 190 639 190 601 C190 539 167 519 100 524 L100 484 Z " />
<glyph glyph-name="questiondown" unicode="&#xbf;" horiz-adv-x="389" d="M180 345 L180 251 C180 137 71 135 71 -54 C71 -167 98 -221 214 -221 C319 -221 355 -150 351 -54 L287 -54 C289 -109 281 -167 213 -167 C138 -167 135 -120 135 -55 C135 129 240 93 240 258 L240 345 L180 345 Z M173 439 L247 439 L247 515 L173 515 L173 439 Z " />
<glyph glyph-name="Agrave" unicode="&#xc0;" horiz-adv-x="556" d="M241 722 L14 0 L78 0 L134 190 L417 190 L475 0 L542 0 L317 722 L241 722 Z M153 244 L275 652 L277 652 L400 244 L153 244 Z M342 785 L229 922 L149 922 L292 785 L342 785 Z " />
<glyph glyph-name="Aacute" unicode="&#xc1;" horiz-adv-x="556" d="M241 722 L14 0 L78 0 L134 190 L417 190 L475 0 L542 0 L317 722 L241 722 Z M153 244 L275 652 L277 652 L400 244 L153 244 Z M214 785 L264 785 L407 922 L327 922 L214 785 Z " />
<glyph glyph-name="Acircumflex" unicode="&#xc2;" horiz-adv-x="556" d="M241 722 L14 0 L78 0 L134 190 L417 190 L475 0 L542 0 L317 722 L241 722 Z M153 244 L275 652 L277 652 L400 244 L153 244 Z M278 887 L361 785 L425 785 L312 924 L244 924 L131 785 L195 785 L278 887 Z " />
<glyph glyph-name="Atilde" unicode="&#xc3;" horiz-adv-x="556" d="M241 722 L14 0 L78 0 L134 190 L417 190 L475 0 L542 0 L317 722 L241 722 Z M153 244 L275 652 L277 652 L400 244 L153 244 Z M160 802 C163 825 180 856 206 856 C228 856 251 841 276 829 C301 818 327 802 352 802 C378 802 398 816 411 836 C425 856 433 882 434 904 L396 904 C393 879 380 850 352 850 C332 850 309 865 284 877 C260 888 234 904 210 904 C184 904 163 890 148 871 C133 851 125 826 122 802 L160 802 Z " />
<glyph glyph-name="Adieresis" unicode="&#xc4;" horiz-adv-x="556" d="M241 722 L14 0 L78 0 L134 190 L417 190 L475 0 L542 0 L317 722 L241 722 Z M153 244 L275 652 L277 652 L400 244 L153 244 Z M167 798 L231 798 L231 899 L167 899 L167 798 Z M325 798 L389 798 L389 899 L325 899 L325 798 Z " />
<glyph glyph-name="Aring" unicode="&#xc5;" horiz-adv-x="556" d="M241 722 L14 0 L78 0 L134 190 L417 190 L475 0 L542 0 L317 722 L241 722 Z M153 244 L275 652 L277 652 L400 244 L153 244 Z M278 935 C227 935 185 893 185 842 C185 791 227 748 278 748 C329 748 370 791 370 842 C370 893 329 935 278 935 L278 935 Z M278 900 C309 900 335 873 335 842 C335 812 308 783 278 783 C247 783 220 812 220 842 C220 874 246 900 278 900 L278 900 Z " />
<glyph glyph-name="AE" unicode="&#xc6;" horiz-adv-x="778" d="M80 0 L166 190 L425 190 L441 0 L739 0 L739 54 L501 54 L476 344 L716 344 L716 398 L471 398 L445 668 L728 668 L728 722 L344 722 L14 0 L80 0 Z M380 674 L382 674 L420 244 L191 244 L380 674 Z " />
<glyph glyph-name="Ccedilla" unicode="&#xc7;" horiz-adv-x="500" d="M199 -82 L219 -97 C228 -91 242 -87 257 -87 C281 -87 306 -99 306 -126 C306 -160 270 -172 242 -172 C220 -172 199 -165 178 -158 L163 -188 C191 -199 221 -207 252 -207 C311 -207 366 -190 366 -125 C366 -78 327 -52 288 -52 C277 -52 264 -55 258 -57 L256 -55 L287 -13 C449 -7 461 156 461 207 L393 207 C392 114 361 40 278 40 C126 40 124 169 124 361 C124 553 126 682 278 682 C370 682 392 607 392 527 L456 527 C456 592 453 736 278 736 C62 736 60 556 60 361 C60 175 62 3 250 -12 L199 -82 Z " />
<glyph glyph-name="Egrave" unicode="&#xc8;" horiz-adv-x="445" d="M72 722 L72 0 L406 0 L406 54 L136 54 L136 344 L387 344 L387 398 L136 398 L136 668 L399 668 L399 722 L72 722 Z M287 785 L174 922 L94 922 L237 785 L287 785 Z " />
<glyph glyph-name="Eacute" unicode="&#xc9;" horiz-adv-x="445" d="M72 722 L72 0 L406 0 L406 54 L136 54 L136 344 L387 344 L387 398 L136 398 L136 668 L399 668 L399 722 L72 722 Z M159 785 L209 785 L352 922 L272 922 L159 785 Z " />
<glyph glyph-name="Ecircumflex" unicode="&#xca;" horiz-adv-x="445" d="M72 722 L72 0 L406 0 L406 54 L136 54 L136 344 L387 344 L387 398 L136 398 L136 668 L399 668 L399 722 L72 722 Z M223 887 L306 785 L370 785 L257 924 L189 924 L76 785 L140 785 L223 887 Z " />
<glyph glyph-name="Edieresis" unicode="&#xcb;" horiz-adv-x="445" d="M72 722 L72 0 L406 0 L406 54 L136 54 L136 344 L387 344 L387 398 L136 398 L136 668 L399 668 L399 722 L72 722 Z M112 798 L176 798 L176 899 L112 899 L112 798 Z M270 798 L334 798 L334 899 L270 899 L270 798 Z " />
<glyph glyph-name="Igrave" unicode="&#xcc;" horiz-adv-x="208" d="M72 722 L72 0 L136 0 L136 722 L72 722 Z M168 785 L55 922 L-25 922 L118 785 L168 785 Z " />
<glyph glyph-name="Iacute" unicode="&#xcd;" horiz-adv-x="208" d="M72 722 L72 0 L136 0 L136 722 L72 722 Z M40 785 L90 785 L233 922 L153 922 L40 785 Z " />
<glyph glyph-name="Icircumflex" unicode="&#xce;" horiz-adv-x="208" d="M72 722 L72 0 L136 0 L136 722 L72 722 Z M104 887 L187 785 L251 785 L138 924 L70 924 L-43 785 L21 785 L104 887 Z " />
<glyph glyph-name="Idieresis" unicode="&#xcf;" horiz-adv-x="208" d="M72 722 L72 0 L136 0 L136 722 L72 722 Z M-7 798 L57 798 L57 899 L-7 899 L-7 798 Z M151 798 L215 798 L215 899 L151 899 L151 798 Z " />
<glyph glyph-name="Eth" unicode="&#xd0;" horiz-adv-x="558" d="M72 0 L233 0 C451 0 486 118 486 358 C486 604 461 722 259 722 L72 722 L72 424 L11 424 L11 370 L72 370 L72 0 Z M136 668 L216 668 C394 668 422 608 422 401 C422 106 403 54 210 54 L136 54 L136 370 L288 370 L288 424 L136 424 L136 668 Z " />
<glyph glyph-name="Ntilde" unicode="&#xd1;" horiz-adv-x="601" d="M136 0 L136 639 L138 641 L432 0 L529 0 L529 722 L465 722 L465 90 L463 88 L170 722 L72 722 L72 0 L136 0 Z M183 802 C186 825 203 856 229 856 C251 856 274 841 299 829 C324 818 350 802 375 802 C401 802 421 816 434 836 C448 856 456 882 457 904 L419 904 C416 879 403 850 375 850 C355 850 332 865 307 877 C283 888 257 904 233 904 C207 904 186 890 171 871 C156 851 148 826 145 802 L183 802 Z " />
<glyph glyph-name="Ograve" unicode="&#xd2;" horiz-adv-x="556" d="M124 361 C124 553 126 682 278 682 C430 682 432 553 432 361 C432 169 430 40 278 40 C126 40 124 169 124 361 L124 361 Z M60 361 C60 166 62 -14 278 -14 C494 -14 496 166 496 361 C496 556 494 736 278 736 C62 736 60 556 60 361 L60 361 Z M342 785 L229 922 L149 922 L292 785 L342 785 Z " />
<glyph glyph-name="Oacute" unicode="&#xd3;" horiz-adv-x="556" d="M124 361 C124 553 126 682 278 682 C430 682 432 553 432 361 C432 169 430 40 278 40 C126 40 124 169 124 361 L124 361 Z M60 361 C60 166 62 -14 278 -14 C494 -14 496 166 496 361 C496 556 494 736 278 736 C62 736 60 556 60 361 L60 361 Z M214 785 L264 785 L407 922 L327 922 L214 785 Z " />
<glyph glyph-name="Ocircumflex" unicode="&#xd4;" horiz-adv-x="556" d="M124 361 C124 553 126 682 278 682 C430 682 432 553 432 361 C432 169 430 40 278 40 C126 40 124 169 124 361 L124 361 Z M60 361 C60 166 62 -14 278 -14 C494 -14 496 166 496 361 C496 556 494 736 278 736 C62 736 60 556 60 361 L60 361 Z M278 887 L361 785 L425 785 L312 924 L244 924 L131 785 L195 785 L278 887 Z " />
<glyph glyph-name="Otilde" unicode="&#xd5;" horiz-adv-x="556" d="M124 361 C124 553 126 682 278 682 C430 682 432 553 432 361 C432 169 430 40 278 40 C126 40 124 169 124 361 L124 361 Z M60 361 C60 166 62 -14 278 -14 C494 -14 496 166 496 361 C496 556 494 736 278 736 C62 736 60 556 60 361 L60 361 Z M160 802 C163 825 180 856 206 856 C228 856 251 841 276 829 C301 818 327 802 352 802 C378 802 398 816 411 836 C425 856 433 882 434 904 L396 904 C393 879 380 850 352 850 C332 850 309 865 284 877 C260 888 234 904 210 904 C184 904 163 890 148 871 C133 851 125 826 122 802 L160 802 Z " />
<glyph glyph-name="Odieresis" unicode="&#xd6;" horiz-adv-x="556" d="M124 361 C124 553 126 682 278 682 C430 682 432 553 432 361 C432 169 430 40 278 40 C126 40 124 169 124 361 L124 361 Z M60 361 C60 166 62 -14 278 -14 C494 -14 496 166 496 361 C496 556 494 736 278 736 C62 736 60 556 60 361 L60 361 Z M167 798 L231 798 L231 899 L167 899 L167 798 Z M325 798 L389 798 L389 899 L325 899 L325 798 Z " />
<glyph glyph-name="multiply" unicode="&#xd7;" horiz-adv-x="444" d="M222 216 L387 51 L424 88 L259 253 L424 418 L387 455 L222 290 L57 455 L20 418 L185 253 L20 88 L57 51 L222 216 Z " />
<glyph glyph-name="Oslash" unicode="&#xd8;" horiz-adv-x="556" d="M138 155 C124 208 124 279 124 361 C124 553 126 682 278 682 C341 682 379 660 400 620 L138 155 Z M418 571 C431 517 432 445 432 361 C432 169 430 40 278 40 C214 40 176 63 156 104 L418 571 Z M43 -13 L80 -31 L122 44 C154 8 203 -14 278 -14 C494 -14 496 166 496 361 C496 470 495 574 458 643 L513 740 L479 759 L433 679 C400 716 351 736 278 736 C62 736 60 556 60 361 C60 254 61 152 97 82 L43 -13 Z " />
<glyph glyph-name="Ugrave" unicode="&#xd9;" horiz-adv-x="558" d="M486 722 L422 722 L422 268 C422 174 422 40 279 40 C136 40 136 174 136 268 L136 722 L72 722 L72 221 C72 35 170 -14 279 -14 C388 -14 486 35 486 221 L486 722 Z M343 785 L230 922 L150 922 L293 785 L343 785 Z " />
<glyph glyph-name="Uacute" unicode="&#xda;" horiz-adv-x="558" d="M486 722 L422 722 L422 268 C422 174 422 40 279 40 C136 40 136 174 136 268 L136 722 L72 722 L72 221 C72 35 170 -14 279 -14 C388 -14 486 35 486 221 L486 722 Z M215 785 L265 785 L408 922 L328 922 L215 785 Z " />
<glyph glyph-name="Ucircumflex" unicode="&#xdb;" horiz-adv-x="558" d="M486 722 L422 722 L422 268 C422 174 422 40 279 40 C136 40 136 174 136 268 L136 722 L72 722 L72 221 C72 35 170 -14 279 -14 C388 -14 486 35 486 221 L486 722 Z M279 887 L362 785 L426 785 L313 924 L245 924 L132 785 L196 785 L279 887 Z " />
<glyph glyph-name="Udieresis" unicode="&#xdc;" horiz-adv-x="558" d="M486 722 L422 722 L422 268 C422 174 422 40 279 40 C136 40 136 174 136 268 L136 722 L72 722 L72 221 C72 35 170 -14 279 -14 C388 -14 486 35 486 221 L486 722 Z M168 798 L232 798 L232 899 L168 899 L168 798 Z M326 798 L390 798 L390 899 L326 899 L326 798 Z " />
<glyph glyph-name="Yacute" unicode="&#xdd;" horiz-adv-x="500" d="M217 0 L281 0 L281 300 L487 722 L423 722 L250 363 L85 722 L13 722 L217 300 L217 0 Z M186 785 L236 785 L379 922 L299 922 L186 785 Z " />
<glyph glyph-name="Thorn" unicode="&#xde;" horiz-adv-x="445" d="M72 0 L136 0 L136 172 L258 172 C382 172 429 238 429 383 C429 550 330 558 270 558 L136 558 L136 722 L72 722 L72 0 Z M136 504 L254 504 C312 504 365 494 365 371 C365 258 322 226 255 226 L136 226 L136 504 Z " />
<glyph glyph-name="germandbls" unicode="&#xdf;" horiz-adv-x="500" d="M63 0 L123 0 L123 548 C123 664 180 688 233 688 C277 688 330 662 330 610 C330 525 222 472 222 371 C222 276 393 228 393 125 C393 75 366 38 312 38 C252 38 231 68 230 125 L170 125 C168 39 212 -10 300 -10 C393 -10 453 37 453 134 C453 254 282 309 282 385 C282 449 390 513 390 606 C390 690 315 736 240 736 C90 736 63 632 63 568 L63 0 Z " />
<glyph glyph-name="agrave" unicode="&#xe0;" horiz-adv-x="452" d="M329 166 C329 100 273 38 204 38 C142 38 113 85 113 142 C113 265 243 255 329 258 L329 166 Z M333 0 L395 0 C389 59 389 91 389 127 L389 381 C389 510 283 515 232 515 C144 515 69 477 64 380 L128 380 C128 440 172 467 227 467 C307 467 329 422 329 348 L329 306 C227 298 49 316 49 139 C49 51 98 -10 188 -10 C250 -10 299 14 331 62 L333 62 L333 0 Z M290 617 L177 754 L97 754 L240 617 L290 617 Z " />
<glyph glyph-name="aacute" unicode="&#xe1;" horiz-adv-x="452" d="M329 166 C329 100 273 38 204 38 C142 38 113 85 113 142 C113 265 243 255 329 258 L329 166 Z M333 0 L395 0 C389 59 389 91 389 127 L389 381 C389 510 283 515 232 515 C144 515 69 477 64 380 L128 380 C128 440 172 467 227 467 C307 467 329 422 329 348 L329 306 C227 298 49 316 49 139 C49 51 98 -10 188 -10 C250 -10 299 14 331 62 L333 62 L333 0 Z M162 617 L212 617 L355 754 L275 754 L162 617 Z " />
<glyph glyph-name="acircumflex" unicode="&#xe2;" horiz-adv-x="452" d="M329 166 C329 100 273 38 204 38 C142 38 113 85 113 142 C113 265 243 255 329 258 L329 166 Z M333 0 L395 0 C389 59 389 91 389 127 L389 381 C389 510 283 515 232 515 C144 515 69 477 64 380 L128 380 C128 440 172 467 227 467 C307 467 329 422 329 348 L329 306 C227 298 49 316 49 139 C49 51 98 -10 188 -10 C250 -10 299 14 331 62 L333 62 L333 0 Z M226 719 L309 617 L373 617 L260 756 L192 756 L79 617 L143 617 L226 719 Z " />
<glyph glyph-name="atilde" unicode="&#xe3;" horiz-adv-x="452" d="M329 166 C329 100 273 38 204 38 C142 38 113 85 113 142 C113 265 243 255 329 258 L329 166 Z M333 0 L395 0 C389 59 389 91 389 127 L389 381 C389 510 283 515 232 515 C144 515 69 477 64 380 L128 380 C128 440 172 467 227 467 C307 467 329 422 329 348 L329 306 C227 298 49 316 49 139 C49 51 98 -10 188 -10 C250 -10 299 14 331 62 L333 62 L333 0 Z M108 634 C111 657 128 688 154 688 C176 688 199 673 224 661 C249 650 275 634 300 634 C326 634 346 648 359 668 C373 688 381 714 382 736 L344 736 C341 711 328 682 300 682 C280 682 257 697 232 709 C208 720 182 736 158 736 C132 736 111 722 96 703 C81 683 73 658 70 634 L108 634 Z " />
<glyph glyph-name="adieresis" unicode="&#xe4;" horiz-adv-x="452" d="M329 166 C329 100 273 38 204 38 C142 38 113 85 113 142 C113 265 243 255 329 258 L329 166 Z M333 0 L395 0 C389 59 389 91 389 127 L389 381 C389 510 283 515 232 515 C144 515 69 477 64 380 L128 380 C128 440 172 467 227 467 C307 467 329 422 329 348 L329 306 C227 298 49 316 49 139 C49 51 98 -10 188 -10 C250 -10 299 14 331 62 L333 62 L333 0 Z M115 630 L179 630 L179 731 L115 731 L115 630 Z M273 630 L337 630 L337 731 L273 731 L273 630 Z " />
<glyph glyph-name="aring" unicode="&#xe5;" horiz-adv-x="452" d="M329 166 C329 100 273 38 204 38 C142 38 113 85 113 142 C113 265 243 255 329 258 L329 166 Z M333 0 L395 0 C389 59 389 91 389 127 L389 381 C389 510 283 515 232 515 C144 515 69 477 64 380 L128 380 C128 440 172 467 227 467 C307 467 329 422 329 348 L329 306 C227 298 49 316 49 139 C49 51 98 -10 188 -10 C250 -10 299 14 331 62 L333 62 L333 0 Z M232 776 C181 776 139 734 139 683 C139 632 181 589 232 589 C283 589 324 632 324 683 C324 734 283 776 232 776 L232 776 Z M232 741 C263 741 289 714 289 683 C289 653 262 624 232 624 C201 624 174 653 174 683 C174 715 200 741 232 741 L232 741 Z " />
<glyph glyph-name="ae" unicode="&#xe6;" horiz-adv-x="726" d="M113 136 C113 259 236 245 333 250 C338 172 329 38 222 38 C156 38 113 68 113 136 L113 136 Z M389 298 C389 400 432 467 503 467 C599 467 617 400 617 298 L389 298 Z M677 250 C676 385 679 515 503 515 C451 515 397 485 371 438 C350 492 288 515 232 515 C144 515 69 477 64 380 L128 380 C128 440 172 467 227 467 C332 467 333 377 333 298 C205 298 49 304 49 132 C49 35 127 -10 217 -10 C286 -10 333 18 361 80 C378 22 438 -10 503 -10 C604 -10 670 32 677 154 L614 154 C615 86 578 38 503 38 C408 38 389 131 389 201 L389 250 L677 250 Z " />
<glyph glyph-name="ccedilla" unicode="&#xe7;" horiz-adv-x="391" d="M142 -82 L162 -97 C171 -91 185 -87 200 -87 C224 -87 249 -99 249 -126 C249 -160 213 -172 185 -172 C163 -172 142 -165 121 -158 L106 -188 C134 -199 164 -207 195 -207 C254 -207 309 -190 309 -125 C309 -78 270 -52 231 -52 C220 -52 207 -55 201 -57 L199 -55 L233 -9 C283 -5 363 25 358 149 L298 149 C295 88 285 38 206 38 C113 38 113 159 113 250 C113 317 119 386 127 409 C140 446 171 467 208 467 C277 467 300 423 297 360 L357 360 C362 466 303 515 216 515 C147 515 90 489 64 417 C51 379 49 300 49 250 C49 131 49 3 196 -9 L142 -82 Z " />
<glyph glyph-name="egrave" unicode="&#xe8;" horiz-adv-x="446" d="M397 240 C397 390 397 515 223 515 C110 515 49 448 49 302 L49 178 C49 25 136 -10 223 -10 C324 -10 390 32 397 154 L334 154 C335 86 298 38 223 38 C128 38 109 131 109 201 L109 240 L397 240 Z M109 288 C109 400 127 467 223 467 C319 467 337 400 337 288 L109 288 Z M287 617 L174 754 L94 754 L237 617 L287 617 Z " />
<glyph glyph-name="eacute" unicode="&#xe9;" horiz-adv-x="446" d="M397 240 C397 390 397 515 223 515 C110 515 49 448 49 302 L49 178 C49 25 136 -10 223 -10 C324 -10 390 32 397 154 L334 154 C335 86 298 38 223 38 C128 38 109 131 109 201 L109 240 L397 240 Z M109 288 C109 400 127 467 223 467 C319 467 337 400 337 288 L109 288 Z M159 617 L209 617 L352 754 L272 754 L159 617 Z " />
<glyph glyph-name="ecircumflex" unicode="&#xea;" horiz-adv-x="446" d="M397 240 C397 390 397 515 223 515 C110 515 49 448 49 302 L49 178 C49 25 136 -10 223 -10 C324 -10 390 32 397 154 L334 154 C335 86 298 38 223 38 C128 38 109 131 109 201 L109 240 L397 240 Z M109 288 C109 400 127 467 223 467 C319 467 337 400 337 288 L109 288 Z M223 719 L306 617 L370 617 L257 756 L189 756 L76 617 L140 617 L223 719 Z " />
<glyph glyph-name="edieresis" unicode="&#xeb;" horiz-adv-x="446" d="M397 240 C397 390 397 515 223 515 C110 515 49 448 49 302 L49 178 C49 25 136 -10 223 -10 C324 -10 390 32 397 154 L334 154 C335 86 298 38 223 38 C128 38 109 131 109 201 L109 240 L397 240 Z M109 288 C109 400 127 467 223 467 C319 467 337 400 337 288 L109 288 Z M112 630 L176 630 L176 731 L112 731 L112 630 Z M270 630 L334 630 L334 731 L270 731 L270 630 Z " />
<glyph glyph-name="igrave" unicode="&#xec;" horiz-adv-x="186" d="M123 0 L123 505 L63 505 L63 0 L123 0 Z M157 617 L44 754 L-36 754 L107 617 L157 617 Z " />
<glyph glyph-name="iacute" unicode="&#xed;" horiz-adv-x="186" d="M123 0 L123 505 L63 505 L63 0 L123 0 Z M29 617 L79 617 L222 754 L142 754 L29 617 Z " />
<glyph glyph-name="icircumflex" unicode="&#xee;" horiz-adv-x="186" d="M123 0 L123 505 L63 505 L63 0 L123 0 Z M93 719 L176 617 L240 617 L127 756 L59 756 L-54 617 L10 617 L93 719 Z " />
<glyph glyph-name="idieresis" unicode="&#xef;" horiz-adv-x="186" d="M123 0 L123 505 L63 505 L63 0 L123 0 Z M-18 630 L46 630 L46 731 L-18 731 L-18 630 Z M140 630 L204 630 L204 731 L140 731 L140 630 Z " />
<glyph glyph-name="eth" unicode="&#xf0;" horiz-adv-x="446" d="M114 618 L146 588 L240 640 C270 619 325 542 328 473 L326 471 C312 498 287 515 224 515 C106 515 50 438 50 307 L50 198 C50 67 106 -10 224 -10 C342 -10 398 67 398 198 L398 299 C398 536 355 608 293 670 L377 717 L346 747 L257 697 C225 719 201 733 156 747 L113 710 C166 690 159 694 205 668 L114 618 Z M224 467 C323 467 338 384 338 253 C338 121 323 38 224 38 C125 38 110 121 110 253 C110 384 125 467 224 467 L224 467 Z " />
<glyph glyph-name="ntilde" unicode="&#xf1;" horiz-adv-x="448" d="M63 0 L123 0 L123 317 C123 430 178 467 232 467 C302 467 325 412 325 353 L325 0 L385 0 L385 356 C385 422 372 515 247 515 C186 515 147 485 118 443 L116 443 L116 505 L63 505 L63 0 Z M106 634 C109 657 126 688 152 688 C174 688 197 673 222 661 C247 650 273 634 298 634 C324 634 344 648 357 668 C371 688 379 714 380 736 L342 736 C339 711 326 682 298 682 C278 682 255 697 230 709 C206 720 180 736 156 736 C130 736 109 722 94 703 C79 683 71 658 68 634 L106 634 Z " />
<glyph glyph-name="ograve" unicode="&#xf2;" horiz-adv-x="446" d="M223 -10 C341 -10 397 67 397 198 L397 307 C397 438 341 515 223 515 C105 515 49 438 49 307 L49 198 C49 67 105 -10 223 -10 L223 -10 Z M223 467 C322 467 337 384 337 253 C337 121 322 38 223 38 C124 38 109 121 109 253 C109 384 124 467 223 467 L223 467 Z M287 617 L174 754 L94 754 L237 617 L287 617 Z " />
<glyph glyph-name="oacute" unicode="&#xf3;" horiz-adv-x="446" d="M223 -10 C341 -10 397 67 397 198 L397 307 C397 438 341 515 223 515 C105 515 49 438 49 307 L49 198 C49 67 105 -10 223 -10 L223 -10 Z M223 467 C322 467 337 384 337 253 C337 121 322 38 223 38 C124 38 109 121 109 253 C109 384 124 467 223 467 L223 467 Z M159 617 L209 617 L352 754 L272 754 L159 617 Z " />
<glyph glyph-name="ocircumflex" unicode="&#xf4;" horiz-adv-x="446" d="M223 -10 C341 -10 397 67 397 198 L397 307 C397 438 341 515 223 515 C105 515 49 438 49 307 L49 198 C49 67 105 -10 223 -10 L223 -10 Z M223 467 C322 467 337 384 337 253 C337 121 322 38 223 38 C124 38 109 121 109 253 C109 384 124 467 223 467 L223 467 Z M223 719 L306 617 L370 617 L257 756 L189 756 L76 617 L140 617 L223 719 Z " />
<glyph glyph-name="otilde" unicode="&#xf5;" horiz-adv-x="446" d="M223 -10 C341 -10 397 67 397 198 L397 307 C397 438 341 515 223 515 C105 515 49 438 49 307 L49 198 C49 67 105 -10 223 -10 L223 -10 Z M223 467 C322 467 337 384 337 253 C337 121 322 38 223 38 C124 38 109 121 109 253 C109 384 124 467 223 467 L223 467 Z M105 634 C108 657 125 688 151 688 C173 688 196 673 221 661 C246 650 272 634 297 634 C323 634 343 648 356 668 C370 688 378 714 379 736 L341 736 C338 711 325 682 297 682 C277 682 254 697 229 709 C205 720 179 736 155 736 C129 736 108 722 93 703 C78 683 70 658 67 634 L105 634 Z " />
<glyph glyph-name="odieresis" unicode="&#xf6;" horiz-adv-x="446" d="M223 -10 C341 -10 397 67 397 198 L397 307 C397 438 341 515 223 515 C105 515 49 438 49 307 L49 198 C49 67 105 -10 223 -10 L223 -10 Z M223 467 C322 467 337 384 337 253 C337 121 322 38 223 38 C124 38 109 121 109 253 C109 384 124 467 223 467 L223 467 Z M112 630 L176 630 L176 731 L112 731 L112 630 Z M270 630 L334 630 L334 731 L270 731 L270 630 Z " />
<glyph glyph-name="divide" unicode="&#xf7;" horiz-adv-x="444" d="M20 279 L20 227 L424 227 L424 279 L20 279 Z M185 429 L259 429 L259 505 L185 505 L185 429 Z M185 1 L259 1 L259 77 L185 77 L185 1 Z " />
<glyph glyph-name="oslash" unicode="&#xf8;" horiz-adv-x="446" d="M121 122 C111 156 109 200 109 253 C109 384 124 467 223 467 C265 467 292 452 309 424 L121 122 Z M325 383 C335 350 337 305 337 253 C337 121 322 38 223 38 C180 38 153 53 137 81 L325 383 Z M30 -24 L60 -44 L106 30 C135 4 174 -10 223 -10 C341 -10 397 67 397 198 L397 307 C397 365 386 412 364 445 L416 528 L386 547 L340 474 C313 501 274 515 223 515 C105 515 49 438 49 307 L49 198 C49 140 60 93 82 60 L30 -24 Z " />
<glyph glyph-name="ugrave" unicode="&#xf9;" horiz-adv-x="448" d="M385 505 L325 505 L325 188 C325 75 270 38 216 38 C146 38 123 93 123 152 L123 505 L63 505 L63 149 C63 83 76 -10 201 -10 C262 -10 301 20 330 62 L332 62 L332 0 L385 0 L385 505 Z M288 617 L175 754 L95 754 L238 617 L288 617 Z " />
<glyph glyph-name="uacute" unicode="&#xfa;" horiz-adv-x="448" d="M385 505 L325 505 L325 188 C325 75 270 38 216 38 C146 38 123 93 123 152 L123 505 L63 505 L63 149 C63 83 76 -10 201 -10 C262 -10 301 20 330 62 L332 62 L332 0 L385 0 L385 505 Z M160 617 L210 617 L353 754 L273 754 L160 617 Z " />
<glyph glyph-name="ucircumflex" unicode="&#xfb;" horiz-adv-x="448" d="M385 505 L325 505 L325 188 C325 75 270 38 216 38 C146 38 123 93 123 152 L123 505 L63 505 L63 149 C63 83 76 -10 201 -10 C262 -10 301 20 330 62 L332 62 L332 0 L385 0 L385 505 Z M224 719 L307 617 L371 617 L258 756 L190 756 L77 617 L141 617 L224 719 Z " />
<glyph glyph-name="udieresis" unicode="&#xfc;" horiz-adv-x="448" d="M385 505 L325 505 L325 188 C325 75 270 38 216 38 C146 38 123 93 123 152 L123 505 L63 505 L63 149 C63 83 76 -10 201 -10 C262 -10 301 20 330 62 L332 62 L332 0 L385 0 L385 505 Z M113 630 L177 630 L177 731 L113 731 L113 630 Z M271 630 L335 630 L335 731 L271 731 L271 630 Z " />
<glyph glyph-name="yacute" unicode="&#xfd;" horiz-adv-x="389" d="M111 -191 L170 -191 L379 505 L319 505 L200 91 L198 91 L75 505 L10 505 L170 -1 L111 -191 Z M131 617 L181 617 L324 754 L244 754 L131 617 Z " />
<glyph glyph-name="thorn" unicode="&#xfe;" horiz-adv-x="453" d="M123 298 C123 423 191 467 230 467 C329 467 344 384 344 253 C344 121 329 38 230 38 C175 38 123 93 123 208 L123 298 Z M63 -191 L123 -191 L123 57 L125 56 C156 8 193 -10 230 -10 C359 -10 404 67 404 198 L404 311 C404 377 403 515 245 515 C205 515 155 494 123 445 L123 722 L63 722 L63 -191 Z " />
<glyph glyph-name="ydieresis" unicode="&#xff;" horiz-adv-x="389" d="M111 -191 L170 -191 L379 505 L319 505 L200 91 L198 91 L75 505 L10 505 L170 -1 L111 -191 Z M84 630 L148 630 L148 731 L84 731 L84 630 Z M242 630 L306 630 L306 731 L242 731 L242 630 Z " />
<glyph glyph-name="dotlessi" unicode="&#x131;" horiz-adv-x="186" d="M123 0 L123 505 L63 505 L63 0 L123 0 Z " />
<glyph glyph-name="Lslash" unicode="&#x141;" horiz-adv-x="390" d="M72 0 L375 0 L375 54 L136 54 L136 340 L279 435 L279 481 L136 386 L136 722 L72 722 L72 343 L7 300 L7 254 L72 297 L72 0 Z " />
<glyph glyph-name="lslash" unicode="&#x142;" horiz-adv-x="186" d="M63 0 L123 0 L123 349 L206 404 L206 450 L123 395 L123 722 L63 722 L63 355 L-20 300 L-20 254 L63 309 L63 0 Z " />
<glyph glyph-name="OE" unicode="&#x152;" horiz-adv-x="778" d="M404 53 C378 52 353 50 327 50 C131 50 124 156 124 358 C124 572 133 672 297 672 C339 672 382 666 404 664 L404 53 Z M468 668 L732 668 L732 722 L404 722 C399 722 379 723 356 724 C333 725 307 726 291 726 C43 726 60 514 60 361 C60 132 61 -4 309 -4 C330 -4 346 -3 361 -2 C375 -1 389 0 404 0 L739 0 L739 54 L468 54 L468 344 L721 344 L721 398 L468 398 L468 668 Z " />
<glyph glyph-name="oe" unicode="&#x153;" horiz-adv-x="724" d="M223 -10 C296 -10 328 6 363 68 C397 -2 453 -10 501 -10 C602 -10 668 32 675 154 L612 154 C613 86 576 38 501 38 C406 38 387 131 387 201 L387 240 L675 240 C675 390 675 515 501 515 C438 515 391 488 366 427 C339 488 296 515 223 515 C50 515 49 382 49 318 L49 198 C49 67 94 -10 223 -10 L223 -10 Z M223 38 C140 38 126 93 121 105 C111 130 109 221 109 253 C109 402 124 467 223 467 C322 467 337 402 337 253 C337 221 335 130 325 105 C320 93 306 38 223 38 L223 38 Z M387 288 C387 400 405 467 501 467 C597 467 615 400 615 288 L387 288 Z " />
<glyph glyph-name="Scaron" unicode="&#x160;" horiz-adv-x="502" d="M444 539 C444 643 412 736 262 736 C144 736 65 684 66 559 C67 487 73 444 213 358 C317 294 382 266 382 168 C382 85 341 40 257 40 C128 40 122 123 122 203 L56 203 C50 62 113 -14 254 -14 C380 -14 446 49 446 178 C446 318 355 337 266 401 C184 460 130 463 130 570 C130 655 179 682 257 682 C355 682 377 628 379 539 L444 539 Z M251 822 L168 924 L104 924 L217 785 L285 785 L398 924 L334 924 L251 822 Z " />
<glyph glyph-name="scaron" unicode="&#x161;" horiz-adv-x="398" d="M349 133 C349 302 122 268 122 394 C122 439 156 467 199 467 C267 467 284 433 287 369 L346 369 C346 446 314 515 214 515 C126 515 62 482 62 389 C62 222 289 256 289 124 C289 68 261 35 203 35 C126 35 110 81 110 150 L49 150 C48 43 91 -10 200 -10 C294 -10 349 38 349 133 L349 133 Z M199 654 L116 756 L52 756 L165 617 L233 617 L346 756 L282 756 L199 654 Z " />
<glyph glyph-name="Ydieresis" unicode="&#x178;" horiz-adv-x="500" d="M217 0 L281 0 L281 300 L487 722 L423 722 L250 363 L85 722 L13 722 L217 300 L217 0 Z M139 798 L203 798 L203 899 L139 899 L139 798 Z M297 798 L361 798 L361 899 L297 899 L297 798 Z " />
<glyph glyph-name="Zcaron" unicode="&#x17d;" horiz-adv-x="444" d="M44 722 L44 668 L354 668 L24 71 L24 0 L420 0 L420 54 L90 54 L417 651 L417 722 L44 722 Z M222 822 L139 924 L75 924 L188 785 L256 785 L369 924 L305 924 L222 822 Z " />
<glyph glyph-name="zcaron" unicode="&#x17e;" horiz-adv-x="334" d="M29 0 L305 0 L305 48 L95 48 L300 455 L300 505 L41 505 L41 457 L239 457 L29 49 L29 0 Z M167 654 L84 756 L20 756 L133 617 L201 617 L314 756 L250 756 L167 654 Z " />
<glyph glyph-name="florin" unicode="&#x192;" horiz-adv-x="444" d="M380 697 C360 703 345 708 331 708 C191 708 198 554 184 460 L102 460 L95 412 L178 412 L122 -28 C111 -112 90 -145 27 -139 L19 -191 C29 -192 36 -193 47 -193 C161 -193 175 -97 184 -25 L241 412 L333 412 L341 460 L247 460 L261 561 C267 604 275 654 333 654 C344 654 356 653 371 648 L380 697 Z " />
<glyph glyph-name="circumflex" unicode="&#x2c6;" horiz-adv-x="278" d="M139 719 L222 617 L286 617 L173 756 L105 756 L-8 617 L56 617 L139 719 Z " />
<glyph glyph-name="caron" unicode="&#x2c7;" horiz-adv-x="278" d="M139 654 L56 756 L-8 756 L105 617 L173 617 L286 756 L222 756 L139 654 Z " />
<glyph glyph-name="breve" unicode="&#x2d8;" horiz-adv-x="278" d="M-5 754 C2 667 55 617 134 617 C215 617 274 663 283 754 L246 754 C231 691 196 665 139 665 C85 665 44 691 34 754 L-5 754 Z " />
<glyph glyph-name="dotaccent" unicode="&#x2d9;" horiz-adv-x="278" d="M107 630 L171 630 L171 731 L107 731 L107 630 Z " />
<glyph glyph-name="ring" unicode="&#x2da;" horiz-adv-x="278" d="M139 776 C88 776 46 734 46 683 C46 632 88 589 139 589 C190 589 231 632 231 683 C231 734 190 776 139 776 L139 776 Z M139 741 C170 741 196 714 196 683 C196 653 169 624 139 624 C108 624 81 653 81 683 C81 715 107 741 139 741 L139 741 Z " />
<glyph glyph-name="ogonek" unicode="&#x2db;" horiz-adv-x="278" d="M143 0 C79 -22 40 -62 40 -109 C40 -182 93 -191 154 -191 C185 -191 215 -180 228 -172 L228 -139 C207 -146 186 -156 164 -156 C136 -156 104 -144 104 -110 C104 -83 121 -34 193 0 L193 2 L143 0 Z " />
<glyph glyph-name="tilde" unicode="&#x2dc;" horiz-adv-x="278" d="M21 634 C24 657 41 688 67 688 C89 688 112 673 137 661 C162 650 188 634 213 634 C239 634 259 648 272 668 C286 688 294 714 295 736 L257 736 C254 711 241 682 213 682 C193 682 170 697 145 709 C121 720 95 736 71 736 C45 736 24 722 9 703 C-6 683 -14 658 -17 634 L21 634 Z " />
<glyph glyph-name="hungarumlaut" unicode="&#x2dd;" horiz-adv-x="278" d="M12 617 L62 617 L205 754 L125 754 L12 617 Z M142 617 L192 617 L335 754 L255 754 L142 617 Z " />
<glyph glyph-name="endash" unicode="&#x2013;" horiz-adv-x="500" d="M500 260 L500 308 L0 308 L0 260 L500 260 Z " />
<glyph glyph-name="emdash" unicode="&#x2014;" horiz-adv-x="1000" d="M0 260 L1000 260 L1000 308 L0 308 L0 260 Z " />
<glyph glyph-name="quoteleft" unicode="&#x2018;" horiz-adv-x="222" d="M167 722 L114 722 L54 541 L127 541 L167 722 Z " />
<glyph glyph-name="quoteright" unicode="&#x2019;" horiz-adv-x="222" d="M54 541 L107 541 L167 722 L94 722 L54 541 Z " />
<glyph glyph-name="quotesinglbase" unicode="&#x201a;" horiz-adv-x="222" d="M54 -105 L107 -105 L167 76 L94 76 L54 -105 Z " />
<glyph glyph-name="quotedblleft" unicode="&#x201c;" horiz-adv-x="389" d="M177 722 L124 722 L64 541 L137 541 L177 722 Z M325 722 L272 722 L212 541 L285 541 L325 722 Z " />
<glyph glyph-name="quotedblright" unicode="&#x201d;" horiz-adv-x="389" d="M64 541 L117 541 L177 722 L104 722 L64 541 Z M212 541 L265 541 L325 722 L252 722 L212 541 Z " />
<glyph glyph-name="quotedblbase" unicode="&#x201e;" horiz-adv-x="389" d="M64 -105 L117 -105 L177 76 L104 76 L64 -105 Z M212 -105 L265 -105 L325 76 L252 76 L212 -105 Z " />
<glyph glyph-name="dagger" unicode="&#x2020;" horiz-adv-x="444" d="M252 501 L393 501 L393 549 L252 549 L252 722 L192 722 L192 549 L51 549 L51 501 L192 501 L192 0 L252 0 L252 501 Z " />
<glyph glyph-name="daggerdbl" unicode="&#x2021;" horiz-adv-x="444" d="M252 722 L192 722 L192 559 L51 559 L51 511 L192 511 L192 211 L51 211 L51 163 L192 163 L192 0 L252 0 L252 163 L393 163 L393 211 L252 211 L252 511 L393 511 L393 559 L252 559 L252 722 Z " />
<glyph glyph-name="bullet" unicode="&#x2022;" horiz-adv-x="333" d="M320 361 C320 445 250 515 166 515 C83 515 13 445 13 361 C13 278 83 208 166 208 C250 208 320 278 320 361 L320 361 Z " />
<glyph glyph-name="ellipsis" unicode="&#x2026;" horiz-adv-x="1000" d="M130 0 L204 0 L204 76 L130 76 L130 0 Z M463 0 L537 0 L537 76 L463 76 L463 0 Z M796 0 L870 0 L870 76 L796 76 L796 0 Z " />
<glyph glyph-name="perthousand" unicode="&#x2030;" horiz-adv-x="889" d="M759 -11 C861 -11 879 72 879 159 C879 245 867 330 759 330 C651 330 639 245 639 159 C639 72 657 -11 759 -11 L759 -11 Z M759 37 C693 37 691 113 691 157 C691 203 694 282 759 282 C824 282 827 203 827 157 C827 113 825 37 759 37 L759 37 Z M452 -11 C554 -11 572 72 572 159 C572 245 560 330 452 330 C344 330 332 245 332 159 C332 72 350 -11 452 -11 L452 -11 Z M452 37 C386 37 384 113 384 157 C384 203 387 282 452 282 C517 282 520 203 520 157 C520 113 518 37 452 37 L452 37 Z M130 367 C232 367 250 450 250 537 C250 623 238 708 130 708 C22 708 10 623 10 537 C10 450 28 367 130 367 L130 367 Z M130 415 C64 415 62 491 62 535 C62 581 65 660 130 660 C195 660 198 581 198 535 C198 491 196 415 130 415 L130 415 Z M157 -41 L461 722 L420 722 L114 -41 L157 -41 Z " />
<glyph glyph-name="guilsinglleft" unicode="&#x2039;" horiz-adv-x="222" d="M127 90 L180 90 L104 284 L182 478 L130 478 L40 284 L127 90 Z " />
<glyph glyph-name="guilsinglright" unicode="&#x203a;" horiz-adv-x="222" d="M95 90 L182 284 L92 478 L40 478 L118 284 L42 90 L95 90 Z " />
<glyph glyph-name="fraction" unicode="&#x2044;" horiz-adv-x="167" d="M-162 -29 L-106 -29 L329 722 L274 722 L-162 -29 Z " />
<glyph glyph-name="trademark" unicode="&#x2122;" horiz-adv-x="722" d="M114 289 L166 289 L166 682 L275 682 L275 722 L5 722 L5 682 L114 682 L114 289 Z M371 722 L298 722 L298 289 L350 289 L350 615 L352 615 L483 289 L531 289 L658 615 L660 615 L660 289 L712 289 L712 722 L644 722 L510 368 L508 368 L371 722 Z " />
<glyph glyph-name="minus" unicode="&#x2212;" horiz-adv-x="444" d="M424 279 L20 279 L20 227 L424 227 L424 279 Z " />
<glyph glyph-name="fi" unicode="&#xfb01;" horiz-adv-x="446" d="M383 0 L383 505 L323 505 L323 0 L383 0 Z M390 646 L390 722 L316 722 L316 646 L390 646 Z M100 0 L160 0 L160 457 L262 457 L262 505 L160 505 L160 591 C160 620 160 672 218 672 L263 672 L263 722 C248 724 238 726 229 726 C107 726 100 638 100 590 L100 505 L19 505 L19 457 L100 457 L100 0 Z " />
<glyph glyph-name="fl" unicode="&#xfb02;" horiz-adv-x="446" d="M100 0 L160 0 L160 457 L262 457 L262 505 L160 505 L160 591 C160 620 160 672 218 672 L263 672 L263 722 C248 724 238 726 229 726 C107 726 100 638 100 590 L100 505 L19 505 L19 457 L100 457 L100 0 Z M383 0 L383 722 L323 722 L323 0 L383 0 Z " />
</font>
</svg>
